<?xml version="1.0" encoding="utf-8" standalone="no"?>
<!DOCTYPE svg PUBLIC "-//W3C//DTD SVG 1.1//EN"
  "http://www.w3.org/Graphics/SVG/1.1/DTD/svg11.dtd">
<svg xmlns:xlink="http://www.w3.org/1999/xlink" width="415.542707pt" height="436.441812pt" viewBox="0 0 415.542707 436.441812" xmlns="http://www.w3.org/2000/svg" version="1.1">
 <metadata>
  <rdf:RDF xmlns:dc="http://purl.org/dc/elements/1.1/" xmlns:cc="http://creativecommons.org/ns#" xmlns:rdf="http://www.w3.org/1999/02/22-rdf-syntax-ns#">
   <cc:Work>
    <dc:type rdf:resource="http://purl.org/dc/dcmitype/StillImage"/>
    <dc:date>2026-05-28T08:27:45.272020</dc:date>
    <dc:format>image/svg+xml</dc:format>
    <dc:creator>
     <cc:Agent>
      <dc:title>Matplotlib v3.10.9, https://matplotlib.org/</dc:title>
     </cc:Agent>
    </dc:creator>
   </cc:Work>
  </rdf:RDF>
 </metadata>
 <defs>
  <style type="text/css">*{stroke-linejoin: round; stroke-linecap: butt}</style>
 </defs>
 <g id="figure_1">
  <g id="patch_1">
   <path d="M 0 436.441812 
L 415.542707 436.441812 
L 415.542707 0 
L 0 0 
z
" style="fill: #ffffff"/>
  </g>
  <g id="patch_2">
   <path d="M 16.662707 425.641812 
L 404.742707 425.641812 
L 404.742707 37.561812 
L 16.662707 37.561812 
z
" style="fill: #ffffff"/>
  </g>
  <g id="pane3d_1">
   <g id="patch_3">
    <path d="M 187.907423 246.186134 
L 384.739408 299.486062 
L 390.402964 127.72844 
L 187.022785 83.004158 
" style="fill: #f2f2f2; opacity: 0.5; stroke: #f2f2f2; stroke-linejoin: miter"/>
   </g>
  </g>
  <g id="pane3d_2">
   <g id="patch_4">
    <path d="M 187.907423 246.186134 
L 42.593761 324.363144 
L 36.614581 148.662472 
L 187.022785 83.004158 
" style="fill: #e6e6e6; opacity: 0.5; stroke: #e6e6e6; stroke-linejoin: miter"/>
   </g>
  </g>
  <g id="pane3d_3">
   <g id="patch_5">
    <path d="M 187.907423 246.186134 
L 42.593761 324.363144 
L 248.572934 388.056839 
L 384.739408 299.486062 
" style="fill: #ececec; opacity: 0.5; stroke: #ececec; stroke-linejoin: miter"/>
   </g>
  </g>
  <g id="grid3d_1">
   <g id="Line3DCollection_1">
    <path d="M 374.311773 306.268817 
L 176.722089 252.20371 
L 175.475699 88.044855 
" style="fill: none; stroke: #b0b0b0; stroke-width: 0.8"/>
    <path d="M 356.586703 317.798257 
L 157.730938 262.420722 
L 155.85876 96.608319 
" style="fill: none; stroke: #b0b0b0; stroke-width: 0.8"/>
    <path d="M 338.415392 329.617958 
L 138.290203 272.879604 
L 135.762305 105.381107 
" style="fill: none; stroke: #b0b0b0; stroke-width: 0.8"/>
    <path d="M 319.780775 341.739022 
L 118.383728 283.589049 
L 115.168536 114.37099 
" style="fill: none; stroke: #b0b0b0; stroke-width: 0.8"/>
    <path d="M 300.664904 354.173123 
L 97.994575 294.558169 
L 94.05876 123.586128 
" style="fill: none; stroke: #b0b0b0; stroke-width: 0.8"/>
    <path d="M 281.04889 366.932545 
L 77.104972 305.796526 
L 72.413339 133.035093 
" style="fill: none; stroke: #b0b0b0; stroke-width: 0.8"/>
    <path d="M 260.912847 380.030226 
L 55.696265 317.314154 
L 50.211623 142.726899 
" style="fill: none; stroke: #b0b0b0; stroke-width: 0.8"/>
   </g>
  </g>
  <g id="grid3d_2">
   <g id="Line3DCollection_2">
    <path d="M 203.038695 86.526134 
L 203.435406 250.39094 
L 58.760425 329.362264 
" style="fill: none; stroke: #b0b0b0; stroke-width: 0.8"/>
    <path d="M 230.090887 92.475042 
L 229.652664 257.490284 
L 86.088125 337.812643 
" style="fill: none; stroke: #b0b0b0; stroke-width: 0.8"/>
    <path d="M 257.60173 98.524808 
L 256.300532 264.706233 
L 113.906073 346.414619 
" style="fill: none; stroke: #b0b0b0; stroke-width: 0.8"/>
    <path d="M 285.582989 104.678022 
L 283.389708 272.041683 
L 142.227581 355.172308 
" style="fill: none; stroke: #b0b0b0; stroke-width: 0.8"/>
    <path d="M 314.046832 110.937358 
L 310.931245 279.499627 
L 171.066447 364.089976 
" style="fill: none; stroke: #b0b0b0; stroke-width: 0.8"/>
    <path d="M 343.005853 117.305587 
L 338.93657 287.08316 
L 200.436977 373.172048 
" style="fill: none; stroke: #b0b0b0; stroke-width: 0.8"/>
    <path d="M 372.473087 123.785573 
L 367.417497 294.79548 
L 230.354011 382.423112 
" style="fill: none; stroke: #b0b0b0; stroke-width: 0.8"/>
   </g>
  </g>
  <g id="grid3d_3">
   <g id="Line3DCollection_3">
    <path d="M 42.593761 324.363144 
L 187.907423 246.186134 
L 384.739408 299.486062 
" style="fill: none; stroke: #b0b0b0; stroke-width: 0.8"/>
    <path d="M 41.94917 305.421575 
L 187.811811 228.549409 
L 385.350467 280.954588 
" style="fill: none; stroke: #b0b0b0; stroke-width: 0.8"/>
    <path d="M 41.299767 286.338618 
L 187.715545 210.791995 
L 385.965966 262.288451 
" style="fill: none; stroke: #b0b0b0; stroke-width: 0.8"/>
    <path d="M 40.645499 267.112682 
L 187.618618 192.912647 
L 386.585955 243.486179 
" style="fill: none; stroke: #b0b0b0; stroke-width: 0.8"/>
    <path d="M 39.986311 247.742155 
L 187.521023 174.910106 
L 387.210481 224.546277 
" style="fill: none; stroke: #b0b0b0; stroke-width: 0.8"/>
    <path d="M 39.322146 228.2254 
L 187.422753 156.783095 
L 387.839596 205.467228 
" style="fill: none; stroke: #b0b0b0; stroke-width: 0.8"/>
    <path d="M 38.652949 208.560754 
L 187.323802 138.530316 
L 388.47335 186.247493 
" style="fill: none; stroke: #b0b0b0; stroke-width: 0.8"/>
    <path d="M 37.978661 188.746531 
L 187.224161 120.150459 
L 389.111794 166.885511 
" style="fill: none; stroke: #b0b0b0; stroke-width: 0.8"/>
    <path d="M 37.299225 168.781017 
L 187.123825 101.642189 
L 389.754981 147.379696 
" style="fill: none; stroke: #b0b0b0; stroke-width: 0.8"/>
    <path d="M 36.614581 148.662472 
L 187.022785 83.004158 
L 390.402964 127.72844 
" style="fill: none; stroke: #b0b0b0; stroke-width: 0.8"/>
   </g>
  </g>
  <g id="axis3d_1">
   <g id="line2d_1">
    <path d="M 384.739408 299.486062 
L 248.572934 388.056839 
" style="fill: none; stroke: #000000; stroke-width: 0.6; stroke-linecap: square"/>
   </g>
   <g id="xtick_1">
    <g id="line2d_2">
     <path d="M 372.634035 305.809749 
L 377.672238 307.188318 
" style="fill: none; stroke: #000000; stroke-width: 0.8; stroke-linecap: square"/>
    </g>
    <g id="text_1">
     <!-- −15 -->
     <g transform="translate(377.532481 325.147332) scale(0.08 -0.08)">
      <defs>
       <path id="DejaVuSans-2212" d="M 678 2272 
L 4684 2272 
L 4684 1741 
L 678 1741 
L 678 2272 
z
" transform="scale(0.015625)"/>
       <path id="DejaVuSans-31" d="M 794 531 
L 1825 531 
L 1825 4091 
L 703 3866 
L 703 4441 
L 1819 4666 
L 2450 4666 
L 2450 531 
L 3481 531 
L 3481 0 
L 794 0 
L 794 531 
z
" transform="scale(0.015625)"/>
       <path id="DejaVuSans-35" d="M 691 4666 
L 3169 4666 
L 3169 4134 
L 1269 4134 
L 1269 2991 
Q 1406 3038 1543 3061 
Q 1681 3084 1819 3084 
Q 2600 3084 3056 2656 
Q 3513 2228 3513 1497 
Q 3513 744 3044 326 
Q 2575 -91 1722 -91 
Q 1428 -91 1123 -41 
Q 819 9 494 109 
L 494 744 
Q 775 591 1075 516 
Q 1375 441 1709 441 
Q 2250 441 2565 725 
Q 2881 1009 2881 1497 
Q 2881 1984 2565 2268 
Q 2250 2553 1709 2553 
Q 1456 2553 1204 2497 
Q 953 2441 691 2322 
L 691 4666 
z
" transform="scale(0.015625)"/>
      </defs>
      <use xlink:href="#DejaVuSans-2212"/>
      <use xlink:href="#DejaVuSans-31" transform="translate(83.789062 0)"/>
      <use xlink:href="#DejaVuSans-35" transform="translate(147.412109 0)"/>
     </g>
    </g>
   </g>
   <g id="xtick_2">
    <g id="line2d_3">
     <path d="M 354.897001 317.327707 
L 359.971194 318.740773 
" style="fill: none; stroke: #000000; stroke-width: 0.8; stroke-linecap: square"/>
    </g>
    <g id="text_2">
     <!-- −10 -->
     <g transform="translate(359.922773 336.855584) scale(0.08 -0.08)">
      <defs>
       <path id="DejaVuSans-30" d="M 2034 4250 
Q 1547 4250 1301 3770 
Q 1056 3291 1056 2328 
Q 1056 1369 1301 889 
Q 1547 409 2034 409 
Q 2525 409 2770 889 
Q 3016 1369 3016 2328 
Q 3016 3291 2770 3770 
Q 2525 4250 2034 4250 
z
M 2034 4750 
Q 2819 4750 3233 4129 
Q 3647 3509 3647 2328 
Q 3647 1150 3233 529 
Q 2819 -91 2034 -91 
Q 1250 -91 836 529 
Q 422 1150 422 2328 
Q 422 3509 836 4129 
Q 1250 4750 2034 4750 
z
" transform="scale(0.015625)"/>
      </defs>
      <use xlink:href="#DejaVuSans-2212"/>
      <use xlink:href="#DejaVuSans-31" transform="translate(83.789062 0)"/>
      <use xlink:href="#DejaVuSans-30" transform="translate(147.412109 0)"/>
     </g>
    </g>
   </g>
   <g id="xtick_3">
    <g id="line2d_4">
     <path d="M 336.713653 329.135491 
L 341.82406 330.584364 
" style="fill: none; stroke: #000000; stroke-width: 0.8; stroke-linecap: square"/>
    </g>
    <g id="text_3">
     <!-- −5 -->
     <g transform="translate(344.413973 348.859101) scale(0.08 -0.08)">
      <use xlink:href="#DejaVuSans-2212"/>
      <use xlink:href="#DejaVuSans-35" transform="translate(83.789062 0)"/>
     </g>
    </g>
   </g>
   <g id="xtick_4">
    <g id="line2d_5">
     <path d="M 318.066929 341.244178 
L 323.213761 342.730238 
" style="fill: none; stroke: #000000; stroke-width: 0.8; stroke-linecap: square"/>
    </g>
    <g id="text_4">
     <!-- 0 -->
     <g transform="translate(329.250942 361.169197) scale(0.08 -0.08)">
      <use xlink:href="#DejaVuSans-30"/>
     </g>
    </g>
   </g>
   <g id="xtick_5">
    <g id="line2d_6">
     <path d="M 298.938889 353.66542 
L 304.122333 355.190116 
" style="fill: none; stroke: #000000; stroke-width: 0.8; stroke-linecap: square"/>
    </g>
    <g id="text_5">
     <!-- 5 -->
     <g transform="translate(310.257036 373.797767) scale(0.08 -0.08)">
      <use xlink:href="#DejaVuSans-35"/>
     </g>
    </g>
   </g>
   <g id="xtick_6">
    <g id="line2d_7">
     <path d="M 279.310652 366.411475 
L 284.530876 367.976335 
" style="fill: none; stroke: #000000; stroke-width: 0.8; stroke-linecap: square"/>
    </g>
    <g id="text_6">
     <!-- 10 -->
     <g transform="translate(288.220299 386.757333) scale(0.08 -0.08)">
      <use xlink:href="#DejaVuSans-31"/>
      <use xlink:href="#DejaVuSans-30" transform="translate(63.623047 0)"/>
     </g>
    </g>
   </g>
   <g id="xtick_7">
    <g id="line2d_8">
     <path d="M 259.162339 379.495255 
L 264.419483 381.101886 
" style="fill: none; stroke: #000000; stroke-width: 0.8; stroke-linecap: square"/>
    </g>
    <g id="text_7">
     <!-- 15 -->
     <g transform="translate(268.210897 400.061081) scale(0.08 -0.08)">
      <use xlink:href="#DejaVuSans-31"/>
      <use xlink:href="#DejaVuSans-35" transform="translate(63.623047 0)"/>
     </g>
    </g>
   </g>
  </g>
  <g id="axis3d_2">
   <g id="line2d_9">
    <path d="M 42.593761 324.363144 
L 248.572934 388.056839 
" style="fill: none; stroke: #000000; stroke-width: 0.6; stroke-linecap: square"/>
   </g>
   <g id="xtick_8">
    <g id="line2d_10">
     <path d="M 60.02178 328.673749 
L 56.23222 330.742292 
" style="fill: none; stroke: #000000; stroke-width: 0.8; stroke-linecap: square"/>
    </g>
    <g id="text_8">
     <!-- −15 -->
     <g transform="translate(41.612847 350.093664) scale(0.08 -0.08)">
      <use xlink:href="#DejaVuSans-2212"/>
      <use xlink:href="#DejaVuSans-31" transform="translate(83.789062 0)"/>
      <use xlink:href="#DejaVuSans-35" transform="translate(147.412109 0)"/>
     </g>
    </g>
   </g>
   <g id="xtick_9">
    <g id="line2d_11">
     <path d="M 87.340715 337.111836 
L 83.57744 339.217336 
" style="fill: none; stroke: #000000; stroke-width: 0.8; stroke-linecap: square"/>
    </g>
    <g id="text_9">
     <!-- −10 -->
     <g transform="translate(68.952748 358.702519) scale(0.08 -0.08)">
      <use xlink:href="#DejaVuSans-2212"/>
      <use xlink:href="#DejaVuSans-31" transform="translate(83.789062 0)"/>
      <use xlink:href="#DejaVuSans-30" transform="translate(147.412109 0)"/>
     </g>
    </g>
   </g>
   <g id="xtick_10">
    <g id="line2d_12">
     <path d="M 115.14938 345.701189 
L 111.413947 347.844644 
" style="fill: none; stroke: #000000; stroke-width: 0.8; stroke-linecap: square"/>
    </g>
    <g id="text_10">
     <!-- −5 -->
     <g transform="translate(99.329742 367.466325) scale(0.08 -0.08)">
      <use xlink:href="#DejaVuSans-2212"/>
      <use xlink:href="#DejaVuSans-35" transform="translate(83.789062 0)"/>
     </g>
    </g>
   </g>
   <g id="xtick_11">
    <g id="line2d_13">
     <path d="M 143.461061 354.445909 
L 139.755102 356.628355 
" style="fill: none; stroke: #000000; stroke-width: 0.8; stroke-linecap: square"/>
    </g>
    <g id="text_11">
     <!-- 0 -->
     <g transform="translate(131.019112 376.389304) scale(0.08 -0.08)">
      <use xlink:href="#DejaVuSans-30"/>
     </g>
    </g>
   </g>
   <g id="xtick_12">
    <g id="line2d_14">
     <path d="M 172.289533 363.350253 
L 168.614752 365.572763 
" style="fill: none; stroke: #000000; stroke-width: 0.8; stroke-linecap: square"/>
    </g>
    <g id="text_12">
     <!-- 5 -->
     <g transform="translate(159.876006 385.475833) scale(0.08 -0.08)">
      <use xlink:href="#DejaVuSans-35"/>
     </g>
    </g>
   </g>
   <g id="xtick_13">
    <g id="line2d_15">
     <path d="M 201.649075 372.418629 
L 198.007258 374.682318 
" style="fill: none; stroke: #000000; stroke-width: 0.8; stroke-linecap: square"/>
    </g>
    <g id="text_13">
     <!-- 10 -->
     <g transform="translate(186.72171 394.730449) scale(0.08 -0.08)">
      <use xlink:href="#DejaVuSans-31"/>
      <use xlink:href="#DejaVuSans-30" transform="translate(63.623047 0)"/>
     </g>
    </g>
   </g>
   <g id="xtick_14">
    <g id="line2d_16">
     <path d="M 231.554499 381.655614 
L 227.947515 383.961636 
" style="fill: none; stroke: #000000; stroke-width: 0.8; stroke-linecap: square"/>
    </g>
    <g id="text_14">
     <!-- 15 -->
     <g transform="translate(216.661176 404.157861) scale(0.08 -0.08)">
      <use xlink:href="#DejaVuSans-31"/>
      <use xlink:href="#DejaVuSans-35" transform="translate(63.623047 0)"/>
     </g>
    </g>
   </g>
  </g>
  <g id="axis3d_3">
   <g id="line2d_17">
    <path d="M 42.593761 324.363144 
L 36.614581 148.662472 
" style="fill: none; stroke: #000000; stroke-width: 0.6; stroke-linecap: square"/>
   </g>
   <g id="xtick_15">
    <g id="line2d_18">
     <path d="M 43.860136 323.681849 
L 40.055524 325.728684 
" style="fill: none; stroke: #000000; stroke-width: 0.8; stroke-linecap: square"/>
    </g>
    <g id="text_15">
     <!-- −20 -->
     <g transform="translate(14.12856 331.897771) scale(0.08 -0.08)">
      <defs>
       <path id="DejaVuSans-32" d="M 1228 531 
L 3431 531 
L 3431 0 
L 469 0 
L 469 531 
Q 828 903 1448 1529 
Q 2069 2156 2228 2338 
Q 2531 2678 2651 2914 
Q 2772 3150 2772 3378 
Q 2772 3750 2511 3984 
Q 2250 4219 1831 4219 
Q 1534 4219 1204 4116 
Q 875 4013 500 3803 
L 500 4441 
Q 881 4594 1212 4672 
Q 1544 4750 1819 4750 
Q 2544 4750 2975 4387 
Q 3406 4025 3406 3419 
Q 3406 3131 3298 2873 
Q 3191 2616 2906 2266 
Q 2828 2175 2409 1742 
Q 1991 1309 1228 531 
z
" transform="scale(0.015625)"/>
      </defs>
      <use xlink:href="#DejaVuSans-2212"/>
      <use xlink:href="#DejaVuSans-32" transform="translate(83.789062 0)"/>
      <use xlink:href="#DejaVuSans-30" transform="translate(147.412109 0)"/>
     </g>
    </g>
   </g>
   <g id="xtick_16">
    <g id="line2d_19">
     <path d="M 43.220716 304.751448 
L 39.400547 306.764744 
" style="fill: none; stroke: #000000; stroke-width: 0.8; stroke-linecap: square"/>
    </g>
    <g id="text_16">
     <!-- −15 -->
     <g transform="translate(13.408404 312.93235) scale(0.08 -0.08)">
      <use xlink:href="#DejaVuSans-2212"/>
      <use xlink:href="#DejaVuSans-31" transform="translate(83.789062 0)"/>
      <use xlink:href="#DejaVuSans-35" transform="translate(147.412109 0)"/>
     </g>
    </g>
   </g>
   <g id="xtick_17">
    <g id="line2d_20">
     <path d="M 42.576528 285.679844 
L 38.740674 287.659041 
" style="fill: none; stroke: #000000; stroke-width: 0.8; stroke-linecap: square"/>
    </g>
    <g id="text_17">
     <!-- −10 -->
     <g transform="translate(12.682864 293.825144) scale(0.08 -0.08)">
      <use xlink:href="#DejaVuSans-2212"/>
      <use xlink:href="#DejaVuSans-31" transform="translate(83.789062 0)"/>
      <use xlink:href="#DejaVuSans-30" transform="translate(147.412109 0)"/>
     </g>
    </g>
   </g>
   <g id="xtick_18">
    <g id="line2d_21">
     <path d="M 41.927516 266.46545 
L 38.07585 268.409981 
" style="fill: none; stroke: #000000; stroke-width: 0.8; stroke-linecap: square"/>
    </g>
    <g id="text_18">
     <!-- −5 -->
     <g transform="translate(14.496879 274.574554) scale(0.08 -0.08)">
      <use xlink:href="#DejaVuSans-2212"/>
      <use xlink:href="#DejaVuSans-35" transform="translate(83.789062 0)"/>
     </g>
    </g>
   </g>
   <g id="xtick_19">
    <g id="line2d_22">
     <path d="M 41.273627 247.106658 
L 37.406018 249.015944 
" style="fill: none; stroke: #000000; stroke-width: 0.8; stroke-linecap: square"/>
    </g>
    <g id="text_19">
     <!-- 0 -->
     <g transform="translate(17.112263 255.178962) scale(0.08 -0.08)">
      <use xlink:href="#DejaVuSans-30"/>
     </g>
    </g>
   </g>
   <g id="xtick_20">
    <g id="line2d_23">
     <path d="M 40.614805 227.601834 
L 36.731122 229.475285 
" style="fill: none; stroke: #000000; stroke-width: 0.8; stroke-linecap: square"/>
    </g>
    <g id="text_20">
     <!-- 5 -->
     <g transform="translate(16.370204 235.636722) scale(0.08 -0.08)">
      <use xlink:href="#DejaVuSans-35"/>
     </g>
    </g>
   </g>
   <g id="xtick_21">
    <g id="line2d_24">
     <path d="M 39.950995 207.949318 
L 36.051105 209.786336 
" style="fill: none; stroke: #000000; stroke-width: 0.8; stroke-linecap: square"/>
    </g>
    <g id="text_21">
     <!-- 10 -->
     <g transform="translate(13.077513 215.946166) scale(0.08 -0.08)">
      <use xlink:href="#DejaVuSans-31"/>
      <use xlink:href="#DejaVuSans-30" transform="translate(63.623047 0)"/>
     </g>
    </g>
   </g>
   <g id="xtick_22">
    <g id="line2d_25">
     <path d="M 39.282139 188.147428 
L 35.365908 189.947402 
" style="fill: none; stroke: #000000; stroke-width: 0.8; stroke-linecap: square"/>
    </g>
    <g id="text_22">
     <!-- 15 -->
     <g transform="translate(12.324126 196.105598) scale(0.08 -0.08)">
      <use xlink:href="#DejaVuSans-31"/>
      <use xlink:href="#DejaVuSans-35" transform="translate(63.623047 0)"/>
     </g>
    </g>
   </g>
   <g id="xtick_23">
    <g id="line2d_26">
     <path d="M 38.60818 168.194453 
L 34.67547 169.956764 
" style="fill: none; stroke: #000000; stroke-width: 0.8; stroke-linecap: square"/>
    </g>
    <g id="text_23">
     <!-- 20 -->
     <g transform="translate(11.564977 176.113298) scale(0.08 -0.08)">
      <use xlink:href="#DejaVuSans-32"/>
      <use xlink:href="#DejaVuSans-30" transform="translate(63.623047 0)"/>
     </g>
    </g>
   </g>
   <g id="xtick_24">
    <g id="line2d_27">
     <path d="M 37.929059 148.088658 
L 33.979733 149.812673 
" style="fill: none; stroke: #000000; stroke-width: 0.8; stroke-linecap: square"/>
    </g>
    <g id="text_24">
     <!-- 25 -->
     <g transform="translate(10.8 155.967518) scale(0.08 -0.08)">
      <use xlink:href="#DejaVuSans-32"/>
      <use xlink:href="#DejaVuSans-35" transform="translate(63.623047 0)"/>
     </g>
    </g>
   </g>
  </g>
  <g id="axes_1">
   <g id="line2d_28">
    <path d="M 179.790258 313.889614 
L 188.319865 314.790724 
L 197.596807 315.105952 
L 207.374182 314.793561 
L 217.388553 313.829819 
L 227.368516 312.209941 
L 237.043692 309.948267 
L 246.153665 307.077672 
L 254.456403 303.648231 
L 261.735724 299.725249 
L 267.807483 295.386771 
L 272.524261 290.720741 
L 275.778429 285.821976 
L 277.503631 280.789107 
L 277.674778 275.721641 
L 276.306758 270.717244 
L 273.452096 265.869332 
L 269.197817 261.265012 
L 263.661768 256.983386 
L 256.988605 253.094203 
L 249.345649 249.656842 
L 240.918716 246.719562 
L 231.908028 244.318996 
L 222.524228 242.479825 
L 212.984513 241.214609 
L 203.508846 240.523732 
L 194.316208 240.395454 
L 185.620827 240.806062 
L 177.628333 241.720134 
L 170.531812 243.090926 
L 164.507723 244.860931 
L 159.711723 246.962638 
L 156.274448 249.319539 
L 154.297371 251.847415 
L 153.848895 254.455945 
L 154.96089 257.050642 
L 157.625908 259.535118 
L 161.795354 261.813626 
L 167.378839 263.793839 
L 174.244968 265.389737 
L 182.223689 266.524496 
L 191.110294 267.133219 
L 200.671006 267.165356 
L 210.649987 266.586654 
L 220.777469 265.380515 
L 230.77863 263.548652 
L 240.382728 261.111006 
L 249.33203 258.104926 
L 257.390051 254.58366 
L 264.348711 250.614273 
L 270.034097 246.275116 
L 274.310651 241.653021 
L 277.083712 236.840361 
L 278.300474 231.932143 
L 277.9495 227.023254 
L 276.059017 222.205949 
L 272.694233 217.567666 
L 267.95394 213.189173 
L 261.966653 209.143076 
L 254.886492 205.492647 
L 246.888973 202.290958 
L 238.166824 199.580253 
L 228.925899 197.391548 
L 219.381217 195.744376 
L 209.753102 194.646676 
L 200.263404 194.094785 
L 191.131729 194.073525 
L 182.571639 194.556381 
L 174.786754 195.50579 
L 167.966739 196.87357 
L 162.283152 198.6015 
L 157.885213 200.622123 
L 154.895551 202.859787 
L 153.406069 205.23197 
L 153.474112 207.650918 
L 155.119145 210.025595 
L 158.320215 212.263941 
L 163.014443 214.275384 
L 169.096813 215.973538 
L 176.42146 217.278982 
L 184.804578 218.121986 
L 194.029006 218.445038 
L 203.850375 218.205025 
L 214.004614 217.374912 
L 224.216485 215.944824 
L 234.208702 213.922432 
L 243.711173 211.332625 
L 252.469853 208.216486 
L 260.25476 204.629647 
L 266.866767 200.640125 
L 272.142908 196.32579 
L 275.960044 191.771619 
L 278.236869 187.06688 
L 278.934353 182.302387 
L 278.054783 177.567945 
L 275.639667 172.950058 
L 271.766727 168.529954 
L 266.546272 164.381945 
L 260.117182 160.572125 
L 252.642694 157.157359 
L 244.306155 154.184562 
L 235.306828 151.690185 
L 225.855827 149.699897 
L 216.172167 148.228406 
L 206.47892 147.279393 
L 196.99943 146.845543 
L 187.953531 146.908662 
L 179.553694 147.439882 
L 172.001078 148.399981 
L 165.48144 149.739831 
L 160.160924 151.401017 
L 156.181763 153.316668 
L 153.658011 155.41253 
L 152.67143 157.608321 
L 153.267749 159.819387 
L 155.453523 161.95865 
L 159.193859 163.938846 
L 164.411281 165.674978 
L 170.985975 167.086926 
L 178.757605 168.102083 
" clip-path="url(#p372615e86d)" style="fill: none; stroke: #8e44ad; stroke-width: 3.5; stroke-linecap: square"/>
   </g>
   <g id="line2d_29">
    <path d="M 277.489409 295.200041 
L 277.317147 290.09019 
L 275.61881 285.065493 
L 272.454629 280.219466 
L 267.918471 275.638827 
L 262.134081 271.401858 
L 255.251044 267.577113 
L 247.440635 264.222439 
L 238.891678 261.384278 
L 229.806484 259.09719 
L 220.396903 257.383556 
L 210.880482 256.253435 
L 201.476699 255.704527 
L 192.403214 255.722249 
L 183.872097 256.279909 
L 176.085965 257.339001 
L 169.234016 258.849631 
L 163.48793 260.75113 
L 158.997689 262.972873 
L 155.88738 265.435364 
L 154.251102 268.051614 
L 154.149159 270.728846 
L 155.604739 273.370536 
L 158.601339 275.878779 
L 163.081185 278.156928 
L 168.944903 280.112447 
L 176.05264 281.659854 
L 184.226775 282.723625 
L 193.256273 283.240913 
L 202.90258 283.163904 
L 212.906888 282.461678 
L 222.998435 281.121433 
L 232.903437 279.14899 
L 242.354189 276.568543 
L 251.09784 273.421671 
L 258.904391 269.765666 
L 265.573539 265.671318 
L 270.940087 261.220272 
L 274.87775 256.502137 
L 277.301344 251.611508 
L 278.167404 246.645033 
L 277.473422 241.698671 
L 275.255917 236.86521 
L 271.58758 232.232116 
L 266.573782 227.879735 
L 260.348646 223.879846 
L 253.070917 220.294541 
L 244.919759 217.175395 
L 236.090606 214.562889 
L 226.791105 212.486019 
L 217.23719 210.962087 
L 207.64925 209.996597 
L 198.248359 209.583274 
L 189.252512 209.704163 
L 180.872814 210.329841 
L 173.309561 211.419735 
L 166.748205 212.922586 
L 161.355191 214.777093 
L 157.273727 216.912772 
L 154.619554 219.251083 
L 153.476885 221.70684 
L 153.894676 224.18995 
L 155.883479 226.607468 
L 159.413122 228.865949 
L 164.411481 230.874054 
L 170.764597 232.545316 
L 178.318311 233.800965 
L 186.881545 234.572663 
L 196.231229 234.805007 
L 206.118749 234.457641 
L 216.277688 233.506843 
L 226.432489 231.946467 
L 236.307611 229.788182 
L 245.636689 227.060979 
L 254.171196 223.80999 
L 261.688193 220.09469 
L 267.996786 215.986607 
L 272.943055 211.566695 
L 276.413347 206.922513 
L 278.335922 202.145373 
L 278.68107 197.327587 
L 277.459898 192.559918 
L 274.722016 187.929322 
L 270.552389 183.517011 
L 265.067629 179.396857 
L 258.411923 175.634136 
L 250.752825 172.284564 
L 242.277022 169.393609 
L 233.186182 166.996012 
L 223.692914 165.115494 
L 214.016856 163.764597 
L 204.380857 162.94464 
L 195.007199 162.645766 
L 186.113808 162.847077 
L 177.910391 163.51687 
L 170.594466 164.612981 
L 164.347249 166.083285 
L 159.329429 167.866365 
L 155.676884 169.892411 
L 153.496446 172.084376 
L 152.86187 174.359419 
L 153.810221 176.630659 
L 156.338924 178.809228 
L 160.403732 180.806598 
L 165.917886 182.537127 
L 172.752711 183.920722 
L 180.739788 184.885521 
L 189.674826 185.370442 
L 199.323163 185.327459 
L 209.426761 184.723457 
L 219.712391 183.541549 
L 229.900627 181.781743 
L 239.715173 179.460932 
L 248.892025 176.612188 
L 257.187976 173.283412 
L 264.388057 169.535446 
L 270.311566 165.439754 
L 274.816498 161.075827 
L 277.802299 156.528475 
L 279.210971 151.885115 
" clip-path="url(#p372615e86d)" style="fill: none; stroke: #8e44ad; stroke-width: 3.5; stroke-linecap: square"/>
   </g>
   <g id="line2d_30">
    <path d="M 190.528277 270.99811 
L 182.170518 271.703931 
L 174.598941 272.908219 
L 167.998669 274.557895 
L 162.536414 276.589107 
L 158.356301 278.92812 
L 155.575696 281.492479 
L 154.281174 284.192478 
L 154.524819 286.932972 
L 156.321062 289.615519 
L 159.644322 292.140843 
L 164.427695 294.411575 
L 170.562937 296.33517 
L 177.901933 297.826896 
L 186.25977 298.812752 
L 195.419424 299.232155 
L 205.137964 299.040233 
L 215.154047 298.209574 
L 225.196367 296.731315 
L 234.992623 294.615493 
L 244.278557 291.890616 
L 252.806555 288.602508 
L 260.353392 284.812486 
L 266.726751 280.595001 
L 271.770271 276.0349 
L 275.366984 271.224456 
L 277.441144 266.26035 
L 277.958531 261.240732 
L 276.925413 256.262489 
L 274.38641 251.418793 
L 270.421488 246.797002 
L 265.142368 242.476906 
L 258.688554 238.52933 
L 251.223191 235.015068 
L 242.928875 231.984091 
L 234.003537 229.475006 
L 224.656419 227.514702 
L 215.104181 226.118151 
L 205.567092 225.28834 
L 196.265268 225.016299 
L 187.414913 225.28123 
L 179.224488 226.050738 
L 171.890776 227.281188 
L 165.594828 228.918212 
L 160.497789 230.89741 
L 156.73667 233.145279 
L 154.420159 235.580419 
L 153.624633 238.115042 
L 154.390553 240.656809 
L 156.719496 243.110987 
L 160.57207 245.3829 
L 165.866977 247.380621 
L 172.481458 249.017804 
L 180.253287 250.216542 
L 188.984414 250.91011 
L 198.446226 251.045426 
L 208.386284 250.58509 
L 218.53627 249.50886 
L 228.620769 247.814457 
L 238.366425 245.517644 
L 247.510992 242.651569 
L 255.811807 239.265423 
L 263.053237 235.422494 
L 269.052797 231.197761 
L 273.665712 226.675167 
L 276.787824 221.944737 
L 278.356899 217.099699 
L 278.35243 212.233722 
L 276.794171 207.438388 
L 273.739633 202.800964 
L 269.280808 198.402506 
L 263.540373 194.31632 
L 256.667596 190.606739 
L 248.834124 187.328215 
L 240.22977 184.524658 
L 231.058396 182.228996 
L 221.533914 180.462905 
L 211.876398 179.236669 
L 202.308288 178.549159 
L 193.050621 178.387896 
L 184.319231 178.729207 
L 176.320877 179.538489 
L 169.249244 180.77059 
L 163.280816 182.370354 
L 158.570639 184.273345 
L 155.248056 186.406826 
L 153.412512 188.690989 
L 153.129621 191.040501 
L 154.427691 193.36635 
L 157.294971 195.578005 
L 161.677879 197.585833 
L 167.480476 199.303725 
L 174.565391 200.651821 
L 182.75638 201.559217 
L 191.842545 201.966508 
L 201.584171 201.82802 
L 211.719982 201.113588 
L 221.975515 199.809751 
L 232.072186 197.920292 
L 241.73659 195.466062 
L 250.709518 192.48412 
L 258.754224 189.026237 
L 265.663551 185.156863 
L 271.2656 180.950703 
L 275.427774 176.490042 
L 278.059159 171.861978 
L 279.111289 167.155694 
L 278.577477 162.459895 
L 276.49093 157.860493 
L 272.921904 153.438597 
L 267.974183 149.268827 
L 261.781104 145.417967 
L 254.501362 141.943917 
L 246.31474 138.894924 
L 237.417896 136.309047 
L 228.020248 134.213803 
L 218.339995 132.62597 
L 208.60025 131.551504 
L 199.025238 130.98555 
L 189.836514 130.912541 
" clip-path="url(#p372615e86d)" style="fill: none; stroke: #8e44ad; stroke-width: 3.5; stroke-linecap: square"/>
   </g>
   <g id="line2d_31">
    <path d="M 215.947031 289.261023 
L 167.33166 317.200297 
" clip-path="url(#p372615e86d)" style="fill: none; stroke: #3498db; stroke-width: 4; stroke-linecap: square"/>
   </g>
   <g id="line2d_32">
    <path d="M 215.947031 289.261023 
L 261.751162 262.937369 
" clip-path="url(#p372615e86d)" style="fill: none; stroke: #3498db; stroke-width: 4; stroke-linecap: square"/>
   </g>
   <g id="text_25">
    <!-- HVAT Rotor Detail Cutaway -->
    <g transform="translate(126.848332 19.158281) scale(0.11 -0.11)">
     <defs>
      <path id="DejaVuSans-Bold-48" d="M 588 4666 
L 1791 4666 
L 1791 2888 
L 3566 2888 
L 3566 4666 
L 4769 4666 
L 4769 0 
L 3566 0 
L 3566 1978 
L 1791 1978 
L 1791 0 
L 588 0 
L 588 4666 
z
" transform="scale(0.015625)"/>
      <path id="DejaVuSans-Bold-56" d="M 31 4666 
L 1241 4666 
L 2478 1222 
L 3713 4666 
L 4922 4666 
L 3194 0 
L 1759 0 
L 31 4666 
z
" transform="scale(0.015625)"/>
      <path id="DejaVuSans-Bold-41" d="M 3419 850 
L 1538 850 
L 1241 0 
L 31 0 
L 1759 4666 
L 3194 4666 
L 4922 0 
L 3713 0 
L 3419 850 
z
M 1838 1716 
L 3116 1716 
L 2478 3572 
L 1838 1716 
z
" transform="scale(0.015625)"/>
      <path id="DejaVuSans-Bold-54" d="M 31 4666 
L 4331 4666 
L 4331 3756 
L 2784 3756 
L 2784 0 
L 1581 0 
L 1581 3756 
L 31 3756 
L 31 4666 
z
" transform="scale(0.015625)"/>
      <path id="DejaVuSans-Bold-20" transform="scale(0.015625)"/>
      <path id="DejaVuSans-Bold-52" d="M 2297 2597 
Q 2675 2597 2839 2737 
Q 3003 2878 3003 3200 
Q 3003 3519 2839 3656 
Q 2675 3794 2297 3794 
L 1791 3794 
L 1791 2597 
L 2297 2597 
z
M 1791 1766 
L 1791 0 
L 588 0 
L 588 4666 
L 2425 4666 
Q 3347 4666 3776 4356 
Q 4206 4047 4206 3378 
Q 4206 2916 3982 2619 
Q 3759 2322 3309 2181 
Q 3556 2125 3751 1926 
Q 3947 1728 4147 1325 
L 4800 0 
L 3519 0 
L 2950 1159 
Q 2778 1509 2601 1637 
Q 2425 1766 2131 1766 
L 1791 1766 
z
" transform="scale(0.015625)"/>
      <path id="DejaVuSans-Bold-6f" d="M 2203 2784 
Q 1831 2784 1636 2517 
Q 1441 2250 1441 1747 
Q 1441 1244 1636 976 
Q 1831 709 2203 709 
Q 2569 709 2762 976 
Q 2956 1244 2956 1747 
Q 2956 2250 2762 2517 
Q 2569 2784 2203 2784 
z
M 2203 3584 
Q 3106 3584 3614 3096 
Q 4122 2609 4122 1747 
Q 4122 884 3614 396 
Q 3106 -91 2203 -91 
Q 1297 -91 786 396 
Q 275 884 275 1747 
Q 275 2609 786 3096 
Q 1297 3584 2203 3584 
z
" transform="scale(0.015625)"/>
      <path id="DejaVuSans-Bold-74" d="M 1759 4494 
L 1759 3500 
L 2913 3500 
L 2913 2700 
L 1759 2700 
L 1759 1216 
Q 1759 972 1856 886 
Q 1953 800 2241 800 
L 2816 800 
L 2816 0 
L 1856 0 
Q 1194 0 917 276 
Q 641 553 641 1216 
L 641 2700 
L 84 2700 
L 84 3500 
L 641 3500 
L 641 4494 
L 1759 4494 
z
" transform="scale(0.015625)"/>
      <path id="DejaVuSans-Bold-72" d="M 3138 2547 
Q 2991 2616 2845 2648 
Q 2700 2681 2553 2681 
Q 2122 2681 1889 2404 
Q 1656 2128 1656 1613 
L 1656 0 
L 538 0 
L 538 3500 
L 1656 3500 
L 1656 2925 
Q 1872 3269 2151 3426 
Q 2431 3584 2822 3584 
Q 2878 3584 2943 3579 
Q 3009 3575 3134 3559 
L 3138 2547 
z
" transform="scale(0.015625)"/>
      <path id="DejaVuSans-Bold-44" d="M 1791 3756 
L 1791 909 
L 2222 909 
Q 2959 909 3348 1275 
Q 3738 1641 3738 2338 
Q 3738 3031 3350 3393 
Q 2963 3756 2222 3756 
L 1791 3756 
z
M 588 4666 
L 1856 4666 
Q 2919 4666 3439 4514 
Q 3959 4363 4331 4000 
Q 4659 3684 4818 3271 
Q 4978 2859 4978 2338 
Q 4978 1809 4818 1395 
Q 4659 981 4331 666 
Q 3956 303 3431 151 
Q 2906 0 1856 0 
L 588 0 
L 588 4666 
z
" transform="scale(0.015625)"/>
      <path id="DejaVuSans-Bold-65" d="M 4031 1759 
L 4031 1441 
L 1416 1441 
Q 1456 1047 1700 850 
Q 1944 653 2381 653 
Q 2734 653 3104 758 
Q 3475 863 3866 1075 
L 3866 213 
Q 3469 63 3072 -14 
Q 2675 -91 2278 -91 
Q 1328 -91 801 392 
Q 275 875 275 1747 
Q 275 2603 792 3093 
Q 1309 3584 2216 3584 
Q 3041 3584 3536 3087 
Q 4031 2591 4031 1759 
z
M 2881 2131 
Q 2881 2450 2695 2645 
Q 2509 2841 2209 2841 
Q 1884 2841 1681 2658 
Q 1478 2475 1428 2131 
L 2881 2131 
z
" transform="scale(0.015625)"/>
      <path id="DejaVuSans-Bold-61" d="M 2106 1575 
Q 1756 1575 1579 1456 
Q 1403 1338 1403 1106 
Q 1403 894 1545 773 
Q 1688 653 1941 653 
Q 2256 653 2472 879 
Q 2688 1106 2688 1447 
L 2688 1575 
L 2106 1575 
z
M 3816 1997 
L 3816 0 
L 2688 0 
L 2688 519 
Q 2463 200 2181 54 
Q 1900 -91 1497 -91 
Q 953 -91 614 226 
Q 275 544 275 1050 
Q 275 1666 698 1953 
Q 1122 2241 2028 2241 
L 2688 2241 
L 2688 2328 
Q 2688 2594 2478 2717 
Q 2269 2841 1825 2841 
Q 1466 2841 1156 2769 
Q 847 2697 581 2553 
L 581 3406 
Q 941 3494 1303 3539 
Q 1666 3584 2028 3584 
Q 2975 3584 3395 3211 
Q 3816 2838 3816 1997 
z
" transform="scale(0.015625)"/>
      <path id="DejaVuSans-Bold-69" d="M 538 3500 
L 1656 3500 
L 1656 0 
L 538 0 
L 538 3500 
z
M 538 4863 
L 1656 4863 
L 1656 3950 
L 538 3950 
L 538 4863 
z
" transform="scale(0.015625)"/>
      <path id="DejaVuSans-Bold-6c" d="M 538 4863 
L 1656 4863 
L 1656 0 
L 538 0 
L 538 4863 
z
" transform="scale(0.015625)"/>
      <path id="DejaVuSans-Bold-43" d="M 4288 256 
Q 3956 84 3597 -3 
Q 3238 -91 2847 -91 
Q 1681 -91 1000 561 
Q 319 1213 319 2328 
Q 319 3447 1000 4098 
Q 1681 4750 2847 4750 
Q 3238 4750 3597 4662 
Q 3956 4575 4288 4403 
L 4288 3438 
Q 3953 3666 3628 3772 
Q 3303 3878 2944 3878 
Q 2300 3878 1931 3465 
Q 1563 3053 1563 2328 
Q 1563 1606 1931 1193 
Q 2300 781 2944 781 
Q 3303 781 3628 887 
Q 3953 994 4288 1222 
L 4288 256 
z
" transform="scale(0.015625)"/>
      <path id="DejaVuSans-Bold-75" d="M 500 1363 
L 500 3500 
L 1625 3500 
L 1625 3150 
Q 1625 2866 1622 2436 
Q 1619 2006 1619 1863 
Q 1619 1441 1641 1255 
Q 1663 1069 1716 984 
Q 1784 875 1895 815 
Q 2006 756 2150 756 
Q 2500 756 2700 1025 
Q 2900 1294 2900 1772 
L 2900 3500 
L 4019 3500 
L 4019 0 
L 2900 0 
L 2900 506 
Q 2647 200 2364 54 
Q 2081 -91 1741 -91 
Q 1134 -91 817 281 
Q 500 653 500 1363 
z
" transform="scale(0.015625)"/>
      <path id="DejaVuSans-Bold-77" d="M 225 3500 
L 1313 3500 
L 1900 1088 
L 2491 3500 
L 3425 3500 
L 4013 1113 
L 4603 3500 
L 5691 3500 
L 4769 0 
L 3547 0 
L 2956 2406 
L 2369 0 
L 1147 0 
L 225 3500 
z
" transform="scale(0.015625)"/>
      <path id="DejaVuSans-Bold-79" d="M 78 3500 
L 1197 3500 
L 2138 1125 
L 2938 3500 
L 4056 3500 
L 2584 -331 
Q 2363 -916 2067 -1148 
Q 1772 -1381 1288 -1381 
L 641 -1381 
L 641 -647 
L 991 -647 
Q 1275 -647 1404 -556 
Q 1534 -466 1606 -231 
L 1638 -134 
L 78 3500 
z
" transform="scale(0.015625)"/>
     </defs>
     <use xlink:href="#DejaVuSans-Bold-48"/>
     <use xlink:href="#DejaVuSans-Bold-56" transform="translate(83.691406 0)"/>
     <use xlink:href="#DejaVuSans-Bold-41" transform="translate(154.333984 0)"/>
     <use xlink:href="#DejaVuSans-Bold-54" transform="translate(223.976562 0)"/>
     <use xlink:href="#DejaVuSans-Bold-20" transform="translate(292.189453 0)"/>
     <use xlink:href="#DejaVuSans-Bold-52" transform="translate(327.003906 0)"/>
     <use xlink:href="#DejaVuSans-Bold-6f" transform="translate(404.005859 0)"/>
     <use xlink:href="#DejaVuSans-Bold-74" transform="translate(472.707031 0)"/>
     <use xlink:href="#DejaVuSans-Bold-6f" transform="translate(520.509766 0)"/>
     <use xlink:href="#DejaVuSans-Bold-72" transform="translate(589.210938 0)"/>
     <use xlink:href="#DejaVuSans-Bold-20" transform="translate(638.527344 0)"/>
     <use xlink:href="#DejaVuSans-Bold-44" transform="translate(673.341797 0)"/>
     <use xlink:href="#DejaVuSans-Bold-65" transform="translate(756.349609 0)"/>
     <use xlink:href="#DejaVuSans-Bold-74" transform="translate(824.171875 0)"/>
     <use xlink:href="#DejaVuSans-Bold-61" transform="translate(871.974609 0)"/>
     <use xlink:href="#DejaVuSans-Bold-69" transform="translate(939.455078 0)"/>
     <use xlink:href="#DejaVuSans-Bold-6c" transform="translate(973.732422 0)"/>
     <use xlink:href="#DejaVuSans-Bold-20" transform="translate(1008.009766 0)"/>
     <use xlink:href="#DejaVuSans-Bold-43" transform="translate(1042.824219 0)"/>
     <use xlink:href="#DejaVuSans-Bold-75" transform="translate(1116.212891 0)"/>
     <use xlink:href="#DejaVuSans-Bold-74" transform="translate(1187.404297 0)"/>
     <use xlink:href="#DejaVuSans-Bold-61" transform="translate(1235.207031 0)"/>
     <use xlink:href="#DejaVuSans-Bold-77" transform="translate(1302.6875 0)"/>
     <use xlink:href="#DejaVuSans-Bold-61" transform="translate(1395.070312 0)"/>
     <use xlink:href="#DejaVuSans-Bold-79" transform="translate(1459.425781 0)"/>
    </g>
    <!-- (Savonius starting scoops + Helical Darrius blades) -->
    <g transform="translate(51.346222 31.561812) scale(0.11 -0.11)">
     <defs>
      <path id="DejaVuSans-Bold-28" d="M 2413 -844 
L 1484 -844 
Q 1006 -72 778 623 
Q 550 1319 550 2003 
Q 550 2688 779 3389 
Q 1009 4091 1484 4856 
L 2413 4856 
Q 2013 4116 1813 3408 
Q 1613 2700 1613 2009 
Q 1613 1319 1811 609 
Q 2009 -100 2413 -844 
z
" transform="scale(0.015625)"/>
      <path id="DejaVuSans-Bold-53" d="M 3834 4519 
L 3834 3531 
Q 3450 3703 3084 3790 
Q 2719 3878 2394 3878 
Q 1963 3878 1756 3759 
Q 1550 3641 1550 3391 
Q 1550 3203 1689 3098 
Q 1828 2994 2194 2919 
L 2706 2816 
Q 3484 2659 3812 2340 
Q 4141 2022 4141 1434 
Q 4141 663 3683 286 
Q 3225 -91 2284 -91 
Q 1841 -91 1394 -6 
Q 947 78 500 244 
L 500 1259 
Q 947 1022 1364 901 
Q 1781 781 2169 781 
Q 2563 781 2772 912 
Q 2981 1044 2981 1288 
Q 2981 1506 2839 1625 
Q 2697 1744 2272 1838 
L 1806 1941 
Q 1106 2091 782 2419 
Q 459 2747 459 3303 
Q 459 4000 909 4375 
Q 1359 4750 2203 4750 
Q 2588 4750 2994 4692 
Q 3400 4634 3834 4519 
z
" transform="scale(0.015625)"/>
      <path id="DejaVuSans-Bold-76" d="M 97 3500 
L 1216 3500 
L 2088 1081 
L 2956 3500 
L 4078 3500 
L 2700 0 
L 1472 0 
L 97 3500 
z
" transform="scale(0.015625)"/>
      <path id="DejaVuSans-Bold-6e" d="M 4056 2131 
L 4056 0 
L 2931 0 
L 2931 347 
L 2931 1631 
Q 2931 2084 2911 2256 
Q 2891 2428 2841 2509 
Q 2775 2619 2662 2680 
Q 2550 2741 2406 2741 
Q 2056 2741 1856 2470 
Q 1656 2200 1656 1722 
L 1656 0 
L 538 0 
L 538 3500 
L 1656 3500 
L 1656 2988 
Q 1909 3294 2193 3439 
Q 2478 3584 2822 3584 
Q 3428 3584 3742 3212 
Q 4056 2841 4056 2131 
z
" transform="scale(0.015625)"/>
      <path id="DejaVuSans-Bold-73" d="M 3272 3391 
L 3272 2541 
Q 2913 2691 2578 2766 
Q 2244 2841 1947 2841 
Q 1628 2841 1473 2761 
Q 1319 2681 1319 2516 
Q 1319 2381 1436 2309 
Q 1553 2238 1856 2203 
L 2053 2175 
Q 2913 2066 3209 1816 
Q 3506 1566 3506 1031 
Q 3506 472 3093 190 
Q 2681 -91 1863 -91 
Q 1516 -91 1145 -36 
Q 775 19 384 128 
L 384 978 
Q 719 816 1070 734 
Q 1422 653 1784 653 
Q 2113 653 2278 743 
Q 2444 834 2444 1013 
Q 2444 1163 2330 1236 
Q 2216 1309 1875 1350 
L 1678 1375 
Q 931 1469 631 1722 
Q 331 1975 331 2491 
Q 331 3047 712 3315 
Q 1094 3584 1881 3584 
Q 2191 3584 2531 3537 
Q 2872 3491 3272 3391 
z
" transform="scale(0.015625)"/>
      <path id="DejaVuSans-Bold-67" d="M 2919 594 
Q 2688 288 2409 144 
Q 2131 0 1766 0 
Q 1125 0 706 504 
Q 288 1009 288 1791 
Q 288 2575 706 3076 
Q 1125 3578 1766 3578 
Q 2131 3578 2409 3434 
Q 2688 3291 2919 2981 
L 2919 3500 
L 4044 3500 
L 4044 353 
Q 4044 -491 3511 -936 
Q 2978 -1381 1966 -1381 
Q 1638 -1381 1331 -1331 
Q 1025 -1281 716 -1178 
L 716 -306 
Q 1009 -475 1290 -558 
Q 1572 -641 1856 -641 
Q 2406 -641 2662 -400 
Q 2919 -159 2919 353 
L 2919 594 
z
M 2181 2772 
Q 1834 2772 1640 2515 
Q 1447 2259 1447 1791 
Q 1447 1309 1634 1061 
Q 1822 813 2181 813 
Q 2531 813 2725 1069 
Q 2919 1325 2919 1791 
Q 2919 2259 2725 2515 
Q 2531 2772 2181 2772 
z
" transform="scale(0.015625)"/>
      <path id="DejaVuSans-Bold-63" d="M 3366 3391 
L 3366 2478 
Q 3138 2634 2908 2709 
Q 2678 2784 2431 2784 
Q 1963 2784 1702 2511 
Q 1441 2238 1441 1747 
Q 1441 1256 1702 982 
Q 1963 709 2431 709 
Q 2694 709 2930 787 
Q 3166 866 3366 1019 
L 3366 103 
Q 3103 6 2833 -42 
Q 2563 -91 2291 -91 
Q 1344 -91 809 395 
Q 275 881 275 1747 
Q 275 2613 809 3098 
Q 1344 3584 2291 3584 
Q 2566 3584 2833 3536 
Q 3100 3488 3366 3391 
z
" transform="scale(0.015625)"/>
      <path id="DejaVuSans-Bold-70" d="M 1656 506 
L 1656 -1331 
L 538 -1331 
L 538 3500 
L 1656 3500 
L 1656 2988 
Q 1888 3294 2169 3439 
Q 2450 3584 2816 3584 
Q 3463 3584 3878 3070 
Q 4294 2556 4294 1747 
Q 4294 938 3878 423 
Q 3463 -91 2816 -91 
Q 2450 -91 2169 54 
Q 1888 200 1656 506 
z
M 2400 2772 
Q 2041 2772 1848 2508 
Q 1656 2244 1656 1747 
Q 1656 1250 1848 986 
Q 2041 722 2400 722 
Q 2759 722 2948 984 
Q 3138 1247 3138 1747 
Q 3138 2247 2948 2509 
Q 2759 2772 2400 2772 
z
" transform="scale(0.015625)"/>
      <path id="DejaVuSans-Bold-2b" d="M 3053 4013 
L 3053 2375 
L 4684 2375 
L 4684 1638 
L 3053 1638 
L 3053 0 
L 2309 0 
L 2309 1638 
L 678 1638 
L 678 2375 
L 2309 2375 
L 2309 4013 
L 3053 4013 
z
" transform="scale(0.015625)"/>
      <path id="DejaVuSans-Bold-62" d="M 2400 722 
Q 2759 722 2948 984 
Q 3138 1247 3138 1747 
Q 3138 2247 2948 2509 
Q 2759 2772 2400 2772 
Q 2041 2772 1848 2508 
Q 1656 2244 1656 1747 
Q 1656 1250 1848 986 
Q 2041 722 2400 722 
z
M 1656 2988 
Q 1888 3294 2169 3439 
Q 2450 3584 2816 3584 
Q 3463 3584 3878 3070 
Q 4294 2556 4294 1747 
Q 4294 938 3878 423 
Q 3463 -91 2816 -91 
Q 2450 -91 2169 54 
Q 1888 200 1656 506 
L 1656 0 
L 538 0 
L 538 4863 
L 1656 4863 
L 1656 2988 
z
" transform="scale(0.015625)"/>
      <path id="DejaVuSans-Bold-64" d="M 2919 2988 
L 2919 4863 
L 4044 4863 
L 4044 0 
L 2919 0 
L 2919 506 
Q 2688 197 2409 53 
Q 2131 -91 1766 -91 
Q 1119 -91 703 423 
Q 288 938 288 1747 
Q 288 2556 703 3070 
Q 1119 3584 1766 3584 
Q 2128 3584 2408 3439 
Q 2688 3294 2919 2988 
z
M 2181 722 
Q 2541 722 2730 984 
Q 2919 1247 2919 1747 
Q 2919 2247 2730 2509 
Q 2541 2772 2181 2772 
Q 1825 2772 1636 2509 
Q 1447 2247 1447 1747 
Q 1447 1247 1636 984 
Q 1825 722 2181 722 
z
" transform="scale(0.015625)"/>
      <path id="DejaVuSans-Bold-29" d="M 513 -844 
Q 913 -100 1113 609 
Q 1313 1319 1313 2009 
Q 1313 2700 1113 3408 
Q 913 4116 513 4856 
L 1441 4856 
Q 1916 4091 2145 3389 
Q 2375 2688 2375 2003 
Q 2375 1319 2147 623 
Q 1919 -72 1441 -844 
L 513 -844 
z
" transform="scale(0.015625)"/>
     </defs>
     <use xlink:href="#DejaVuSans-Bold-28"/>
     <use xlink:href="#DejaVuSans-Bold-53" transform="translate(45.703125 0)"/>
     <use xlink:href="#DejaVuSans-Bold-61" transform="translate(117.724609 0)"/>
     <use xlink:href="#DejaVuSans-Bold-76" transform="translate(185.205078 0)"/>
     <use xlink:href="#DejaVuSans-Bold-6f" transform="translate(250.390625 0)"/>
     <use xlink:href="#DejaVuSans-Bold-6e" transform="translate(319.091797 0)"/>
     <use xlink:href="#DejaVuSans-Bold-69" transform="translate(390.283203 0)"/>
     <use xlink:href="#DejaVuSans-Bold-75" transform="translate(424.560547 0)"/>
     <use xlink:href="#DejaVuSans-Bold-73" transform="translate(495.751953 0)"/>
     <use xlink:href="#DejaVuSans-Bold-20" transform="translate(555.273438 0)"/>
     <use xlink:href="#DejaVuSans-Bold-73" transform="translate(590.087891 0)"/>
     <use xlink:href="#DejaVuSans-Bold-74" transform="translate(649.609375 0)"/>
     <use xlink:href="#DejaVuSans-Bold-61" transform="translate(697.412109 0)"/>
     <use xlink:href="#DejaVuSans-Bold-72" transform="translate(764.892578 0)"/>
     <use xlink:href="#DejaVuSans-Bold-74" transform="translate(814.208984 0)"/>
     <use xlink:href="#DejaVuSans-Bold-69" transform="translate(862.011719 0)"/>
     <use xlink:href="#DejaVuSans-Bold-6e" transform="translate(896.289062 0)"/>
     <use xlink:href="#DejaVuSans-Bold-67" transform="translate(967.480469 0)"/>
     <use xlink:href="#DejaVuSans-Bold-20" transform="translate(1039.0625 0)"/>
     <use xlink:href="#DejaVuSans-Bold-73" transform="translate(1073.876953 0)"/>
     <use xlink:href="#DejaVuSans-Bold-63" transform="translate(1133.398438 0)"/>
     <use xlink:href="#DejaVuSans-Bold-6f" transform="translate(1192.675781 0)"/>
     <use xlink:href="#DejaVuSans-Bold-6f" transform="translate(1261.376953 0)"/>
     <use xlink:href="#DejaVuSans-Bold-70" transform="translate(1330.078125 0)"/>
     <use xlink:href="#DejaVuSans-Bold-73" transform="translate(1401.660156 0)"/>
     <use xlink:href="#DejaVuSans-Bold-20" transform="translate(1461.181641 0)"/>
     <use xlink:href="#DejaVuSans-Bold-2b" transform="translate(1495.996094 0)"/>
     <use xlink:href="#DejaVuSans-Bold-20" transform="translate(1579.785156 0)"/>
     <use xlink:href="#DejaVuSans-Bold-48" transform="translate(1614.599609 0)"/>
     <use xlink:href="#DejaVuSans-Bold-65" transform="translate(1698.291016 0)"/>
     <use xlink:href="#DejaVuSans-Bold-6c" transform="translate(1766.113281 0)"/>
     <use xlink:href="#DejaVuSans-Bold-69" transform="translate(1800.390625 0)"/>
     <use xlink:href="#DejaVuSans-Bold-63" transform="translate(1834.667969 0)"/>
     <use xlink:href="#DejaVuSans-Bold-61" transform="translate(1893.945312 0)"/>
     <use xlink:href="#DejaVuSans-Bold-6c" transform="translate(1961.425781 0)"/>
     <use xlink:href="#DejaVuSans-Bold-20" transform="translate(1995.703125 0)"/>
     <use xlink:href="#DejaVuSans-Bold-44" transform="translate(2030.517578 0)"/>
     <use xlink:href="#DejaVuSans-Bold-61" transform="translate(2113.525391 0)"/>
     <use xlink:href="#DejaVuSans-Bold-72" transform="translate(2181.005859 0)"/>
     <use xlink:href="#DejaVuSans-Bold-72" transform="translate(2230.322266 0)"/>
     <use xlink:href="#DejaVuSans-Bold-69" transform="translate(2279.638672 0)"/>
     <use xlink:href="#DejaVuSans-Bold-75" transform="translate(2313.916016 0)"/>
     <use xlink:href="#DejaVuSans-Bold-73" transform="translate(2385.107422 0)"/>
     <use xlink:href="#DejaVuSans-Bold-20" transform="translate(2444.628906 0)"/>
     <use xlink:href="#DejaVuSans-Bold-62" transform="translate(2479.443359 0)"/>
     <use xlink:href="#DejaVuSans-Bold-6c" transform="translate(2551.025391 0)"/>
     <use xlink:href="#DejaVuSans-Bold-61" transform="translate(2585.302734 0)"/>
     <use xlink:href="#DejaVuSans-Bold-64" transform="translate(2652.783203 0)"/>
     <use xlink:href="#DejaVuSans-Bold-65" transform="translate(2724.365234 0)"/>
     <use xlink:href="#DejaVuSans-Bold-73" transform="translate(2792.1875 0)"/>
     <use xlink:href="#DejaVuSans-Bold-29" transform="translate(2851.708984 0)"/>
    </g>
   </g>
  </g>
 </g>
 <defs>
  <clipPath id="p372615e86d">
   <rect x="16.662707" y="37.561812" width="388.08" height="388.08"/>
  </clipPath>
 </defs>
</svg>
