<?xml version="1.0" encoding="utf-8" standalone="no"?>
<!DOCTYPE svg PUBLIC "-//W3C//DTD SVG 1.1//EN"
  "http://www.w3.org/Graphics/SVG/1.1/DTD/svg11.dtd">
<svg xmlns:xlink="http://www.w3.org/1999/xlink" width="796.30375pt" height="365.76pt" viewBox="0 0 796.30375 365.76" xmlns="http://www.w3.org/2000/svg" version="1.1">
 <metadata>
  <rdf:RDF xmlns:dc="http://purl.org/dc/elements/1.1/" xmlns:cc="http://creativecommons.org/ns#" xmlns:rdf="http://www.w3.org/1999/02/22-rdf-syntax-ns#">
   <cc:Work>
    <dc:type rdf:resource="http://purl.org/dc/dcmitype/StillImage"/>
    <dc:date>2026-05-28T08:18:28.033007</dc:date>
    <dc:format>image/svg+xml</dc:format>
    <dc:creator>
     <cc:Agent>
      <dc:title>Matplotlib v3.10.9, https://matplotlib.org/</dc:title>
     </cc:Agent>
    </dc:creator>
   </cc:Work>
  </rdf:RDF>
 </metadata>
 <defs>
  <style type="text/css">*{stroke-linejoin: round; stroke-linecap: butt}</style>
 </defs>
 <g id="figure_1">
  <g id="patch_1">
   <path d="M 0 365.76 
L 796.30375 365.76 
L 796.30375 0 
L 0 0 
z
" style="fill: #ffffff"/>
  </g>
  <g id="axes_1">
   <g id="patch_2">
    <path d="M 34.68375 311.347 
L 405.77375 311.347 
L 405.77375 88.693 
L 34.68375 88.693 
z
" style="fill: #ffffff"/>
   </g>
   <g id="patch_3">
    <path d="M 65.607917 286.607667 
L 343.925417 286.607667 
L 343.925417 113.432333 
L 65.607917 113.432333 
L 65.607917 286.607667 
z
" clip-path="url(#pcfb6811285)" style="fill: none; stroke: #000000; stroke-width: 1.2; stroke-linejoin: miter"/>
   </g>
   <g id="patch_4">
    <path d="M 170.750083 224.759333 
L 207.859083 224.759333 
L 207.859083 175.280667 
L 170.750083 175.280667 
L 170.750083 224.759333 
z
" clip-path="url(#pcfb6811285)" style="fill: none; stroke: #e74c3c; stroke-width: 1.5; stroke-linejoin: miter"/>
   </g>
   <g id="matplotlib.axis_1">
    <g id="xtick_1">
     <g id="line2d_1">
      <defs>
       <path id="m77a8349b33" d="M 0 0 
L 0 3.5 
" style="stroke: #000000; stroke-width: 0.8"/>
      </defs>
      <g>
       <use xlink:href="#m77a8349b33" x="65.607917" y="311.347" style="stroke: #000000; stroke-width: 0.8"/>
      </g>
     </g>
     <g id="text_1">
      <!-- 0 -->
      <g transform="translate(63.062917 324.42575) scale(0.08 -0.08)">
       <defs>
        <path id="DejaVuSans-30" d="M 2034 4250 
Q 1547 4250 1301 3770 
Q 1056 3291 1056 2328 
Q 1056 1369 1301 889 
Q 1547 409 2034 409 
Q 2525 409 2770 889 
Q 3016 1369 3016 2328 
Q 3016 3291 2770 3770 
Q 2525 4250 2034 4250 
z
M 2034 4750 
Q 2819 4750 3233 4129 
Q 3647 3509 3647 2328 
Q 3647 1150 3233 529 
Q 2819 -91 2034 -91 
Q 1250 -91 836 529 
Q 422 1150 422 2328 
Q 422 3509 836 4129 
Q 1250 4750 2034 4750 
z
" transform="scale(0.015625)"/>
       </defs>
       <use xlink:href="#DejaVuSans-30"/>
      </g>
     </g>
    </g>
    <g id="xtick_2">
     <g id="line2d_2">
      <g>
       <use xlink:href="#m77a8349b33" x="127.45625" y="311.347" style="stroke: #000000; stroke-width: 0.8"/>
      </g>
     </g>
     <g id="text_2">
      <!-- 10 -->
      <g transform="translate(122.36625 324.42575) scale(0.08 -0.08)">
       <defs>
        <path id="DejaVuSans-31" d="M 794 531 
L 1825 531 
L 1825 4091 
L 703 3866 
L 703 4441 
L 1819 4666 
L 2450 4666 
L 2450 531 
L 3481 531 
L 3481 0 
L 794 0 
L 794 531 
z
" transform="scale(0.015625)"/>
       </defs>
       <use xlink:href="#DejaVuSans-31"/>
       <use xlink:href="#DejaVuSans-30" transform="translate(63.623047 0)"/>
      </g>
     </g>
    </g>
    <g id="xtick_3">
     <g id="line2d_3">
      <g>
       <use xlink:href="#m77a8349b33" x="189.304583" y="311.347" style="stroke: #000000; stroke-width: 0.8"/>
      </g>
     </g>
     <g id="text_3">
      <!-- 20 -->
      <g transform="translate(184.214583 324.42575) scale(0.08 -0.08)">
       <defs>
        <path id="DejaVuSans-32" d="M 1228 531 
L 3431 531 
L 3431 0 
L 469 0 
L 469 531 
Q 828 903 1448 1529 
Q 2069 2156 2228 2338 
Q 2531 2678 2651 2914 
Q 2772 3150 2772 3378 
Q 2772 3750 2511 3984 
Q 2250 4219 1831 4219 
Q 1534 4219 1204 4116 
Q 875 4013 500 3803 
L 500 4441 
Q 881 4594 1212 4672 
Q 1544 4750 1819 4750 
Q 2544 4750 2975 4387 
Q 3406 4025 3406 3419 
Q 3406 3131 3298 2873 
Q 3191 2616 2906 2266 
Q 2828 2175 2409 1742 
Q 1991 1309 1228 531 
z
" transform="scale(0.015625)"/>
       </defs>
       <use xlink:href="#DejaVuSans-32"/>
       <use xlink:href="#DejaVuSans-30" transform="translate(63.623047 0)"/>
      </g>
     </g>
    </g>
    <g id="xtick_4">
     <g id="line2d_4">
      <g>
       <use xlink:href="#m77a8349b33" x="251.152917" y="311.347" style="stroke: #000000; stroke-width: 0.8"/>
      </g>
     </g>
     <g id="text_4">
      <!-- 30 -->
      <g transform="translate(246.062917 324.42575) scale(0.08 -0.08)">
       <defs>
        <path id="DejaVuSans-33" d="M 2597 2516 
Q 3050 2419 3304 2112 
Q 3559 1806 3559 1356 
Q 3559 666 3084 287 
Q 2609 -91 1734 -91 
Q 1441 -91 1130 -33 
Q 819 25 488 141 
L 488 750 
Q 750 597 1062 519 
Q 1375 441 1716 441 
Q 2309 441 2620 675 
Q 2931 909 2931 1356 
Q 2931 1769 2642 2001 
Q 2353 2234 1838 2234 
L 1294 2234 
L 1294 2753 
L 1863 2753 
Q 2328 2753 2575 2939 
Q 2822 3125 2822 3475 
Q 2822 3834 2567 4026 
Q 2313 4219 1838 4219 
Q 1578 4219 1281 4162 
Q 984 4106 628 3988 
L 628 4550 
Q 988 4650 1302 4700 
Q 1616 4750 1894 4750 
Q 2613 4750 3031 4423 
Q 3450 4097 3450 3541 
Q 3450 3153 3228 2886 
Q 3006 2619 2597 2516 
z
" transform="scale(0.015625)"/>
       </defs>
       <use xlink:href="#DejaVuSans-33"/>
       <use xlink:href="#DejaVuSans-30" transform="translate(63.623047 0)"/>
      </g>
     </g>
    </g>
    <g id="xtick_5">
     <g id="line2d_5">
      <g>
       <use xlink:href="#m77a8349b33" x="313.00125" y="311.347" style="stroke: #000000; stroke-width: 0.8"/>
      </g>
     </g>
     <g id="text_5">
      <!-- 40 -->
      <g transform="translate(307.91125 324.42575) scale(0.08 -0.08)">
       <defs>
        <path id="DejaVuSans-34" d="M 2419 4116 
L 825 1625 
L 2419 1625 
L 2419 4116 
z
M 2253 4666 
L 3047 4666 
L 3047 1625 
L 3713 1625 
L 3713 1100 
L 3047 1100 
L 3047 0 
L 2419 0 
L 2419 1100 
L 313 1100 
L 313 1709 
L 2253 4666 
z
" transform="scale(0.015625)"/>
       </defs>
       <use xlink:href="#DejaVuSans-34"/>
       <use xlink:href="#DejaVuSans-30" transform="translate(63.623047 0)"/>
      </g>
     </g>
    </g>
    <g id="xtick_6">
     <g id="line2d_6">
      <g>
       <use xlink:href="#m77a8349b33" x="374.849583" y="311.347" style="stroke: #000000; stroke-width: 0.8"/>
      </g>
     </g>
     <g id="text_6">
      <!-- 50 -->
      <g transform="translate(369.759583 324.42575) scale(0.08 -0.08)">
       <defs>
        <path id="DejaVuSans-35" d="M 691 4666 
L 3169 4666 
L 3169 4134 
L 1269 4134 
L 1269 2991 
Q 1406 3038 1543 3061 
Q 1681 3084 1819 3084 
Q 2600 3084 3056 2656 
Q 3513 2228 3513 1497 
Q 3513 744 3044 326 
Q 2575 -91 1722 -91 
Q 1428 -91 1123 -41 
Q 819 9 494 109 
L 494 744 
Q 775 591 1075 516 
Q 1375 441 1709 441 
Q 2250 441 2565 725 
Q 2881 1009 2881 1497 
Q 2881 1984 2565 2268 
Q 2250 2553 1709 2553 
Q 1456 2553 1204 2497 
Q 953 2441 691 2322 
L 691 4666 
z
" transform="scale(0.015625)"/>
       </defs>
       <use xlink:href="#DejaVuSans-35"/>
       <use xlink:href="#DejaVuSans-30" transform="translate(63.623047 0)"/>
      </g>
     </g>
    </g>
   </g>
   <g id="matplotlib.axis_2">
    <g id="ytick_1">
     <g id="line2d_7">
      <defs>
       <path id="m9e0f256f20" d="M 0 0 
L -3.5 0 
" style="stroke: #000000; stroke-width: 0.8"/>
      </defs>
      <g>
       <use xlink:href="#m9e0f256f20" x="34.68375" y="292.7925" style="stroke: #000000; stroke-width: 0.8"/>
      </g>
     </g>
     <g id="text_7">
      <!-- −15 -->
      <g transform="translate(10.8 295.831875) scale(0.08 -0.08)">
       <defs>
        <path id="DejaVuSans-2212" d="M 678 2272 
L 4684 2272 
L 4684 1741 
L 678 1741 
L 678 2272 
z
" transform="scale(0.015625)"/>
       </defs>
       <use xlink:href="#DejaVuSans-2212"/>
       <use xlink:href="#DejaVuSans-31" transform="translate(83.789062 0)"/>
       <use xlink:href="#DejaVuSans-35" transform="translate(147.412109 0)"/>
      </g>
     </g>
    </g>
    <g id="ytick_2">
     <g id="line2d_8">
      <g>
       <use xlink:href="#m9e0f256f20" x="34.68375" y="261.868333" style="stroke: #000000; stroke-width: 0.8"/>
      </g>
     </g>
     <g id="text_8">
      <!-- −10 -->
      <g transform="translate(10.8 264.907708) scale(0.08 -0.08)">
       <use xlink:href="#DejaVuSans-2212"/>
       <use xlink:href="#DejaVuSans-31" transform="translate(83.789062 0)"/>
       <use xlink:href="#DejaVuSans-30" transform="translate(147.412109 0)"/>
      </g>
     </g>
    </g>
    <g id="ytick_3">
     <g id="line2d_9">
      <g>
       <use xlink:href="#m9e0f256f20" x="34.68375" y="230.944167" style="stroke: #000000; stroke-width: 0.8"/>
      </g>
     </g>
     <g id="text_9">
      <!-- −5 -->
      <g transform="translate(15.89 233.983542) scale(0.08 -0.08)">
       <use xlink:href="#DejaVuSans-2212"/>
       <use xlink:href="#DejaVuSans-35" transform="translate(83.789062 0)"/>
      </g>
     </g>
    </g>
    <g id="ytick_4">
     <g id="line2d_10">
      <g>
       <use xlink:href="#m9e0f256f20" x="34.68375" y="200.02" style="stroke: #000000; stroke-width: 0.8"/>
      </g>
     </g>
     <g id="text_10">
      <!-- 0 -->
      <g transform="translate(22.59375 203.059375) scale(0.08 -0.08)">
       <use xlink:href="#DejaVuSans-30"/>
      </g>
     </g>
    </g>
    <g id="ytick_5">
     <g id="line2d_11">
      <g>
       <use xlink:href="#m9e0f256f20" x="34.68375" y="169.095833" style="stroke: #000000; stroke-width: 0.8"/>
      </g>
     </g>
     <g id="text_11">
      <!-- 5 -->
      <g transform="translate(22.59375 172.135208) scale(0.08 -0.08)">
       <use xlink:href="#DejaVuSans-35"/>
      </g>
     </g>
    </g>
    <g id="ytick_6">
     <g id="line2d_12">
      <g>
       <use xlink:href="#m9e0f256f20" x="34.68375" y="138.171667" style="stroke: #000000; stroke-width: 0.8"/>
      </g>
     </g>
     <g id="text_12">
      <!-- 10 -->
      <g transform="translate(17.50375 141.211042) scale(0.08 -0.08)">
       <use xlink:href="#DejaVuSans-31"/>
       <use xlink:href="#DejaVuSans-30" transform="translate(63.623047 0)"/>
      </g>
     </g>
    </g>
    <g id="ytick_7">
     <g id="line2d_13">
      <g>
       <use xlink:href="#m9e0f256f20" x="34.68375" y="107.2475" style="stroke: #000000; stroke-width: 0.8"/>
      </g>
     </g>
     <g id="text_13">
      <!-- 15 -->
      <g transform="translate(17.50375 110.286875) scale(0.08 -0.08)">
       <use xlink:href="#DejaVuSans-31"/>
       <use xlink:href="#DejaVuSans-35" transform="translate(63.623047 0)"/>
      </g>
     </g>
    </g>
   </g>
   <g id="line2d_14">
    <path d="M 96.532083 125.802 
L 170.750083 175.280667 
" clip-path="url(#pcfb6811285)" style="fill: none; stroke: #000000; stroke-width: 1.2; stroke-linecap: square"/>
   </g>
   <g id="line2d_15">
    <path d="M 96.532083 274.238 
L 170.750083 224.759333 
" clip-path="url(#pcfb6811285)" style="fill: none; stroke: #000000; stroke-width: 1.2; stroke-linecap: square"/>
   </g>
   <g id="line2d_16">
    <path d="M 207.859083 175.280667 
L 331.55575 144.3565 
" clip-path="url(#pcfb6811285)" style="fill: none; stroke: #000000; stroke-width: 1.2; stroke-linecap: square"/>
   </g>
   <g id="line2d_17">
    <path d="M 207.859083 224.759333 
L 331.55575 255.6835 
" clip-path="url(#pcfb6811285)" style="fill: none; stroke: #000000; stroke-width: 1.2; stroke-linecap: square"/>
   </g>
   <g id="patch_5">
    <path d="M 34.68375 311.347 
L 34.68375 88.693 
" style="fill: none; stroke: #000000; stroke-width: 0.6; stroke-linejoin: miter; stroke-linecap: square"/>
   </g>
   <g id="patch_6">
    <path d="M 405.77375 311.347 
L 405.77375 88.693 
" style="fill: none; stroke: #000000; stroke-width: 0.6; stroke-linejoin: miter; stroke-linecap: square"/>
   </g>
   <g id="patch_7">
    <path d="M 34.68375 311.347 
L 405.77375 311.347 
" style="fill: none; stroke: #000000; stroke-width: 0.6; stroke-linejoin: miter; stroke-linecap: square"/>
   </g>
   <g id="patch_8">
    <path d="M 34.68375 88.693 
L 405.77375 88.693 
" style="fill: none; stroke: #000000; stroke-width: 0.6; stroke-linejoin: miter; stroke-linecap: square"/>
   </g>
   <g id="text_14">
    <!-- Inlet -->
    <g transform="translate(119.707578 198.032328) scale(0.07 -0.07)">
     <defs>
      <path id="DejaVuSans-49" d="M 628 4666 
L 1259 4666 
L 1259 0 
L 628 0 
L 628 4666 
z
" transform="scale(0.015625)"/>
      <path id="DejaVuSans-6e" d="M 3513 2113 
L 3513 0 
L 2938 0 
L 2938 2094 
Q 2938 2591 2744 2837 
Q 2550 3084 2163 3084 
Q 1697 3084 1428 2787 
Q 1159 2491 1159 1978 
L 1159 0 
L 581 0 
L 581 3500 
L 1159 3500 
L 1159 2956 
Q 1366 3272 1645 3428 
Q 1925 3584 2291 3584 
Q 2894 3584 3203 3211 
Q 3513 2838 3513 2113 
z
" transform="scale(0.015625)"/>
      <path id="DejaVuSans-6c" d="M 603 4863 
L 1178 4863 
L 1178 0 
L 603 0 
L 603 4863 
z
" transform="scale(0.015625)"/>
      <path id="DejaVuSans-65" d="M 3597 1894 
L 3597 1613 
L 953 1613 
Q 991 1019 1311 708 
Q 1631 397 2203 397 
Q 2534 397 2845 478 
Q 3156 559 3463 722 
L 3463 178 
Q 3153 47 2828 -22 
Q 2503 -91 2169 -91 
Q 1331 -91 842 396 
Q 353 884 353 1716 
Q 353 2575 817 3079 
Q 1281 3584 2069 3584 
Q 2775 3584 3186 3129 
Q 3597 2675 3597 1894 
z
M 3022 2063 
Q 3016 2534 2758 2815 
Q 2500 3097 2075 3097 
Q 1594 3097 1305 2825 
Q 1016 2553 972 2059 
L 3022 2063 
z
" transform="scale(0.015625)"/>
      <path id="DejaVuSans-74" d="M 1172 4494 
L 1172 3500 
L 2356 3500 
L 2356 3053 
L 1172 3053 
L 1172 1153 
Q 1172 725 1289 603 
Q 1406 481 1766 481 
L 2356 481 
L 2356 0 
L 1766 0 
Q 1100 0 847 248 
Q 594 497 594 1153 
L 594 3053 
L 172 3053 
L 172 3500 
L 594 3500 
L 594 4494 
L 1172 4494 
z
" transform="scale(0.015625)"/>
     </defs>
     <use xlink:href="#DejaVuSans-49"/>
     <use xlink:href="#DejaVuSans-6e" transform="translate(29.492188 0)"/>
     <use xlink:href="#DejaVuSans-6c" transform="translate(92.871094 0)"/>
     <use xlink:href="#DejaVuSans-65" transform="translate(120.654297 0)"/>
     <use xlink:href="#DejaVuSans-74" transform="translate(182.177734 0)"/>
    </g>
    <!-- Ø28 -->
    <g transform="translate(120.247344 205.870797) scale(0.07 -0.07)">
     <defs>
      <path id="DejaVuSans-d8" d="M 3769 3475 
L 1528 831 
Q 1722 631 1973 526 
Q 2225 422 2522 422 
Q 3209 422 3611 934 
Q 4013 1447 4013 2328 
Q 4013 2678 3952 2965 
Q 3891 3253 3769 3475 
z
M 3513 3828 
Q 3322 4028 3070 4133 
Q 2819 4238 2522 4238 
Q 1834 4238 1429 3725 
Q 1025 3213 1025 2328 
Q 1025 1978 1086 1684 
Q 1147 1391 1269 1178 
L 3513 3828 
z
M 850 684 
Q 606 1003 482 1415 
Q 359 1828 359 2328 
Q 359 3434 948 4092 
Q 1538 4750 2522 4750 
Q 2928 4750 3273 4629 
Q 3619 4509 3891 4275 
L 4397 4872 
L 4716 4594 
L 4184 3975 
Q 4428 3653 4553 3237 
Q 4678 2822 4678 2328 
Q 4678 1225 4090 567 
Q 3503 -91 2522 -91 
Q 2122 -91 1776 26 
Q 1431 144 1147 378 
L 641 -219 
L 319 56 
L 850 684 
z
" transform="scale(0.015625)"/>
      <path id="DejaVuSans-38" d="M 2034 2216 
Q 1584 2216 1326 1975 
Q 1069 1734 1069 1313 
Q 1069 891 1326 650 
Q 1584 409 2034 409 
Q 2484 409 2743 651 
Q 3003 894 3003 1313 
Q 3003 1734 2745 1975 
Q 2488 2216 2034 2216 
z
M 1403 2484 
Q 997 2584 770 2862 
Q 544 3141 544 3541 
Q 544 4100 942 4425 
Q 1341 4750 2034 4750 
Q 2731 4750 3128 4425 
Q 3525 4100 3525 3541 
Q 3525 3141 3298 2862 
Q 3072 2584 2669 2484 
Q 3125 2378 3379 2068 
Q 3634 1759 3634 1313 
Q 3634 634 3220 271 
Q 2806 -91 2034 -91 
Q 1263 -91 848 271 
Q 434 634 434 1313 
Q 434 1759 690 2068 
Q 947 2378 1403 2484 
z
M 1172 3481 
Q 1172 3119 1398 2916 
Q 1625 2713 2034 2713 
Q 2441 2713 2670 2916 
Q 2900 3119 2900 3481 
Q 2900 3844 2670 4047 
Q 2441 4250 2034 4250 
Q 1625 4250 1398 4047 
Q 1172 3844 1172 3481 
z
" transform="scale(0.015625)"/>
     </defs>
     <use xlink:href="#DejaVuSans-d8"/>
     <use xlink:href="#DejaVuSans-32" transform="translate(78.710938 0)"/>
     <use xlink:href="#DejaVuSans-38" transform="translate(142.333984 0)"/>
    </g>
   </g>
   <g id="text_15">
    <!-- Throat -->
    <g style="fill: #c0392b" transform="translate(177.93013 198.032328) scale(0.07 -0.07)">
     <defs>
      <path id="DejaVuSans-54" d="M -19 4666 
L 3928 4666 
L 3928 4134 
L 2272 4134 
L 2272 0 
L 1638 0 
L 1638 4134 
L -19 4134 
L -19 4666 
z
" transform="scale(0.015625)"/>
      <path id="DejaVuSans-68" d="M 3513 2113 
L 3513 0 
L 2938 0 
L 2938 2094 
Q 2938 2591 2744 2837 
Q 2550 3084 2163 3084 
Q 1697 3084 1428 2787 
Q 1159 2491 1159 1978 
L 1159 0 
L 581 0 
L 581 4863 
L 1159 4863 
L 1159 2956 
Q 1366 3272 1645 3428 
Q 1925 3584 2291 3584 
Q 2894 3584 3203 3211 
Q 3513 2838 3513 2113 
z
" transform="scale(0.015625)"/>
      <path id="DejaVuSans-72" d="M 2631 2963 
Q 2534 3019 2420 3045 
Q 2306 3072 2169 3072 
Q 1681 3072 1420 2755 
Q 1159 2438 1159 1844 
L 1159 0 
L 581 0 
L 581 3500 
L 1159 3500 
L 1159 2956 
Q 1341 3275 1631 3429 
Q 1922 3584 2338 3584 
Q 2397 3584 2469 3576 
Q 2541 3569 2628 3553 
L 2631 2963 
z
" transform="scale(0.015625)"/>
      <path id="DejaVuSans-6f" d="M 1959 3097 
Q 1497 3097 1228 2736 
Q 959 2375 959 1747 
Q 959 1119 1226 758 
Q 1494 397 1959 397 
Q 2419 397 2687 759 
Q 2956 1122 2956 1747 
Q 2956 2369 2687 2733 
Q 2419 3097 1959 3097 
z
M 1959 3584 
Q 2709 3584 3137 3096 
Q 3566 2609 3566 1747 
Q 3566 888 3137 398 
Q 2709 -91 1959 -91 
Q 1206 -91 779 398 
Q 353 888 353 1747 
Q 353 2609 779 3096 
Q 1206 3584 1959 3584 
z
" transform="scale(0.015625)"/>
      <path id="DejaVuSans-61" d="M 2194 1759 
Q 1497 1759 1228 1600 
Q 959 1441 959 1056 
Q 959 750 1161 570 
Q 1363 391 1709 391 
Q 2188 391 2477 730 
Q 2766 1069 2766 1631 
L 2766 1759 
L 2194 1759 
z
M 3341 1997 
L 3341 0 
L 2766 0 
L 2766 531 
Q 2569 213 2275 61 
Q 1981 -91 1556 -91 
Q 1019 -91 701 211 
Q 384 513 384 1019 
Q 384 1609 779 1909 
Q 1175 2209 1959 2209 
L 2766 2209 
L 2766 2266 
Q 2766 2663 2505 2880 
Q 2244 3097 1772 3097 
Q 1472 3097 1187 3025 
Q 903 2953 641 2809 
L 641 3341 
Q 956 3463 1253 3523 
Q 1550 3584 1831 3584 
Q 2591 3584 2966 3190 
Q 3341 2797 3341 1997 
z
" transform="scale(0.015625)"/>
     </defs>
     <use xlink:href="#DejaVuSans-54"/>
     <use xlink:href="#DejaVuSans-68" transform="translate(61.083984 0)"/>
     <use xlink:href="#DejaVuSans-72" transform="translate(124.462891 0)"/>
     <use xlink:href="#DejaVuSans-6f" transform="translate(163.326172 0)"/>
     <use xlink:href="#DejaVuSans-61" transform="translate(224.507812 0)"/>
     <use xlink:href="#DejaVuSans-74" transform="translate(285.787109 0)"/>
    </g>
    <!-- (8 mm) -->
    <g style="fill: #c0392b" transform="translate(176.415833 205.870797) scale(0.07 -0.07)">
     <defs>
      <path id="DejaVuSans-28" d="M 1984 4856 
Q 1566 4138 1362 3434 
Q 1159 2731 1159 2009 
Q 1159 1288 1364 580 
Q 1569 -128 1984 -844 
L 1484 -844 
Q 1016 -109 783 600 
Q 550 1309 550 2009 
Q 550 2706 781 3412 
Q 1013 4119 1484 4856 
L 1984 4856 
z
" transform="scale(0.015625)"/>
      <path id="DejaVuSans-20" transform="scale(0.015625)"/>
      <path id="DejaVuSans-6d" d="M 3328 2828 
Q 3544 3216 3844 3400 
Q 4144 3584 4550 3584 
Q 5097 3584 5394 3201 
Q 5691 2819 5691 2113 
L 5691 0 
L 5113 0 
L 5113 2094 
Q 5113 2597 4934 2840 
Q 4756 3084 4391 3084 
Q 3944 3084 3684 2787 
Q 3425 2491 3425 1978 
L 3425 0 
L 2847 0 
L 2847 2094 
Q 2847 2600 2669 2842 
Q 2491 3084 2119 3084 
Q 1678 3084 1418 2786 
Q 1159 2488 1159 1978 
L 1159 0 
L 581 0 
L 581 3500 
L 1159 3500 
L 1159 2956 
Q 1356 3278 1631 3431 
Q 1906 3584 2284 3584 
Q 2666 3584 2933 3390 
Q 3200 3197 3328 2828 
z
" transform="scale(0.015625)"/>
      <path id="DejaVuSans-29" d="M 513 4856 
L 1013 4856 
Q 1481 4119 1714 3412 
Q 1947 2706 1947 2009 
Q 1947 1309 1714 600 
Q 1481 -109 1013 -844 
L 513 -844 
Q 928 -128 1133 580 
Q 1338 1288 1338 2009 
Q 1338 2731 1133 3434 
Q 928 4138 513 4856 
z
" transform="scale(0.015625)"/>
     </defs>
     <use xlink:href="#DejaVuSans-28"/>
     <use xlink:href="#DejaVuSans-38" transform="translate(39.013672 0)"/>
     <use xlink:href="#DejaVuSans-20" transform="translate(102.636719 0)"/>
     <use xlink:href="#DejaVuSans-6d" transform="translate(134.423828 0)"/>
     <use xlink:href="#DejaVuSans-6d" transform="translate(231.835938 0)"/>
     <use xlink:href="#DejaVuSans-29" transform="translate(329.248047 0)"/>
    </g>
   </g>
   <g id="text_16">
    <!-- Outlet -->
    <g transform="translate(271.233646 198.032328) scale(0.07 -0.07)">
     <defs>
      <path id="DejaVuSans-4f" d="M 2522 4238 
Q 1834 4238 1429 3725 
Q 1025 3213 1025 2328 
Q 1025 1447 1429 934 
Q 1834 422 2522 422 
Q 3209 422 3611 934 
Q 4013 1447 4013 2328 
Q 4013 3213 3611 3725 
Q 3209 4238 2522 4238 
z
M 2522 4750 
Q 3503 4750 4090 4092 
Q 4678 3434 4678 2328 
Q 4678 1225 4090 567 
Q 3503 -91 2522 -91 
Q 1538 -91 948 565 
Q 359 1222 359 2328 
Q 359 3434 948 4092 
Q 1538 4750 2522 4750 
z
" transform="scale(0.015625)"/>
      <path id="DejaVuSans-75" d="M 544 1381 
L 544 3500 
L 1119 3500 
L 1119 1403 
Q 1119 906 1312 657 
Q 1506 409 1894 409 
Q 2359 409 2629 706 
Q 2900 1003 2900 1516 
L 2900 3500 
L 3475 3500 
L 3475 0 
L 2900 0 
L 2900 538 
Q 2691 219 2414 64 
Q 2138 -91 1772 -91 
Q 1169 -91 856 284 
Q 544 659 544 1381 
z
M 1991 3584 
L 1991 3584 
z
" transform="scale(0.015625)"/>
     </defs>
     <use xlink:href="#DejaVuSans-4f"/>
     <use xlink:href="#DejaVuSans-75" transform="translate(78.710938 0)"/>
     <use xlink:href="#DejaVuSans-74" transform="translate(142.089844 0)"/>
     <use xlink:href="#DejaVuSans-6c" transform="translate(181.298828 0)"/>
     <use xlink:href="#DejaVuSans-65" transform="translate(209.082031 0)"/>
     <use xlink:href="#DejaVuSans-74" transform="translate(270.605469 0)"/>
    </g>
    <!-- Ø18 -->
    <g transform="translate(274.868177 205.870797) scale(0.07 -0.07)">
     <use xlink:href="#DejaVuSans-d8"/>
     <use xlink:href="#DejaVuSans-31" transform="translate(78.710938 0)"/>
     <use xlink:href="#DejaVuSans-38" transform="translate(142.333984 0)"/>
    </g>
   </g>
   <g id="patch_9">
    <path d="M 68.390778 286.607667 
Q 204.765422 286.607667 341.140066 286.607667 
" style="fill: none; stroke: #000000; stroke-width: 0.7; stroke-linecap: round"/>
    <path d="M 70.790778 287.807667 
L 68.390778 286.607667 
L 70.790778 285.407667 
" style="fill: none; stroke: #000000; stroke-width: 0.7; stroke-linecap: round"/>
    <path d="M 338.740066 285.407667 
L 341.140066 286.607667 
L 338.740066 287.807667 
" style="fill: none; stroke: #000000; stroke-width: 0.7; stroke-linecap: round"/>
   </g>
   <g id="text_17">
    <!-- 45 mm overall -->
    <g style="fill: #1a5276" transform="translate(179.374714 283.591363) scale(0.07 -0.07)">
     <defs>
      <path id="DejaVuSans-76" d="M 191 3500 
L 800 3500 
L 1894 563 
L 2988 3500 
L 3597 3500 
L 2284 0 
L 1503 0 
L 191 3500 
z
" transform="scale(0.015625)"/>
     </defs>
     <use xlink:href="#DejaVuSans-34"/>
     <use xlink:href="#DejaVuSans-35" transform="translate(63.623047 0)"/>
     <use xlink:href="#DejaVuSans-20" transform="translate(127.246094 0)"/>
     <use xlink:href="#DejaVuSans-6d" transform="translate(159.033203 0)"/>
     <use xlink:href="#DejaVuSans-6d" transform="translate(256.445312 0)"/>
     <use xlink:href="#DejaVuSans-20" transform="translate(353.857422 0)"/>
     <use xlink:href="#DejaVuSans-6f" transform="translate(385.644531 0)"/>
     <use xlink:href="#DejaVuSans-76" transform="translate(446.826172 0)"/>
     <use xlink:href="#DejaVuSans-65" transform="translate(506.005859 0)"/>
     <use xlink:href="#DejaVuSans-72" transform="translate(567.529297 0)"/>
     <use xlink:href="#DejaVuSans-61" transform="translate(608.642578 0)"/>
     <use xlink:href="#DejaVuSans-6c" transform="translate(669.921875 0)"/>
     <use xlink:href="#DejaVuSans-6c" transform="translate(697.705078 0)"/>
    </g>
   </g>
   <g id="text_18">
    <!-- SECTION VIEW — Venturi Profile -->
    <g transform="translate(133.5895 82.693) scale(0.096 -0.096)">
     <defs>
      <path id="DejaVuSans-Bold-53" d="M 3834 4519 
L 3834 3531 
Q 3450 3703 3084 3790 
Q 2719 3878 2394 3878 
Q 1963 3878 1756 3759 
Q 1550 3641 1550 3391 
Q 1550 3203 1689 3098 
Q 1828 2994 2194 2919 
L 2706 2816 
Q 3484 2659 3812 2340 
Q 4141 2022 4141 1434 
Q 4141 663 3683 286 
Q 3225 -91 2284 -91 
Q 1841 -91 1394 -6 
Q 947 78 500 244 
L 500 1259 
Q 947 1022 1364 901 
Q 1781 781 2169 781 
Q 2563 781 2772 912 
Q 2981 1044 2981 1288 
Q 2981 1506 2839 1625 
Q 2697 1744 2272 1838 
L 1806 1941 
Q 1106 2091 782 2419 
Q 459 2747 459 3303 
Q 459 4000 909 4375 
Q 1359 4750 2203 4750 
Q 2588 4750 2994 4692 
Q 3400 4634 3834 4519 
z
" transform="scale(0.015625)"/>
      <path id="DejaVuSans-Bold-45" d="M 588 4666 
L 3834 4666 
L 3834 3756 
L 1791 3756 
L 1791 2888 
L 3713 2888 
L 3713 1978 
L 1791 1978 
L 1791 909 
L 3903 909 
L 3903 0 
L 588 0 
L 588 4666 
z
" transform="scale(0.015625)"/>
      <path id="DejaVuSans-Bold-43" d="M 4288 256 
Q 3956 84 3597 -3 
Q 3238 -91 2847 -91 
Q 1681 -91 1000 561 
Q 319 1213 319 2328 
Q 319 3447 1000 4098 
Q 1681 4750 2847 4750 
Q 3238 4750 3597 4662 
Q 3956 4575 4288 4403 
L 4288 3438 
Q 3953 3666 3628 3772 
Q 3303 3878 2944 3878 
Q 2300 3878 1931 3465 
Q 1563 3053 1563 2328 
Q 1563 1606 1931 1193 
Q 2300 781 2944 781 
Q 3303 781 3628 887 
Q 3953 994 4288 1222 
L 4288 256 
z
" transform="scale(0.015625)"/>
      <path id="DejaVuSans-Bold-54" d="M 31 4666 
L 4331 4666 
L 4331 3756 
L 2784 3756 
L 2784 0 
L 1581 0 
L 1581 3756 
L 31 3756 
L 31 4666 
z
" transform="scale(0.015625)"/>
      <path id="DejaVuSans-Bold-49" d="M 588 4666 
L 1791 4666 
L 1791 0 
L 588 0 
L 588 4666 
z
" transform="scale(0.015625)"/>
      <path id="DejaVuSans-Bold-4f" d="M 2719 3878 
Q 2169 3878 1866 3472 
Q 1563 3066 1563 2328 
Q 1563 1594 1866 1187 
Q 2169 781 2719 781 
Q 3272 781 3575 1187 
Q 3878 1594 3878 2328 
Q 3878 3066 3575 3472 
Q 3272 3878 2719 3878 
z
M 2719 4750 
Q 3844 4750 4481 4106 
Q 5119 3463 5119 2328 
Q 5119 1197 4481 553 
Q 3844 -91 2719 -91 
Q 1597 -91 958 553 
Q 319 1197 319 2328 
Q 319 3463 958 4106 
Q 1597 4750 2719 4750 
z
" transform="scale(0.015625)"/>
      <path id="DejaVuSans-Bold-4e" d="M 588 4666 
L 1931 4666 
L 3628 1466 
L 3628 4666 
L 4769 4666 
L 4769 0 
L 3425 0 
L 1728 3200 
L 1728 0 
L 588 0 
L 588 4666 
z
" transform="scale(0.015625)"/>
      <path id="DejaVuSans-Bold-20" transform="scale(0.015625)"/>
      <path id="DejaVuSans-Bold-56" d="M 31 4666 
L 1241 4666 
L 2478 1222 
L 3713 4666 
L 4922 4666 
L 3194 0 
L 1759 0 
L 31 4666 
z
" transform="scale(0.015625)"/>
      <path id="DejaVuSans-Bold-57" d="M 191 4666 
L 1344 4666 
L 2150 1275 
L 2950 4666 
L 4109 4666 
L 4909 1275 
L 5716 4666 
L 6859 4666 
L 5759 0 
L 4372 0 
L 3525 3547 
L 2688 0 
L 1300 0 
L 191 4666 
z
" transform="scale(0.015625)"/>
      <path id="DejaVuSans-Bold-2014" d="M 344 2156 
L 6056 2156 
L 6056 1350 
L 344 1350 
L 344 2156 
z
" transform="scale(0.015625)"/>
      <path id="DejaVuSans-Bold-65" d="M 4031 1759 
L 4031 1441 
L 1416 1441 
Q 1456 1047 1700 850 
Q 1944 653 2381 653 
Q 2734 653 3104 758 
Q 3475 863 3866 1075 
L 3866 213 
Q 3469 63 3072 -14 
Q 2675 -91 2278 -91 
Q 1328 -91 801 392 
Q 275 875 275 1747 
Q 275 2603 792 3093 
Q 1309 3584 2216 3584 
Q 3041 3584 3536 3087 
Q 4031 2591 4031 1759 
z
M 2881 2131 
Q 2881 2450 2695 2645 
Q 2509 2841 2209 2841 
Q 1884 2841 1681 2658 
Q 1478 2475 1428 2131 
L 2881 2131 
z
" transform="scale(0.015625)"/>
      <path id="DejaVuSans-Bold-6e" d="M 4056 2131 
L 4056 0 
L 2931 0 
L 2931 347 
L 2931 1631 
Q 2931 2084 2911 2256 
Q 2891 2428 2841 2509 
Q 2775 2619 2662 2680 
Q 2550 2741 2406 2741 
Q 2056 2741 1856 2470 
Q 1656 2200 1656 1722 
L 1656 0 
L 538 0 
L 538 3500 
L 1656 3500 
L 1656 2988 
Q 1909 3294 2193 3439 
Q 2478 3584 2822 3584 
Q 3428 3584 3742 3212 
Q 4056 2841 4056 2131 
z
" transform="scale(0.015625)"/>
      <path id="DejaVuSans-Bold-74" d="M 1759 4494 
L 1759 3500 
L 2913 3500 
L 2913 2700 
L 1759 2700 
L 1759 1216 
Q 1759 972 1856 886 
Q 1953 800 2241 800 
L 2816 800 
L 2816 0 
L 1856 0 
Q 1194 0 917 276 
Q 641 553 641 1216 
L 641 2700 
L 84 2700 
L 84 3500 
L 641 3500 
L 641 4494 
L 1759 4494 
z
" transform="scale(0.015625)"/>
      <path id="DejaVuSans-Bold-75" d="M 500 1363 
L 500 3500 
L 1625 3500 
L 1625 3150 
Q 1625 2866 1622 2436 
Q 1619 2006 1619 1863 
Q 1619 1441 1641 1255 
Q 1663 1069 1716 984 
Q 1784 875 1895 815 
Q 2006 756 2150 756 
Q 2500 756 2700 1025 
Q 2900 1294 2900 1772 
L 2900 3500 
L 4019 3500 
L 4019 0 
L 2900 0 
L 2900 506 
Q 2647 200 2364 54 
Q 2081 -91 1741 -91 
Q 1134 -91 817 281 
Q 500 653 500 1363 
z
" transform="scale(0.015625)"/>
      <path id="DejaVuSans-Bold-72" d="M 3138 2547 
Q 2991 2616 2845 2648 
Q 2700 2681 2553 2681 
Q 2122 2681 1889 2404 
Q 1656 2128 1656 1613 
L 1656 0 
L 538 0 
L 538 3500 
L 1656 3500 
L 1656 2925 
Q 1872 3269 2151 3426 
Q 2431 3584 2822 3584 
Q 2878 3584 2943 3579 
Q 3009 3575 3134 3559 
L 3138 2547 
z
" transform="scale(0.015625)"/>
      <path id="DejaVuSans-Bold-69" d="M 538 3500 
L 1656 3500 
L 1656 0 
L 538 0 
L 538 3500 
z
M 538 4863 
L 1656 4863 
L 1656 3950 
L 538 3950 
L 538 4863 
z
" transform="scale(0.015625)"/>
      <path id="DejaVuSans-Bold-50" d="M 588 4666 
L 2584 4666 
Q 3475 4666 3951 4270 
Q 4428 3875 4428 3144 
Q 4428 2409 3951 2014 
Q 3475 1619 2584 1619 
L 1791 1619 
L 1791 0 
L 588 0 
L 588 4666 
z
M 1791 3794 
L 1791 2491 
L 2456 2491 
Q 2806 2491 2997 2661 
Q 3188 2831 3188 3144 
Q 3188 3456 2997 3625 
Q 2806 3794 2456 3794 
L 1791 3794 
z
" transform="scale(0.015625)"/>
      <path id="DejaVuSans-Bold-6f" d="M 2203 2784 
Q 1831 2784 1636 2517 
Q 1441 2250 1441 1747 
Q 1441 1244 1636 976 
Q 1831 709 2203 709 
Q 2569 709 2762 976 
Q 2956 1244 2956 1747 
Q 2956 2250 2762 2517 
Q 2569 2784 2203 2784 
z
M 2203 3584 
Q 3106 3584 3614 3096 
Q 4122 2609 4122 1747 
Q 4122 884 3614 396 
Q 3106 -91 2203 -91 
Q 1297 -91 786 396 
Q 275 884 275 1747 
Q 275 2609 786 3096 
Q 1297 3584 2203 3584 
z
" transform="scale(0.015625)"/>
      <path id="DejaVuSans-Bold-66" d="M 2841 4863 
L 2841 4128 
L 2222 4128 
Q 1984 4128 1890 4042 
Q 1797 3956 1797 3744 
L 1797 3500 
L 2753 3500 
L 2753 2700 
L 1797 2700 
L 1797 0 
L 678 0 
L 678 2700 
L 122 2700 
L 122 3500 
L 678 3500 
L 678 3744 
Q 678 4316 997 4589 
Q 1316 4863 1984 4863 
L 2841 4863 
z
" transform="scale(0.015625)"/>
      <path id="DejaVuSans-Bold-6c" d="M 538 4863 
L 1656 4863 
L 1656 0 
L 538 0 
L 538 4863 
z
" transform="scale(0.015625)"/>
     </defs>
     <use xlink:href="#DejaVuSans-Bold-53"/>
     <use xlink:href="#DejaVuSans-Bold-45" transform="translate(72.021484 0)"/>
     <use xlink:href="#DejaVuSans-Bold-43" transform="translate(140.332031 0)"/>
     <use xlink:href="#DejaVuSans-Bold-54" transform="translate(213.720703 0)"/>
     <use xlink:href="#DejaVuSans-Bold-49" transform="translate(281.933594 0)"/>
     <use xlink:href="#DejaVuSans-Bold-4f" transform="translate(319.140625 0)"/>
     <use xlink:href="#DejaVuSans-Bold-4e" transform="translate(404.150391 0)"/>
     <use xlink:href="#DejaVuSans-Bold-20" transform="translate(487.841797 0)"/>
     <use xlink:href="#DejaVuSans-Bold-56" transform="translate(522.65625 0)"/>
     <use xlink:href="#DejaVuSans-Bold-49" transform="translate(600.048828 0)"/>
     <use xlink:href="#DejaVuSans-Bold-45" transform="translate(637.255859 0)"/>
     <use xlink:href="#DejaVuSans-Bold-57" transform="translate(705.566406 0)"/>
     <use xlink:href="#DejaVuSans-Bold-20" transform="translate(815.869141 0)"/>
     <use xlink:href="#DejaVuSans-Bold-2014" transform="translate(850.683594 0)"/>
     <use xlink:href="#DejaVuSans-Bold-20" transform="translate(950.683594 0)"/>
     <use xlink:href="#DejaVuSans-Bold-56" transform="translate(985.498047 0)"/>
     <use xlink:href="#DejaVuSans-Bold-65" transform="translate(1057.390625 0)"/>
     <use xlink:href="#DejaVuSans-Bold-6e" transform="translate(1125.212891 0)"/>
     <use xlink:href="#DejaVuSans-Bold-74" transform="translate(1196.404297 0)"/>
     <use xlink:href="#DejaVuSans-Bold-75" transform="translate(1244.207031 0)"/>
     <use xlink:href="#DejaVuSans-Bold-72" transform="translate(1315.398438 0)"/>
     <use xlink:href="#DejaVuSans-Bold-69" transform="translate(1364.714844 0)"/>
     <use xlink:href="#DejaVuSans-Bold-20" transform="translate(1398.992188 0)"/>
     <use xlink:href="#DejaVuSans-Bold-50" transform="translate(1433.806641 0)"/>
     <use xlink:href="#DejaVuSans-Bold-72" transform="translate(1507.097656 0)"/>
     <use xlink:href="#DejaVuSans-Bold-6f" transform="translate(1556.414062 0)"/>
     <use xlink:href="#DejaVuSans-Bold-66" transform="translate(1625.115234 0)"/>
     <use xlink:href="#DejaVuSans-Bold-69" transform="translate(1668.621094 0)"/>
     <use xlink:href="#DejaVuSans-Bold-6c" transform="translate(1702.898438 0)"/>
     <use xlink:href="#DejaVuSans-Bold-65" transform="translate(1737.175781 0)"/>
    </g>
   </g>
  </g>
  <g id="axes_2">
   <g id="patch_10">
    <path d="M 436.67915 292.984 
L 481.20995 292.984 
L 481.20995 119.4512 
L 436.67915 119.4512 
L 436.67915 292.984 
z
" clip-path="url(#pb408f0101e)" style="fill: none; stroke: #27ae60; stroke-width: 1.5; stroke-linejoin: miter"/>
   </g>
   <g id="patch_11">
    <path d="M 458.94455 224.8104 
C 461.896977 224.8104 464.728877 222.851345 466.816558 219.364695 
C 468.904238 215.878045 470.07725 211.148468 470.07725 206.2176 
C 470.07725 201.286732 468.904238 196.557155 466.816558 193.070505 
C 464.728877 189.583855 461.896977 187.6248 458.94455 187.6248 
C 455.992123 187.6248 453.160223 189.583855 451.072542 193.070505 
C 448.984862 196.557155 447.81185 201.286732 447.81185 206.2176 
C 447.81185 211.148468 448.984862 215.878045 451.072542 219.364695 
C 453.160223 222.851345 455.992123 224.8104 458.94455 224.8104 
L 458.94455 224.8104 
z
" clip-path="url(#pb408f0101e)" style="fill: none; stroke: #c0392b; stroke-width: 2; stroke-linejoin: miter"/>
   </g>
   <g id="patch_12">
    <path d="M 518.31895 292.984 
L 562.84975 292.984 
L 562.84975 119.4512 
L 518.31895 119.4512 
L 518.31895 292.984 
z
" clip-path="url(#pb408f0101e)" style="fill: none; stroke: #27ae60; stroke-width: 1.5; stroke-linejoin: miter"/>
   </g>
   <g id="patch_13">
    <path d="M 540.58435 231.008 
C 544.520919 231.008 548.296786 228.395927 551.08036 223.74706 
C 553.863935 219.098193 555.42795 212.792091 555.42795 206.2176 
C 555.42795 199.643109 553.863935 193.337007 551.08036 188.68814 
C 548.296786 184.039273 544.520919 181.4272 540.58435 181.4272 
C 536.647781 181.4272 532.871914 184.039273 530.08834 188.68814 
C 527.304765 193.337007 525.74075 199.643109 525.74075 206.2176 
C 525.74075 212.792091 527.304765 219.098193 530.08834 223.74706 
C 532.871914 228.395927 536.647781 231.008 540.58435 231.008 
L 540.58435 231.008 
z
" clip-path="url(#pb408f0101e)" style="fill: none; stroke: #c0392b; stroke-width: 2; stroke-linejoin: miter"/>
   </g>
   <g id="patch_14">
    <path d="M 599.95875 292.984 
L 644.48955 292.984 
L 644.48955 119.4512 
L 599.95875 119.4512 
L 599.95875 292.984 
z
" clip-path="url(#pb408f0101e)" style="fill: none; stroke: #27ae60; stroke-width: 1.5; stroke-linejoin: miter"/>
   </g>
   <g id="patch_15">
    <path d="M 622.22415 237.2056 
C 627.144861 237.2056 631.864695 233.940509 635.344163 228.129425 
C 638.823631 222.318341 640.77865 214.435714 640.77865 206.2176 
C 640.77865 197.999486 638.823631 190.116859 635.344163 184.305775 
C 631.864695 178.494691 627.144861 175.2296 622.22415 175.2296 
C 617.303439 175.2296 612.583605 178.494691 609.104137 184.305775 
C 605.624669 190.116859 603.66965 197.999486 603.66965 206.2176 
C 603.66965 214.435714 605.624669 222.318341 609.104137 228.129425 
C 612.583605 233.940509 617.303439 237.2056 622.22415 237.2056 
L 622.22415 237.2056 
z
" clip-path="url(#pb408f0101e)" style="fill: none; stroke: #c0392b; stroke-width: 2; stroke-linejoin: miter"/>
   </g>
   <g id="patch_16">
    <path d="M 681.59855 292.984 
L 726.12935 292.984 
L 726.12935 119.4512 
L 681.59855 119.4512 
L 681.59855 292.984 
z
" clip-path="url(#pb408f0101e)" style="fill: none; stroke: #27ae60; stroke-width: 1.5; stroke-linejoin: miter"/>
   </g>
   <g id="patch_17">
    <path d="M 703.86395 243.4032 
C 709.768803 243.4032 715.432604 239.485091 719.607965 232.51179 
C 723.783327 225.538489 726.12935 216.079336 726.12935 206.2176 
C 726.12935 196.355864 723.783327 186.896711 719.607965 179.92341 
C 715.432604 172.950109 709.768803 169.032 703.86395 169.032 
C 697.959097 169.032 692.295296 172.950109 688.119935 179.92341 
C 683.944573 186.896711 681.59855 196.355864 681.59855 206.2176 
C 681.59855 216.079336 683.944573 225.538489 688.119935 232.51179 
C 692.295296 239.485091 697.959097 243.4032 703.86395 243.4032 
L 703.86395 243.4032 
z
" clip-path="url(#pb408f0101e)" style="fill: none; stroke: #c0392b; stroke-width: 2; stroke-linejoin: miter"/>
   </g>
   <g id="text_19">
    <!-- Ø6 mm -->
    <g transform="translate(443.03205 323.972) scale(0.08 -0.08)">
     <defs>
      <path id="DejaVuSans-Bold-d8" d="M 1888 1159 
Q 2050 966 2254 873 
Q 2459 781 2719 781 
Q 3272 781 3575 1187 
Q 3878 1594 3878 2328 
Q 3878 2541 3854 2723 
Q 3831 2906 3781 3059 
L 1888 1159 
z
M 3541 3519 
Q 3381 3700 3178 3789 
Q 2975 3878 2719 3878 
Q 2169 3878 1866 3472 
Q 1563 3066 1563 2328 
Q 1563 2128 1584 1951 
Q 1606 1775 1650 1631 
L 3541 3519 
z
M 781 763 
Q 550 1075 434 1465 
Q 319 1856 319 2328 
Q 319 3463 958 4106 
Q 1597 4750 2719 4750 
Q 3200 4750 3587 4633 
Q 3975 4516 4294 4275 
L 4916 4897 
L 5269 4538 
L 4641 3916 
Q 4881 3606 5000 3207 
Q 5119 2809 5119 2328 
Q 5119 1197 4481 553 
Q 3844 -91 2719 -91 
Q 2241 -91 1842 32 
Q 1444 156 1125 403 
L 494 -231 
L 141 122 
L 781 763 
z
" transform="scale(0.015625)"/>
      <path id="DejaVuSans-Bold-36" d="M 2316 2303 
Q 2000 2303 1842 2098 
Q 1684 1894 1684 1484 
Q 1684 1075 1842 870 
Q 2000 666 2316 666 
Q 2634 666 2792 870 
Q 2950 1075 2950 1484 
Q 2950 1894 2792 2098 
Q 2634 2303 2316 2303 
z
M 3803 4544 
L 3803 3681 
Q 3506 3822 3243 3889 
Q 2981 3956 2731 3956 
Q 2194 3956 1894 3657 
Q 1594 3359 1544 2772 
Q 1750 2925 1990 3001 
Q 2231 3078 2516 3078 
Q 3231 3078 3670 2659 
Q 4109 2241 4109 1563 
Q 4109 813 3618 361 
Q 3128 -91 2303 -91 
Q 1394 -91 895 523 
Q 397 1138 397 2266 
Q 397 3422 980 4083 
Q 1563 4744 2578 4744 
Q 2900 4744 3203 4694 
Q 3506 4644 3803 4544 
z
" transform="scale(0.015625)"/>
      <path id="DejaVuSans-Bold-6d" d="M 3781 2919 
Q 3994 3244 4286 3414 
Q 4578 3584 4928 3584 
Q 5531 3584 5847 3212 
Q 6163 2841 6163 2131 
L 6163 0 
L 5038 0 
L 5038 1825 
Q 5041 1866 5042 1909 
Q 5044 1953 5044 2034 
Q 5044 2406 4934 2573 
Q 4825 2741 4581 2741 
Q 4263 2741 4089 2478 
Q 3916 2216 3909 1719 
L 3909 0 
L 2784 0 
L 2784 1825 
Q 2784 2406 2684 2573 
Q 2584 2741 2328 2741 
Q 2006 2741 1831 2477 
Q 1656 2213 1656 1722 
L 1656 0 
L 531 0 
L 531 3500 
L 1656 3500 
L 1656 2988 
Q 1863 3284 2130 3434 
Q 2397 3584 2719 3584 
Q 3081 3584 3359 3409 
Q 3638 3234 3781 2919 
z
" transform="scale(0.015625)"/>
     </defs>
     <use xlink:href="#DejaVuSans-Bold-d8"/>
     <use xlink:href="#DejaVuSans-Bold-36" transform="translate(85.009766 0)"/>
     <use xlink:href="#DejaVuSans-Bold-20" transform="translate(154.589844 0)"/>
     <use xlink:href="#DejaVuSans-Bold-6d" transform="translate(189.404297 0)"/>
     <use xlink:href="#DejaVuSans-Bold-6d" transform="translate(293.603516 0)"/>
    </g>
   </g>
   <g id="text_20">
    <!-- Ø8 mm -->
    <g transform="translate(524.67185 323.972) scale(0.08 -0.08)">
     <defs>
      <path id="DejaVuSans-Bold-38" d="M 2228 2088 
Q 1891 2088 1709 1903 
Q 1528 1719 1528 1375 
Q 1528 1031 1709 848 
Q 1891 666 2228 666 
Q 2563 666 2741 848 
Q 2919 1031 2919 1375 
Q 2919 1722 2741 1905 
Q 2563 2088 2228 2088 
z
M 1350 2484 
Q 925 2613 709 2878 
Q 494 3144 494 3541 
Q 494 4131 934 4440 
Q 1375 4750 2228 4750 
Q 3075 4750 3515 4442 
Q 3956 4134 3956 3541 
Q 3956 3144 3739 2878 
Q 3522 2613 3097 2484 
Q 3572 2353 3814 2058 
Q 4056 1763 4056 1313 
Q 4056 619 3595 264 
Q 3134 -91 2228 -91 
Q 1319 -91 855 264 
Q 391 619 391 1313 
Q 391 1763 633 2058 
Q 875 2353 1350 2484 
z
M 1631 3419 
Q 1631 3141 1786 2991 
Q 1941 2841 2228 2841 
Q 2509 2841 2662 2991 
Q 2816 3141 2816 3419 
Q 2816 3697 2662 3845 
Q 2509 3994 2228 3994 
Q 1941 3994 1786 3844 
Q 1631 3694 1631 3419 
z
" transform="scale(0.015625)"/>
     </defs>
     <use xlink:href="#DejaVuSans-Bold-d8"/>
     <use xlink:href="#DejaVuSans-Bold-38" transform="translate(85.009766 0)"/>
     <use xlink:href="#DejaVuSans-Bold-20" transform="translate(154.589844 0)"/>
     <use xlink:href="#DejaVuSans-Bold-6d" transform="translate(189.404297 0)"/>
     <use xlink:href="#DejaVuSans-Bold-6d" transform="translate(293.603516 0)"/>
    </g>
   </g>
   <g id="text_21">
    <!-- Ø10 mm -->
    <g transform="translate(603.528525 323.972) scale(0.08 -0.08)">
     <defs>
      <path id="DejaVuSans-Bold-31" d="M 750 831 
L 1813 831 
L 1813 3847 
L 722 3622 
L 722 4441 
L 1806 4666 
L 2950 4666 
L 2950 831 
L 4013 831 
L 4013 0 
L 750 0 
L 750 831 
z
" transform="scale(0.015625)"/>
      <path id="DejaVuSans-Bold-30" d="M 2944 2338 
Q 2944 3213 2780 3570 
Q 2616 3928 2228 3928 
Q 1841 3928 1675 3570 
Q 1509 3213 1509 2338 
Q 1509 1453 1675 1090 
Q 1841 728 2228 728 
Q 2613 728 2778 1090 
Q 2944 1453 2944 2338 
z
M 4147 2328 
Q 4147 1169 3647 539 
Q 3147 -91 2228 -91 
Q 1306 -91 806 539 
Q 306 1169 306 2328 
Q 306 3491 806 4120 
Q 1306 4750 2228 4750 
Q 3147 4750 3647 4120 
Q 4147 3491 4147 2328 
z
" transform="scale(0.015625)"/>
     </defs>
     <use xlink:href="#DejaVuSans-Bold-d8"/>
     <use xlink:href="#DejaVuSans-Bold-31" transform="translate(85.009766 0)"/>
     <use xlink:href="#DejaVuSans-Bold-30" transform="translate(154.589844 0)"/>
     <use xlink:href="#DejaVuSans-Bold-20" transform="translate(224.169922 0)"/>
     <use xlink:href="#DejaVuSans-Bold-6d" transform="translate(258.984375 0)"/>
     <use xlink:href="#DejaVuSans-Bold-6d" transform="translate(363.183594 0)"/>
    </g>
   </g>
   <g id="text_22">
    <!-- Ø12 mm -->
    <g transform="translate(685.168325 323.972) scale(0.08 -0.08)">
     <defs>
      <path id="DejaVuSans-Bold-32" d="M 1844 884 
L 3897 884 
L 3897 0 
L 506 0 
L 506 884 
L 2209 2388 
Q 2438 2594 2547 2791 
Q 2656 2988 2656 3200 
Q 2656 3528 2436 3728 
Q 2216 3928 1850 3928 
Q 1569 3928 1234 3808 
Q 900 3688 519 3450 
L 519 4475 
Q 925 4609 1322 4679 
Q 1719 4750 2100 4750 
Q 2938 4750 3402 4381 
Q 3866 4013 3866 3353 
Q 3866 2972 3669 2642 
Q 3472 2313 2841 1759 
L 1844 884 
z
" transform="scale(0.015625)"/>
     </defs>
     <use xlink:href="#DejaVuSans-Bold-d8"/>
     <use xlink:href="#DejaVuSans-Bold-31" transform="translate(85.009766 0)"/>
     <use xlink:href="#DejaVuSans-Bold-32" transform="translate(154.589844 0)"/>
     <use xlink:href="#DejaVuSans-Bold-20" transform="translate(224.169922 0)"/>
     <use xlink:href="#DejaVuSans-Bold-6d" transform="translate(258.984375 0)"/>
     <use xlink:href="#DejaVuSans-Bold-6d" transform="translate(363.183594 0)"/>
    </g>
   </g>
   <g id="text_23">
    <!-- Print 4–6 inserts. Swap to tune -->
    <g transform="translate(538.566875 85.70255) scale(0.08 -0.08)">
     <defs>
      <path id="DejaVuSans-Oblique-50" d="M 1081 4666 
L 2541 4666 
Q 3178 4666 3512 4369 
Q 3847 4072 3847 3500 
Q 3847 2731 3353 2303 
Q 2859 1875 1966 1875 
L 1172 1875 
L 806 0 
L 172 0 
L 1081 4666 
z
M 1613 4147 
L 1275 2394 
L 2069 2394 
Q 2606 2394 2893 2669 
Q 3181 2944 3181 3456 
Q 3181 3784 2986 3965 
Q 2791 4147 2438 4147 
L 1613 4147 
z
" transform="scale(0.015625)"/>
      <path id="DejaVuSans-Oblique-72" d="M 2853 2969 
Q 2766 3016 2653 3041 
Q 2541 3066 2413 3066 
Q 1953 3066 1609 2717 
Q 1266 2369 1153 1784 
L 800 0 
L 225 0 
L 909 3500 
L 1484 3500 
L 1375 2956 
Q 1603 3259 1920 3421 
Q 2238 3584 2597 3584 
Q 2691 3584 2781 3573 
Q 2872 3563 2963 3538 
L 2853 2969 
z
" transform="scale(0.015625)"/>
      <path id="DejaVuSans-Oblique-69" d="M 1172 4863 
L 1747 4863 
L 1606 4134 
L 1031 4134 
L 1172 4863 
z
M 909 3500 
L 1484 3500 
L 800 0 
L 225 0 
L 909 3500 
z
" transform="scale(0.015625)"/>
      <path id="DejaVuSans-Oblique-6e" d="M 3566 2113 
L 3156 0 
L 2578 0 
L 2988 2091 
Q 3016 2238 3031 2350 
Q 3047 2463 3047 2528 
Q 3047 2791 2881 2937 
Q 2716 3084 2419 3084 
Q 1956 3084 1622 2776 
Q 1288 2469 1184 1941 
L 800 0 
L 225 0 
L 903 3500 
L 1478 3500 
L 1363 2950 
Q 1603 3253 1940 3418 
Q 2278 3584 2650 3584 
Q 3113 3584 3367 3334 
Q 3622 3084 3622 2631 
Q 3622 2519 3608 2391 
Q 3594 2263 3566 2113 
z
" transform="scale(0.015625)"/>
      <path id="DejaVuSans-Oblique-74" d="M 2706 3500 
L 2619 3053 
L 1472 3053 
L 1100 1153 
Q 1081 1047 1072 975 
Q 1063 903 1063 863 
Q 1063 663 1183 572 
Q 1303 481 1569 481 
L 2150 481 
L 2053 0 
L 1503 0 
Q 991 0 739 200 
Q 488 400 488 806 
Q 488 878 497 964 
Q 506 1050 525 1153 
L 897 3053 
L 409 3053 
L 500 3500 
L 978 3500 
L 1172 4494 
L 1747 4494 
L 1556 3500 
L 2706 3500 
z
" transform="scale(0.015625)"/>
      <path id="DejaVuSans-Oblique-20" transform="scale(0.015625)"/>
      <path id="DejaVuSans-Oblique-34" d="M 2753 4666 
L 3547 4666 
L 2950 1625 
L 3616 1625 
L 3513 1100 
L 2847 1100 
L 2638 0 
L 2009 0 
L 2222 1100 
L 116 1100 
L 238 1709 
L 2753 4666 
z
M 2809 4116 
L 728 1625 
L 2322 1625 
L 2809 4116 
z
" transform="scale(0.015625)"/>
      <path id="DejaVuSans-Oblique-2013" d="M 356 1978 
L 2931 1978 
L 2844 1528 
L 269 1528 
L 356 1978 
z
" transform="scale(0.015625)"/>
      <path id="DejaVuSans-Oblique-36" d="M 2938 1728 
Q 2938 2125 2734 2354 
Q 2531 2584 2181 2584 
Q 1697 2584 1367 2211 
Q 1038 1838 1038 1288 
Q 1038 875 1239 642 
Q 1441 409 1797 409 
Q 2284 409 2611 792 
Q 2938 1175 2938 1728 
z
M 3788 4556 
L 3681 3981 
Q 3500 4100 3265 4162 
Q 3031 4225 2766 4225 
Q 2119 4225 1726 3819 
Q 1334 3413 1141 2547 
Q 1369 2813 1670 2948 
Q 1972 3084 2322 3084 
Q 2894 3084 3233 2754 
Q 3572 2425 3572 1869 
Q 3572 1413 3405 1020 
Q 3238 628 2919 331 
Q 2700 128 2409 18 
Q 2119 -91 1791 -91 
Q 1147 -91 775 318 
Q 403 728 403 1441 
Q 403 2103 573 2717 
Q 744 3331 1050 3781 
Q 1372 4256 1830 4503 
Q 2288 4750 2841 4750 
Q 3084 4750 3321 4701 
Q 3559 4653 3788 4556 
z
" transform="scale(0.015625)"/>
      <path id="DejaVuSans-Oblique-73" d="M 3200 3397 
L 3091 2853 
Q 2863 2978 2609 3040 
Q 2356 3103 2088 3103 
Q 1634 3103 1373 2948 
Q 1113 2794 1113 2528 
Q 1113 2219 1719 2053 
Q 1766 2041 1788 2034 
L 1972 1978 
Q 2547 1819 2739 1644 
Q 2931 1469 2931 1166 
Q 2931 609 2489 259 
Q 2047 -91 1331 -91 
Q 1053 -91 747 -37 
Q 441 16 72 128 
L 184 722 
Q 500 559 806 475 
Q 1113 391 1394 391 
Q 1816 391 2080 572 
Q 2344 753 2344 1031 
Q 2344 1331 1650 1516 
L 1591 1531 
L 1394 1581 
Q 956 1697 753 1886 
Q 550 2075 550 2369 
Q 550 2928 970 3256 
Q 1391 3584 2113 3584 
Q 2397 3584 2667 3537 
Q 2938 3491 3200 3397 
z
" transform="scale(0.015625)"/>
      <path id="DejaVuSans-Oblique-65" d="M 3078 2063 
Q 3088 2113 3092 2166 
Q 3097 2219 3097 2272 
Q 3097 2653 2873 2875 
Q 2650 3097 2266 3097 
Q 1838 3097 1509 2826 
Q 1181 2556 1013 2059 
L 3078 2063 
z
M 3578 1613 
L 903 1613 
Q 884 1494 878 1425 
Q 872 1356 872 1306 
Q 872 872 1139 634 
Q 1406 397 1894 397 
Q 2269 397 2603 481 
Q 2938 566 3225 728 
L 3116 159 
Q 2806 34 2476 -28 
Q 2147 -91 1806 -91 
Q 1078 -91 686 257 
Q 294 606 294 1247 
Q 294 1794 489 2264 
Q 684 2734 1063 3103 
Q 1306 3334 1642 3459 
Q 1978 3584 2356 3584 
Q 2950 3584 3301 3228 
Q 3653 2872 3653 2272 
Q 3653 2128 3634 1964 
Q 3616 1800 3578 1613 
z
" transform="scale(0.015625)"/>
      <path id="DejaVuSans-Oblique-2e" d="M 525 794 
L 1184 794 
L 1031 0 
L 372 0 
L 525 794 
z
" transform="scale(0.015625)"/>
      <path id="DejaVuSans-Oblique-53" d="M 3859 4513 
L 3738 3897 
Q 3422 4066 3111 4152 
Q 2800 4238 2509 4238 
Q 1944 4238 1609 3991 
Q 1275 3744 1275 3334 
Q 1275 3109 1398 2989 
Q 1522 2869 2034 2731 
L 2413 2638 
Q 3053 2472 3303 2217 
Q 3553 1963 3553 1503 
Q 3553 797 2998 353 
Q 2444 -91 1538 -91 
Q 1166 -91 791 -17 
Q 416 56 38 206 
L 166 856 
Q 513 641 861 531 
Q 1209 422 1556 422 
Q 2147 422 2503 684 
Q 2859 947 2859 1369 
Q 2859 1650 2717 1795 
Q 2575 1941 2106 2059 
L 1728 2156 
Q 1081 2325 845 2545 
Q 609 2766 609 3163 
Q 609 3859 1145 4304 
Q 1681 4750 2541 4750 
Q 2875 4750 3203 4690 
Q 3531 4631 3859 4513 
z
" transform="scale(0.015625)"/>
      <path id="DejaVuSans-Oblique-77" d="M 544 3500 
L 1113 3500 
L 1259 684 
L 2566 3500 
L 3231 3500 
L 3425 684 
L 4666 3500 
L 5241 3500 
L 3641 0 
L 2969 0 
L 2797 2900 
L 1459 0 
L 781 0 
L 544 3500 
z
" transform="scale(0.015625)"/>
      <path id="DejaVuSans-Oblique-61" d="M 3438 1997 
L 3047 0 
L 2472 0 
L 2578 531 
Q 2325 219 2001 64 
Q 1678 -91 1281 -91 
Q 834 -91 548 182 
Q 263 456 263 884 
Q 263 1497 752 1853 
Q 1241 2209 2100 2209 
L 2900 2209 
L 2931 2363 
Q 2938 2388 2941 2417 
Q 2944 2447 2944 2509 
Q 2944 2788 2717 2942 
Q 2491 3097 2081 3097 
Q 1800 3097 1504 3025 
Q 1209 2953 897 2809 
L 997 3341 
Q 1322 3463 1633 3523 
Q 1944 3584 2234 3584 
Q 2853 3584 3176 3315 
Q 3500 3047 3500 2534 
Q 3500 2431 3484 2292 
Q 3469 2153 3438 1997 
z
M 2816 1759 
L 2241 1759 
Q 1534 1759 1195 1570 
Q 856 1381 856 984 
Q 856 709 1029 553 
Q 1203 397 1509 397 
Q 1978 397 2328 733 
Q 2678 1069 2791 1631 
L 2816 1759 
z
" transform="scale(0.015625)"/>
      <path id="DejaVuSans-Oblique-70" d="M 3175 2156 
Q 3175 2616 2975 2859 
Q 2775 3103 2400 3103 
Q 2144 3103 1911 2972 
Q 1678 2841 1497 2591 
Q 1319 2344 1212 1994 
Q 1106 1644 1106 1300 
Q 1106 863 1306 627 
Q 1506 391 1875 391 
Q 2147 391 2380 519 
Q 2613 647 2778 891 
Q 2956 1147 3065 1494 
Q 3175 1841 3175 2156 
z
M 1394 2969 
Q 1625 3272 1939 3428 
Q 2253 3584 2638 3584 
Q 3175 3584 3472 3232 
Q 3769 2881 3769 2247 
Q 3769 1728 3584 1258 
Q 3400 788 3053 416 
Q 2822 169 2531 39 
Q 2241 -91 1919 -91 
Q 1547 -91 1294 64 
Q 1041 219 916 525 
L 556 -1331 
L -19 -1331 
L 922 3500 
L 1497 3500 
L 1394 2969 
z
" transform="scale(0.015625)"/>
      <path id="DejaVuSans-Oblique-6f" d="M 1625 -91 
Q 1009 -91 651 289 
Q 294 669 294 1325 
Q 294 1706 417 2101 
Q 541 2497 738 2766 
Q 1047 3184 1428 3384 
Q 1809 3584 2291 3584 
Q 2888 3584 3255 3212 
Q 3622 2841 3622 2241 
Q 3622 1825 3500 1412 
Q 3378 1000 3181 728 
Q 2875 309 2494 109 
Q 2113 -91 1625 -91 
z
M 891 1344 
Q 891 869 1089 633 
Q 1288 397 1691 397 
Q 2269 397 2648 901 
Q 3028 1406 3028 2181 
Q 3028 2634 2825 2865 
Q 2622 3097 2228 3097 
Q 1903 3097 1650 2945 
Q 1397 2794 1197 2484 
Q 1050 2253 970 1956 
Q 891 1659 891 1344 
z
" transform="scale(0.015625)"/>
      <path id="DejaVuSans-Oblique-75" d="M 428 1388 
L 838 3500 
L 1416 3500 
L 1006 1409 
Q 975 1256 961 1147 
Q 947 1038 947 966 
Q 947 700 1109 554 
Q 1272 409 1569 409 
Q 2031 409 2368 721 
Q 2706 1034 2809 1563 
L 3194 3500 
L 3769 3500 
L 3091 0 
L 2516 0 
L 2631 550 
Q 2388 244 2052 76 
Q 1716 -91 1338 -91 
Q 878 -91 622 161 
Q 366 413 366 863 
Q 366 956 381 1097 
Q 397 1238 428 1388 
z
" transform="scale(0.015625)"/>
     </defs>
     <use xlink:href="#DejaVuSans-Oblique-50"/>
     <use xlink:href="#DejaVuSans-Oblique-72" transform="translate(60.302734 0)"/>
     <use xlink:href="#DejaVuSans-Oblique-69" transform="translate(101.416016 0)"/>
     <use xlink:href="#DejaVuSans-Oblique-6e" transform="translate(129.199219 0)"/>
     <use xlink:href="#DejaVuSans-Oblique-74" transform="translate(192.578125 0)"/>
     <use xlink:href="#DejaVuSans-Oblique-20" transform="translate(231.787109 0)"/>
     <use xlink:href="#DejaVuSans-Oblique-34" transform="translate(263.574219 0)"/>
     <use xlink:href="#DejaVuSans-Oblique-2013" transform="translate(327.197266 0)"/>
     <use xlink:href="#DejaVuSans-Oblique-36" transform="translate(377.197266 0)"/>
     <use xlink:href="#DejaVuSans-Oblique-20" transform="translate(440.820312 0)"/>
     <use xlink:href="#DejaVuSans-Oblique-69" transform="translate(472.607422 0)"/>
     <use xlink:href="#DejaVuSans-Oblique-6e" transform="translate(500.390625 0)"/>
     <use xlink:href="#DejaVuSans-Oblique-73" transform="translate(563.769531 0)"/>
     <use xlink:href="#DejaVuSans-Oblique-65" transform="translate(615.869141 0)"/>
     <use xlink:href="#DejaVuSans-Oblique-72" transform="translate(677.392578 0)"/>
     <use xlink:href="#DejaVuSans-Oblique-74" transform="translate(718.505859 0)"/>
     <use xlink:href="#DejaVuSans-Oblique-73" transform="translate(757.714844 0)"/>
     <use xlink:href="#DejaVuSans-Oblique-2e" transform="translate(809.814453 0)"/>
     <use xlink:href="#DejaVuSans-Oblique-20" transform="translate(841.601562 0)"/>
     <use xlink:href="#DejaVuSans-Oblique-53" transform="translate(873.388672 0)"/>
     <use xlink:href="#DejaVuSans-Oblique-77" transform="translate(936.865234 0)"/>
     <use xlink:href="#DejaVuSans-Oblique-61" transform="translate(1018.652344 0)"/>
     <use xlink:href="#DejaVuSans-Oblique-70" transform="translate(1079.931641 0)"/>
     <use xlink:href="#DejaVuSans-Oblique-20" transform="translate(1143.408203 0)"/>
     <use xlink:href="#DejaVuSans-Oblique-74" transform="translate(1175.195312 0)"/>
     <use xlink:href="#DejaVuSans-Oblique-6f" transform="translate(1214.404297 0)"/>
     <use xlink:href="#DejaVuSans-Oblique-20" transform="translate(1275.585938 0)"/>
     <use xlink:href="#DejaVuSans-Oblique-74" transform="translate(1307.373047 0)"/>
     <use xlink:href="#DejaVuSans-Oblique-75" transform="translate(1346.582031 0)"/>
     <use xlink:href="#DejaVuSans-Oblique-6e" transform="translate(1409.960938 0)"/>
     <use xlink:href="#DejaVuSans-Oblique-65" transform="translate(1473.339844 0)"/>
    </g>
    <!-- pressure drop and bubble intensity. -->
    <g transform="translate(528.69625 94.6608) scale(0.08 -0.08)">
     <defs>
      <path id="DejaVuSans-Oblique-64" d="M 2675 525 
Q 2444 222 2128 65 
Q 1813 -91 1428 -91 
Q 903 -91 598 267 
Q 294 625 294 1247 
Q 294 1766 478 2236 
Q 663 2706 1013 3078 
Q 1244 3325 1534 3454 
Q 1825 3584 2144 3584 
Q 2481 3584 2739 3421 
Q 2997 3259 3138 2956 
L 3513 4863 
L 4091 4863 
L 3144 0 
L 2566 0 
L 2675 525 
z
M 891 1350 
Q 891 897 1095 644 
Q 1300 391 1663 391 
Q 1931 391 2161 520 
Q 2391 650 2566 903 
Q 2750 1166 2856 1509 
Q 2963 1853 2963 2188 
Q 2963 2622 2758 2865 
Q 2553 3109 2194 3109 
Q 1922 3109 1687 2981 
Q 1453 2853 1288 2613 
Q 1106 2353 998 2009 
Q 891 1666 891 1350 
z
" transform="scale(0.015625)"/>
      <path id="DejaVuSans-Oblique-62" d="M 3169 2138 
Q 3169 2591 2961 2847 
Q 2753 3103 2388 3103 
Q 2122 3103 1889 2973 
Q 1656 2844 1484 2597 
Q 1303 2338 1198 1995 
Q 1094 1653 1094 1313 
Q 1094 881 1298 636 
Q 1503 391 1863 391 
Q 2134 391 2365 517 
Q 2597 644 2772 891 
Q 2950 1147 3059 1487 
Q 3169 1828 3169 2138 
z
M 1381 2969 
Q 1594 3256 1914 3420 
Q 2234 3584 2584 3584 
Q 3122 3584 3439 3221 
Q 3756 2859 3756 2241 
Q 3756 1734 3570 1259 
Q 3384 784 3041 416 
Q 2816 172 2522 40 
Q 2228 -91 1906 -91 
Q 1566 -91 1316 65 
Q 1066 222 909 531 
L 806 0 
L 231 0 
L 1178 4863 
L 1753 4863 
L 1381 2969 
z
" transform="scale(0.015625)"/>
      <path id="DejaVuSans-Oblique-6c" d="M 1172 4863 
L 1747 4863 
L 800 0 
L 225 0 
L 1172 4863 
z
" transform="scale(0.015625)"/>
      <path id="DejaVuSans-Oblique-79" d="M 1588 -325 
Q 1188 -997 936 -1164 
Q 684 -1331 294 -1331 
L -159 -1331 
L -63 -850 
L 269 -850 
Q 509 -850 678 -719 
Q 847 -588 1056 -206 
L 1234 128 
L 459 3500 
L 1069 3500 
L 1650 819 
L 3256 3500 
L 3859 3500 
L 1588 -325 
z
" transform="scale(0.015625)"/>
     </defs>
     <use xlink:href="#DejaVuSans-Oblique-70"/>
     <use xlink:href="#DejaVuSans-Oblique-72" transform="translate(63.476562 0)"/>
     <use xlink:href="#DejaVuSans-Oblique-65" transform="translate(104.589844 0)"/>
     <use xlink:href="#DejaVuSans-Oblique-73" transform="translate(166.113281 0)"/>
     <use xlink:href="#DejaVuSans-Oblique-73" transform="translate(218.212891 0)"/>
     <use xlink:href="#DejaVuSans-Oblique-75" transform="translate(270.3125 0)"/>
     <use xlink:href="#DejaVuSans-Oblique-72" transform="translate(333.691406 0)"/>
     <use xlink:href="#DejaVuSans-Oblique-65" transform="translate(374.804688 0)"/>
     <use xlink:href="#DejaVuSans-Oblique-20" transform="translate(436.328125 0)"/>
     <use xlink:href="#DejaVuSans-Oblique-64" transform="translate(468.115234 0)"/>
     <use xlink:href="#DejaVuSans-Oblique-72" transform="translate(531.591797 0)"/>
     <use xlink:href="#DejaVuSans-Oblique-6f" transform="translate(572.705078 0)"/>
     <use xlink:href="#DejaVuSans-Oblique-70" transform="translate(633.886719 0)"/>
     <use xlink:href="#DejaVuSans-Oblique-20" transform="translate(697.363281 0)"/>
     <use xlink:href="#DejaVuSans-Oblique-61" transform="translate(729.150391 0)"/>
     <use xlink:href="#DejaVuSans-Oblique-6e" transform="translate(790.429688 0)"/>
     <use xlink:href="#DejaVuSans-Oblique-64" transform="translate(853.808594 0)"/>
     <use xlink:href="#DejaVuSans-Oblique-20" transform="translate(917.285156 0)"/>
     <use xlink:href="#DejaVuSans-Oblique-62" transform="translate(949.072266 0)"/>
     <use xlink:href="#DejaVuSans-Oblique-75" transform="translate(1012.548828 0)"/>
     <use xlink:href="#DejaVuSans-Oblique-62" transform="translate(1075.927734 0)"/>
     <use xlink:href="#DejaVuSans-Oblique-62" transform="translate(1139.404297 0)"/>
     <use xlink:href="#DejaVuSans-Oblique-6c" transform="translate(1202.880859 0)"/>
     <use xlink:href="#DejaVuSans-Oblique-65" transform="translate(1230.664062 0)"/>
     <use xlink:href="#DejaVuSans-Oblique-20" transform="translate(1292.1875 0)"/>
     <use xlink:href="#DejaVuSans-Oblique-69" transform="translate(1323.974609 0)"/>
     <use xlink:href="#DejaVuSans-Oblique-6e" transform="translate(1351.757812 0)"/>
     <use xlink:href="#DejaVuSans-Oblique-74" transform="translate(1415.136719 0)"/>
     <use xlink:href="#DejaVuSans-Oblique-65" transform="translate(1454.345703 0)"/>
     <use xlink:href="#DejaVuSans-Oblique-6e" transform="translate(1515.869141 0)"/>
     <use xlink:href="#DejaVuSans-Oblique-73" transform="translate(1579.248047 0)"/>
     <use xlink:href="#DejaVuSans-Oblique-69" transform="translate(1631.347656 0)"/>
     <use xlink:href="#DejaVuSans-Oblique-74" transform="translate(1659.130859 0)"/>
     <use xlink:href="#DejaVuSans-Oblique-79" transform="translate(1698.339844 0)"/>
     <use xlink:href="#DejaVuSans-Oblique-2e" transform="translate(1749.769531 0)"/>
    </g>
   </g>
   <g id="text_24">
    <!-- ORIFICE INSERT FAMILY (Interchangeable) -->
    <g transform="translate(486.74175 39.08) scale(0.096 -0.096)">
     <defs>
      <path id="DejaVuSans-Bold-52" d="M 2297 2597 
Q 2675 2597 2839 2737 
Q 3003 2878 3003 3200 
Q 3003 3519 2839 3656 
Q 2675 3794 2297 3794 
L 1791 3794 
L 1791 2597 
L 2297 2597 
z
M 1791 1766 
L 1791 0 
L 588 0 
L 588 4666 
L 2425 4666 
Q 3347 4666 3776 4356 
Q 4206 4047 4206 3378 
Q 4206 2916 3982 2619 
Q 3759 2322 3309 2181 
Q 3556 2125 3751 1926 
Q 3947 1728 4147 1325 
L 4800 0 
L 3519 0 
L 2950 1159 
Q 2778 1509 2601 1637 
Q 2425 1766 2131 1766 
L 1791 1766 
z
" transform="scale(0.015625)"/>
      <path id="DejaVuSans-Bold-46" d="M 588 4666 
L 3834 4666 
L 3834 3756 
L 1791 3756 
L 1791 2888 
L 3713 2888 
L 3713 1978 
L 1791 1978 
L 1791 0 
L 588 0 
L 588 4666 
z
" transform="scale(0.015625)"/>
      <path id="DejaVuSans-Bold-41" d="M 3419 850 
L 1538 850 
L 1241 0 
L 31 0 
L 1759 4666 
L 3194 4666 
L 4922 0 
L 3713 0 
L 3419 850 
z
M 1838 1716 
L 3116 1716 
L 2478 3572 
L 1838 1716 
z
" transform="scale(0.015625)"/>
      <path id="DejaVuSans-Bold-4d" d="M 588 4666 
L 2119 4666 
L 3181 2169 
L 4250 4666 
L 5778 4666 
L 5778 0 
L 4641 0 
L 4641 3413 
L 3566 897 
L 2803 897 
L 1728 3413 
L 1728 0 
L 588 0 
L 588 4666 
z
" transform="scale(0.015625)"/>
      <path id="DejaVuSans-Bold-4c" d="M 588 4666 
L 1791 4666 
L 1791 909 
L 3903 909 
L 3903 0 
L 588 0 
L 588 4666 
z
" transform="scale(0.015625)"/>
      <path id="DejaVuSans-Bold-59" d="M -63 4666 
L 1253 4666 
L 2316 3003 
L 3378 4666 
L 4697 4666 
L 2919 1966 
L 2919 0 
L 1716 0 
L 1716 1966 
L -63 4666 
z
" transform="scale(0.015625)"/>
      <path id="DejaVuSans-Bold-28" d="M 2413 -844 
L 1484 -844 
Q 1006 -72 778 623 
Q 550 1319 550 2003 
Q 550 2688 779 3389 
Q 1009 4091 1484 4856 
L 2413 4856 
Q 2013 4116 1813 3408 
Q 1613 2700 1613 2009 
Q 1613 1319 1811 609 
Q 2009 -100 2413 -844 
z
" transform="scale(0.015625)"/>
      <path id="DejaVuSans-Bold-63" d="M 3366 3391 
L 3366 2478 
Q 3138 2634 2908 2709 
Q 2678 2784 2431 2784 
Q 1963 2784 1702 2511 
Q 1441 2238 1441 1747 
Q 1441 1256 1702 982 
Q 1963 709 2431 709 
Q 2694 709 2930 787 
Q 3166 866 3366 1019 
L 3366 103 
Q 3103 6 2833 -42 
Q 2563 -91 2291 -91 
Q 1344 -91 809 395 
Q 275 881 275 1747 
Q 275 2613 809 3098 
Q 1344 3584 2291 3584 
Q 2566 3584 2833 3536 
Q 3100 3488 3366 3391 
z
" transform="scale(0.015625)"/>
      <path id="DejaVuSans-Bold-68" d="M 4056 2131 
L 4056 0 
L 2931 0 
L 2931 347 
L 2931 1625 
Q 2931 2084 2911 2256 
Q 2891 2428 2841 2509 
Q 2775 2619 2662 2680 
Q 2550 2741 2406 2741 
Q 2056 2741 1856 2470 
Q 1656 2200 1656 1722 
L 1656 0 
L 538 0 
L 538 4863 
L 1656 4863 
L 1656 2988 
Q 1909 3294 2193 3439 
Q 2478 3584 2822 3584 
Q 3428 3584 3742 3212 
Q 4056 2841 4056 2131 
z
" transform="scale(0.015625)"/>
      <path id="DejaVuSans-Bold-61" d="M 2106 1575 
Q 1756 1575 1579 1456 
Q 1403 1338 1403 1106 
Q 1403 894 1545 773 
Q 1688 653 1941 653 
Q 2256 653 2472 879 
Q 2688 1106 2688 1447 
L 2688 1575 
L 2106 1575 
z
M 3816 1997 
L 3816 0 
L 2688 0 
L 2688 519 
Q 2463 200 2181 54 
Q 1900 -91 1497 -91 
Q 953 -91 614 226 
Q 275 544 275 1050 
Q 275 1666 698 1953 
Q 1122 2241 2028 2241 
L 2688 2241 
L 2688 2328 
Q 2688 2594 2478 2717 
Q 2269 2841 1825 2841 
Q 1466 2841 1156 2769 
Q 847 2697 581 2553 
L 581 3406 
Q 941 3494 1303 3539 
Q 1666 3584 2028 3584 
Q 2975 3584 3395 3211 
Q 3816 2838 3816 1997 
z
" transform="scale(0.015625)"/>
      <path id="DejaVuSans-Bold-67" d="M 2919 594 
Q 2688 288 2409 144 
Q 2131 0 1766 0 
Q 1125 0 706 504 
Q 288 1009 288 1791 
Q 288 2575 706 3076 
Q 1125 3578 1766 3578 
Q 2131 3578 2409 3434 
Q 2688 3291 2919 2981 
L 2919 3500 
L 4044 3500 
L 4044 353 
Q 4044 -491 3511 -936 
Q 2978 -1381 1966 -1381 
Q 1638 -1381 1331 -1331 
Q 1025 -1281 716 -1178 
L 716 -306 
Q 1009 -475 1290 -558 
Q 1572 -641 1856 -641 
Q 2406 -641 2662 -400 
Q 2919 -159 2919 353 
L 2919 594 
z
M 2181 2772 
Q 1834 2772 1640 2515 
Q 1447 2259 1447 1791 
Q 1447 1309 1634 1061 
Q 1822 813 2181 813 
Q 2531 813 2725 1069 
Q 2919 1325 2919 1791 
Q 2919 2259 2725 2515 
Q 2531 2772 2181 2772 
z
" transform="scale(0.015625)"/>
      <path id="DejaVuSans-Bold-62" d="M 2400 722 
Q 2759 722 2948 984 
Q 3138 1247 3138 1747 
Q 3138 2247 2948 2509 
Q 2759 2772 2400 2772 
Q 2041 2772 1848 2508 
Q 1656 2244 1656 1747 
Q 1656 1250 1848 986 
Q 2041 722 2400 722 
z
M 1656 2988 
Q 1888 3294 2169 3439 
Q 2450 3584 2816 3584 
Q 3463 3584 3878 3070 
Q 4294 2556 4294 1747 
Q 4294 938 3878 423 
Q 3463 -91 2816 -91 
Q 2450 -91 2169 54 
Q 1888 200 1656 506 
L 1656 0 
L 538 0 
L 538 4863 
L 1656 4863 
L 1656 2988 
z
" transform="scale(0.015625)"/>
      <path id="DejaVuSans-Bold-29" d="M 513 -844 
Q 913 -100 1113 609 
Q 1313 1319 1313 2009 
Q 1313 2700 1113 3408 
Q 913 4116 513 4856 
L 1441 4856 
Q 1916 4091 2145 3389 
Q 2375 2688 2375 2003 
Q 2375 1319 2147 623 
Q 1919 -72 1441 -844 
L 513 -844 
z
" transform="scale(0.015625)"/>
     </defs>
     <use xlink:href="#DejaVuSans-Bold-4f"/>
     <use xlink:href="#DejaVuSans-Bold-52" transform="translate(85.009766 0)"/>
     <use xlink:href="#DejaVuSans-Bold-49" transform="translate(162.011719 0)"/>
     <use xlink:href="#DejaVuSans-Bold-46" transform="translate(199.21875 0)"/>
     <use xlink:href="#DejaVuSans-Bold-49" transform="translate(267.529297 0)"/>
     <use xlink:href="#DejaVuSans-Bold-43" transform="translate(304.736328 0)"/>
     <use xlink:href="#DejaVuSans-Bold-45" transform="translate(378.125 0)"/>
     <use xlink:href="#DejaVuSans-Bold-20" transform="translate(446.435547 0)"/>
     <use xlink:href="#DejaVuSans-Bold-49" transform="translate(481.25 0)"/>
     <use xlink:href="#DejaVuSans-Bold-4e" transform="translate(518.457031 0)"/>
     <use xlink:href="#DejaVuSans-Bold-53" transform="translate(602.148438 0)"/>
     <use xlink:href="#DejaVuSans-Bold-45" transform="translate(674.169922 0)"/>
     <use xlink:href="#DejaVuSans-Bold-52" transform="translate(742.480469 0)"/>
     <use xlink:href="#DejaVuSans-Bold-54" transform="translate(814.982422 0)"/>
     <use xlink:href="#DejaVuSans-Bold-20" transform="translate(883.195312 0)"/>
     <use xlink:href="#DejaVuSans-Bold-46" transform="translate(918.009766 0)"/>
     <use xlink:href="#DejaVuSans-Bold-41" transform="translate(974.820312 0)"/>
     <use xlink:href="#DejaVuSans-Bold-4d" transform="translate(1052.212891 0)"/>
     <use xlink:href="#DejaVuSans-Bold-49" transform="translate(1151.724609 0)"/>
     <use xlink:href="#DejaVuSans-Bold-4c" transform="translate(1188.931641 0)"/>
     <use xlink:href="#DejaVuSans-Bold-59" transform="translate(1237.027344 0)"/>
     <use xlink:href="#DejaVuSans-Bold-20" transform="translate(1309.439453 0)"/>
     <use xlink:href="#DejaVuSans-Bold-28" transform="translate(1344.253906 0)"/>
     <use xlink:href="#DejaVuSans-Bold-49" transform="translate(1389.957031 0)"/>
     <use xlink:href="#DejaVuSans-Bold-6e" transform="translate(1427.164062 0)"/>
     <use xlink:href="#DejaVuSans-Bold-74" transform="translate(1498.355469 0)"/>
     <use xlink:href="#DejaVuSans-Bold-65" transform="translate(1546.158203 0)"/>
     <use xlink:href="#DejaVuSans-Bold-72" transform="translate(1613.980469 0)"/>
     <use xlink:href="#DejaVuSans-Bold-63" transform="translate(1663.296875 0)"/>
     <use xlink:href="#DejaVuSans-Bold-68" transform="translate(1722.574219 0)"/>
     <use xlink:href="#DejaVuSans-Bold-61" transform="translate(1793.765625 0)"/>
     <use xlink:href="#DejaVuSans-Bold-6e" transform="translate(1861.246094 0)"/>
     <use xlink:href="#DejaVuSans-Bold-67" transform="translate(1932.4375 0)"/>
     <use xlink:href="#DejaVuSans-Bold-65" transform="translate(2004.019531 0)"/>
     <use xlink:href="#DejaVuSans-Bold-61" transform="translate(2071.841797 0)"/>
     <use xlink:href="#DejaVuSans-Bold-62" transform="translate(2139.322266 0)"/>
     <use xlink:href="#DejaVuSans-Bold-6c" transform="translate(2210.904297 0)"/>
     <use xlink:href="#DejaVuSans-Bold-65" transform="translate(2245.181641 0)"/>
     <use xlink:href="#DejaVuSans-Bold-29" transform="translate(2313.003906 0)"/>
    </g>
   </g>
  </g>
  <g id="text_25">
   <!-- Cavitation Jet Nozzle — Venturi + Interchangeable Orifice Inserts -->
   <g transform="translate(196.512891 19.158281) scale(0.11 -0.11)">
    <defs>
     <path id="DejaVuSans-Bold-76" d="M 97 3500 
L 1216 3500 
L 2088 1081 
L 2956 3500 
L 4078 3500 
L 2700 0 
L 1472 0 
L 97 3500 
z
" transform="scale(0.015625)"/>
     <path id="DejaVuSans-Bold-4a" d="M 588 4666 
L 1791 4666 
L 1791 453 
Q 1791 -419 1317 -850 
Q 844 -1281 -116 -1281 
L -359 -1281 
L -359 -372 
L -172 -372 
Q 203 -372 395 -162 
Q 588 47 588 453 
L 588 4666 
z
" transform="scale(0.015625)"/>
     <path id="DejaVuSans-Bold-7a" d="M 366 3500 
L 3419 3500 
L 3419 2719 
L 1575 800 
L 3419 800 
L 3419 0 
L 288 0 
L 288 781 
L 2131 2700 
L 366 2700 
L 366 3500 
z
" transform="scale(0.015625)"/>
     <path id="DejaVuSans-Bold-2b" d="M 3053 4013 
L 3053 2375 
L 4684 2375 
L 4684 1638 
L 3053 1638 
L 3053 0 
L 2309 0 
L 2309 1638 
L 678 1638 
L 678 2375 
L 2309 2375 
L 2309 4013 
L 3053 4013 
z
" transform="scale(0.015625)"/>
     <path id="DejaVuSans-Bold-73" d="M 3272 3391 
L 3272 2541 
Q 2913 2691 2578 2766 
Q 2244 2841 1947 2841 
Q 1628 2841 1473 2761 
Q 1319 2681 1319 2516 
Q 1319 2381 1436 2309 
Q 1553 2238 1856 2203 
L 2053 2175 
Q 2913 2066 3209 1816 
Q 3506 1566 3506 1031 
Q 3506 472 3093 190 
Q 2681 -91 1863 -91 
Q 1516 -91 1145 -36 
Q 775 19 384 128 
L 384 978 
Q 719 816 1070 734 
Q 1422 653 1784 653 
Q 2113 653 2278 743 
Q 2444 834 2444 1013 
Q 2444 1163 2330 1236 
Q 2216 1309 1875 1350 
L 1678 1375 
Q 931 1469 631 1722 
Q 331 1975 331 2491 
Q 331 3047 712 3315 
Q 1094 3584 1881 3584 
Q 2191 3584 2531 3537 
Q 2872 3491 3272 3391 
z
" transform="scale(0.015625)"/>
    </defs>
    <use xlink:href="#DejaVuSans-Bold-43"/>
    <use xlink:href="#DejaVuSans-Bold-61" transform="translate(73.388672 0)"/>
    <use xlink:href="#DejaVuSans-Bold-76" transform="translate(140.869141 0)"/>
    <use xlink:href="#DejaVuSans-Bold-69" transform="translate(206.054688 0)"/>
    <use xlink:href="#DejaVuSans-Bold-74" transform="translate(240.332031 0)"/>
    <use xlink:href="#DejaVuSans-Bold-61" transform="translate(288.134766 0)"/>
    <use xlink:href="#DejaVuSans-Bold-74" transform="translate(355.615234 0)"/>
    <use xlink:href="#DejaVuSans-Bold-69" transform="translate(403.417969 0)"/>
    <use xlink:href="#DejaVuSans-Bold-6f" transform="translate(437.695312 0)"/>
    <use xlink:href="#DejaVuSans-Bold-6e" transform="translate(506.396484 0)"/>
    <use xlink:href="#DejaVuSans-Bold-20" transform="translate(577.587891 0)"/>
    <use xlink:href="#DejaVuSans-Bold-4a" transform="translate(612.402344 0)"/>
    <use xlink:href="#DejaVuSans-Bold-65" transform="translate(649.609375 0)"/>
    <use xlink:href="#DejaVuSans-Bold-74" transform="translate(717.431641 0)"/>
    <use xlink:href="#DejaVuSans-Bold-20" transform="translate(765.234375 0)"/>
    <use xlink:href="#DejaVuSans-Bold-4e" transform="translate(800.048828 0)"/>
    <use xlink:href="#DejaVuSans-Bold-6f" transform="translate(883.740234 0)"/>
    <use xlink:href="#DejaVuSans-Bold-7a" transform="translate(952.441406 0)"/>
    <use xlink:href="#DejaVuSans-Bold-7a" transform="translate(1010.644531 0)"/>
    <use xlink:href="#DejaVuSans-Bold-6c" transform="translate(1068.847656 0)"/>
    <use xlink:href="#DejaVuSans-Bold-65" transform="translate(1103.125 0)"/>
    <use xlink:href="#DejaVuSans-Bold-20" transform="translate(1170.947266 0)"/>
    <use xlink:href="#DejaVuSans-Bold-2014" transform="translate(1205.761719 0)"/>
    <use xlink:href="#DejaVuSans-Bold-20" transform="translate(1305.761719 0)"/>
    <use xlink:href="#DejaVuSans-Bold-56" transform="translate(1340.576172 0)"/>
    <use xlink:href="#DejaVuSans-Bold-65" transform="translate(1412.46875 0)"/>
    <use xlink:href="#DejaVuSans-Bold-6e" transform="translate(1480.291016 0)"/>
    <use xlink:href="#DejaVuSans-Bold-74" transform="translate(1551.482422 0)"/>
    <use xlink:href="#DejaVuSans-Bold-75" transform="translate(1599.285156 0)"/>
    <use xlink:href="#DejaVuSans-Bold-72" transform="translate(1670.476562 0)"/>
    <use xlink:href="#DejaVuSans-Bold-69" transform="translate(1719.792969 0)"/>
    <use xlink:href="#DejaVuSans-Bold-20" transform="translate(1754.070312 0)"/>
    <use xlink:href="#DejaVuSans-Bold-2b" transform="translate(1788.884766 0)"/>
    <use xlink:href="#DejaVuSans-Bold-20" transform="translate(1872.673828 0)"/>
    <use xlink:href="#DejaVuSans-Bold-49" transform="translate(1907.488281 0)"/>
    <use xlink:href="#DejaVuSans-Bold-6e" transform="translate(1944.695312 0)"/>
    <use xlink:href="#DejaVuSans-Bold-74" transform="translate(2015.886719 0)"/>
    <use xlink:href="#DejaVuSans-Bold-65" transform="translate(2063.689453 0)"/>
    <use xlink:href="#DejaVuSans-Bold-72" transform="translate(2131.511719 0)"/>
    <use xlink:href="#DejaVuSans-Bold-63" transform="translate(2180.828125 0)"/>
    <use xlink:href="#DejaVuSans-Bold-68" transform="translate(2240.105469 0)"/>
    <use xlink:href="#DejaVuSans-Bold-61" transform="translate(2311.296875 0)"/>
    <use xlink:href="#DejaVuSans-Bold-6e" transform="translate(2378.777344 0)"/>
    <use xlink:href="#DejaVuSans-Bold-67" transform="translate(2449.96875 0)"/>
    <use xlink:href="#DejaVuSans-Bold-65" transform="translate(2521.550781 0)"/>
    <use xlink:href="#DejaVuSans-Bold-61" transform="translate(2589.373047 0)"/>
    <use xlink:href="#DejaVuSans-Bold-62" transform="translate(2656.853516 0)"/>
    <use xlink:href="#DejaVuSans-Bold-6c" transform="translate(2728.435547 0)"/>
    <use xlink:href="#DejaVuSans-Bold-65" transform="translate(2762.712891 0)"/>
    <use xlink:href="#DejaVuSans-Bold-20" transform="translate(2830.535156 0)"/>
    <use xlink:href="#DejaVuSans-Bold-4f" transform="translate(2865.349609 0)"/>
    <use xlink:href="#DejaVuSans-Bold-72" transform="translate(2950.359375 0)"/>
    <use xlink:href="#DejaVuSans-Bold-69" transform="translate(2999.675781 0)"/>
    <use xlink:href="#DejaVuSans-Bold-66" transform="translate(3033.953125 0)"/>
    <use xlink:href="#DejaVuSans-Bold-69" transform="translate(3077.458984 0)"/>
    <use xlink:href="#DejaVuSans-Bold-63" transform="translate(3111.736328 0)"/>
    <use xlink:href="#DejaVuSans-Bold-65" transform="translate(3171.013672 0)"/>
    <use xlink:href="#DejaVuSans-Bold-20" transform="translate(3238.835938 0)"/>
    <use xlink:href="#DejaVuSans-Bold-49" transform="translate(3273.650391 0)"/>
    <use xlink:href="#DejaVuSans-Bold-6e" transform="translate(3310.857422 0)"/>
    <use xlink:href="#DejaVuSans-Bold-73" transform="translate(3382.048828 0)"/>
    <use xlink:href="#DejaVuSans-Bold-65" transform="translate(3441.570312 0)"/>
    <use xlink:href="#DejaVuSans-Bold-72" transform="translate(3509.392578 0)"/>
    <use xlink:href="#DejaVuSans-Bold-74" transform="translate(3558.708984 0)"/>
    <use xlink:href="#DejaVuSans-Bold-73" transform="translate(3606.511719 0)"/>
   </g>
  </g>
 </g>
 <defs>
  <clipPath id="pcfb6811285">
   <rect x="34.68375" y="88.693" width="371.09" height="222.654"/>
  </clipPath>
  <clipPath id="pb408f0101e">
   <rect x="414.41375" y="45.08" width="371.09" height="309.88"/>
  </clipPath>
 </defs>
</svg>
