<?xml version="1.0" encoding="utf-8" standalone="no"?>
<!DOCTYPE svg PUBLIC "-//W3C//DTD SVG 1.1//EN"
  "http://www.w3.org/Graphics/SVG/1.1/DTD/svg11.dtd">
<svg xmlns:xlink="http://www.w3.org/1999/xlink" width="420.48375pt" height="436.216875pt" viewBox="0 0 420.48375 436.216875" xmlns="http://www.w3.org/2000/svg" version="1.1">
 <metadata>
  <rdf:RDF xmlns:dc="http://purl.org/dc/elements/1.1/" xmlns:cc="http://creativecommons.org/ns#" xmlns:rdf="http://www.w3.org/1999/02/22-rdf-syntax-ns#">
   <cc:Work>
    <dc:type rdf:resource="http://purl.org/dc/dcmitype/StillImage"/>
    <dc:date>2026-05-28T08:27:43.048196</dc:date>
    <dc:format>image/svg+xml</dc:format>
    <dc:creator>
     <cc:Agent>
      <dc:title>Matplotlib v3.10.9, https://matplotlib.org/</dc:title>
     </cc:Agent>
    </dc:creator>
   </cc:Work>
  </rdf:RDF>
 </metadata>
 <defs>
  <style type="text/css">*{stroke-linejoin: round; stroke-linecap: butt}</style>
 </defs>
 <g id="figure_1">
  <g id="patch_1">
   <path d="M 0 436.216875 
L 420.48375 436.216875 
L 420.48375 0 
L 0 0 
z
" style="fill: #ffffff"/>
  </g>
  <g id="axes_1">
   <g id="patch_2">
    <path d="M 34.68375 410.674375 
L 409.68375 410.674375 
L 409.68375 35.674375 
L 34.68375 35.674375 
z
" style="fill: #ffffff"/>
   </g>
   <g id="patch_3">
    <path d="M 222.18375 370.495804 
C 261.25385 370.495804 298.728999 354.973088 326.355731 327.346356 
C 353.982463 299.719624 369.505179 262.244475 369.505179 223.174375 
C 369.505179 184.104275 353.982463 146.629126 326.355731 119.002394 
C 298.728999 91.375662 261.25385 75.852946 222.18375 75.852946 
C 183.11365 75.852946 145.638501 91.375662 118.011769 119.002394 
C 90.385037 146.629126 74.862321 184.104275 74.862321 223.174375 
C 74.862321 262.244475 90.385037 299.719624 118.011769 327.346356 
C 145.638501 354.973088 183.11365 370.495804 222.18375 370.495804 
L 222.18375 370.495804 
z
" clip-path="url(#p83aebe8cf9)" style="fill: none; stroke: #2c3e50; stroke-width: 2; stroke-linejoin: miter"/>
   </g>
   <g id="patch_4">
    <path d="M 301.733263 159.696291 
C 305.995456 159.696291 310.083654 158.002904 313.097479 154.989078 
C 316.111304 151.975253 317.804691 147.887055 317.804691 143.624862 
C 317.804691 139.362669 316.111304 135.274471 313.097479 132.260646 
C 310.083654 129.246821 305.995456 127.553434 301.733263 127.553434 
C 297.47107 127.553434 293.382872 129.246821 290.369047 132.260646 
C 287.355221 135.274471 285.661834 139.362669 285.661834 143.624862 
C 285.661834 147.887055 287.355221 151.975253 290.369047 154.989078 
C 293.382872 158.002904 297.47107 159.696291 301.733263 159.696291 
L 301.733263 159.696291 
z
" clip-path="url(#p83aebe8cf9)" style="fill: none; stroke: #e74c3c; stroke-width: 1.5; stroke-linejoin: miter"/>
   </g>
   <g id="patch_5">
    <path d="M 142.634237 159.696291 
C 146.89643 159.696291 150.984628 158.002904 153.998453 154.989078 
C 157.012279 151.975253 158.705666 147.887055 158.705666 143.624862 
C 158.705666 139.362669 157.012279 135.274471 153.998453 132.260646 
C 150.984628 129.246821 146.89643 127.553434 142.634237 127.553434 
C 138.372044 127.553434 134.283846 129.246821 131.270021 132.260646 
C 128.256196 135.274471 126.562809 139.362669 126.562809 143.624862 
C 126.562809 147.887055 128.256196 151.975253 131.270021 154.989078 
C 134.283846 158.002904 138.372044 159.696291 142.634237 159.696291 
L 142.634237 159.696291 
z
" clip-path="url(#p83aebe8cf9)" style="fill: none; stroke: #e74c3c; stroke-width: 1.5; stroke-linejoin: miter"/>
   </g>
   <g id="patch_6">
    <path d="M 142.634237 318.795316 
C 146.89643 318.795316 150.984628 317.101929 153.998453 314.088104 
C 157.012279 311.074279 158.705666 306.986081 158.705666 302.723888 
C 158.705666 298.461695 157.012279 294.373497 153.998453 291.359672 
C 150.984628 288.345846 146.89643 286.652459 142.634237 286.652459 
C 138.372044 286.652459 134.283846 288.345846 131.270021 291.359672 
C 128.256196 294.373497 126.562809 298.461695 126.562809 302.723888 
C 126.562809 306.986081 128.256196 311.074279 131.270021 314.088104 
C 134.283846 317.101929 138.372044 318.795316 142.634237 318.795316 
L 142.634237 318.795316 
z
" clip-path="url(#p83aebe8cf9)" style="fill: none; stroke: #e74c3c; stroke-width: 1.5; stroke-linejoin: miter"/>
   </g>
   <g id="patch_7">
    <path d="M 301.733263 318.795316 
C 305.995456 318.795316 310.083654 317.101929 313.097479 314.088104 
C 316.111304 311.074279 317.804691 306.986081 317.804691 302.723888 
C 317.804691 298.461695 316.111304 294.373497 313.097479 291.359672 
C 310.083654 288.345846 305.995456 286.652459 301.733263 286.652459 
C 297.47107 286.652459 293.382872 288.345846 290.369047 291.359672 
C 287.355221 294.373497 285.661834 298.461695 285.661834 302.723888 
C 285.661834 306.986081 287.355221 311.074279 290.369047 314.088104 
C 293.382872 317.101929 297.47107 318.795316 301.733263 318.795316 
L 301.733263 318.795316 
z
" clip-path="url(#p83aebe8cf9)" style="fill: none; stroke: #e74c3c; stroke-width: 1.5; stroke-linejoin: miter"/>
   </g>
   <g id="patch_8">
    <path d="M 222.18375 351.745804 
C 256.281291 351.745804 288.986876 338.198707 313.097479 314.088104 
C 337.208082 289.977501 350.755179 257.271916 350.755179 223.174375 
C 350.755179 189.076834 337.208082 156.371249 313.097479 132.260646 
C 288.986876 108.150043 256.281291 94.602946 222.18375 94.602946 
C 188.086209 94.602946 155.380624 108.150043 131.270021 132.260646 
C 107.159418 156.371249 93.612321 189.076834 93.612321 223.174375 
C 93.612321 257.271916 107.159418 289.977501 131.270021 314.088104 
C 155.380624 338.198707 188.086209 351.745804 222.18375 351.745804 
L 222.18375 351.745804 
z
" clip-path="url(#p83aebe8cf9)" style="fill: none; stroke-dasharray: 3.7,1.6; stroke-dashoffset: 0; stroke: #808080; stroke-linejoin: miter"/>
   </g>
   <g id="matplotlib.axis_1">
    <g id="xtick_1">
     <g id="line2d_1">
      <defs>
       <path id="mcf4161c0c3" d="M 0 0 
L 0 3.5 
" style="stroke: #000000; stroke-width: 0.8"/>
      </defs>
      <g>
       <use xlink:href="#mcf4161c0c3" x="61.469464" y="410.674375" style="stroke: #000000; stroke-width: 0.8"/>
      </g>
     </g>
     <g id="text_1">
      <!-- −60 -->
      <g transform="translate(53.027589 423.753125) scale(0.08 -0.08)">
       <defs>
        <path id="DejaVuSans-2212" d="M 678 2272 
L 4684 2272 
L 4684 1741 
L 678 1741 
L 678 2272 
z
" transform="scale(0.015625)"/>
        <path id="DejaVuSans-36" d="M 2113 2584 
Q 1688 2584 1439 2293 
Q 1191 2003 1191 1497 
Q 1191 994 1439 701 
Q 1688 409 2113 409 
Q 2538 409 2786 701 
Q 3034 994 3034 1497 
Q 3034 2003 2786 2293 
Q 2538 2584 2113 2584 
z
M 3366 4563 
L 3366 3988 
Q 3128 4100 2886 4159 
Q 2644 4219 2406 4219 
Q 1781 4219 1451 3797 
Q 1122 3375 1075 2522 
Q 1259 2794 1537 2939 
Q 1816 3084 2150 3084 
Q 2853 3084 3261 2657 
Q 3669 2231 3669 1497 
Q 3669 778 3244 343 
Q 2819 -91 2113 -91 
Q 1303 -91 875 529 
Q 447 1150 447 2328 
Q 447 3434 972 4092 
Q 1497 4750 2381 4750 
Q 2619 4750 2861 4703 
Q 3103 4656 3366 4563 
z
" transform="scale(0.015625)"/>
        <path id="DejaVuSans-30" d="M 2034 4250 
Q 1547 4250 1301 3770 
Q 1056 3291 1056 2328 
Q 1056 1369 1301 889 
Q 1547 409 2034 409 
Q 2525 409 2770 889 
Q 3016 1369 3016 2328 
Q 3016 3291 2770 3770 
Q 2525 4250 2034 4250 
z
M 2034 4750 
Q 2819 4750 3233 4129 
Q 3647 3509 3647 2328 
Q 3647 1150 3233 529 
Q 2819 -91 2034 -91 
Q 1250 -91 836 529 
Q 422 1150 422 2328 
Q 422 3509 836 4129 
Q 1250 4750 2034 4750 
z
" transform="scale(0.015625)"/>
       </defs>
       <use xlink:href="#DejaVuSans-2212"/>
       <use xlink:href="#DejaVuSans-36" transform="translate(83.789062 0)"/>
       <use xlink:href="#DejaVuSans-30" transform="translate(147.412109 0)"/>
      </g>
     </g>
    </g>
    <g id="xtick_2">
     <g id="line2d_2">
      <g>
       <use xlink:href="#mcf4161c0c3" x="115.040893" y="410.674375" style="stroke: #000000; stroke-width: 0.8"/>
      </g>
     </g>
     <g id="text_2">
      <!-- −40 -->
      <g transform="translate(106.599018 423.753125) scale(0.08 -0.08)">
       <defs>
        <path id="DejaVuSans-34" d="M 2419 4116 
L 825 1625 
L 2419 1625 
L 2419 4116 
z
M 2253 4666 
L 3047 4666 
L 3047 1625 
L 3713 1625 
L 3713 1100 
L 3047 1100 
L 3047 0 
L 2419 0 
L 2419 1100 
L 313 1100 
L 313 1709 
L 2253 4666 
z
" transform="scale(0.015625)"/>
       </defs>
       <use xlink:href="#DejaVuSans-2212"/>
       <use xlink:href="#DejaVuSans-34" transform="translate(83.789062 0)"/>
       <use xlink:href="#DejaVuSans-30" transform="translate(147.412109 0)"/>
      </g>
     </g>
    </g>
    <g id="xtick_3">
     <g id="line2d_3">
      <g>
       <use xlink:href="#mcf4161c0c3" x="168.612321" y="410.674375" style="stroke: #000000; stroke-width: 0.8"/>
      </g>
     </g>
     <g id="text_3">
      <!-- −20 -->
      <g transform="translate(160.170446 423.753125) scale(0.08 -0.08)">
       <defs>
        <path id="DejaVuSans-32" d="M 1228 531 
L 3431 531 
L 3431 0 
L 469 0 
L 469 531 
Q 828 903 1448 1529 
Q 2069 2156 2228 2338 
Q 2531 2678 2651 2914 
Q 2772 3150 2772 3378 
Q 2772 3750 2511 3984 
Q 2250 4219 1831 4219 
Q 1534 4219 1204 4116 
Q 875 4013 500 3803 
L 500 4441 
Q 881 4594 1212 4672 
Q 1544 4750 1819 4750 
Q 2544 4750 2975 4387 
Q 3406 4025 3406 3419 
Q 3406 3131 3298 2873 
Q 3191 2616 2906 2266 
Q 2828 2175 2409 1742 
Q 1991 1309 1228 531 
z
" transform="scale(0.015625)"/>
       </defs>
       <use xlink:href="#DejaVuSans-2212"/>
       <use xlink:href="#DejaVuSans-32" transform="translate(83.789062 0)"/>
       <use xlink:href="#DejaVuSans-30" transform="translate(147.412109 0)"/>
      </g>
     </g>
    </g>
    <g id="xtick_4">
     <g id="line2d_4">
      <g>
       <use xlink:href="#mcf4161c0c3" x="222.18375" y="410.674375" style="stroke: #000000; stroke-width: 0.8"/>
      </g>
     </g>
     <g id="text_4">
      <!-- 0 -->
      <g transform="translate(219.63875 423.753125) scale(0.08 -0.08)">
       <use xlink:href="#DejaVuSans-30"/>
      </g>
     </g>
    </g>
    <g id="xtick_5">
     <g id="line2d_5">
      <g>
       <use xlink:href="#mcf4161c0c3" x="275.755179" y="410.674375" style="stroke: #000000; stroke-width: 0.8"/>
      </g>
     </g>
     <g id="text_5">
      <!-- 20 -->
      <g transform="translate(270.665179 423.753125) scale(0.08 -0.08)">
       <use xlink:href="#DejaVuSans-32"/>
       <use xlink:href="#DejaVuSans-30" transform="translate(63.623047 0)"/>
      </g>
     </g>
    </g>
    <g id="xtick_6">
     <g id="line2d_6">
      <g>
       <use xlink:href="#mcf4161c0c3" x="329.326607" y="410.674375" style="stroke: #000000; stroke-width: 0.8"/>
      </g>
     </g>
     <g id="text_6">
      <!-- 40 -->
      <g transform="translate(324.236607 423.753125) scale(0.08 -0.08)">
       <use xlink:href="#DejaVuSans-34"/>
       <use xlink:href="#DejaVuSans-30" transform="translate(63.623047 0)"/>
      </g>
     </g>
    </g>
    <g id="xtick_7">
     <g id="line2d_7">
      <g>
       <use xlink:href="#mcf4161c0c3" x="382.898036" y="410.674375" style="stroke: #000000; stroke-width: 0.8"/>
      </g>
     </g>
     <g id="text_7">
      <!-- 60 -->
      <g transform="translate(377.808036 423.753125) scale(0.08 -0.08)">
       <use xlink:href="#DejaVuSans-36"/>
       <use xlink:href="#DejaVuSans-30" transform="translate(63.623047 0)"/>
      </g>
     </g>
    </g>
   </g>
   <g id="matplotlib.axis_2">
    <g id="ytick_1">
     <g id="line2d_8">
      <defs>
       <path id="m86ae1cc35e" d="M 0 0 
L -3.5 0 
" style="stroke: #000000; stroke-width: 0.8"/>
      </defs>
      <g>
       <use xlink:href="#m86ae1cc35e" x="34.68375" y="383.888661" style="stroke: #000000; stroke-width: 0.8"/>
      </g>
     </g>
     <g id="text_8">
      <!-- −60 -->
      <g transform="translate(10.8 386.928036) scale(0.08 -0.08)">
       <use xlink:href="#DejaVuSans-2212"/>
       <use xlink:href="#DejaVuSans-36" transform="translate(83.789062 0)"/>
       <use xlink:href="#DejaVuSans-30" transform="translate(147.412109 0)"/>
      </g>
     </g>
    </g>
    <g id="ytick_2">
     <g id="line2d_9">
      <g>
       <use xlink:href="#m86ae1cc35e" x="34.68375" y="330.317232" style="stroke: #000000; stroke-width: 0.8"/>
      </g>
     </g>
     <g id="text_9">
      <!-- −40 -->
      <g transform="translate(10.8 333.356607) scale(0.08 -0.08)">
       <use xlink:href="#DejaVuSans-2212"/>
       <use xlink:href="#DejaVuSans-34" transform="translate(83.789062 0)"/>
       <use xlink:href="#DejaVuSans-30" transform="translate(147.412109 0)"/>
      </g>
     </g>
    </g>
    <g id="ytick_3">
     <g id="line2d_10">
      <g>
       <use xlink:href="#m86ae1cc35e" x="34.68375" y="276.745804" style="stroke: #000000; stroke-width: 0.8"/>
      </g>
     </g>
     <g id="text_10">
      <!-- −20 -->
      <g transform="translate(10.8 279.785179) scale(0.08 -0.08)">
       <use xlink:href="#DejaVuSans-2212"/>
       <use xlink:href="#DejaVuSans-32" transform="translate(83.789062 0)"/>
       <use xlink:href="#DejaVuSans-30" transform="translate(147.412109 0)"/>
      </g>
     </g>
    </g>
    <g id="ytick_4">
     <g id="line2d_11">
      <g>
       <use xlink:href="#m86ae1cc35e" x="34.68375" y="223.174375" style="stroke: #000000; stroke-width: 0.8"/>
      </g>
     </g>
     <g id="text_11">
      <!-- 0 -->
      <g transform="translate(22.59375 226.21375) scale(0.08 -0.08)">
       <use xlink:href="#DejaVuSans-30"/>
      </g>
     </g>
    </g>
    <g id="ytick_5">
     <g id="line2d_12">
      <g>
       <use xlink:href="#m86ae1cc35e" x="34.68375" y="169.602946" style="stroke: #000000; stroke-width: 0.8"/>
      </g>
     </g>
     <g id="text_12">
      <!-- 20 -->
      <g transform="translate(17.50375 172.642321) scale(0.08 -0.08)">
       <use xlink:href="#DejaVuSans-32"/>
       <use xlink:href="#DejaVuSans-30" transform="translate(63.623047 0)"/>
      </g>
     </g>
    </g>
    <g id="ytick_6">
     <g id="line2d_13">
      <g>
       <use xlink:href="#m86ae1cc35e" x="34.68375" y="116.031518" style="stroke: #000000; stroke-width: 0.8"/>
      </g>
     </g>
     <g id="text_13">
      <!-- 40 -->
      <g transform="translate(17.50375 119.070893) scale(0.08 -0.08)">
       <use xlink:href="#DejaVuSans-34"/>
       <use xlink:href="#DejaVuSans-30" transform="translate(63.623047 0)"/>
      </g>
     </g>
    </g>
    <g id="ytick_7">
     <g id="line2d_14">
      <g>
       <use xlink:href="#m86ae1cc35e" x="34.68375" y="62.460089" style="stroke: #000000; stroke-width: 0.8"/>
      </g>
     </g>
     <g id="text_14">
      <!-- 60 -->
      <g transform="translate(17.50375 65.499464) scale(0.08 -0.08)">
       <use xlink:href="#DejaVuSans-36"/>
       <use xlink:href="#DejaVuSans-30" transform="translate(63.623047 0)"/>
      </g>
     </g>
    </g>
   </g>
   <g id="patch_9">
    <path d="M 34.68375 410.674375 
L 34.68375 35.674375 
" style="fill: none; stroke: #000000; stroke-width: 0.6; stroke-linejoin: miter; stroke-linecap: square"/>
   </g>
   <g id="patch_10">
    <path d="M 409.68375 410.674375 
L 409.68375 35.674375 
" style="fill: none; stroke: #000000; stroke-width: 0.6; stroke-linejoin: miter; stroke-linecap: square"/>
   </g>
   <g id="patch_11">
    <path d="M 34.68375 410.674375 
L 409.68375 410.674375 
" style="fill: none; stroke: #000000; stroke-width: 0.6; stroke-linejoin: miter; stroke-linecap: square"/>
   </g>
   <g id="patch_12">
    <path d="M 34.68375 35.674375 
L 409.68375 35.674375 
" style="fill: none; stroke: #000000; stroke-width: 0.6; stroke-linejoin: miter; stroke-linecap: square"/>
   </g>
   <g id="text_15">
    <!-- Central -->
    <g style="fill: #808080" transform="translate(209.439922 217.267469) scale(0.07 -0.07)">
     <defs>
      <path id="DejaVuSans-43" d="M 4122 4306 
L 4122 3641 
Q 3803 3938 3442 4084 
Q 3081 4231 2675 4231 
Q 1875 4231 1450 3742 
Q 1025 3253 1025 2328 
Q 1025 1406 1450 917 
Q 1875 428 2675 428 
Q 3081 428 3442 575 
Q 3803 722 4122 1019 
L 4122 359 
Q 3791 134 3420 21 
Q 3050 -91 2638 -91 
Q 1578 -91 968 557 
Q 359 1206 359 2328 
Q 359 3453 968 4101 
Q 1578 4750 2638 4750 
Q 3056 4750 3426 4639 
Q 3797 4528 4122 4306 
z
" transform="scale(0.015625)"/>
      <path id="DejaVuSans-65" d="M 3597 1894 
L 3597 1613 
L 953 1613 
Q 991 1019 1311 708 
Q 1631 397 2203 397 
Q 2534 397 2845 478 
Q 3156 559 3463 722 
L 3463 178 
Q 3153 47 2828 -22 
Q 2503 -91 2169 -91 
Q 1331 -91 842 396 
Q 353 884 353 1716 
Q 353 2575 817 3079 
Q 1281 3584 2069 3584 
Q 2775 3584 3186 3129 
Q 3597 2675 3597 1894 
z
M 3022 2063 
Q 3016 2534 2758 2815 
Q 2500 3097 2075 3097 
Q 1594 3097 1305 2825 
Q 1016 2553 972 2059 
L 3022 2063 
z
" transform="scale(0.015625)"/>
      <path id="DejaVuSans-6e" d="M 3513 2113 
L 3513 0 
L 2938 0 
L 2938 2094 
Q 2938 2591 2744 2837 
Q 2550 3084 2163 3084 
Q 1697 3084 1428 2787 
Q 1159 2491 1159 1978 
L 1159 0 
L 581 0 
L 581 3500 
L 1159 3500 
L 1159 2956 
Q 1366 3272 1645 3428 
Q 1925 3584 2291 3584 
Q 2894 3584 3203 3211 
Q 3513 2838 3513 2113 
z
" transform="scale(0.015625)"/>
      <path id="DejaVuSans-74" d="M 1172 4494 
L 1172 3500 
L 2356 3500 
L 2356 3053 
L 1172 3053 
L 1172 1153 
Q 1172 725 1289 603 
Q 1406 481 1766 481 
L 2356 481 
L 2356 0 
L 1766 0 
Q 1100 0 847 248 
Q 594 497 594 1153 
L 594 3053 
L 172 3053 
L 172 3500 
L 594 3500 
L 594 4494 
L 1172 4494 
z
" transform="scale(0.015625)"/>
      <path id="DejaVuSans-72" d="M 2631 2963 
Q 2534 3019 2420 3045 
Q 2306 3072 2169 3072 
Q 1681 3072 1420 2755 
Q 1159 2438 1159 1844 
L 1159 0 
L 581 0 
L 581 3500 
L 1159 3500 
L 1159 2956 
Q 1341 3275 1631 3429 
Q 1922 3584 2338 3584 
Q 2397 3584 2469 3576 
Q 2541 3569 2628 3553 
L 2631 2963 
z
" transform="scale(0.015625)"/>
      <path id="DejaVuSans-61" d="M 2194 1759 
Q 1497 1759 1228 1600 
Q 959 1441 959 1056 
Q 959 750 1161 570 
Q 1363 391 1709 391 
Q 2188 391 2477 730 
Q 2766 1069 2766 1631 
L 2766 1759 
L 2194 1759 
z
M 3341 1997 
L 3341 0 
L 2766 0 
L 2766 531 
Q 2569 213 2275 61 
Q 1981 -91 1556 -91 
Q 1019 -91 701 211 
Q 384 513 384 1019 
Q 384 1609 779 1909 
Q 1175 2209 1959 2209 
L 2766 2209 
L 2766 2266 
Q 2766 2663 2505 2880 
Q 2244 3097 1772 3097 
Q 1472 3097 1187 3025 
Q 903 2953 641 2809 
L 641 3341 
Q 956 3463 1253 3523 
Q 1550 3584 1831 3584 
Q 2591 3584 2966 3190 
Q 3341 2797 3341 1997 
z
" transform="scale(0.015625)"/>
      <path id="DejaVuSans-6c" d="M 603 4863 
L 1178 4863 
L 1178 0 
L 603 0 
L 603 4863 
z
" transform="scale(0.015625)"/>
     </defs>
     <use xlink:href="#DejaVuSans-43"/>
     <use xlink:href="#DejaVuSans-65" transform="translate(69.824219 0)"/>
     <use xlink:href="#DejaVuSans-6e" transform="translate(131.347656 0)"/>
     <use xlink:href="#DejaVuSans-74" transform="translate(194.726562 0)"/>
     <use xlink:href="#DejaVuSans-72" transform="translate(233.935547 0)"/>
     <use xlink:href="#DejaVuSans-61" transform="translate(275.048828 0)"/>
     <use xlink:href="#DejaVuSans-6c" transform="translate(336.328125 0)"/>
    </g>
    <!-- clearance -->
    <g style="fill: #808080" transform="translate(205.108672 225.105938) scale(0.07 -0.07)">
     <defs>
      <path id="DejaVuSans-63" d="M 3122 3366 
L 3122 2828 
Q 2878 2963 2633 3030 
Q 2388 3097 2138 3097 
Q 1578 3097 1268 2742 
Q 959 2388 959 1747 
Q 959 1106 1268 751 
Q 1578 397 2138 397 
Q 2388 397 2633 464 
Q 2878 531 3122 666 
L 3122 134 
Q 2881 22 2623 -34 
Q 2366 -91 2075 -91 
Q 1284 -91 818 406 
Q 353 903 353 1747 
Q 353 2603 823 3093 
Q 1294 3584 2113 3584 
Q 2378 3584 2631 3529 
Q 2884 3475 3122 3366 
z
" transform="scale(0.015625)"/>
     </defs>
     <use xlink:href="#DejaVuSans-63"/>
     <use xlink:href="#DejaVuSans-6c" transform="translate(54.980469 0)"/>
     <use xlink:href="#DejaVuSans-65" transform="translate(82.763672 0)"/>
     <use xlink:href="#DejaVuSans-61" transform="translate(144.287109 0)"/>
     <use xlink:href="#DejaVuSans-72" transform="translate(205.566406 0)"/>
     <use xlink:href="#DejaVuSans-61" transform="translate(246.679688 0)"/>
     <use xlink:href="#DejaVuSans-6e" transform="translate(307.958984 0)"/>
     <use xlink:href="#DejaVuSans-63" transform="translate(371.337891 0)"/>
     <use xlink:href="#DejaVuSans-65" transform="translate(426.318359 0)"/>
    </g>
    <!-- for stack -->
    <g style="fill: #808080" transform="translate(206.9675 232.944406) scale(0.07 -0.07)">
     <defs>
      <path id="DejaVuSans-66" d="M 2375 4863 
L 2375 4384 
L 1825 4384 
Q 1516 4384 1395 4259 
Q 1275 4134 1275 3809 
L 1275 3500 
L 2222 3500 
L 2222 3053 
L 1275 3053 
L 1275 0 
L 697 0 
L 697 3053 
L 147 3053 
L 147 3500 
L 697 3500 
L 697 3744 
Q 697 4328 969 4595 
Q 1241 4863 1831 4863 
L 2375 4863 
z
" transform="scale(0.015625)"/>
      <path id="DejaVuSans-6f" d="M 1959 3097 
Q 1497 3097 1228 2736 
Q 959 2375 959 1747 
Q 959 1119 1226 758 
Q 1494 397 1959 397 
Q 2419 397 2687 759 
Q 2956 1122 2956 1747 
Q 2956 2369 2687 2733 
Q 2419 3097 1959 3097 
z
M 1959 3584 
Q 2709 3584 3137 3096 
Q 3566 2609 3566 1747 
Q 3566 888 3137 398 
Q 2709 -91 1959 -91 
Q 1206 -91 779 398 
Q 353 888 353 1747 
Q 353 2609 779 3096 
Q 1206 3584 1959 3584 
z
" transform="scale(0.015625)"/>
      <path id="DejaVuSans-20" transform="scale(0.015625)"/>
      <path id="DejaVuSans-73" d="M 2834 3397 
L 2834 2853 
Q 2591 2978 2328 3040 
Q 2066 3103 1784 3103 
Q 1356 3103 1142 2972 
Q 928 2841 928 2578 
Q 928 2378 1081 2264 
Q 1234 2150 1697 2047 
L 1894 2003 
Q 2506 1872 2764 1633 
Q 3022 1394 3022 966 
Q 3022 478 2636 193 
Q 2250 -91 1575 -91 
Q 1294 -91 989 -36 
Q 684 19 347 128 
L 347 722 
Q 666 556 975 473 
Q 1284 391 1588 391 
Q 1994 391 2212 530 
Q 2431 669 2431 922 
Q 2431 1156 2273 1281 
Q 2116 1406 1581 1522 
L 1381 1569 
Q 847 1681 609 1914 
Q 372 2147 372 2553 
Q 372 3047 722 3315 
Q 1072 3584 1716 3584 
Q 2034 3584 2315 3537 
Q 2597 3491 2834 3397 
z
" transform="scale(0.015625)"/>
      <path id="DejaVuSans-6b" d="M 581 4863 
L 1159 4863 
L 1159 1991 
L 2875 3500 
L 3609 3500 
L 1753 1863 
L 3688 0 
L 2938 0 
L 1159 1709 
L 1159 0 
L 581 0 
L 581 4863 
z
" transform="scale(0.015625)"/>
     </defs>
     <use xlink:href="#DejaVuSans-66"/>
     <use xlink:href="#DejaVuSans-6f" transform="translate(35.205078 0)"/>
     <use xlink:href="#DejaVuSans-72" transform="translate(96.386719 0)"/>
     <use xlink:href="#DejaVuSans-20" transform="translate(137.5 0)"/>
     <use xlink:href="#DejaVuSans-73" transform="translate(169.287109 0)"/>
     <use xlink:href="#DejaVuSans-74" transform="translate(221.386719 0)"/>
     <use xlink:href="#DejaVuSans-61" transform="translate(260.595703 0)"/>
     <use xlink:href="#DejaVuSans-63" transform="translate(321.875 0)"/>
     <use xlink:href="#DejaVuSans-6b" transform="translate(376.855469 0)"/>
    </g>
   </g>
   <g id="text_16">
    <!-- 4× Guide Posts (Ø12 mm × 60 mm tall) -->
    <g transform="translate(142.291875 389.245804) scale(0.08 -0.08)">
     <defs>
      <path id="DejaVuSans-d7" d="M 4488 3438 
L 3059 2003 
L 4488 575 
L 4116 197 
L 2681 1631 
L 1247 197 
L 878 575 
L 2303 2003 
L 878 3438 
L 1247 3816 
L 2681 2381 
L 4116 3816 
L 4488 3438 
z
" transform="scale(0.015625)"/>
      <path id="DejaVuSans-47" d="M 3809 666 
L 3809 1919 
L 2778 1919 
L 2778 2438 
L 4434 2438 
L 4434 434 
Q 4069 175 3628 42 
Q 3188 -91 2688 -91 
Q 1594 -91 976 548 
Q 359 1188 359 2328 
Q 359 3472 976 4111 
Q 1594 4750 2688 4750 
Q 3144 4750 3555 4637 
Q 3966 4525 4313 4306 
L 4313 3634 
Q 3963 3931 3569 4081 
Q 3175 4231 2741 4231 
Q 1884 4231 1454 3753 
Q 1025 3275 1025 2328 
Q 1025 1384 1454 906 
Q 1884 428 2741 428 
Q 3075 428 3337 486 
Q 3600 544 3809 666 
z
" transform="scale(0.015625)"/>
      <path id="DejaVuSans-75" d="M 544 1381 
L 544 3500 
L 1119 3500 
L 1119 1403 
Q 1119 906 1312 657 
Q 1506 409 1894 409 
Q 2359 409 2629 706 
Q 2900 1003 2900 1516 
L 2900 3500 
L 3475 3500 
L 3475 0 
L 2900 0 
L 2900 538 
Q 2691 219 2414 64 
Q 2138 -91 1772 -91 
Q 1169 -91 856 284 
Q 544 659 544 1381 
z
M 1991 3584 
L 1991 3584 
z
" transform="scale(0.015625)"/>
      <path id="DejaVuSans-69" d="M 603 3500 
L 1178 3500 
L 1178 0 
L 603 0 
L 603 3500 
z
M 603 4863 
L 1178 4863 
L 1178 4134 
L 603 4134 
L 603 4863 
z
" transform="scale(0.015625)"/>
      <path id="DejaVuSans-64" d="M 2906 2969 
L 2906 4863 
L 3481 4863 
L 3481 0 
L 2906 0 
L 2906 525 
Q 2725 213 2448 61 
Q 2172 -91 1784 -91 
Q 1150 -91 751 415 
Q 353 922 353 1747 
Q 353 2572 751 3078 
Q 1150 3584 1784 3584 
Q 2172 3584 2448 3432 
Q 2725 3281 2906 2969 
z
M 947 1747 
Q 947 1113 1208 752 
Q 1469 391 1925 391 
Q 2381 391 2643 752 
Q 2906 1113 2906 1747 
Q 2906 2381 2643 2742 
Q 2381 3103 1925 3103 
Q 1469 3103 1208 2742 
Q 947 2381 947 1747 
z
" transform="scale(0.015625)"/>
      <path id="DejaVuSans-50" d="M 1259 4147 
L 1259 2394 
L 2053 2394 
Q 2494 2394 2734 2622 
Q 2975 2850 2975 3272 
Q 2975 3691 2734 3919 
Q 2494 4147 2053 4147 
L 1259 4147 
z
M 628 4666 
L 2053 4666 
Q 2838 4666 3239 4311 
Q 3641 3956 3641 3272 
Q 3641 2581 3239 2228 
Q 2838 1875 2053 1875 
L 1259 1875 
L 1259 0 
L 628 0 
L 628 4666 
z
" transform="scale(0.015625)"/>
      <path id="DejaVuSans-28" d="M 1984 4856 
Q 1566 4138 1362 3434 
Q 1159 2731 1159 2009 
Q 1159 1288 1364 580 
Q 1569 -128 1984 -844 
L 1484 -844 
Q 1016 -109 783 600 
Q 550 1309 550 2009 
Q 550 2706 781 3412 
Q 1013 4119 1484 4856 
L 1984 4856 
z
" transform="scale(0.015625)"/>
      <path id="DejaVuSans-d8" d="M 3769 3475 
L 1528 831 
Q 1722 631 1973 526 
Q 2225 422 2522 422 
Q 3209 422 3611 934 
Q 4013 1447 4013 2328 
Q 4013 2678 3952 2965 
Q 3891 3253 3769 3475 
z
M 3513 3828 
Q 3322 4028 3070 4133 
Q 2819 4238 2522 4238 
Q 1834 4238 1429 3725 
Q 1025 3213 1025 2328 
Q 1025 1978 1086 1684 
Q 1147 1391 1269 1178 
L 3513 3828 
z
M 850 684 
Q 606 1003 482 1415 
Q 359 1828 359 2328 
Q 359 3434 948 4092 
Q 1538 4750 2522 4750 
Q 2928 4750 3273 4629 
Q 3619 4509 3891 4275 
L 4397 4872 
L 4716 4594 
L 4184 3975 
Q 4428 3653 4553 3237 
Q 4678 2822 4678 2328 
Q 4678 1225 4090 567 
Q 3503 -91 2522 -91 
Q 2122 -91 1776 26 
Q 1431 144 1147 378 
L 641 -219 
L 319 56 
L 850 684 
z
" transform="scale(0.015625)"/>
      <path id="DejaVuSans-31" d="M 794 531 
L 1825 531 
L 1825 4091 
L 703 3866 
L 703 4441 
L 1819 4666 
L 2450 4666 
L 2450 531 
L 3481 531 
L 3481 0 
L 794 0 
L 794 531 
z
" transform="scale(0.015625)"/>
      <path id="DejaVuSans-6d" d="M 3328 2828 
Q 3544 3216 3844 3400 
Q 4144 3584 4550 3584 
Q 5097 3584 5394 3201 
Q 5691 2819 5691 2113 
L 5691 0 
L 5113 0 
L 5113 2094 
Q 5113 2597 4934 2840 
Q 4756 3084 4391 3084 
Q 3944 3084 3684 2787 
Q 3425 2491 3425 1978 
L 3425 0 
L 2847 0 
L 2847 2094 
Q 2847 2600 2669 2842 
Q 2491 3084 2119 3084 
Q 1678 3084 1418 2786 
Q 1159 2488 1159 1978 
L 1159 0 
L 581 0 
L 581 3500 
L 1159 3500 
L 1159 2956 
Q 1356 3278 1631 3431 
Q 1906 3584 2284 3584 
Q 2666 3584 2933 3390 
Q 3200 3197 3328 2828 
z
" transform="scale(0.015625)"/>
      <path id="DejaVuSans-29" d="M 513 4856 
L 1013 4856 
Q 1481 4119 1714 3412 
Q 1947 2706 1947 2009 
Q 1947 1309 1714 600 
Q 1481 -109 1013 -844 
L 513 -844 
Q 928 -128 1133 580 
Q 1338 1288 1338 2009 
Q 1338 2731 1133 3434 
Q 928 4138 513 4856 
z
" transform="scale(0.015625)"/>
     </defs>
     <use xlink:href="#DejaVuSans-34"/>
     <use xlink:href="#DejaVuSans-d7" transform="translate(63.623047 0)"/>
     <use xlink:href="#DejaVuSans-20" transform="translate(147.412109 0)"/>
     <use xlink:href="#DejaVuSans-47" transform="translate(179.199219 0)"/>
     <use xlink:href="#DejaVuSans-75" transform="translate(256.689453 0)"/>
     <use xlink:href="#DejaVuSans-69" transform="translate(320.068359 0)"/>
     <use xlink:href="#DejaVuSans-64" transform="translate(347.851562 0)"/>
     <use xlink:href="#DejaVuSans-65" transform="translate(411.328125 0)"/>
     <use xlink:href="#DejaVuSans-20" transform="translate(472.851562 0)"/>
     <use xlink:href="#DejaVuSans-50" transform="translate(504.638672 0)"/>
     <use xlink:href="#DejaVuSans-6f" transform="translate(561.316406 0)"/>
     <use xlink:href="#DejaVuSans-73" transform="translate(622.498047 0)"/>
     <use xlink:href="#DejaVuSans-74" transform="translate(674.597656 0)"/>
     <use xlink:href="#DejaVuSans-73" transform="translate(713.806641 0)"/>
     <use xlink:href="#DejaVuSans-20" transform="translate(765.90625 0)"/>
     <use xlink:href="#DejaVuSans-28" transform="translate(797.693359 0)"/>
     <use xlink:href="#DejaVuSans-d8" transform="translate(836.707031 0)"/>
     <use xlink:href="#DejaVuSans-31" transform="translate(915.417969 0)"/>
     <use xlink:href="#DejaVuSans-32" transform="translate(979.041016 0)"/>
     <use xlink:href="#DejaVuSans-20" transform="translate(1042.664062 0)"/>
     <use xlink:href="#DejaVuSans-6d" transform="translate(1074.451172 0)"/>
     <use xlink:href="#DejaVuSans-6d" transform="translate(1171.863281 0)"/>
     <use xlink:href="#DejaVuSans-20" transform="translate(1269.275391 0)"/>
     <use xlink:href="#DejaVuSans-d7" transform="translate(1301.0625 0)"/>
     <use xlink:href="#DejaVuSans-20" transform="translate(1384.851562 0)"/>
     <use xlink:href="#DejaVuSans-36" transform="translate(1416.638672 0)"/>
     <use xlink:href="#DejaVuSans-30" transform="translate(1480.261719 0)"/>
     <use xlink:href="#DejaVuSans-20" transform="translate(1543.884766 0)"/>
     <use xlink:href="#DejaVuSans-6d" transform="translate(1575.671875 0)"/>
     <use xlink:href="#DejaVuSans-6d" transform="translate(1673.083984 0)"/>
     <use xlink:href="#DejaVuSans-20" transform="translate(1770.496094 0)"/>
     <use xlink:href="#DejaVuSans-74" transform="translate(1802.283203 0)"/>
     <use xlink:href="#DejaVuSans-61" transform="translate(1841.492188 0)"/>
     <use xlink:href="#DejaVuSans-6c" transform="translate(1902.771484 0)"/>
     <use xlink:href="#DejaVuSans-6c" transform="translate(1930.554688 0)"/>
     <use xlink:href="#DejaVuSans-29" transform="translate(1958.337891 0)"/>
    </g>
   </g>
   <g id="patch_13">
    <path d="M 77.645618 335.674375 
Q 222.186077 335.674375 366.726536 335.674375 
" style="fill: none; stroke: #000000; stroke-width: 0.7; stroke-linecap: round"/>
    <path d="M 80.045618 336.874375 
L 77.645618 335.674375 
L 80.045618 334.474375 
" style="fill: none; stroke: #000000; stroke-width: 0.7; stroke-linecap: round"/>
    <path d="M 364.326536 334.474375 
L 366.726536 335.674375 
L 364.326536 336.874375 
" style="fill: none; stroke: #000000; stroke-width: 0.7; stroke-linecap: round"/>
   </g>
   <g id="text_17">
    <!-- 110 mm overall diameter -->
    <g style="fill: #1a5276" transform="translate(177.586094 335.46308) scale(0.07 -0.07)">
     <defs>
      <path id="DejaVuSans-76" d="M 191 3500 
L 800 3500 
L 1894 563 
L 2988 3500 
L 3597 3500 
L 2284 0 
L 1503 0 
L 191 3500 
z
" transform="scale(0.015625)"/>
     </defs>
     <use xlink:href="#DejaVuSans-31"/>
     <use xlink:href="#DejaVuSans-31" transform="translate(63.623047 0)"/>
     <use xlink:href="#DejaVuSans-30" transform="translate(127.246094 0)"/>
     <use xlink:href="#DejaVuSans-20" transform="translate(190.869141 0)"/>
     <use xlink:href="#DejaVuSans-6d" transform="translate(222.65625 0)"/>
     <use xlink:href="#DejaVuSans-6d" transform="translate(320.068359 0)"/>
     <use xlink:href="#DejaVuSans-20" transform="translate(417.480469 0)"/>
     <use xlink:href="#DejaVuSans-6f" transform="translate(449.267578 0)"/>
     <use xlink:href="#DejaVuSans-76" transform="translate(510.449219 0)"/>
     <use xlink:href="#DejaVuSans-65" transform="translate(569.628906 0)"/>
     <use xlink:href="#DejaVuSans-72" transform="translate(631.152344 0)"/>
     <use xlink:href="#DejaVuSans-61" transform="translate(672.265625 0)"/>
     <use xlink:href="#DejaVuSans-6c" transform="translate(733.544922 0)"/>
     <use xlink:href="#DejaVuSans-6c" transform="translate(761.328125 0)"/>
     <use xlink:href="#DejaVuSans-20" transform="translate(789.111328 0)"/>
     <use xlink:href="#DejaVuSans-64" transform="translate(820.898438 0)"/>
     <use xlink:href="#DejaVuSans-69" transform="translate(884.375 0)"/>
     <use xlink:href="#DejaVuSans-61" transform="translate(912.158203 0)"/>
     <use xlink:href="#DejaVuSans-6d" transform="translate(973.4375 0)"/>
     <use xlink:href="#DejaVuSans-65" transform="translate(1070.849609 0)"/>
     <use xlink:href="#DejaVuSans-74" transform="translate(1132.373047 0)"/>
     <use xlink:href="#DejaVuSans-65" transform="translate(1171.582031 0)"/>
     <use xlink:href="#DejaVuSans-72" transform="translate(1233.105469 0)"/>
    </g>
   </g>
   <g id="text_18">
    <!-- Assembly Jig — Critical Tool for Precise Platter Stacking -->
    <g transform="translate(65.253281 18.398438) scale(0.1 -0.1)">
     <defs>
      <path id="DejaVuSans-Bold-41" d="M 3419 850 
L 1538 850 
L 1241 0 
L 31 0 
L 1759 4666 
L 3194 4666 
L 4922 0 
L 3713 0 
L 3419 850 
z
M 1838 1716 
L 3116 1716 
L 2478 3572 
L 1838 1716 
z
" transform="scale(0.015625)"/>
      <path id="DejaVuSans-Bold-73" d="M 3272 3391 
L 3272 2541 
Q 2913 2691 2578 2766 
Q 2244 2841 1947 2841 
Q 1628 2841 1473 2761 
Q 1319 2681 1319 2516 
Q 1319 2381 1436 2309 
Q 1553 2238 1856 2203 
L 2053 2175 
Q 2913 2066 3209 1816 
Q 3506 1566 3506 1031 
Q 3506 472 3093 190 
Q 2681 -91 1863 -91 
Q 1516 -91 1145 -36 
Q 775 19 384 128 
L 384 978 
Q 719 816 1070 734 
Q 1422 653 1784 653 
Q 2113 653 2278 743 
Q 2444 834 2444 1013 
Q 2444 1163 2330 1236 
Q 2216 1309 1875 1350 
L 1678 1375 
Q 931 1469 631 1722 
Q 331 1975 331 2491 
Q 331 3047 712 3315 
Q 1094 3584 1881 3584 
Q 2191 3584 2531 3537 
Q 2872 3491 3272 3391 
z
" transform="scale(0.015625)"/>
      <path id="DejaVuSans-Bold-65" d="M 4031 1759 
L 4031 1441 
L 1416 1441 
Q 1456 1047 1700 850 
Q 1944 653 2381 653 
Q 2734 653 3104 758 
Q 3475 863 3866 1075 
L 3866 213 
Q 3469 63 3072 -14 
Q 2675 -91 2278 -91 
Q 1328 -91 801 392 
Q 275 875 275 1747 
Q 275 2603 792 3093 
Q 1309 3584 2216 3584 
Q 3041 3584 3536 3087 
Q 4031 2591 4031 1759 
z
M 2881 2131 
Q 2881 2450 2695 2645 
Q 2509 2841 2209 2841 
Q 1884 2841 1681 2658 
Q 1478 2475 1428 2131 
L 2881 2131 
z
" transform="scale(0.015625)"/>
      <path id="DejaVuSans-Bold-6d" d="M 3781 2919 
Q 3994 3244 4286 3414 
Q 4578 3584 4928 3584 
Q 5531 3584 5847 3212 
Q 6163 2841 6163 2131 
L 6163 0 
L 5038 0 
L 5038 1825 
Q 5041 1866 5042 1909 
Q 5044 1953 5044 2034 
Q 5044 2406 4934 2573 
Q 4825 2741 4581 2741 
Q 4263 2741 4089 2478 
Q 3916 2216 3909 1719 
L 3909 0 
L 2784 0 
L 2784 1825 
Q 2784 2406 2684 2573 
Q 2584 2741 2328 2741 
Q 2006 2741 1831 2477 
Q 1656 2213 1656 1722 
L 1656 0 
L 531 0 
L 531 3500 
L 1656 3500 
L 1656 2988 
Q 1863 3284 2130 3434 
Q 2397 3584 2719 3584 
Q 3081 3584 3359 3409 
Q 3638 3234 3781 2919 
z
" transform="scale(0.015625)"/>
      <path id="DejaVuSans-Bold-62" d="M 2400 722 
Q 2759 722 2948 984 
Q 3138 1247 3138 1747 
Q 3138 2247 2948 2509 
Q 2759 2772 2400 2772 
Q 2041 2772 1848 2508 
Q 1656 2244 1656 1747 
Q 1656 1250 1848 986 
Q 2041 722 2400 722 
z
M 1656 2988 
Q 1888 3294 2169 3439 
Q 2450 3584 2816 3584 
Q 3463 3584 3878 3070 
Q 4294 2556 4294 1747 
Q 4294 938 3878 423 
Q 3463 -91 2816 -91 
Q 2450 -91 2169 54 
Q 1888 200 1656 506 
L 1656 0 
L 538 0 
L 538 4863 
L 1656 4863 
L 1656 2988 
z
" transform="scale(0.015625)"/>
      <path id="DejaVuSans-Bold-6c" d="M 538 4863 
L 1656 4863 
L 1656 0 
L 538 0 
L 538 4863 
z
" transform="scale(0.015625)"/>
      <path id="DejaVuSans-Bold-79" d="M 78 3500 
L 1197 3500 
L 2138 1125 
L 2938 3500 
L 4056 3500 
L 2584 -331 
Q 2363 -916 2067 -1148 
Q 1772 -1381 1288 -1381 
L 641 -1381 
L 641 -647 
L 991 -647 
Q 1275 -647 1404 -556 
Q 1534 -466 1606 -231 
L 1638 -134 
L 78 3500 
z
" transform="scale(0.015625)"/>
      <path id="DejaVuSans-Bold-20" transform="scale(0.015625)"/>
      <path id="DejaVuSans-Bold-4a" d="M 588 4666 
L 1791 4666 
L 1791 453 
Q 1791 -419 1317 -850 
Q 844 -1281 -116 -1281 
L -359 -1281 
L -359 -372 
L -172 -372 
Q 203 -372 395 -162 
Q 588 47 588 453 
L 588 4666 
z
" transform="scale(0.015625)"/>
      <path id="DejaVuSans-Bold-69" d="M 538 3500 
L 1656 3500 
L 1656 0 
L 538 0 
L 538 3500 
z
M 538 4863 
L 1656 4863 
L 1656 3950 
L 538 3950 
L 538 4863 
z
" transform="scale(0.015625)"/>
      <path id="DejaVuSans-Bold-67" d="M 2919 594 
Q 2688 288 2409 144 
Q 2131 0 1766 0 
Q 1125 0 706 504 
Q 288 1009 288 1791 
Q 288 2575 706 3076 
Q 1125 3578 1766 3578 
Q 2131 3578 2409 3434 
Q 2688 3291 2919 2981 
L 2919 3500 
L 4044 3500 
L 4044 353 
Q 4044 -491 3511 -936 
Q 2978 -1381 1966 -1381 
Q 1638 -1381 1331 -1331 
Q 1025 -1281 716 -1178 
L 716 -306 
Q 1009 -475 1290 -558 
Q 1572 -641 1856 -641 
Q 2406 -641 2662 -400 
Q 2919 -159 2919 353 
L 2919 594 
z
M 2181 2772 
Q 1834 2772 1640 2515 
Q 1447 2259 1447 1791 
Q 1447 1309 1634 1061 
Q 1822 813 2181 813 
Q 2531 813 2725 1069 
Q 2919 1325 2919 1791 
Q 2919 2259 2725 2515 
Q 2531 2772 2181 2772 
z
" transform="scale(0.015625)"/>
      <path id="DejaVuSans-Bold-2014" d="M 344 2156 
L 6056 2156 
L 6056 1350 
L 344 1350 
L 344 2156 
z
" transform="scale(0.015625)"/>
      <path id="DejaVuSans-Bold-43" d="M 4288 256 
Q 3956 84 3597 -3 
Q 3238 -91 2847 -91 
Q 1681 -91 1000 561 
Q 319 1213 319 2328 
Q 319 3447 1000 4098 
Q 1681 4750 2847 4750 
Q 3238 4750 3597 4662 
Q 3956 4575 4288 4403 
L 4288 3438 
Q 3953 3666 3628 3772 
Q 3303 3878 2944 3878 
Q 2300 3878 1931 3465 
Q 1563 3053 1563 2328 
Q 1563 1606 1931 1193 
Q 2300 781 2944 781 
Q 3303 781 3628 887 
Q 3953 994 4288 1222 
L 4288 256 
z
" transform="scale(0.015625)"/>
      <path id="DejaVuSans-Bold-72" d="M 3138 2547 
Q 2991 2616 2845 2648 
Q 2700 2681 2553 2681 
Q 2122 2681 1889 2404 
Q 1656 2128 1656 1613 
L 1656 0 
L 538 0 
L 538 3500 
L 1656 3500 
L 1656 2925 
Q 1872 3269 2151 3426 
Q 2431 3584 2822 3584 
Q 2878 3584 2943 3579 
Q 3009 3575 3134 3559 
L 3138 2547 
z
" transform="scale(0.015625)"/>
      <path id="DejaVuSans-Bold-74" d="M 1759 4494 
L 1759 3500 
L 2913 3500 
L 2913 2700 
L 1759 2700 
L 1759 1216 
Q 1759 972 1856 886 
Q 1953 800 2241 800 
L 2816 800 
L 2816 0 
L 1856 0 
Q 1194 0 917 276 
Q 641 553 641 1216 
L 641 2700 
L 84 2700 
L 84 3500 
L 641 3500 
L 641 4494 
L 1759 4494 
z
" transform="scale(0.015625)"/>
      <path id="DejaVuSans-Bold-63" d="M 3366 3391 
L 3366 2478 
Q 3138 2634 2908 2709 
Q 2678 2784 2431 2784 
Q 1963 2784 1702 2511 
Q 1441 2238 1441 1747 
Q 1441 1256 1702 982 
Q 1963 709 2431 709 
Q 2694 709 2930 787 
Q 3166 866 3366 1019 
L 3366 103 
Q 3103 6 2833 -42 
Q 2563 -91 2291 -91 
Q 1344 -91 809 395 
Q 275 881 275 1747 
Q 275 2613 809 3098 
Q 1344 3584 2291 3584 
Q 2566 3584 2833 3536 
Q 3100 3488 3366 3391 
z
" transform="scale(0.015625)"/>
      <path id="DejaVuSans-Bold-61" d="M 2106 1575 
Q 1756 1575 1579 1456 
Q 1403 1338 1403 1106 
Q 1403 894 1545 773 
Q 1688 653 1941 653 
Q 2256 653 2472 879 
Q 2688 1106 2688 1447 
L 2688 1575 
L 2106 1575 
z
M 3816 1997 
L 3816 0 
L 2688 0 
L 2688 519 
Q 2463 200 2181 54 
Q 1900 -91 1497 -91 
Q 953 -91 614 226 
Q 275 544 275 1050 
Q 275 1666 698 1953 
Q 1122 2241 2028 2241 
L 2688 2241 
L 2688 2328 
Q 2688 2594 2478 2717 
Q 2269 2841 1825 2841 
Q 1466 2841 1156 2769 
Q 847 2697 581 2553 
L 581 3406 
Q 941 3494 1303 3539 
Q 1666 3584 2028 3584 
Q 2975 3584 3395 3211 
Q 3816 2838 3816 1997 
z
" transform="scale(0.015625)"/>
      <path id="DejaVuSans-Bold-54" d="M 31 4666 
L 4331 4666 
L 4331 3756 
L 2784 3756 
L 2784 0 
L 1581 0 
L 1581 3756 
L 31 3756 
L 31 4666 
z
" transform="scale(0.015625)"/>
      <path id="DejaVuSans-Bold-6f" d="M 2203 2784 
Q 1831 2784 1636 2517 
Q 1441 2250 1441 1747 
Q 1441 1244 1636 976 
Q 1831 709 2203 709 
Q 2569 709 2762 976 
Q 2956 1244 2956 1747 
Q 2956 2250 2762 2517 
Q 2569 2784 2203 2784 
z
M 2203 3584 
Q 3106 3584 3614 3096 
Q 4122 2609 4122 1747 
Q 4122 884 3614 396 
Q 3106 -91 2203 -91 
Q 1297 -91 786 396 
Q 275 884 275 1747 
Q 275 2609 786 3096 
Q 1297 3584 2203 3584 
z
" transform="scale(0.015625)"/>
      <path id="DejaVuSans-Bold-66" d="M 2841 4863 
L 2841 4128 
L 2222 4128 
Q 1984 4128 1890 4042 
Q 1797 3956 1797 3744 
L 1797 3500 
L 2753 3500 
L 2753 2700 
L 1797 2700 
L 1797 0 
L 678 0 
L 678 2700 
L 122 2700 
L 122 3500 
L 678 3500 
L 678 3744 
Q 678 4316 997 4589 
Q 1316 4863 1984 4863 
L 2841 4863 
z
" transform="scale(0.015625)"/>
      <path id="DejaVuSans-Bold-50" d="M 588 4666 
L 2584 4666 
Q 3475 4666 3951 4270 
Q 4428 3875 4428 3144 
Q 4428 2409 3951 2014 
Q 3475 1619 2584 1619 
L 1791 1619 
L 1791 0 
L 588 0 
L 588 4666 
z
M 1791 3794 
L 1791 2491 
L 2456 2491 
Q 2806 2491 2997 2661 
Q 3188 2831 3188 3144 
Q 3188 3456 2997 3625 
Q 2806 3794 2456 3794 
L 1791 3794 
z
" transform="scale(0.015625)"/>
      <path id="DejaVuSans-Bold-53" d="M 3834 4519 
L 3834 3531 
Q 3450 3703 3084 3790 
Q 2719 3878 2394 3878 
Q 1963 3878 1756 3759 
Q 1550 3641 1550 3391 
Q 1550 3203 1689 3098 
Q 1828 2994 2194 2919 
L 2706 2816 
Q 3484 2659 3812 2340 
Q 4141 2022 4141 1434 
Q 4141 663 3683 286 
Q 3225 -91 2284 -91 
Q 1841 -91 1394 -6 
Q 947 78 500 244 
L 500 1259 
Q 947 1022 1364 901 
Q 1781 781 2169 781 
Q 2563 781 2772 912 
Q 2981 1044 2981 1288 
Q 2981 1506 2839 1625 
Q 2697 1744 2272 1838 
L 1806 1941 
Q 1106 2091 782 2419 
Q 459 2747 459 3303 
Q 459 4000 909 4375 
Q 1359 4750 2203 4750 
Q 2588 4750 2994 4692 
Q 3400 4634 3834 4519 
z
" transform="scale(0.015625)"/>
      <path id="DejaVuSans-Bold-6b" d="M 538 4863 
L 1656 4863 
L 1656 2216 
L 2944 3500 
L 4244 3500 
L 2534 1894 
L 4378 0 
L 3022 0 
L 1656 1459 
L 1656 0 
L 538 0 
L 538 4863 
z
" transform="scale(0.015625)"/>
      <path id="DejaVuSans-Bold-6e" d="M 4056 2131 
L 4056 0 
L 2931 0 
L 2931 347 
L 2931 1631 
Q 2931 2084 2911 2256 
Q 2891 2428 2841 2509 
Q 2775 2619 2662 2680 
Q 2550 2741 2406 2741 
Q 2056 2741 1856 2470 
Q 1656 2200 1656 1722 
L 1656 0 
L 538 0 
L 538 3500 
L 1656 3500 
L 1656 2988 
Q 1909 3294 2193 3439 
Q 2478 3584 2822 3584 
Q 3428 3584 3742 3212 
Q 4056 2841 4056 2131 
z
" transform="scale(0.015625)"/>
     </defs>
     <use xlink:href="#DejaVuSans-Bold-41"/>
     <use xlink:href="#DejaVuSans-Bold-73" transform="translate(77.392578 0)"/>
     <use xlink:href="#DejaVuSans-Bold-73" transform="translate(136.914062 0)"/>
     <use xlink:href="#DejaVuSans-Bold-65" transform="translate(196.435547 0)"/>
     <use xlink:href="#DejaVuSans-Bold-6d" transform="translate(264.257812 0)"/>
     <use xlink:href="#DejaVuSans-Bold-62" transform="translate(368.457031 0)"/>
     <use xlink:href="#DejaVuSans-Bold-6c" transform="translate(440.039062 0)"/>
     <use xlink:href="#DejaVuSans-Bold-79" transform="translate(474.316406 0)"/>
     <use xlink:href="#DejaVuSans-Bold-20" transform="translate(539.501953 0)"/>
     <use xlink:href="#DejaVuSans-Bold-4a" transform="translate(574.316406 0)"/>
     <use xlink:href="#DejaVuSans-Bold-69" transform="translate(611.523438 0)"/>
     <use xlink:href="#DejaVuSans-Bold-67" transform="translate(645.800781 0)"/>
     <use xlink:href="#DejaVuSans-Bold-20" transform="translate(717.382812 0)"/>
     <use xlink:href="#DejaVuSans-Bold-2014" transform="translate(752.197266 0)"/>
     <use xlink:href="#DejaVuSans-Bold-20" transform="translate(852.197266 0)"/>
     <use xlink:href="#DejaVuSans-Bold-43" transform="translate(887.011719 0)"/>
     <use xlink:href="#DejaVuSans-Bold-72" transform="translate(960.400391 0)"/>
     <use xlink:href="#DejaVuSans-Bold-69" transform="translate(1009.716797 0)"/>
     <use xlink:href="#DejaVuSans-Bold-74" transform="translate(1043.994141 0)"/>
     <use xlink:href="#DejaVuSans-Bold-69" transform="translate(1091.796875 0)"/>
     <use xlink:href="#DejaVuSans-Bold-63" transform="translate(1126.074219 0)"/>
     <use xlink:href="#DejaVuSans-Bold-61" transform="translate(1185.351562 0)"/>
     <use xlink:href="#DejaVuSans-Bold-6c" transform="translate(1252.832031 0)"/>
     <use xlink:href="#DejaVuSans-Bold-20" transform="translate(1287.109375 0)"/>
     <use xlink:href="#DejaVuSans-Bold-54" transform="translate(1321.923828 0)"/>
     <use xlink:href="#DejaVuSans-Bold-6f" transform="translate(1376.886719 0)"/>
     <use xlink:href="#DejaVuSans-Bold-6f" transform="translate(1445.587891 0)"/>
     <use xlink:href="#DejaVuSans-Bold-6c" transform="translate(1514.289062 0)"/>
     <use xlink:href="#DejaVuSans-Bold-20" transform="translate(1548.566406 0)"/>
     <use xlink:href="#DejaVuSans-Bold-66" transform="translate(1583.380859 0)"/>
     <use xlink:href="#DejaVuSans-Bold-6f" transform="translate(1626.886719 0)"/>
     <use xlink:href="#DejaVuSans-Bold-72" transform="translate(1695.587891 0)"/>
     <use xlink:href="#DejaVuSans-Bold-20" transform="translate(1744.904297 0)"/>
     <use xlink:href="#DejaVuSans-Bold-50" transform="translate(1779.71875 0)"/>
     <use xlink:href="#DejaVuSans-Bold-72" transform="translate(1853.009766 0)"/>
     <use xlink:href="#DejaVuSans-Bold-65" transform="translate(1902.326172 0)"/>
     <use xlink:href="#DejaVuSans-Bold-63" transform="translate(1970.148438 0)"/>
     <use xlink:href="#DejaVuSans-Bold-69" transform="translate(2029.425781 0)"/>
     <use xlink:href="#DejaVuSans-Bold-73" transform="translate(2063.703125 0)"/>
     <use xlink:href="#DejaVuSans-Bold-65" transform="translate(2123.224609 0)"/>
     <use xlink:href="#DejaVuSans-Bold-20" transform="translate(2191.046875 0)"/>
     <use xlink:href="#DejaVuSans-Bold-50" transform="translate(2225.861328 0)"/>
     <use xlink:href="#DejaVuSans-Bold-6c" transform="translate(2299.152344 0)"/>
     <use xlink:href="#DejaVuSans-Bold-61" transform="translate(2333.429688 0)"/>
     <use xlink:href="#DejaVuSans-Bold-74" transform="translate(2400.910156 0)"/>
     <use xlink:href="#DejaVuSans-Bold-74" transform="translate(2448.712891 0)"/>
     <use xlink:href="#DejaVuSans-Bold-65" transform="translate(2496.515625 0)"/>
     <use xlink:href="#DejaVuSans-Bold-72" transform="translate(2564.337891 0)"/>
     <use xlink:href="#DejaVuSans-Bold-20" transform="translate(2613.654297 0)"/>
     <use xlink:href="#DejaVuSans-Bold-53" transform="translate(2648.46875 0)"/>
     <use xlink:href="#DejaVuSans-Bold-74" transform="translate(2720.490234 0)"/>
     <use xlink:href="#DejaVuSans-Bold-61" transform="translate(2768.292969 0)"/>
     <use xlink:href="#DejaVuSans-Bold-63" transform="translate(2835.773438 0)"/>
     <use xlink:href="#DejaVuSans-Bold-6b" transform="translate(2895.050781 0)"/>
     <use xlink:href="#DejaVuSans-Bold-69" transform="translate(2961.554688 0)"/>
     <use xlink:href="#DejaVuSans-Bold-6e" transform="translate(2995.832031 0)"/>
     <use xlink:href="#DejaVuSans-Bold-67" transform="translate(3067.023438 0)"/>
    </g>
    <!-- Ensures perfectly uniform 1.0 mm gaps and alignment -->
    <g transform="translate(68.418906 29.674375) scale(0.1 -0.1)">
     <defs>
      <path id="DejaVuSans-Bold-45" d="M 588 4666 
L 3834 4666 
L 3834 3756 
L 1791 3756 
L 1791 2888 
L 3713 2888 
L 3713 1978 
L 1791 1978 
L 1791 909 
L 3903 909 
L 3903 0 
L 588 0 
L 588 4666 
z
" transform="scale(0.015625)"/>
      <path id="DejaVuSans-Bold-75" d="M 500 1363 
L 500 3500 
L 1625 3500 
L 1625 3150 
Q 1625 2866 1622 2436 
Q 1619 2006 1619 1863 
Q 1619 1441 1641 1255 
Q 1663 1069 1716 984 
Q 1784 875 1895 815 
Q 2006 756 2150 756 
Q 2500 756 2700 1025 
Q 2900 1294 2900 1772 
L 2900 3500 
L 4019 3500 
L 4019 0 
L 2900 0 
L 2900 506 
Q 2647 200 2364 54 
Q 2081 -91 1741 -91 
Q 1134 -91 817 281 
Q 500 653 500 1363 
z
" transform="scale(0.015625)"/>
      <path id="DejaVuSans-Bold-70" d="M 1656 506 
L 1656 -1331 
L 538 -1331 
L 538 3500 
L 1656 3500 
L 1656 2988 
Q 1888 3294 2169 3439 
Q 2450 3584 2816 3584 
Q 3463 3584 3878 3070 
Q 4294 2556 4294 1747 
Q 4294 938 3878 423 
Q 3463 -91 2816 -91 
Q 2450 -91 2169 54 
Q 1888 200 1656 506 
z
M 2400 2772 
Q 2041 2772 1848 2508 
Q 1656 2244 1656 1747 
Q 1656 1250 1848 986 
Q 2041 722 2400 722 
Q 2759 722 2948 984 
Q 3138 1247 3138 1747 
Q 3138 2247 2948 2509 
Q 2759 2772 2400 2772 
z
" transform="scale(0.015625)"/>
      <path id="DejaVuSans-Bold-31" d="M 750 831 
L 1813 831 
L 1813 3847 
L 722 3622 
L 722 4441 
L 1806 4666 
L 2950 4666 
L 2950 831 
L 4013 831 
L 4013 0 
L 750 0 
L 750 831 
z
" transform="scale(0.015625)"/>
      <path id="DejaVuSans-Bold-2e" d="M 653 1209 
L 1778 1209 
L 1778 0 
L 653 0 
L 653 1209 
z
" transform="scale(0.015625)"/>
      <path id="DejaVuSans-Bold-30" d="M 2944 2338 
Q 2944 3213 2780 3570 
Q 2616 3928 2228 3928 
Q 1841 3928 1675 3570 
Q 1509 3213 1509 2338 
Q 1509 1453 1675 1090 
Q 1841 728 2228 728 
Q 2613 728 2778 1090 
Q 2944 1453 2944 2338 
z
M 4147 2328 
Q 4147 1169 3647 539 
Q 3147 -91 2228 -91 
Q 1306 -91 806 539 
Q 306 1169 306 2328 
Q 306 3491 806 4120 
Q 1306 4750 2228 4750 
Q 3147 4750 3647 4120 
Q 4147 3491 4147 2328 
z
" transform="scale(0.015625)"/>
      <path id="DejaVuSans-Bold-64" d="M 2919 2988 
L 2919 4863 
L 4044 4863 
L 4044 0 
L 2919 0 
L 2919 506 
Q 2688 197 2409 53 
Q 2131 -91 1766 -91 
Q 1119 -91 703 423 
Q 288 938 288 1747 
Q 288 2556 703 3070 
Q 1119 3584 1766 3584 
Q 2128 3584 2408 3439 
Q 2688 3294 2919 2988 
z
M 2181 722 
Q 2541 722 2730 984 
Q 2919 1247 2919 1747 
Q 2919 2247 2730 2509 
Q 2541 2772 2181 2772 
Q 1825 2772 1636 2509 
Q 1447 2247 1447 1747 
Q 1447 1247 1636 984 
Q 1825 722 2181 722 
z
" transform="scale(0.015625)"/>
     </defs>
     <use xlink:href="#DejaVuSans-Bold-45"/>
     <use xlink:href="#DejaVuSans-Bold-6e" transform="translate(68.310547 0)"/>
     <use xlink:href="#DejaVuSans-Bold-73" transform="translate(139.501953 0)"/>
     <use xlink:href="#DejaVuSans-Bold-75" transform="translate(199.023438 0)"/>
     <use xlink:href="#DejaVuSans-Bold-72" transform="translate(270.214844 0)"/>
     <use xlink:href="#DejaVuSans-Bold-65" transform="translate(319.53125 0)"/>
     <use xlink:href="#DejaVuSans-Bold-73" transform="translate(387.353516 0)"/>
     <use xlink:href="#DejaVuSans-Bold-20" transform="translate(446.875 0)"/>
     <use xlink:href="#DejaVuSans-Bold-70" transform="translate(481.689453 0)"/>
     <use xlink:href="#DejaVuSans-Bold-65" transform="translate(553.271484 0)"/>
     <use xlink:href="#DejaVuSans-Bold-72" transform="translate(621.09375 0)"/>
     <use xlink:href="#DejaVuSans-Bold-66" transform="translate(670.410156 0)"/>
     <use xlink:href="#DejaVuSans-Bold-65" transform="translate(713.916016 0)"/>
     <use xlink:href="#DejaVuSans-Bold-63" transform="translate(781.738281 0)"/>
     <use xlink:href="#DejaVuSans-Bold-74" transform="translate(841.015625 0)"/>
     <use xlink:href="#DejaVuSans-Bold-6c" transform="translate(888.818359 0)"/>
     <use xlink:href="#DejaVuSans-Bold-79" transform="translate(923.095703 0)"/>
     <use xlink:href="#DejaVuSans-Bold-20" transform="translate(988.28125 0)"/>
     <use xlink:href="#DejaVuSans-Bold-75" transform="translate(1023.095703 0)"/>
     <use xlink:href="#DejaVuSans-Bold-6e" transform="translate(1094.287109 0)"/>
     <use xlink:href="#DejaVuSans-Bold-69" transform="translate(1165.478516 0)"/>
     <use xlink:href="#DejaVuSans-Bold-66" transform="translate(1199.755859 0)"/>
     <use xlink:href="#DejaVuSans-Bold-6f" transform="translate(1243.261719 0)"/>
     <use xlink:href="#DejaVuSans-Bold-72" transform="translate(1311.962891 0)"/>
     <use xlink:href="#DejaVuSans-Bold-6d" transform="translate(1361.279297 0)"/>
     <use xlink:href="#DejaVuSans-Bold-20" transform="translate(1465.478516 0)"/>
     <use xlink:href="#DejaVuSans-Bold-31" transform="translate(1500.292969 0)"/>
     <use xlink:href="#DejaVuSans-Bold-2e" transform="translate(1569.873047 0)"/>
     <use xlink:href="#DejaVuSans-Bold-30" transform="translate(1607.861328 0)"/>
     <use xlink:href="#DejaVuSans-Bold-20" transform="translate(1677.441406 0)"/>
     <use xlink:href="#DejaVuSans-Bold-6d" transform="translate(1712.255859 0)"/>
     <use xlink:href="#DejaVuSans-Bold-6d" transform="translate(1816.455078 0)"/>
     <use xlink:href="#DejaVuSans-Bold-20" transform="translate(1920.654297 0)"/>
     <use xlink:href="#DejaVuSans-Bold-67" transform="translate(1955.46875 0)"/>
     <use xlink:href="#DejaVuSans-Bold-61" transform="translate(2027.050781 0)"/>
     <use xlink:href="#DejaVuSans-Bold-70" transform="translate(2094.53125 0)"/>
     <use xlink:href="#DejaVuSans-Bold-73" transform="translate(2166.113281 0)"/>
     <use xlink:href="#DejaVuSans-Bold-20" transform="translate(2225.634766 0)"/>
     <use xlink:href="#DejaVuSans-Bold-61" transform="translate(2260.449219 0)"/>
     <use xlink:href="#DejaVuSans-Bold-6e" transform="translate(2327.929688 0)"/>
     <use xlink:href="#DejaVuSans-Bold-64" transform="translate(2399.121094 0)"/>
     <use xlink:href="#DejaVuSans-Bold-20" transform="translate(2470.703125 0)"/>
     <use xlink:href="#DejaVuSans-Bold-61" transform="translate(2505.517578 0)"/>
     <use xlink:href="#DejaVuSans-Bold-6c" transform="translate(2572.998047 0)"/>
     <use xlink:href="#DejaVuSans-Bold-69" transform="translate(2607.275391 0)"/>
     <use xlink:href="#DejaVuSans-Bold-67" transform="translate(2641.552734 0)"/>
     <use xlink:href="#DejaVuSans-Bold-6e" transform="translate(2713.134766 0)"/>
     <use xlink:href="#DejaVuSans-Bold-6d" transform="translate(2784.326172 0)"/>
     <use xlink:href="#DejaVuSans-Bold-65" transform="translate(2888.525391 0)"/>
     <use xlink:href="#DejaVuSans-Bold-6e" transform="translate(2956.347656 0)"/>
     <use xlink:href="#DejaVuSans-Bold-74" transform="translate(3027.539062 0)"/>
    </g>
   </g>
  </g>
 </g>
 <defs>
  <clipPath id="p83aebe8cf9">
   <rect x="34.68375" y="35.674375" width="375" height="375"/>
  </clipPath>
 </defs>
</svg>
