<?xml version="1.0" encoding="utf-8" standalone="no"?>
<!DOCTYPE svg PUBLIC "-//W3C//DTD SVG 1.1//EN"
  "http://www.w3.org/Graphics/SVG/1.1/DTD/svg11.dtd">
<svg xmlns:xlink="http://www.w3.org/1999/xlink" width="557.583778pt" height="580.201812pt" viewBox="0 0 557.583778 580.201812" xmlns="http://www.w3.org/2000/svg" version="1.1">
 <metadata>
  <rdf:RDF xmlns:dc="http://purl.org/dc/elements/1.1/" xmlns:cc="http://creativecommons.org/ns#" xmlns:rdf="http://www.w3.org/1999/02/22-rdf-syntax-ns#">
   <cc:Work>
    <dc:type rdf:resource="http://purl.org/dc/dcmitype/StillImage"/>
    <dc:date>2026-05-28T08:18:28.630530</dc:date>
    <dc:format>image/svg+xml</dc:format>
    <dc:creator>
     <cc:Agent>
      <dc:title>Matplotlib v3.10.9, https://matplotlib.org/</dc:title>
     </cc:Agent>
    </dc:creator>
   </cc:Work>
  </rdf:RDF>
 </metadata>
 <defs>
  <style type="text/css">*{stroke-linejoin: round; stroke-linecap: butt}</style>
 </defs>
 <g id="figure_1">
  <g id="patch_1">
   <path d="M 0 580.201812 
L 557.583778 580.201812 
L 557.583778 0 
L 0 0 
z
" style="fill: #ffffff"/>
  </g>
  <g id="patch_2">
   <path d="M 10.8 569.401812 
L 542.64 569.401812 
L 542.64 37.561812 
L 10.8 37.561812 
z
" style="fill: #ffffff"/>
  </g>
  <g id="pane3d_1">
   <g id="patch_3">
    <path d="M 45.558313 431.353344 
L 245.447076 340.60261 
L 244.450744 112.543091 
L 38.794747 184.115074 
" style="fill: #f2f2f2; opacity: 0.5; stroke: #f2f2f2; stroke-linejoin: miter"/>
   </g>
  </g>
  <g id="pane3d_2">
   <g id="patch_4">
    <path d="M 245.447076 340.60261 
L 515.807225 402.427768 
L 522.204855 161.265061 
L 244.450744 112.543091 
" style="fill: #e6e6e6; opacity: 0.5; stroke: #e6e6e6; stroke-linejoin: miter"/>
   </g>
  </g>
  <g id="pane3d_3">
   <g id="patch_5">
    <path d="M 45.558313 431.353344 
L 328.853513 505.614882 
L 515.807225 402.427768 
L 245.447076 340.60261 
" style="fill: #ececec; opacity: 0.5; stroke: #ececec; stroke-linejoin: miter"/>
   </g>
  </g>
  <g id="grid3d_1">
   <g id="Line3DCollection_1">
    <path d="M 45.558313 431.353344 
L 245.447076 340.60261 
L 244.450744 112.543091 
" style="fill: none; stroke: #b0b0b0; stroke-width: 0.8"/>
    <path d="M 78.941306 440.104189 
L 277.47141 347.92584 
L 277.30341 118.30591 
" style="fill: none; stroke: #b0b0b0; stroke-width: 0.8"/>
    <path d="M 112.875283 448.999466 
L 309.978762 355.359525 
L 310.664624 124.157935 
" style="fill: none; stroke: #b0b0b0; stroke-width: 0.8"/>
    <path d="M 147.374 458.042781 
L 342.980144 362.906183 
L 344.546285 130.101254 
" style="fill: none; stroke: #b0b0b0; stroke-width: 0.8"/>
    <path d="M 182.451672 467.23786 
L 376.486903 370.568409 
L 378.960667 136.13802 
" style="fill: none; stroke: #b0b0b0; stroke-width: 0.8"/>
    <path d="M 218.122996 476.588557 
L 410.510737 378.348879 
L 413.920435 142.270454 
" style="fill: none; stroke: #b0b0b0; stroke-width: 0.8"/>
    <path d="M 254.403172 486.098855 
L 445.06371 386.25035 
L 449.438657 148.500849 
" style="fill: none; stroke: #b0b0b0; stroke-width: 0.8"/>
    <path d="M 291.307921 495.772875 
L 480.158262 394.275668 
L 485.528821 154.83157 
" style="fill: none; stroke: #b0b0b0; stroke-width: 0.8"/>
    <path d="M 328.853513 505.614882 
L 515.807225 402.427768 
L 522.204855 161.265061 
" style="fill: none; stroke: #b0b0b0; stroke-width: 0.8"/>
   </g>
  </g>
  <g id="grid3d_2">
   <g id="Line3DCollection_2">
    <path d="M 38.794747 184.115074 
L 45.558313 431.353344 
L 328.853513 505.614882 
" style="fill: none; stroke: #b0b0b0; stroke-width: 0.8"/>
    <path d="M 66.622069 174.430666 
L 72.549056 419.09938 
L 354.226287 491.610649 
" style="fill: none; stroke: #b0b0b0; stroke-width: 0.8"/>
    <path d="M 93.801255 164.971821 
L 98.928101 407.12313 
L 378.985056 477.94531 
" style="fill: none; stroke: #b0b0b0; stroke-width: 0.8"/>
    <path d="M 120.354687 155.730749 
L 124.716009 395.415261 
L 403.151843 464.606709 
" style="fill: none; stroke: #b0b0b0; stroke-width: 0.8"/>
    <path d="M 146.303731 146.700015 
L 149.932431 383.966849 
L 426.747628 451.583266 
" style="fill: none; stroke: #b0b0b0; stroke-width: 0.8"/>
    <path d="M 171.668788 137.87252 
L 174.596156 372.769365 
L 449.792411 438.863943 
" style="fill: none; stroke: #b0b0b0; stroke-width: 0.8"/>
    <path d="M 196.469353 129.241477 
L 198.725158 361.814649 
L 472.305271 426.438209 
" style="fill: none; stroke: #b0b0b0; stroke-width: 0.8"/>
    <path d="M 220.724063 120.800402 
L 222.33664 351.09489 
L 494.304414 414.296016 
" style="fill: none; stroke: #b0b0b0; stroke-width: 0.8"/>
    <path d="M 244.450744 112.543091 
L 245.447076 340.60261 
L 515.807225 402.427768 
" style="fill: none; stroke: #b0b0b0; stroke-width: 0.8"/>
   </g>
  </g>
  <g id="grid3d_3">
   <g id="Line3DCollection_3">
    <path d="M 516.223027 386.753837 
L 245.382222 325.757575 
L 45.119043 415.296069 
" style="fill: none; stroke: #b0b0b0; stroke-width: 0.8"/>
    <path d="M 517.059121 355.236746 
L 245.251855 295.9168 
L 44.235627 383.003304 
" style="fill: none; stroke: #b0b0b0; stroke-width: 0.8"/>
    <path d="M 517.901255 323.491979 
L 245.120603 265.873379 
L 43.34565 350.470712 
" style="fill: none; stroke: #b0b0b0; stroke-width: 0.8"/>
    <path d="M 518.749494 291.517059 
L 244.988457 235.625241 
L 42.449039 317.695612 
" style="fill: none; stroke: #b0b0b0; stroke-width: 0.8"/>
    <path d="M 519.603906 259.309475 
L 244.855408 205.170286 
L 41.545719 284.675282 
" style="fill: none; stroke: #b0b0b0; stroke-width: 0.8"/>
    <path d="M 520.464557 226.866678 
L 244.721445 174.506386 
L 40.635615 251.406958 
" style="fill: none; stroke: #b0b0b0; stroke-width: 0.8"/>
    <path d="M 521.331517 194.186081 
L 244.58656 143.631384 
L 39.71865 217.887838 
" style="fill: none; stroke: #b0b0b0; stroke-width: 0.8"/>
    <path d="M 522.204855 161.265061 
L 244.450744 112.543091 
L 38.794747 184.115074 
" style="fill: none; stroke: #b0b0b0; stroke-width: 0.8"/>
   </g>
  </g>
  <g id="axis3d_1">
   <g id="line2d_1">
    <path d="M 45.558313 431.353344 
L 328.853513 505.614882 
" style="fill: none; stroke: #000000; stroke-width: 0.6; stroke-linecap: square"/>
   </g>
   <g id="xtick_1">
    <g id="line2d_2">
     <path d="M 47.304453 430.560585 
L 42.058247 432.942395 
" style="fill: none; stroke: #000000; stroke-width: 0.8; stroke-linecap: square"/>
    </g>
    <g id="text_1">
     <!-- −40 -->
     <g transform="translate(28.297258 451.568604) scale(0.08 -0.08)">
      <defs>
       <path id="DejaVuSans-2212" d="M 678 2272 
L 4684 2272 
L 4684 1741 
L 678 1741 
L 678 2272 
z
" transform="scale(0.015625)"/>
       <path id="DejaVuSans-34" d="M 2419 4116 
L 825 1625 
L 2419 1625 
L 2419 4116 
z
M 2253 4666 
L 3047 4666 
L 3047 1625 
L 3713 1625 
L 3713 1100 
L 3047 1100 
L 3047 0 
L 2419 0 
L 2419 1100 
L 313 1100 
L 313 1709 
L 2253 4666 
z
" transform="scale(0.015625)"/>
       <path id="DejaVuSans-30" d="M 2034 4250 
Q 1547 4250 1301 3770 
Q 1056 3291 1056 2328 
Q 1056 1369 1301 889 
Q 1547 409 2034 409 
Q 2525 409 2770 889 
Q 3016 1369 3016 2328 
Q 3016 3291 2770 3770 
Q 2525 4250 2034 4250 
z
M 2034 4750 
Q 2819 4750 3233 4129 
Q 3647 3509 3647 2328 
Q 3647 1150 3233 529 
Q 2819 -91 2034 -91 
Q 1250 -91 836 529 
Q 422 1150 422 2328 
Q 422 3509 836 4129 
Q 1250 4750 2034 4750 
z
" transform="scale(0.015625)"/>
      </defs>
      <use xlink:href="#DejaVuSans-2212"/>
      <use xlink:href="#DejaVuSans-34" transform="translate(83.789062 0)"/>
      <use xlink:href="#DejaVuSans-30" transform="translate(147.412109 0)"/>
     </g>
    </g>
   </g>
   <g id="xtick_2">
    <g id="line2d_3">
     <path d="M 80.676772 439.298405 
L 75.462573 441.719379 
" style="fill: none; stroke: #000000; stroke-width: 0.8; stroke-linecap: square"/>
    </g>
    <g id="text_2">
     <!-- −30 -->
     <g transform="translate(61.699167 460.459405) scale(0.08 -0.08)">
      <defs>
       <path id="DejaVuSans-33" d="M 2597 2516 
Q 3050 2419 3304 2112 
Q 3559 1806 3559 1356 
Q 3559 666 3084 287 
Q 2609 -91 1734 -91 
Q 1441 -91 1130 -33 
Q 819 25 488 141 
L 488 750 
Q 750 597 1062 519 
Q 1375 441 1716 441 
Q 2309 441 2620 675 
Q 2931 909 2931 1356 
Q 2931 1769 2642 2001 
Q 2353 2234 1838 2234 
L 1294 2234 
L 1294 2753 
L 1863 2753 
Q 2328 2753 2575 2939 
Q 2822 3125 2822 3475 
Q 2822 3834 2567 4026 
Q 2313 4219 1838 4219 
Q 1578 4219 1281 4162 
Q 984 4106 628 3988 
L 628 4550 
Q 988 4650 1302 4700 
Q 1616 4750 1894 4750 
Q 2613 4750 3031 4423 
Q 3450 4097 3450 3541 
Q 3450 3153 3228 2886 
Q 3006 2619 2597 2516 
z
" transform="scale(0.015625)"/>
      </defs>
      <use xlink:href="#DejaVuSans-2212"/>
      <use xlink:href="#DejaVuSans-33" transform="translate(83.789062 0)"/>
      <use xlink:href="#DejaVuSans-30" transform="translate(147.412109 0)"/>
     </g>
    </g>
   </g>
   <g id="xtick_3">
    <g id="line2d_4">
     <path d="M 114.599484 448.180333 
L 109.419068 450.641445 
" style="fill: none; stroke: #000000; stroke-width: 0.8; stroke-linecap: square"/>
    </g>
    <g id="text_3">
     <!-- −20 -->
     <g transform="translate(95.653893 469.497352) scale(0.08 -0.08)">
      <defs>
       <path id="DejaVuSans-32" d="M 1228 531 
L 3431 531 
L 3431 0 
L 469 0 
L 469 531 
Q 828 903 1448 1529 
Q 2069 2156 2228 2338 
Q 2531 2678 2651 2914 
Q 2772 3150 2772 3378 
Q 2772 3750 2511 3984 
Q 2250 4219 1831 4219 
Q 1534 4219 1204 4116 
Q 875 4013 500 3803 
L 500 4441 
Q 881 4594 1212 4672 
Q 1544 4750 1819 4750 
Q 2544 4750 2975 4387 
Q 3406 4025 3406 3419 
Q 3406 3131 3298 2873 
Q 3191 2616 2906 2266 
Q 2828 2175 2409 1742 
Q 1991 1309 1228 531 
z
" transform="scale(0.015625)"/>
      </defs>
      <use xlink:href="#DejaVuSans-2212"/>
      <use xlink:href="#DejaVuSans-32" transform="translate(83.789062 0)"/>
      <use xlink:href="#DejaVuSans-30" transform="translate(147.412109 0)"/>
     </g>
    </g>
   </g>
   <g id="xtick_4">
    <g id="line2d_5">
     <path d="M 149.086318 457.209964 
L 143.941538 459.712221 
" style="fill: none; stroke: #000000; stroke-width: 0.8; stroke-linecap: square"/>
    </g>
    <g id="text_4">
     <!-- −10 -->
     <g transform="translate(130.175274 478.686129) scale(0.08 -0.08)">
      <defs>
       <path id="DejaVuSans-31" d="M 794 531 
L 1825 531 
L 1825 4091 
L 703 3866 
L 703 4441 
L 1819 4666 
L 2450 4666 
L 2450 531 
L 3481 531 
L 3481 0 
L 794 0 
L 794 531 
z
" transform="scale(0.015625)"/>
      </defs>
      <use xlink:href="#DejaVuSans-2212"/>
      <use xlink:href="#DejaVuSans-31" transform="translate(83.789062 0)"/>
      <use xlink:href="#DejaVuSans-30" transform="translate(147.412109 0)"/>
     </g>
    </g>
   </g>
   <g id="xtick_5">
    <g id="line2d_6">
     <path d="M 184.151465 466.391014 
L 179.044252 468.935456 
" style="fill: none; stroke: #000000; stroke-width: 0.8; stroke-linecap: square"/>
    </g>
    <g id="text_5">
     <!-- 0 -->
     <g transform="translate(171.17449 488.029544) scale(0.08 -0.08)">
      <use xlink:href="#DejaVuSans-30"/>
     </g>
    </g>
   </g>
   <g id="xtick_6">
    <g id="line2d_7">
     <path d="M 219.809593 475.727323 
L 214.741963 478.315027 
" style="fill: none; stroke: #000000; stroke-width: 0.8; stroke-linecap: square"/>
    </g>
    <g id="text_6">
     <!-- 10 -->
     <g transform="translate(204.327582 497.531534) scale(0.08 -0.08)">
      <use xlink:href="#DejaVuSans-31"/>
      <use xlink:href="#DejaVuSans-30" transform="translate(63.623047 0)"/>
     </g>
    </g>
   </g>
   <g id="xtick_7">
    <g id="line2d_8">
     <path d="M 256.075874 485.222864 
L 251.049927 487.854941 
" style="fill: none; stroke: #000000; stroke-width: 0.8; stroke-linecap: square"/>
    </g>
    <g id="text_7">
     <!-- 20 -->
     <g transform="translate(240.636719 507.19617) scale(0.08 -0.08)">
      <use xlink:href="#DejaVuSans-32"/>
      <use xlink:href="#DejaVuSans-30" transform="translate(63.623047 0)"/>
     </g>
    </g>
   </g>
   <g id="xtick_8">
    <g id="line2d_9">
     <path d="M 292.965998 494.881745 
L 287.983929 497.559347 
" style="fill: none; stroke: #000000; stroke-width: 0.8; stroke-linecap: square"/>
    </g>
    <g id="text_8">
     <!-- 30 -->
     <g transform="translate(277.572727 517.027664) scale(0.08 -0.08)">
      <use xlink:href="#DejaVuSans-33"/>
      <use xlink:href="#DejaVuSans-30" transform="translate(63.623047 0)"/>
     </g>
    </g>
   </g>
   <g id="xtick_9">
    <g id="line2d_10">
     <path d="M 330.496203 504.708217 
L 325.560301 507.432536 
" style="fill: none; stroke: #000000; stroke-width: 0.8; stroke-linecap: square"/>
    </g>
    <g id="text_9">
     <!-- 40 -->
     <g transform="translate(315.151981 527.030375) scale(0.08 -0.08)">
      <use xlink:href="#DejaVuSans-34"/>
      <use xlink:href="#DejaVuSans-30" transform="translate(63.623047 0)"/>
     </g>
    </g>
   </g>
   <g id="text_10">
    <!-- X -->
    <g transform="translate(160.665979 501.535625) scale(0.08 -0.08)">
     <defs>
      <path id="DejaVuSans-58" d="M 403 4666 
L 1081 4666 
L 2241 2931 
L 3406 4666 
L 4084 4666 
L 2584 2425 
L 4184 0 
L 3506 0 
L 2194 1984 
L 872 0 
L 191 0 
L 1856 2491 
L 403 4666 
z
" transform="scale(0.015625)"/>
     </defs>
     <use xlink:href="#DejaVuSans-58"/>
    </g>
   </g>
  </g>
  <g id="axis3d_2">
   <g id="line2d_11">
    <path d="M 515.807225 402.427768 
L 328.853513 505.614882 
" style="fill: none; stroke: #000000; stroke-width: 0.6; stroke-linecap: square"/>
   </g>
   <g id="xtick_10">
    <g id="line2d_12">
     <path d="M 326.431078 504.979877 
L 333.706468 506.887011 
" style="fill: none; stroke: #000000; stroke-width: 0.8; stroke-linecap: square"/>
    </g>
    <g id="text_11">
     <!-- −40 -->
     <g transform="translate(332.955662 525.59737) scale(0.08 -0.08)">
      <use xlink:href="#DejaVuSans-2212"/>
      <use xlink:href="#DejaVuSans-34" transform="translate(83.789062 0)"/>
      <use xlink:href="#DejaVuSans-30" transform="translate(147.412109 0)"/>
     </g>
    </g>
   </g>
   <g id="xtick_11">
    <g id="line2d_13">
     <path d="M 351.819587 490.9911 
L 359.047621 492.85179 
" style="fill: none; stroke: #000000; stroke-width: 0.8; stroke-linecap: square"/>
    </g>
    <g id="text_12">
     <!-- −30 -->
     <g transform="translate(358.21618 511.399588) scale(0.08 -0.08)">
      <use xlink:href="#DejaVuSans-2212"/>
      <use xlink:href="#DejaVuSans-33" transform="translate(83.789062 0)"/>
      <use xlink:href="#DejaVuSans-30" transform="translate(147.412109 0)"/>
     </g>
    </g>
   </g>
   <g id="xtick_12">
    <g id="line2d_14">
     <path d="M 376.594043 477.340659 
L 383.77487 479.156581 
" style="fill: none; stroke: #000000; stroke-width: 0.8; stroke-linecap: square"/>
    </g>
    <g id="text_13">
     <!-- −20 -->
     <g transform="translate(382.864419 497.545939) scale(0.08 -0.08)">
      <use xlink:href="#DejaVuSans-2212"/>
      <use xlink:href="#DejaVuSans-32" transform="translate(83.789062 0)"/>
      <use xlink:href="#DejaVuSans-30" transform="translate(147.412109 0)"/>
     </g>
    </g>
   </g>
   <g id="xtick_13">
    <g id="line2d_15">
     <path d="M 400.776459 464.016424 
L 407.910255 465.789176 
" style="fill: none; stroke: #000000; stroke-width: 0.8; stroke-linecap: square"/>
    </g>
    <g id="text_14">
     <!-- −10 -->
     <g transform="translate(406.922375 484.024061) scale(0.08 -0.08)">
      <use xlink:href="#DejaVuSans-2212"/>
      <use xlink:href="#DejaVuSans-31" transform="translate(83.789062 0)"/>
      <use xlink:href="#DejaVuSans-30" transform="translate(147.412109 0)"/>
     </g>
    </g>
   </g>
   <g id="xtick_14">
    <g id="line2d_16">
     <path d="M 424.387806 451.006843 
L 431.474776 452.737945 
" style="fill: none; stroke: #000000; stroke-width: 0.8; stroke-linecap: square"/>
    </g>
    <g id="text_15">
     <!-- 0 -->
     <g transform="translate(436.307876 470.822179) scale(0.08 -0.08)">
      <use xlink:href="#DejaVuSans-30"/>
     </g>
    </g>
   </g>
   <g id="xtick_15">
    <g id="line2d_17">
     <path d="M 447.448076 438.300898 
L 454.488449 439.991802 
" style="fill: none; stroke: #000000; stroke-width: 0.8; stroke-linecap: square"/>
    </g>
    <g id="text_16">
     <!-- 10 -->
     <g transform="translate(456.702144 457.929064) scale(0.08 -0.08)">
      <use xlink:href="#DejaVuSans-31"/>
      <use xlink:href="#DejaVuSans-30" transform="translate(63.623047 0)"/>
     </g>
    </g>
   </g>
   <g id="xtick_16">
    <g id="line2d_18">
     <path d="M 469.976341 425.888082 
L 476.970366 427.540172 
" style="fill: none; stroke: #000000; stroke-width: 0.8; stroke-linecap: square"/>
    </g>
    <g id="text_17">
     <!-- 20 -->
     <g transform="translate(479.111106 445.334011) scale(0.08 -0.08)">
      <use xlink:href="#DejaVuSans-32"/>
      <use xlink:href="#DejaVuSans-30" transform="translate(63.623047 0)"/>
     </g>
    </g>
   </g>
   <g id="xtick_17">
    <g id="line2d_19">
     <path d="M 491.990799 413.758367 
L 498.938748 415.372964 
" style="fill: none; stroke: #000000; stroke-width: 0.8; stroke-linecap: square"/>
    </g>
    <g id="text_18">
     <!-- 30 -->
     <g transform="translate(501.00794 433.026801) scale(0.08 -0.08)">
      <use xlink:href="#DejaVuSans-33"/>
      <use xlink:href="#DejaVuSans-30" transform="translate(63.623047 0)"/>
     </g>
    </g>
   </g>
   <g id="xtick_18">
    <g id="line2d_20">
     <path d="M 513.508832 401.902178 
L 520.41099 403.480543 
" style="fill: none; stroke: #000000; stroke-width: 0.8; stroke-linecap: square"/>
    </g>
    <g id="text_19">
     <!-- 40 -->
     <g transform="translate(522.410005 420.997679) scale(0.08 -0.08)">
      <use xlink:href="#DejaVuSans-34"/>
      <use xlink:href="#DejaVuSans-30" transform="translate(63.623047 0)"/>
     </g>
    </g>
   </g>
   <g id="text_20">
    <!-- Y -->
    <g transform="translate(450.669242 482.453067) scale(0.08 -0.08)">
     <defs>
      <path id="DejaVuSans-59" d="M -13 4666 
L 666 4666 
L 1959 2747 
L 3244 4666 
L 3922 4666 
L 2272 2222 
L 2272 0 
L 1638 0 
L 1638 2222 
L -13 4666 
z
" transform="scale(0.015625)"/>
     </defs>
     <use xlink:href="#DejaVuSans-59"/>
    </g>
   </g>
  </g>
  <g id="axis3d_3">
   <g id="line2d_21">
    <path d="M 515.807225 402.427768 
L 522.204855 161.265061 
" style="fill: none; stroke: #000000; stroke-width: 0.6; stroke-linecap: square"/>
   </g>
   <g id="xtick_19">
    <g id="line2d_22">
     <path d="M 513.920305 386.235239 
L 520.835477 387.79261 
" style="fill: none; stroke: #000000; stroke-width: 0.8; stroke-linecap: square"/>
    </g>
    <g id="text_21">
     <!-- 0 -->
     <g transform="translate(532.685006 391.681033) scale(0.08 -0.08)">
      <use xlink:href="#DejaVuSans-30"/>
     </g>
    </g>
   </g>
   <g id="xtick_20">
    <g id="line2d_23">
     <path d="M 514.747691 354.732293 
L 521.689038 356.247191 
" style="fill: none; stroke: #000000; stroke-width: 0.8; stroke-linecap: square"/>
    </g>
    <g id="text_22">
     <!-- 10 -->
     <g transform="translate(531.043485 360.195354) scale(0.08 -0.08)">
      <use xlink:href="#DejaVuSans-31"/>
      <use xlink:href="#DejaVuSans-30" transform="translate(63.623047 0)"/>
     </g>
    </g>
   </g>
   <g id="xtick_21">
    <g id="line2d_24">
     <path d="M 515.581051 323.001889 
L 522.548772 324.473659 
" style="fill: none; stroke: #000000; stroke-width: 0.8; stroke-linecap: square"/>
    </g>
    <g id="text_23">
     <!-- 20 -->
     <g transform="translate(531.953483 328.482483) scale(0.08 -0.08)">
      <use xlink:href="#DejaVuSans-32"/>
      <use xlink:href="#DejaVuSans-30" transform="translate(63.623047 0)"/>
     </g>
    </g>
   </g>
   <g id="xtick_22">
    <g id="line2d_25">
     <path d="M 516.420449 291.041555 
L 523.414746 292.46953 
" style="fill: none; stroke: #000000; stroke-width: 0.8; stroke-linecap: square"/>
    </g>
    <g id="text_24">
     <!-- 30 -->
     <g transform="translate(532.870071 296.539952) scale(0.08 -0.08)">
      <use xlink:href="#DejaVuSans-33"/>
      <use xlink:href="#DejaVuSans-30" transform="translate(63.623047 0)"/>
     </g>
    </g>
   </g>
   <g id="xtick_23">
    <g id="line2d_26">
     <path d="M 517.265953 258.848781 
L 524.287027 260.232284 
" style="fill: none; stroke: #000000; stroke-width: 0.8; stroke-linecap: square"/>
    </g>
    <g id="text_25">
     <!-- 40 -->
     <g transform="translate(533.793321 264.365257) scale(0.08 -0.08)">
      <use xlink:href="#DejaVuSans-34"/>
      <use xlink:href="#DejaVuSans-30" transform="translate(63.623047 0)"/>
     </g>
    </g>
   </g>
   <g id="xtick_24">
    <g id="line2d_27">
     <path d="M 518.117628 226.421024 
L 525.165685 227.759365 
" style="fill: none; stroke: #000000; stroke-width: 0.8; stroke-linecap: square"/>
    </g>
    <g id="text_26">
     <!-- 50 -->
     <g transform="translate(534.723306 231.955859) scale(0.08 -0.08)">
      <defs>
       <path id="DejaVuSans-35" d="M 691 4666 
L 3169 4666 
L 3169 4134 
L 1269 4134 
L 1269 2991 
Q 1406 3038 1543 3061 
Q 1681 3084 1819 3084 
Q 2600 3084 3056 2656 
Q 3513 2228 3513 1497 
Q 3513 744 3044 326 
Q 2575 -91 1722 -91 
Q 1428 -91 1123 -41 
Q 819 9 494 109 
L 494 744 
Q 775 591 1075 516 
Q 1375 441 1709 441 
Q 2250 441 2565 725 
Q 2881 1009 2881 1497 
Q 2881 1984 2565 2268 
Q 2250 2553 1709 2553 
Q 1456 2553 1204 2497 
Q 953 2441 691 2322 
L 691 4666 
z
" transform="scale(0.015625)"/>
      </defs>
      <use xlink:href="#DejaVuSans-35"/>
      <use xlink:href="#DejaVuSans-30" transform="translate(63.623047 0)"/>
     </g>
    </g>
   </g>
   <g id="xtick_25">
    <g id="line2d_28">
     <path d="M 518.975542 193.755701 
L 526.05079 195.04818 
" style="fill: none; stroke: #000000; stroke-width: 0.8; stroke-linecap: square"/>
    </g>
    <g id="text_27">
     <!-- 60 -->
     <g transform="translate(535.6601 199.309179) scale(0.08 -0.08)">
      <defs>
       <path id="DejaVuSans-36" d="M 2113 2584 
Q 1688 2584 1439 2293 
Q 1191 2003 1191 1497 
Q 1191 994 1439 701 
Q 1688 409 2113 409 
Q 2538 409 2786 701 
Q 3034 994 3034 1497 
Q 3034 2003 2786 2293 
Q 2538 2584 2113 2584 
z
M 3366 4563 
L 3366 3988 
Q 3128 4100 2886 4159 
Q 2644 4219 2406 4219 
Q 1781 4219 1451 3797 
Q 1122 3375 1075 2522 
Q 1259 2794 1537 2939 
Q 1816 3084 2150 3084 
Q 2853 3084 3261 2657 
Q 3669 2231 3669 1497 
Q 3669 778 3244 343 
Q 2819 -91 2113 -91 
Q 1303 -91 875 529 
Q 447 1150 447 2328 
Q 447 3434 972 4092 
Q 1497 4750 2381 4750 
Q 2619 4750 2861 4703 
Q 3103 4656 3366 4563 
z
" transform="scale(0.015625)"/>
      </defs>
      <use xlink:href="#DejaVuSans-36"/>
      <use xlink:href="#DejaVuSans-30" transform="translate(63.623047 0)"/>
     </g>
    </g>
   </g>
   <g id="xtick_26">
    <g id="line2d_29">
     <path d="M 519.839765 160.850192 
L 526.942413 162.096096 
" style="fill: none; stroke: #000000; stroke-width: 0.8; stroke-linecap: square"/>
    </g>
    <g id="text_28">
     <!-- 70 -->
     <g transform="translate(536.603778 166.422602) scale(0.08 -0.08)">
      <defs>
       <path id="DejaVuSans-37" d="M 525 4666 
L 3525 4666 
L 3525 4397 
L 1831 0 
L 1172 0 
L 2766 4134 
L 525 4134 
L 525 4666 
z
" transform="scale(0.015625)"/>
      </defs>
      <use xlink:href="#DejaVuSans-37"/>
      <use xlink:href="#DejaVuSans-30" transform="translate(63.623047 0)"/>
     </g>
    </g>
   </g>
   <g id="text_29">
    <!-- Assembly Direction (Z) -->
    <g transform="translate(561.699674 327.006242) rotate(-88.480398) scale(0.08 -0.08)">
     <defs>
      <path id="DejaVuSans-41" d="M 2188 4044 
L 1331 1722 
L 3047 1722 
L 2188 4044 
z
M 1831 4666 
L 2547 4666 
L 4325 0 
L 3669 0 
L 3244 1197 
L 1141 1197 
L 716 0 
L 50 0 
L 1831 4666 
z
" transform="scale(0.015625)"/>
      <path id="DejaVuSans-73" d="M 2834 3397 
L 2834 2853 
Q 2591 2978 2328 3040 
Q 2066 3103 1784 3103 
Q 1356 3103 1142 2972 
Q 928 2841 928 2578 
Q 928 2378 1081 2264 
Q 1234 2150 1697 2047 
L 1894 2003 
Q 2506 1872 2764 1633 
Q 3022 1394 3022 966 
Q 3022 478 2636 193 
Q 2250 -91 1575 -91 
Q 1294 -91 989 -36 
Q 684 19 347 128 
L 347 722 
Q 666 556 975 473 
Q 1284 391 1588 391 
Q 1994 391 2212 530 
Q 2431 669 2431 922 
Q 2431 1156 2273 1281 
Q 2116 1406 1581 1522 
L 1381 1569 
Q 847 1681 609 1914 
Q 372 2147 372 2553 
Q 372 3047 722 3315 
Q 1072 3584 1716 3584 
Q 2034 3584 2315 3537 
Q 2597 3491 2834 3397 
z
" transform="scale(0.015625)"/>
      <path id="DejaVuSans-65" d="M 3597 1894 
L 3597 1613 
L 953 1613 
Q 991 1019 1311 708 
Q 1631 397 2203 397 
Q 2534 397 2845 478 
Q 3156 559 3463 722 
L 3463 178 
Q 3153 47 2828 -22 
Q 2503 -91 2169 -91 
Q 1331 -91 842 396 
Q 353 884 353 1716 
Q 353 2575 817 3079 
Q 1281 3584 2069 3584 
Q 2775 3584 3186 3129 
Q 3597 2675 3597 1894 
z
M 3022 2063 
Q 3016 2534 2758 2815 
Q 2500 3097 2075 3097 
Q 1594 3097 1305 2825 
Q 1016 2553 972 2059 
L 3022 2063 
z
" transform="scale(0.015625)"/>
      <path id="DejaVuSans-6d" d="M 3328 2828 
Q 3544 3216 3844 3400 
Q 4144 3584 4550 3584 
Q 5097 3584 5394 3201 
Q 5691 2819 5691 2113 
L 5691 0 
L 5113 0 
L 5113 2094 
Q 5113 2597 4934 2840 
Q 4756 3084 4391 3084 
Q 3944 3084 3684 2787 
Q 3425 2491 3425 1978 
L 3425 0 
L 2847 0 
L 2847 2094 
Q 2847 2600 2669 2842 
Q 2491 3084 2119 3084 
Q 1678 3084 1418 2786 
Q 1159 2488 1159 1978 
L 1159 0 
L 581 0 
L 581 3500 
L 1159 3500 
L 1159 2956 
Q 1356 3278 1631 3431 
Q 1906 3584 2284 3584 
Q 2666 3584 2933 3390 
Q 3200 3197 3328 2828 
z
" transform="scale(0.015625)"/>
      <path id="DejaVuSans-62" d="M 3116 1747 
Q 3116 2381 2855 2742 
Q 2594 3103 2138 3103 
Q 1681 3103 1420 2742 
Q 1159 2381 1159 1747 
Q 1159 1113 1420 752 
Q 1681 391 2138 391 
Q 2594 391 2855 752 
Q 3116 1113 3116 1747 
z
M 1159 2969 
Q 1341 3281 1617 3432 
Q 1894 3584 2278 3584 
Q 2916 3584 3314 3078 
Q 3713 2572 3713 1747 
Q 3713 922 3314 415 
Q 2916 -91 2278 -91 
Q 1894 -91 1617 61 
Q 1341 213 1159 525 
L 1159 0 
L 581 0 
L 581 4863 
L 1159 4863 
L 1159 2969 
z
" transform="scale(0.015625)"/>
      <path id="DejaVuSans-6c" d="M 603 4863 
L 1178 4863 
L 1178 0 
L 603 0 
L 603 4863 
z
" transform="scale(0.015625)"/>
      <path id="DejaVuSans-79" d="M 2059 -325 
Q 1816 -950 1584 -1140 
Q 1353 -1331 966 -1331 
L 506 -1331 
L 506 -850 
L 844 -850 
Q 1081 -850 1212 -737 
Q 1344 -625 1503 -206 
L 1606 56 
L 191 3500 
L 800 3500 
L 1894 763 
L 2988 3500 
L 3597 3500 
L 2059 -325 
z
" transform="scale(0.015625)"/>
      <path id="DejaVuSans-20" transform="scale(0.015625)"/>
      <path id="DejaVuSans-44" d="M 1259 4147 
L 1259 519 
L 2022 519 
Q 2988 519 3436 956 
Q 3884 1394 3884 2338 
Q 3884 3275 3436 3711 
Q 2988 4147 2022 4147 
L 1259 4147 
z
M 628 4666 
L 1925 4666 
Q 3281 4666 3915 4102 
Q 4550 3538 4550 2338 
Q 4550 1131 3912 565 
Q 3275 0 1925 0 
L 628 0 
L 628 4666 
z
" transform="scale(0.015625)"/>
      <path id="DejaVuSans-69" d="M 603 3500 
L 1178 3500 
L 1178 0 
L 603 0 
L 603 3500 
z
M 603 4863 
L 1178 4863 
L 1178 4134 
L 603 4134 
L 603 4863 
z
" transform="scale(0.015625)"/>
      <path id="DejaVuSans-72" d="M 2631 2963 
Q 2534 3019 2420 3045 
Q 2306 3072 2169 3072 
Q 1681 3072 1420 2755 
Q 1159 2438 1159 1844 
L 1159 0 
L 581 0 
L 581 3500 
L 1159 3500 
L 1159 2956 
Q 1341 3275 1631 3429 
Q 1922 3584 2338 3584 
Q 2397 3584 2469 3576 
Q 2541 3569 2628 3553 
L 2631 2963 
z
" transform="scale(0.015625)"/>
      <path id="DejaVuSans-63" d="M 3122 3366 
L 3122 2828 
Q 2878 2963 2633 3030 
Q 2388 3097 2138 3097 
Q 1578 3097 1268 2742 
Q 959 2388 959 1747 
Q 959 1106 1268 751 
Q 1578 397 2138 397 
Q 2388 397 2633 464 
Q 2878 531 3122 666 
L 3122 134 
Q 2881 22 2623 -34 
Q 2366 -91 2075 -91 
Q 1284 -91 818 406 
Q 353 903 353 1747 
Q 353 2603 823 3093 
Q 1294 3584 2113 3584 
Q 2378 3584 2631 3529 
Q 2884 3475 3122 3366 
z
" transform="scale(0.015625)"/>
      <path id="DejaVuSans-74" d="M 1172 4494 
L 1172 3500 
L 2356 3500 
L 2356 3053 
L 1172 3053 
L 1172 1153 
Q 1172 725 1289 603 
Q 1406 481 1766 481 
L 2356 481 
L 2356 0 
L 1766 0 
Q 1100 0 847 248 
Q 594 497 594 1153 
L 594 3053 
L 172 3053 
L 172 3500 
L 594 3500 
L 594 4494 
L 1172 4494 
z
" transform="scale(0.015625)"/>
      <path id="DejaVuSans-6f" d="M 1959 3097 
Q 1497 3097 1228 2736 
Q 959 2375 959 1747 
Q 959 1119 1226 758 
Q 1494 397 1959 397 
Q 2419 397 2687 759 
Q 2956 1122 2956 1747 
Q 2956 2369 2687 2733 
Q 2419 3097 1959 3097 
z
M 1959 3584 
Q 2709 3584 3137 3096 
Q 3566 2609 3566 1747 
Q 3566 888 3137 398 
Q 2709 -91 1959 -91 
Q 1206 -91 779 398 
Q 353 888 353 1747 
Q 353 2609 779 3096 
Q 1206 3584 1959 3584 
z
" transform="scale(0.015625)"/>
      <path id="DejaVuSans-6e" d="M 3513 2113 
L 3513 0 
L 2938 0 
L 2938 2094 
Q 2938 2591 2744 2837 
Q 2550 3084 2163 3084 
Q 1697 3084 1428 2787 
Q 1159 2491 1159 1978 
L 1159 0 
L 581 0 
L 581 3500 
L 1159 3500 
L 1159 2956 
Q 1366 3272 1645 3428 
Q 1925 3584 2291 3584 
Q 2894 3584 3203 3211 
Q 3513 2838 3513 2113 
z
" transform="scale(0.015625)"/>
      <path id="DejaVuSans-28" d="M 1984 4856 
Q 1566 4138 1362 3434 
Q 1159 2731 1159 2009 
Q 1159 1288 1364 580 
Q 1569 -128 1984 -844 
L 1484 -844 
Q 1016 -109 783 600 
Q 550 1309 550 2009 
Q 550 2706 781 3412 
Q 1013 4119 1484 4856 
L 1984 4856 
z
" transform="scale(0.015625)"/>
      <path id="DejaVuSans-5a" d="M 359 4666 
L 4025 4666 
L 4025 4184 
L 1075 531 
L 4097 531 
L 4097 0 
L 288 0 
L 288 481 
L 3238 4134 
L 359 4134 
L 359 4666 
z
" transform="scale(0.015625)"/>
      <path id="DejaVuSans-29" d="M 513 4856 
L 1013 4856 
Q 1481 4119 1714 3412 
Q 1947 2706 1947 2009 
Q 1947 1309 1714 600 
Q 1481 -109 1013 -844 
L 513 -844 
Q 928 -128 1133 580 
Q 1338 1288 1338 2009 
Q 1338 2731 1133 3434 
Q 928 4138 513 4856 
z
" transform="scale(0.015625)"/>
     </defs>
     <use xlink:href="#DejaVuSans-41"/>
     <use xlink:href="#DejaVuSans-73" transform="translate(68.408203 0)"/>
     <use xlink:href="#DejaVuSans-73" transform="translate(120.507812 0)"/>
     <use xlink:href="#DejaVuSans-65" transform="translate(172.607422 0)"/>
     <use xlink:href="#DejaVuSans-6d" transform="translate(234.130859 0)"/>
     <use xlink:href="#DejaVuSans-62" transform="translate(331.542969 0)"/>
     <use xlink:href="#DejaVuSans-6c" transform="translate(395.019531 0)"/>
     <use xlink:href="#DejaVuSans-79" transform="translate(422.802734 0)"/>
     <use xlink:href="#DejaVuSans-20" transform="translate(481.982422 0)"/>
     <use xlink:href="#DejaVuSans-44" transform="translate(513.769531 0)"/>
     <use xlink:href="#DejaVuSans-69" transform="translate(590.771484 0)"/>
     <use xlink:href="#DejaVuSans-72" transform="translate(618.554688 0)"/>
     <use xlink:href="#DejaVuSans-65" transform="translate(657.417969 0)"/>
     <use xlink:href="#DejaVuSans-63" transform="translate(718.941406 0)"/>
     <use xlink:href="#DejaVuSans-74" transform="translate(773.921875 0)"/>
     <use xlink:href="#DejaVuSans-69" transform="translate(813.130859 0)"/>
     <use xlink:href="#DejaVuSans-6f" transform="translate(840.914062 0)"/>
     <use xlink:href="#DejaVuSans-6e" transform="translate(902.095703 0)"/>
     <use xlink:href="#DejaVuSans-20" transform="translate(965.474609 0)"/>
     <use xlink:href="#DejaVuSans-28" transform="translate(997.261719 0)"/>
     <use xlink:href="#DejaVuSans-5a" transform="translate(1036.275391 0)"/>
     <use xlink:href="#DejaVuSans-29" transform="translate(1104.78125 0)"/>
    </g>
   </g>
  </g>
  <g id="axes_1">
   <g id="text_30">
    <g id="patch_6">
     <path d="M 203.460152 407.131398 
L 364.353902 407.131398 
Q 366.753902 407.131398 366.753902 404.731398 
L 366.753902 396.926398 
Q 366.753902 394.526398 364.353902 394.526398 
L 203.460152 394.526398 
Q 201.060152 394.526398 201.060152 396.926398 
L 201.060152 404.731398 
Q 201.060152 407.131398 203.460152 407.131398 
z
" style="fill: #3498db; opacity: 0.6; stroke: #000000; stroke-linejoin: miter"/>
    </g>
    <!-- Bottom End Plate + Bearing Houser -->
    <g style="fill: #ffffff" transform="translate(203.460152 403.005148) scale(0.08 -0.08)">
     <defs>
      <path id="DejaVuSans-Bold-42" d="M 2456 2859 
Q 2741 2859 2887 2984 
Q 3034 3109 3034 3353 
Q 3034 3594 2887 3720 
Q 2741 3847 2456 3847 
L 1791 3847 
L 1791 2859 
L 2456 2859 
z
M 2497 819 
Q 2859 819 3042 972 
Q 3225 1125 3225 1434 
Q 3225 1738 3044 1889 
Q 2863 2041 2497 2041 
L 1791 2041 
L 1791 819 
L 2497 819 
z
M 3616 2497 
Q 4003 2384 4215 2081 
Q 4428 1778 4428 1338 
Q 4428 663 3972 331 
Q 3516 0 2584 0 
L 588 0 
L 588 4666 
L 2394 4666 
Q 3366 4666 3802 4372 
Q 4238 4078 4238 3431 
Q 4238 3091 4078 2852 
Q 3919 2613 3616 2497 
z
" transform="scale(0.015625)"/>
      <path id="DejaVuSans-Bold-6f" d="M 2203 2784 
Q 1831 2784 1636 2517 
Q 1441 2250 1441 1747 
Q 1441 1244 1636 976 
Q 1831 709 2203 709 
Q 2569 709 2762 976 
Q 2956 1244 2956 1747 
Q 2956 2250 2762 2517 
Q 2569 2784 2203 2784 
z
M 2203 3584 
Q 3106 3584 3614 3096 
Q 4122 2609 4122 1747 
Q 4122 884 3614 396 
Q 3106 -91 2203 -91 
Q 1297 -91 786 396 
Q 275 884 275 1747 
Q 275 2609 786 3096 
Q 1297 3584 2203 3584 
z
" transform="scale(0.015625)"/>
      <path id="DejaVuSans-Bold-74" d="M 1759 4494 
L 1759 3500 
L 2913 3500 
L 2913 2700 
L 1759 2700 
L 1759 1216 
Q 1759 972 1856 886 
Q 1953 800 2241 800 
L 2816 800 
L 2816 0 
L 1856 0 
Q 1194 0 917 276 
Q 641 553 641 1216 
L 641 2700 
L 84 2700 
L 84 3500 
L 641 3500 
L 641 4494 
L 1759 4494 
z
" transform="scale(0.015625)"/>
      <path id="DejaVuSans-Bold-6d" d="M 3781 2919 
Q 3994 3244 4286 3414 
Q 4578 3584 4928 3584 
Q 5531 3584 5847 3212 
Q 6163 2841 6163 2131 
L 6163 0 
L 5038 0 
L 5038 1825 
Q 5041 1866 5042 1909 
Q 5044 1953 5044 2034 
Q 5044 2406 4934 2573 
Q 4825 2741 4581 2741 
Q 4263 2741 4089 2478 
Q 3916 2216 3909 1719 
L 3909 0 
L 2784 0 
L 2784 1825 
Q 2784 2406 2684 2573 
Q 2584 2741 2328 2741 
Q 2006 2741 1831 2477 
Q 1656 2213 1656 1722 
L 1656 0 
L 531 0 
L 531 3500 
L 1656 3500 
L 1656 2988 
Q 1863 3284 2130 3434 
Q 2397 3584 2719 3584 
Q 3081 3584 3359 3409 
Q 3638 3234 3781 2919 
z
" transform="scale(0.015625)"/>
      <path id="DejaVuSans-Bold-20" transform="scale(0.015625)"/>
      <path id="DejaVuSans-Bold-45" d="M 588 4666 
L 3834 4666 
L 3834 3756 
L 1791 3756 
L 1791 2888 
L 3713 2888 
L 3713 1978 
L 1791 1978 
L 1791 909 
L 3903 909 
L 3903 0 
L 588 0 
L 588 4666 
z
" transform="scale(0.015625)"/>
      <path id="DejaVuSans-Bold-6e" d="M 4056 2131 
L 4056 0 
L 2931 0 
L 2931 347 
L 2931 1631 
Q 2931 2084 2911 2256 
Q 2891 2428 2841 2509 
Q 2775 2619 2662 2680 
Q 2550 2741 2406 2741 
Q 2056 2741 1856 2470 
Q 1656 2200 1656 1722 
L 1656 0 
L 538 0 
L 538 3500 
L 1656 3500 
L 1656 2988 
Q 1909 3294 2193 3439 
Q 2478 3584 2822 3584 
Q 3428 3584 3742 3212 
Q 4056 2841 4056 2131 
z
" transform="scale(0.015625)"/>
      <path id="DejaVuSans-Bold-64" d="M 2919 2988 
L 2919 4863 
L 4044 4863 
L 4044 0 
L 2919 0 
L 2919 506 
Q 2688 197 2409 53 
Q 2131 -91 1766 -91 
Q 1119 -91 703 423 
Q 288 938 288 1747 
Q 288 2556 703 3070 
Q 1119 3584 1766 3584 
Q 2128 3584 2408 3439 
Q 2688 3294 2919 2988 
z
M 2181 722 
Q 2541 722 2730 984 
Q 2919 1247 2919 1747 
Q 2919 2247 2730 2509 
Q 2541 2772 2181 2772 
Q 1825 2772 1636 2509 
Q 1447 2247 1447 1747 
Q 1447 1247 1636 984 
Q 1825 722 2181 722 
z
" transform="scale(0.015625)"/>
      <path id="DejaVuSans-Bold-50" d="M 588 4666 
L 2584 4666 
Q 3475 4666 3951 4270 
Q 4428 3875 4428 3144 
Q 4428 2409 3951 2014 
Q 3475 1619 2584 1619 
L 1791 1619 
L 1791 0 
L 588 0 
L 588 4666 
z
M 1791 3794 
L 1791 2491 
L 2456 2491 
Q 2806 2491 2997 2661 
Q 3188 2831 3188 3144 
Q 3188 3456 2997 3625 
Q 2806 3794 2456 3794 
L 1791 3794 
z
" transform="scale(0.015625)"/>
      <path id="DejaVuSans-Bold-6c" d="M 538 4863 
L 1656 4863 
L 1656 0 
L 538 0 
L 538 4863 
z
" transform="scale(0.015625)"/>
      <path id="DejaVuSans-Bold-61" d="M 2106 1575 
Q 1756 1575 1579 1456 
Q 1403 1338 1403 1106 
Q 1403 894 1545 773 
Q 1688 653 1941 653 
Q 2256 653 2472 879 
Q 2688 1106 2688 1447 
L 2688 1575 
L 2106 1575 
z
M 3816 1997 
L 3816 0 
L 2688 0 
L 2688 519 
Q 2463 200 2181 54 
Q 1900 -91 1497 -91 
Q 953 -91 614 226 
Q 275 544 275 1050 
Q 275 1666 698 1953 
Q 1122 2241 2028 2241 
L 2688 2241 
L 2688 2328 
Q 2688 2594 2478 2717 
Q 2269 2841 1825 2841 
Q 1466 2841 1156 2769 
Q 847 2697 581 2553 
L 581 3406 
Q 941 3494 1303 3539 
Q 1666 3584 2028 3584 
Q 2975 3584 3395 3211 
Q 3816 2838 3816 1997 
z
" transform="scale(0.015625)"/>
      <path id="DejaVuSans-Bold-65" d="M 4031 1759 
L 4031 1441 
L 1416 1441 
Q 1456 1047 1700 850 
Q 1944 653 2381 653 
Q 2734 653 3104 758 
Q 3475 863 3866 1075 
L 3866 213 
Q 3469 63 3072 -14 
Q 2675 -91 2278 -91 
Q 1328 -91 801 392 
Q 275 875 275 1747 
Q 275 2603 792 3093 
Q 1309 3584 2216 3584 
Q 3041 3584 3536 3087 
Q 4031 2591 4031 1759 
z
M 2881 2131 
Q 2881 2450 2695 2645 
Q 2509 2841 2209 2841 
Q 1884 2841 1681 2658 
Q 1478 2475 1428 2131 
L 2881 2131 
z
" transform="scale(0.015625)"/>
      <path id="DejaVuSans-Bold-2b" d="M 3053 4013 
L 3053 2375 
L 4684 2375 
L 4684 1638 
L 3053 1638 
L 3053 0 
L 2309 0 
L 2309 1638 
L 678 1638 
L 678 2375 
L 2309 2375 
L 2309 4013 
L 3053 4013 
z
" transform="scale(0.015625)"/>
      <path id="DejaVuSans-Bold-72" d="M 3138 2547 
Q 2991 2616 2845 2648 
Q 2700 2681 2553 2681 
Q 2122 2681 1889 2404 
Q 1656 2128 1656 1613 
L 1656 0 
L 538 0 
L 538 3500 
L 1656 3500 
L 1656 2925 
Q 1872 3269 2151 3426 
Q 2431 3584 2822 3584 
Q 2878 3584 2943 3579 
Q 3009 3575 3134 3559 
L 3138 2547 
z
" transform="scale(0.015625)"/>
      <path id="DejaVuSans-Bold-69" d="M 538 3500 
L 1656 3500 
L 1656 0 
L 538 0 
L 538 3500 
z
M 538 4863 
L 1656 4863 
L 1656 3950 
L 538 3950 
L 538 4863 
z
" transform="scale(0.015625)"/>
      <path id="DejaVuSans-Bold-67" d="M 2919 594 
Q 2688 288 2409 144 
Q 2131 0 1766 0 
Q 1125 0 706 504 
Q 288 1009 288 1791 
Q 288 2575 706 3076 
Q 1125 3578 1766 3578 
Q 2131 3578 2409 3434 
Q 2688 3291 2919 2981 
L 2919 3500 
L 4044 3500 
L 4044 353 
Q 4044 -491 3511 -936 
Q 2978 -1381 1966 -1381 
Q 1638 -1381 1331 -1331 
Q 1025 -1281 716 -1178 
L 716 -306 
Q 1009 -475 1290 -558 
Q 1572 -641 1856 -641 
Q 2406 -641 2662 -400 
Q 2919 -159 2919 353 
L 2919 594 
z
M 2181 2772 
Q 1834 2772 1640 2515 
Q 1447 2259 1447 1791 
Q 1447 1309 1634 1061 
Q 1822 813 2181 813 
Q 2531 813 2725 1069 
Q 2919 1325 2919 1791 
Q 2919 2259 2725 2515 
Q 2531 2772 2181 2772 
z
" transform="scale(0.015625)"/>
      <path id="DejaVuSans-Bold-48" d="M 588 4666 
L 1791 4666 
L 1791 2888 
L 3566 2888 
L 3566 4666 
L 4769 4666 
L 4769 0 
L 3566 0 
L 3566 1978 
L 1791 1978 
L 1791 0 
L 588 0 
L 588 4666 
z
" transform="scale(0.015625)"/>
      <path id="DejaVuSans-Bold-75" d="M 500 1363 
L 500 3500 
L 1625 3500 
L 1625 3150 
Q 1625 2866 1622 2436 
Q 1619 2006 1619 1863 
Q 1619 1441 1641 1255 
Q 1663 1069 1716 984 
Q 1784 875 1895 815 
Q 2006 756 2150 756 
Q 2500 756 2700 1025 
Q 2900 1294 2900 1772 
L 2900 3500 
L 4019 3500 
L 4019 0 
L 2900 0 
L 2900 506 
Q 2647 200 2364 54 
Q 2081 -91 1741 -91 
Q 1134 -91 817 281 
Q 500 653 500 1363 
z
" transform="scale(0.015625)"/>
      <path id="DejaVuSans-Bold-73" d="M 3272 3391 
L 3272 2541 
Q 2913 2691 2578 2766 
Q 2244 2841 1947 2841 
Q 1628 2841 1473 2761 
Q 1319 2681 1319 2516 
Q 1319 2381 1436 2309 
Q 1553 2238 1856 2203 
L 2053 2175 
Q 2913 2066 3209 1816 
Q 3506 1566 3506 1031 
Q 3506 472 3093 190 
Q 2681 -91 1863 -91 
Q 1516 -91 1145 -36 
Q 775 19 384 128 
L 384 978 
Q 719 816 1070 734 
Q 1422 653 1784 653 
Q 2113 653 2278 743 
Q 2444 834 2444 1013 
Q 2444 1163 2330 1236 
Q 2216 1309 1875 1350 
L 1678 1375 
Q 931 1469 631 1722 
Q 331 1975 331 2491 
Q 331 3047 712 3315 
Q 1094 3584 1881 3584 
Q 2191 3584 2531 3537 
Q 2872 3491 3272 3391 
z
" transform="scale(0.015625)"/>
     </defs>
     <use xlink:href="#DejaVuSans-Bold-42"/>
     <use xlink:href="#DejaVuSans-Bold-6f" transform="translate(76.220703 0)"/>
     <use xlink:href="#DejaVuSans-Bold-74" transform="translate(144.921875 0)"/>
     <use xlink:href="#DejaVuSans-Bold-74" transform="translate(192.724609 0)"/>
     <use xlink:href="#DejaVuSans-Bold-6f" transform="translate(240.527344 0)"/>
     <use xlink:href="#DejaVuSans-Bold-6d" transform="translate(309.228516 0)"/>
     <use xlink:href="#DejaVuSans-Bold-20" transform="translate(413.427734 0)"/>
     <use xlink:href="#DejaVuSans-Bold-45" transform="translate(448.242188 0)"/>
     <use xlink:href="#DejaVuSans-Bold-6e" transform="translate(516.552734 0)"/>
     <use xlink:href="#DejaVuSans-Bold-64" transform="translate(587.744141 0)"/>
     <use xlink:href="#DejaVuSans-Bold-20" transform="translate(659.326172 0)"/>
     <use xlink:href="#DejaVuSans-Bold-50" transform="translate(694.140625 0)"/>
     <use xlink:href="#DejaVuSans-Bold-6c" transform="translate(767.431641 0)"/>
     <use xlink:href="#DejaVuSans-Bold-61" transform="translate(801.708984 0)"/>
     <use xlink:href="#DejaVuSans-Bold-74" transform="translate(869.189453 0)"/>
     <use xlink:href="#DejaVuSans-Bold-65" transform="translate(916.992188 0)"/>
     <use xlink:href="#DejaVuSans-Bold-20" transform="translate(984.814453 0)"/>
     <use xlink:href="#DejaVuSans-Bold-2b" transform="translate(1019.628906 0)"/>
     <use xlink:href="#DejaVuSans-Bold-20" transform="translate(1103.417969 0)"/>
     <use xlink:href="#DejaVuSans-Bold-42" transform="translate(1138.232422 0)"/>
     <use xlink:href="#DejaVuSans-Bold-65" transform="translate(1214.453125 0)"/>
     <use xlink:href="#DejaVuSans-Bold-61" transform="translate(1282.275391 0)"/>
     <use xlink:href="#DejaVuSans-Bold-72" transform="translate(1349.755859 0)"/>
     <use xlink:href="#DejaVuSans-Bold-69" transform="translate(1399.072266 0)"/>
     <use xlink:href="#DejaVuSans-Bold-6e" transform="translate(1433.349609 0)"/>
     <use xlink:href="#DejaVuSans-Bold-67" transform="translate(1504.541016 0)"/>
     <use xlink:href="#DejaVuSans-Bold-20" transform="translate(1576.123047 0)"/>
     <use xlink:href="#DejaVuSans-Bold-48" transform="translate(1610.9375 0)"/>
     <use xlink:href="#DejaVuSans-Bold-6f" transform="translate(1694.628906 0)"/>
     <use xlink:href="#DejaVuSans-Bold-75" transform="translate(1763.330078 0)"/>
     <use xlink:href="#DejaVuSans-Bold-73" transform="translate(1834.521484 0)"/>
     <use xlink:href="#DejaVuSans-Bold-65" transform="translate(1894.042969 0)"/>
     <use xlink:href="#DejaVuSans-Bold-72" transform="translate(1961.865234 0)"/>
    </g>
   </g>
   <g id="text_31">
    <g id="patch_7">
     <path d="M 190.820152 368.791839 
L 376.993902 368.791839 
Q 379.393902 368.791839 379.393902 366.391839 
L 379.393902 358.649339 
Q 379.393902 356.249339 376.993902 356.249339 
L 190.820152 356.249339 
Q 188.420152 356.249339 188.420152 358.649339 
L 188.420152 366.391839 
Q 188.420152 368.791839 190.820152 368.791839 
z
" style="fill: #2c3e50; opacity: 0.6; stroke: #000000; stroke-linejoin: miter"/>
    </g>
    <!-- Platter Stack (25× platters + 24 spacers) -->
    <g style="fill: #ffffff" transform="translate(190.820152 364.728089) scale(0.08 -0.08)">
     <defs>
      <path id="DejaVuSans-Bold-53" d="M 3834 4519 
L 3834 3531 
Q 3450 3703 3084 3790 
Q 2719 3878 2394 3878 
Q 1963 3878 1756 3759 
Q 1550 3641 1550 3391 
Q 1550 3203 1689 3098 
Q 1828 2994 2194 2919 
L 2706 2816 
Q 3484 2659 3812 2340 
Q 4141 2022 4141 1434 
Q 4141 663 3683 286 
Q 3225 -91 2284 -91 
Q 1841 -91 1394 -6 
Q 947 78 500 244 
L 500 1259 
Q 947 1022 1364 901 
Q 1781 781 2169 781 
Q 2563 781 2772 912 
Q 2981 1044 2981 1288 
Q 2981 1506 2839 1625 
Q 2697 1744 2272 1838 
L 1806 1941 
Q 1106 2091 782 2419 
Q 459 2747 459 3303 
Q 459 4000 909 4375 
Q 1359 4750 2203 4750 
Q 2588 4750 2994 4692 
Q 3400 4634 3834 4519 
z
" transform="scale(0.015625)"/>
      <path id="DejaVuSans-Bold-63" d="M 3366 3391 
L 3366 2478 
Q 3138 2634 2908 2709 
Q 2678 2784 2431 2784 
Q 1963 2784 1702 2511 
Q 1441 2238 1441 1747 
Q 1441 1256 1702 982 
Q 1963 709 2431 709 
Q 2694 709 2930 787 
Q 3166 866 3366 1019 
L 3366 103 
Q 3103 6 2833 -42 
Q 2563 -91 2291 -91 
Q 1344 -91 809 395 
Q 275 881 275 1747 
Q 275 2613 809 3098 
Q 1344 3584 2291 3584 
Q 2566 3584 2833 3536 
Q 3100 3488 3366 3391 
z
" transform="scale(0.015625)"/>
      <path id="DejaVuSans-Bold-6b" d="M 538 4863 
L 1656 4863 
L 1656 2216 
L 2944 3500 
L 4244 3500 
L 2534 1894 
L 4378 0 
L 3022 0 
L 1656 1459 
L 1656 0 
L 538 0 
L 538 4863 
z
" transform="scale(0.015625)"/>
      <path id="DejaVuSans-Bold-28" d="M 2413 -844 
L 1484 -844 
Q 1006 -72 778 623 
Q 550 1319 550 2003 
Q 550 2688 779 3389 
Q 1009 4091 1484 4856 
L 2413 4856 
Q 2013 4116 1813 3408 
Q 1613 2700 1613 2009 
Q 1613 1319 1811 609 
Q 2009 -100 2413 -844 
z
" transform="scale(0.015625)"/>
      <path id="DejaVuSans-Bold-32" d="M 1844 884 
L 3897 884 
L 3897 0 
L 506 0 
L 506 884 
L 2209 2388 
Q 2438 2594 2547 2791 
Q 2656 2988 2656 3200 
Q 2656 3528 2436 3728 
Q 2216 3928 1850 3928 
Q 1569 3928 1234 3808 
Q 900 3688 519 3450 
L 519 4475 
Q 925 4609 1322 4679 
Q 1719 4750 2100 4750 
Q 2938 4750 3402 4381 
Q 3866 4013 3866 3353 
Q 3866 2972 3669 2642 
Q 3472 2313 2841 1759 
L 1844 884 
z
" transform="scale(0.015625)"/>
      <path id="DejaVuSans-Bold-35" d="M 678 4666 
L 3669 4666 
L 3669 3781 
L 1638 3781 
L 1638 3059 
Q 1775 3097 1914 3117 
Q 2053 3138 2203 3138 
Q 3056 3138 3531 2711 
Q 4006 2284 4006 1522 
Q 4006 766 3489 337 
Q 2972 -91 2053 -91 
Q 1656 -91 1267 -14 
Q 878 63 494 219 
L 494 1166 
Q 875 947 1217 837 
Q 1559 728 1863 728 
Q 2300 728 2551 942 
Q 2803 1156 2803 1522 
Q 2803 1891 2551 2103 
Q 2300 2316 1863 2316 
Q 1603 2316 1309 2248 
Q 1016 2181 678 2041 
L 678 4666 
z
" transform="scale(0.015625)"/>
      <path id="DejaVuSans-Bold-d7" d="M 4563 3359 
L 3206 2003 
L 4563 653 
L 4038 128 
L 2681 1478 
L 1325 128 
L 800 653 
L 2156 2003 
L 800 3359 
L 1325 3884 
L 2681 2528 
L 4038 3884 
L 4563 3359 
z
" transform="scale(0.015625)"/>
      <path id="DejaVuSans-Bold-70" d="M 1656 506 
L 1656 -1331 
L 538 -1331 
L 538 3500 
L 1656 3500 
L 1656 2988 
Q 1888 3294 2169 3439 
Q 2450 3584 2816 3584 
Q 3463 3584 3878 3070 
Q 4294 2556 4294 1747 
Q 4294 938 3878 423 
Q 3463 -91 2816 -91 
Q 2450 -91 2169 54 
Q 1888 200 1656 506 
z
M 2400 2772 
Q 2041 2772 1848 2508 
Q 1656 2244 1656 1747 
Q 1656 1250 1848 986 
Q 2041 722 2400 722 
Q 2759 722 2948 984 
Q 3138 1247 3138 1747 
Q 3138 2247 2948 2509 
Q 2759 2772 2400 2772 
z
" transform="scale(0.015625)"/>
      <path id="DejaVuSans-Bold-34" d="M 2356 3675 
L 1038 1722 
L 2356 1722 
L 2356 3675 
z
M 2156 4666 
L 3494 4666 
L 3494 1722 
L 4159 1722 
L 4159 850 
L 3494 850 
L 3494 0 
L 2356 0 
L 2356 850 
L 288 850 
L 288 1881 
L 2156 4666 
z
" transform="scale(0.015625)"/>
      <path id="DejaVuSans-Bold-29" d="M 513 -844 
Q 913 -100 1113 609 
Q 1313 1319 1313 2009 
Q 1313 2700 1113 3408 
Q 913 4116 513 4856 
L 1441 4856 
Q 1916 4091 2145 3389 
Q 2375 2688 2375 2003 
Q 2375 1319 2147 623 
Q 1919 -72 1441 -844 
L 513 -844 
z
" transform="scale(0.015625)"/>
     </defs>
     <use xlink:href="#DejaVuSans-Bold-50"/>
     <use xlink:href="#DejaVuSans-Bold-6c" transform="translate(73.291016 0)"/>
     <use xlink:href="#DejaVuSans-Bold-61" transform="translate(107.568359 0)"/>
     <use xlink:href="#DejaVuSans-Bold-74" transform="translate(175.048828 0)"/>
     <use xlink:href="#DejaVuSans-Bold-74" transform="translate(222.851562 0)"/>
     <use xlink:href="#DejaVuSans-Bold-65" transform="translate(270.654297 0)"/>
     <use xlink:href="#DejaVuSans-Bold-72" transform="translate(338.476562 0)"/>
     <use xlink:href="#DejaVuSans-Bold-20" transform="translate(387.792969 0)"/>
     <use xlink:href="#DejaVuSans-Bold-53" transform="translate(422.607422 0)"/>
     <use xlink:href="#DejaVuSans-Bold-74" transform="translate(494.628906 0)"/>
     <use xlink:href="#DejaVuSans-Bold-61" transform="translate(542.431641 0)"/>
     <use xlink:href="#DejaVuSans-Bold-63" transform="translate(609.912109 0)"/>
     <use xlink:href="#DejaVuSans-Bold-6b" transform="translate(669.189453 0)"/>
     <use xlink:href="#DejaVuSans-Bold-20" transform="translate(735.693359 0)"/>
     <use xlink:href="#DejaVuSans-Bold-28" transform="translate(770.507812 0)"/>
     <use xlink:href="#DejaVuSans-Bold-32" transform="translate(816.210938 0)"/>
     <use xlink:href="#DejaVuSans-Bold-35" transform="translate(885.791016 0)"/>
     <use xlink:href="#DejaVuSans-Bold-d7" transform="translate(955.371094 0)"/>
     <use xlink:href="#DejaVuSans-Bold-20" transform="translate(1039.160156 0)"/>
     <use xlink:href="#DejaVuSans-Bold-70" transform="translate(1073.974609 0)"/>
     <use xlink:href="#DejaVuSans-Bold-6c" transform="translate(1145.556641 0)"/>
     <use xlink:href="#DejaVuSans-Bold-61" transform="translate(1179.833984 0)"/>
     <use xlink:href="#DejaVuSans-Bold-74" transform="translate(1247.314453 0)"/>
     <use xlink:href="#DejaVuSans-Bold-74" transform="translate(1295.117188 0)"/>
     <use xlink:href="#DejaVuSans-Bold-65" transform="translate(1342.919922 0)"/>
     <use xlink:href="#DejaVuSans-Bold-72" transform="translate(1410.742188 0)"/>
     <use xlink:href="#DejaVuSans-Bold-73" transform="translate(1460.058594 0)"/>
     <use xlink:href="#DejaVuSans-Bold-20" transform="translate(1519.580078 0)"/>
     <use xlink:href="#DejaVuSans-Bold-2b" transform="translate(1554.394531 0)"/>
     <use xlink:href="#DejaVuSans-Bold-20" transform="translate(1638.183594 0)"/>
     <use xlink:href="#DejaVuSans-Bold-32" transform="translate(1672.998047 0)"/>
     <use xlink:href="#DejaVuSans-Bold-34" transform="translate(1742.578125 0)"/>
     <use xlink:href="#DejaVuSans-Bold-20" transform="translate(1812.158203 0)"/>
     <use xlink:href="#DejaVuSans-Bold-73" transform="translate(1846.972656 0)"/>
     <use xlink:href="#DejaVuSans-Bold-70" transform="translate(1906.494141 0)"/>
     <use xlink:href="#DejaVuSans-Bold-61" transform="translate(1978.076172 0)"/>
     <use xlink:href="#DejaVuSans-Bold-63" transform="translate(2045.556641 0)"/>
     <use xlink:href="#DejaVuSans-Bold-65" transform="translate(2104.833984 0)"/>
     <use xlink:href="#DejaVuSans-Bold-72" transform="translate(2172.65625 0)"/>
     <use xlink:href="#DejaVuSans-Bold-73" transform="translate(2221.972656 0)"/>
     <use xlink:href="#DejaVuSans-Bold-29" transform="translate(2281.494141 0)"/>
    </g>
   </g>
   <g id="text_32">
    <g id="patch_8">
     <path d="M 190.109527 317.188833 
L 377.704527 317.188833 
Q 380.104527 317.188833 380.104527 314.788833 
L 380.104527 307.046333 
Q 380.104527 304.646333 377.704527 304.646333 
L 190.109527 304.646333 
Q 187.709527 304.646333 187.709527 307.046333 
L 187.709527 314.788833 
Q 187.709527 317.188833 190.109527 317.188833 
z
" style="fill: #27ae60; opacity: 0.6; stroke: #000000; stroke-linejoin: miter"/>
    </g>
    <!-- Top End Plate + Clear Viewport (optional) -->
    <g style="fill: #ffffff" transform="translate(190.109527 313.125083) scale(0.08 -0.08)">
     <defs>
      <path id="DejaVuSans-Bold-54" d="M 31 4666 
L 4331 4666 
L 4331 3756 
L 2784 3756 
L 2784 0 
L 1581 0 
L 1581 3756 
L 31 3756 
L 31 4666 
z
" transform="scale(0.015625)"/>
      <path id="DejaVuSans-Bold-43" d="M 4288 256 
Q 3956 84 3597 -3 
Q 3238 -91 2847 -91 
Q 1681 -91 1000 561 
Q 319 1213 319 2328 
Q 319 3447 1000 4098 
Q 1681 4750 2847 4750 
Q 3238 4750 3597 4662 
Q 3956 4575 4288 4403 
L 4288 3438 
Q 3953 3666 3628 3772 
Q 3303 3878 2944 3878 
Q 2300 3878 1931 3465 
Q 1563 3053 1563 2328 
Q 1563 1606 1931 1193 
Q 2300 781 2944 781 
Q 3303 781 3628 887 
Q 3953 994 4288 1222 
L 4288 256 
z
" transform="scale(0.015625)"/>
      <path id="DejaVuSans-Bold-56" d="M 31 4666 
L 1241 4666 
L 2478 1222 
L 3713 4666 
L 4922 4666 
L 3194 0 
L 1759 0 
L 31 4666 
z
" transform="scale(0.015625)"/>
      <path id="DejaVuSans-Bold-77" d="M 225 3500 
L 1313 3500 
L 1900 1088 
L 2491 3500 
L 3425 3500 
L 4013 1113 
L 4603 3500 
L 5691 3500 
L 4769 0 
L 3547 0 
L 2956 2406 
L 2369 0 
L 1147 0 
L 225 3500 
z
" transform="scale(0.015625)"/>
     </defs>
     <use xlink:href="#DejaVuSans-Bold-54"/>
     <use xlink:href="#DejaVuSans-Bold-6f" transform="translate(54.962891 0)"/>
     <use xlink:href="#DejaVuSans-Bold-70" transform="translate(123.664062 0)"/>
     <use xlink:href="#DejaVuSans-Bold-20" transform="translate(195.246094 0)"/>
     <use xlink:href="#DejaVuSans-Bold-45" transform="translate(230.060547 0)"/>
     <use xlink:href="#DejaVuSans-Bold-6e" transform="translate(298.371094 0)"/>
     <use xlink:href="#DejaVuSans-Bold-64" transform="translate(369.5625 0)"/>
     <use xlink:href="#DejaVuSans-Bold-20" transform="translate(441.144531 0)"/>
     <use xlink:href="#DejaVuSans-Bold-50" transform="translate(475.958984 0)"/>
     <use xlink:href="#DejaVuSans-Bold-6c" transform="translate(549.25 0)"/>
     <use xlink:href="#DejaVuSans-Bold-61" transform="translate(583.527344 0)"/>
     <use xlink:href="#DejaVuSans-Bold-74" transform="translate(651.007812 0)"/>
     <use xlink:href="#DejaVuSans-Bold-65" transform="translate(698.810547 0)"/>
     <use xlink:href="#DejaVuSans-Bold-20" transform="translate(766.632812 0)"/>
     <use xlink:href="#DejaVuSans-Bold-2b" transform="translate(801.447266 0)"/>
     <use xlink:href="#DejaVuSans-Bold-20" transform="translate(885.236328 0)"/>
     <use xlink:href="#DejaVuSans-Bold-43" transform="translate(920.050781 0)"/>
     <use xlink:href="#DejaVuSans-Bold-6c" transform="translate(993.439453 0)"/>
     <use xlink:href="#DejaVuSans-Bold-65" transform="translate(1027.716797 0)"/>
     <use xlink:href="#DejaVuSans-Bold-61" transform="translate(1095.539062 0)"/>
     <use xlink:href="#DejaVuSans-Bold-72" transform="translate(1163.019531 0)"/>
     <use xlink:href="#DejaVuSans-Bold-20" transform="translate(1212.335938 0)"/>
     <use xlink:href="#DejaVuSans-Bold-56" transform="translate(1247.150391 0)"/>
     <use xlink:href="#DejaVuSans-Bold-69" transform="translate(1322.792969 0)"/>
     <use xlink:href="#DejaVuSans-Bold-65" transform="translate(1357.070312 0)"/>
     <use xlink:href="#DejaVuSans-Bold-77" transform="translate(1424.892578 0)"/>
     <use xlink:href="#DejaVuSans-Bold-70" transform="translate(1517.275391 0)"/>
     <use xlink:href="#DejaVuSans-Bold-6f" transform="translate(1588.857422 0)"/>
     <use xlink:href="#DejaVuSans-Bold-72" transform="translate(1657.558594 0)"/>
     <use xlink:href="#DejaVuSans-Bold-74" transform="translate(1706.875 0)"/>
     <use xlink:href="#DejaVuSans-Bold-20" transform="translate(1754.677734 0)"/>
     <use xlink:href="#DejaVuSans-Bold-28" transform="translate(1789.492188 0)"/>
     <use xlink:href="#DejaVuSans-Bold-6f" transform="translate(1835.195312 0)"/>
     <use xlink:href="#DejaVuSans-Bold-70" transform="translate(1903.896484 0)"/>
     <use xlink:href="#DejaVuSans-Bold-74" transform="translate(1975.478516 0)"/>
     <use xlink:href="#DejaVuSans-Bold-69" transform="translate(2023.28125 0)"/>
     <use xlink:href="#DejaVuSans-Bold-6f" transform="translate(2057.558594 0)"/>
     <use xlink:href="#DejaVuSans-Bold-6e" transform="translate(2126.259766 0)"/>
     <use xlink:href="#DejaVuSans-Bold-61" transform="translate(2197.451172 0)"/>
     <use xlink:href="#DejaVuSans-Bold-6c" transform="translate(2264.931641 0)"/>
     <use xlink:href="#DejaVuSans-Bold-29" transform="translate(2299.208984 0)"/>
    </g>
   </g>
   <g id="text_33">
    <g id="patch_9">
     <path d="M 214.117027 284.659096 
L 353.697027 284.659096 
Q 356.097027 284.659096 356.097027 282.259096 
L 356.097027 274.454096 
Q 356.097027 272.054096 353.697027 272.054096 
L 214.117027 272.054096 
Q 211.717027 272.054096 211.717027 274.454096 
L 211.717027 282.259096 
Q 211.717027 284.659096 214.117027 284.659096 
z
" style="fill: #9b59b6; opacity: 0.6; stroke: #000000; stroke-linejoin: miter"/>
    </g>
    <!-- HVAT Rotor + Shaft + Bearings -->
    <g style="fill: #ffffff" transform="translate(214.117027 280.532846) scale(0.08 -0.08)">
     <defs>
      <path id="DejaVuSans-Bold-41" d="M 3419 850 
L 1538 850 
L 1241 0 
L 31 0 
L 1759 4666 
L 3194 4666 
L 4922 0 
L 3713 0 
L 3419 850 
z
M 1838 1716 
L 3116 1716 
L 2478 3572 
L 1838 1716 
z
" transform="scale(0.015625)"/>
      <path id="DejaVuSans-Bold-52" d="M 2297 2597 
Q 2675 2597 2839 2737 
Q 3003 2878 3003 3200 
Q 3003 3519 2839 3656 
Q 2675 3794 2297 3794 
L 1791 3794 
L 1791 2597 
L 2297 2597 
z
M 1791 1766 
L 1791 0 
L 588 0 
L 588 4666 
L 2425 4666 
Q 3347 4666 3776 4356 
Q 4206 4047 4206 3378 
Q 4206 2916 3982 2619 
Q 3759 2322 3309 2181 
Q 3556 2125 3751 1926 
Q 3947 1728 4147 1325 
L 4800 0 
L 3519 0 
L 2950 1159 
Q 2778 1509 2601 1637 
Q 2425 1766 2131 1766 
L 1791 1766 
z
" transform="scale(0.015625)"/>
      <path id="DejaVuSans-Bold-68" d="M 4056 2131 
L 4056 0 
L 2931 0 
L 2931 347 
L 2931 1625 
Q 2931 2084 2911 2256 
Q 2891 2428 2841 2509 
Q 2775 2619 2662 2680 
Q 2550 2741 2406 2741 
Q 2056 2741 1856 2470 
Q 1656 2200 1656 1722 
L 1656 0 
L 538 0 
L 538 4863 
L 1656 4863 
L 1656 2988 
Q 1909 3294 2193 3439 
Q 2478 3584 2822 3584 
Q 3428 3584 3742 3212 
Q 4056 2841 4056 2131 
z
" transform="scale(0.015625)"/>
      <path id="DejaVuSans-Bold-66" d="M 2841 4863 
L 2841 4128 
L 2222 4128 
Q 1984 4128 1890 4042 
Q 1797 3956 1797 3744 
L 1797 3500 
L 2753 3500 
L 2753 2700 
L 1797 2700 
L 1797 0 
L 678 0 
L 678 2700 
L 122 2700 
L 122 3500 
L 678 3500 
L 678 3744 
Q 678 4316 997 4589 
Q 1316 4863 1984 4863 
L 2841 4863 
z
" transform="scale(0.015625)"/>
     </defs>
     <use xlink:href="#DejaVuSans-Bold-48"/>
     <use xlink:href="#DejaVuSans-Bold-56" transform="translate(83.691406 0)"/>
     <use xlink:href="#DejaVuSans-Bold-41" transform="translate(154.333984 0)"/>
     <use xlink:href="#DejaVuSans-Bold-54" transform="translate(223.976562 0)"/>
     <use xlink:href="#DejaVuSans-Bold-20" transform="translate(292.189453 0)"/>
     <use xlink:href="#DejaVuSans-Bold-52" transform="translate(327.003906 0)"/>
     <use xlink:href="#DejaVuSans-Bold-6f" transform="translate(404.005859 0)"/>
     <use xlink:href="#DejaVuSans-Bold-74" transform="translate(472.707031 0)"/>
     <use xlink:href="#DejaVuSans-Bold-6f" transform="translate(520.509766 0)"/>
     <use xlink:href="#DejaVuSans-Bold-72" transform="translate(589.210938 0)"/>
     <use xlink:href="#DejaVuSans-Bold-20" transform="translate(638.527344 0)"/>
     <use xlink:href="#DejaVuSans-Bold-2b" transform="translate(673.341797 0)"/>
     <use xlink:href="#DejaVuSans-Bold-20" transform="translate(757.130859 0)"/>
     <use xlink:href="#DejaVuSans-Bold-53" transform="translate(791.945312 0)"/>
     <use xlink:href="#DejaVuSans-Bold-68" transform="translate(863.966797 0)"/>
     <use xlink:href="#DejaVuSans-Bold-61" transform="translate(935.158203 0)"/>
     <use xlink:href="#DejaVuSans-Bold-66" transform="translate(1002.638672 0)"/>
     <use xlink:href="#DejaVuSans-Bold-74" transform="translate(1046.144531 0)"/>
     <use xlink:href="#DejaVuSans-Bold-20" transform="translate(1093.947266 0)"/>
     <use xlink:href="#DejaVuSans-Bold-2b" transform="translate(1128.761719 0)"/>
     <use xlink:href="#DejaVuSans-Bold-20" transform="translate(1212.550781 0)"/>
     <use xlink:href="#DejaVuSans-Bold-42" transform="translate(1247.365234 0)"/>
     <use xlink:href="#DejaVuSans-Bold-65" transform="translate(1323.585938 0)"/>
     <use xlink:href="#DejaVuSans-Bold-61" transform="translate(1391.408203 0)"/>
     <use xlink:href="#DejaVuSans-Bold-72" transform="translate(1458.888672 0)"/>
     <use xlink:href="#DejaVuSans-Bold-69" transform="translate(1508.205078 0)"/>
     <use xlink:href="#DejaVuSans-Bold-6e" transform="translate(1542.482422 0)"/>
     <use xlink:href="#DejaVuSans-Bold-67" transform="translate(1613.673828 0)"/>
     <use xlink:href="#DejaVuSans-Bold-73" transform="translate(1685.255859 0)"/>
    </g>
   </g>
   <g id="text_34">
    <g id="patch_10">
     <path d="M 191.421402 251.857166 
L 376.392652 251.857166 
Q 378.792652 251.857166 378.792652 249.457166 
L 378.792652 241.652166 
Q 378.792652 239.252166 376.392652 239.252166 
L 191.421402 239.252166 
Q 189.021402 239.252166 189.021402 241.652166 
L 189.021402 249.457166 
Q 189.021402 251.857166 191.421402 251.857166 
z
" style="fill: #e74c3c; opacity: 0.6; stroke: #000000; stroke-linejoin: miter"/>
    </g>
    <!-- Main Housing (with 6 tangential nozzles) -->
    <g style="fill: #ffffff" transform="translate(191.421402 247.730916) scale(0.08 -0.08)">
     <defs>
      <path id="DejaVuSans-Bold-4d" d="M 588 4666 
L 2119 4666 
L 3181 2169 
L 4250 4666 
L 5778 4666 
L 5778 0 
L 4641 0 
L 4641 3413 
L 3566 897 
L 2803 897 
L 1728 3413 
L 1728 0 
L 588 0 
L 588 4666 
z
" transform="scale(0.015625)"/>
      <path id="DejaVuSans-Bold-36" d="M 2316 2303 
Q 2000 2303 1842 2098 
Q 1684 1894 1684 1484 
Q 1684 1075 1842 870 
Q 2000 666 2316 666 
Q 2634 666 2792 870 
Q 2950 1075 2950 1484 
Q 2950 1894 2792 2098 
Q 2634 2303 2316 2303 
z
M 3803 4544 
L 3803 3681 
Q 3506 3822 3243 3889 
Q 2981 3956 2731 3956 
Q 2194 3956 1894 3657 
Q 1594 3359 1544 2772 
Q 1750 2925 1990 3001 
Q 2231 3078 2516 3078 
Q 3231 3078 3670 2659 
Q 4109 2241 4109 1563 
Q 4109 813 3618 361 
Q 3128 -91 2303 -91 
Q 1394 -91 895 523 
Q 397 1138 397 2266 
Q 397 3422 980 4083 
Q 1563 4744 2578 4744 
Q 2900 4744 3203 4694 
Q 3506 4644 3803 4544 
z
" transform="scale(0.015625)"/>
      <path id="DejaVuSans-Bold-7a" d="M 366 3500 
L 3419 3500 
L 3419 2719 
L 1575 800 
L 3419 800 
L 3419 0 
L 288 0 
L 288 781 
L 2131 2700 
L 366 2700 
L 366 3500 
z
" transform="scale(0.015625)"/>
     </defs>
     <use xlink:href="#DejaVuSans-Bold-4d"/>
     <use xlink:href="#DejaVuSans-Bold-61" transform="translate(99.511719 0)"/>
     <use xlink:href="#DejaVuSans-Bold-69" transform="translate(166.992188 0)"/>
     <use xlink:href="#DejaVuSans-Bold-6e" transform="translate(201.269531 0)"/>
     <use xlink:href="#DejaVuSans-Bold-20" transform="translate(272.460938 0)"/>
     <use xlink:href="#DejaVuSans-Bold-48" transform="translate(307.275391 0)"/>
     <use xlink:href="#DejaVuSans-Bold-6f" transform="translate(390.966797 0)"/>
     <use xlink:href="#DejaVuSans-Bold-75" transform="translate(459.667969 0)"/>
     <use xlink:href="#DejaVuSans-Bold-73" transform="translate(530.859375 0)"/>
     <use xlink:href="#DejaVuSans-Bold-69" transform="translate(590.380859 0)"/>
     <use xlink:href="#DejaVuSans-Bold-6e" transform="translate(624.658203 0)"/>
     <use xlink:href="#DejaVuSans-Bold-67" transform="translate(695.849609 0)"/>
     <use xlink:href="#DejaVuSans-Bold-20" transform="translate(767.431641 0)"/>
     <use xlink:href="#DejaVuSans-Bold-28" transform="translate(802.246094 0)"/>
     <use xlink:href="#DejaVuSans-Bold-77" transform="translate(847.949219 0)"/>
     <use xlink:href="#DejaVuSans-Bold-69" transform="translate(940.332031 0)"/>
     <use xlink:href="#DejaVuSans-Bold-74" transform="translate(974.609375 0)"/>
     <use xlink:href="#DejaVuSans-Bold-68" transform="translate(1022.412109 0)"/>
     <use xlink:href="#DejaVuSans-Bold-20" transform="translate(1093.603516 0)"/>
     <use xlink:href="#DejaVuSans-Bold-36" transform="translate(1128.417969 0)"/>
     <use xlink:href="#DejaVuSans-Bold-20" transform="translate(1197.998047 0)"/>
     <use xlink:href="#DejaVuSans-Bold-74" transform="translate(1232.8125 0)"/>
     <use xlink:href="#DejaVuSans-Bold-61" transform="translate(1280.615234 0)"/>
     <use xlink:href="#DejaVuSans-Bold-6e" transform="translate(1348.095703 0)"/>
     <use xlink:href="#DejaVuSans-Bold-67" transform="translate(1419.287109 0)"/>
     <use xlink:href="#DejaVuSans-Bold-65" transform="translate(1490.869141 0)"/>
     <use xlink:href="#DejaVuSans-Bold-6e" transform="translate(1558.691406 0)"/>
     <use xlink:href="#DejaVuSans-Bold-74" transform="translate(1629.882812 0)"/>
     <use xlink:href="#DejaVuSans-Bold-69" transform="translate(1677.685547 0)"/>
     <use xlink:href="#DejaVuSans-Bold-61" transform="translate(1711.962891 0)"/>
     <use xlink:href="#DejaVuSans-Bold-6c" transform="translate(1779.443359 0)"/>
     <use xlink:href="#DejaVuSans-Bold-20" transform="translate(1813.720703 0)"/>
     <use xlink:href="#DejaVuSans-Bold-6e" transform="translate(1848.535156 0)"/>
     <use xlink:href="#DejaVuSans-Bold-6f" transform="translate(1919.726562 0)"/>
     <use xlink:href="#DejaVuSans-Bold-7a" transform="translate(1988.427734 0)"/>
     <use xlink:href="#DejaVuSans-Bold-7a" transform="translate(2046.630859 0)"/>
     <use xlink:href="#DejaVuSans-Bold-6c" transform="translate(2104.833984 0)"/>
     <use xlink:href="#DejaVuSans-Bold-65" transform="translate(2139.111328 0)"/>
     <use xlink:href="#DejaVuSans-Bold-73" transform="translate(2206.933594 0)"/>
     <use xlink:href="#DejaVuSans-Bold-29" transform="translate(2266.455078 0)"/>
    </g>
   </g>
   <g id="text_35">
    <g id="patch_11">
     <path d="M 195.082027 218.780359 
L 372.732027 218.780359 
Q 375.132027 218.780359 375.132027 216.380359 
L 375.132027 208.637859 
Q 375.132027 206.237859 372.732027 206.237859 
L 195.082027 206.237859 
Q 192.682027 206.237859 192.682027 208.637859 
L 192.682027 216.380359 
Q 192.682027 218.780359 195.082027 218.780359 
z
" style="fill: #f39c12; opacity: 0.6; stroke: #000000; stroke-linejoin: miter"/>
    </g>
    <!-- Nozzle Manifold + Cavitation Jet Nozzle -->
    <g style="fill: #ffffff" transform="translate(195.082027 214.716609) scale(0.08 -0.08)">
     <defs>
      <path id="DejaVuSans-Bold-4e" d="M 588 4666 
L 1931 4666 
L 3628 1466 
L 3628 4666 
L 4769 4666 
L 4769 0 
L 3425 0 
L 1728 3200 
L 1728 0 
L 588 0 
L 588 4666 
z
" transform="scale(0.015625)"/>
      <path id="DejaVuSans-Bold-76" d="M 97 3500 
L 1216 3500 
L 2088 1081 
L 2956 3500 
L 4078 3500 
L 2700 0 
L 1472 0 
L 97 3500 
z
" transform="scale(0.015625)"/>
      <path id="DejaVuSans-Bold-4a" d="M 588 4666 
L 1791 4666 
L 1791 453 
Q 1791 -419 1317 -850 
Q 844 -1281 -116 -1281 
L -359 -1281 
L -359 -372 
L -172 -372 
Q 203 -372 395 -162 
Q 588 47 588 453 
L 588 4666 
z
" transform="scale(0.015625)"/>
     </defs>
     <use xlink:href="#DejaVuSans-Bold-4e"/>
     <use xlink:href="#DejaVuSans-Bold-6f" transform="translate(83.691406 0)"/>
     <use xlink:href="#DejaVuSans-Bold-7a" transform="translate(152.392578 0)"/>
     <use xlink:href="#DejaVuSans-Bold-7a" transform="translate(210.595703 0)"/>
     <use xlink:href="#DejaVuSans-Bold-6c" transform="translate(268.798828 0)"/>
     <use xlink:href="#DejaVuSans-Bold-65" transform="translate(303.076172 0)"/>
     <use xlink:href="#DejaVuSans-Bold-20" transform="translate(370.898438 0)"/>
     <use xlink:href="#DejaVuSans-Bold-4d" transform="translate(405.712891 0)"/>
     <use xlink:href="#DejaVuSans-Bold-61" transform="translate(505.224609 0)"/>
     <use xlink:href="#DejaVuSans-Bold-6e" transform="translate(572.705078 0)"/>
     <use xlink:href="#DejaVuSans-Bold-69" transform="translate(643.896484 0)"/>
     <use xlink:href="#DejaVuSans-Bold-66" transform="translate(678.173828 0)"/>
     <use xlink:href="#DejaVuSans-Bold-6f" transform="translate(721.679688 0)"/>
     <use xlink:href="#DejaVuSans-Bold-6c" transform="translate(790.380859 0)"/>
     <use xlink:href="#DejaVuSans-Bold-64" transform="translate(824.658203 0)"/>
     <use xlink:href="#DejaVuSans-Bold-20" transform="translate(896.240234 0)"/>
     <use xlink:href="#DejaVuSans-Bold-2b" transform="translate(931.054688 0)"/>
     <use xlink:href="#DejaVuSans-Bold-20" transform="translate(1014.84375 0)"/>
     <use xlink:href="#DejaVuSans-Bold-43" transform="translate(1049.658203 0)"/>
     <use xlink:href="#DejaVuSans-Bold-61" transform="translate(1123.046875 0)"/>
     <use xlink:href="#DejaVuSans-Bold-76" transform="translate(1190.527344 0)"/>
     <use xlink:href="#DejaVuSans-Bold-69" transform="translate(1255.712891 0)"/>
     <use xlink:href="#DejaVuSans-Bold-74" transform="translate(1289.990234 0)"/>
     <use xlink:href="#DejaVuSans-Bold-61" transform="translate(1337.792969 0)"/>
     <use xlink:href="#DejaVuSans-Bold-74" transform="translate(1405.273438 0)"/>
     <use xlink:href="#DejaVuSans-Bold-69" transform="translate(1453.076172 0)"/>
     <use xlink:href="#DejaVuSans-Bold-6f" transform="translate(1487.353516 0)"/>
     <use xlink:href="#DejaVuSans-Bold-6e" transform="translate(1556.054688 0)"/>
     <use xlink:href="#DejaVuSans-Bold-20" transform="translate(1627.246094 0)"/>
     <use xlink:href="#DejaVuSans-Bold-4a" transform="translate(1662.060547 0)"/>
     <use xlink:href="#DejaVuSans-Bold-65" transform="translate(1699.267578 0)"/>
     <use xlink:href="#DejaVuSans-Bold-74" transform="translate(1767.089844 0)"/>
     <use xlink:href="#DejaVuSans-Bold-20" transform="translate(1814.892578 0)"/>
     <use xlink:href="#DejaVuSans-Bold-4e" transform="translate(1849.707031 0)"/>
     <use xlink:href="#DejaVuSans-Bold-6f" transform="translate(1933.398438 0)"/>
     <use xlink:href="#DejaVuSans-Bold-7a" transform="translate(2002.099609 0)"/>
     <use xlink:href="#DejaVuSans-Bold-7a" transform="translate(2060.302734 0)"/>
     <use xlink:href="#DejaVuSans-Bold-6c" transform="translate(2118.505859 0)"/>
     <use xlink:href="#DejaVuSans-Bold-65" transform="translate(2152.783203 0)"/>
    </g>
   </g>
   <g id="text_36">
    <!-- EXPLODED ASSEMBLY VIEW — All Major 3D-Printed Components -->
    <g transform="translate(78.878984 19.158281) scale(0.11 -0.11)">
     <defs>
      <path id="DejaVuSans-Bold-58" d="M 3188 2381 
L 4806 0 
L 3553 0 
L 2463 1594 
L 1381 0 
L 122 0 
L 1741 2381 
L 184 4666 
L 1441 4666 
L 2463 3163 
L 3481 4666 
L 4744 4666 
L 3188 2381 
z
" transform="scale(0.015625)"/>
      <path id="DejaVuSans-Bold-4c" d="M 588 4666 
L 1791 4666 
L 1791 909 
L 3903 909 
L 3903 0 
L 588 0 
L 588 4666 
z
" transform="scale(0.015625)"/>
      <path id="DejaVuSans-Bold-4f" d="M 2719 3878 
Q 2169 3878 1866 3472 
Q 1563 3066 1563 2328 
Q 1563 1594 1866 1187 
Q 2169 781 2719 781 
Q 3272 781 3575 1187 
Q 3878 1594 3878 2328 
Q 3878 3066 3575 3472 
Q 3272 3878 2719 3878 
z
M 2719 4750 
Q 3844 4750 4481 4106 
Q 5119 3463 5119 2328 
Q 5119 1197 4481 553 
Q 3844 -91 2719 -91 
Q 1597 -91 958 553 
Q 319 1197 319 2328 
Q 319 3463 958 4106 
Q 1597 4750 2719 4750 
z
" transform="scale(0.015625)"/>
      <path id="DejaVuSans-Bold-44" d="M 1791 3756 
L 1791 909 
L 2222 909 
Q 2959 909 3348 1275 
Q 3738 1641 3738 2338 
Q 3738 3031 3350 3393 
Q 2963 3756 2222 3756 
L 1791 3756 
z
M 588 4666 
L 1856 4666 
Q 2919 4666 3439 4514 
Q 3959 4363 4331 4000 
Q 4659 3684 4818 3271 
Q 4978 2859 4978 2338 
Q 4978 1809 4818 1395 
Q 4659 981 4331 666 
Q 3956 303 3431 151 
Q 2906 0 1856 0 
L 588 0 
L 588 4666 
z
" transform="scale(0.015625)"/>
      <path id="DejaVuSans-Bold-59" d="M -63 4666 
L 1253 4666 
L 2316 3003 
L 3378 4666 
L 4697 4666 
L 2919 1966 
L 2919 0 
L 1716 0 
L 1716 1966 
L -63 4666 
z
" transform="scale(0.015625)"/>
      <path id="DejaVuSans-Bold-49" d="M 588 4666 
L 1791 4666 
L 1791 0 
L 588 0 
L 588 4666 
z
" transform="scale(0.015625)"/>
      <path id="DejaVuSans-Bold-57" d="M 191 4666 
L 1344 4666 
L 2150 1275 
L 2950 4666 
L 4109 4666 
L 4909 1275 
L 5716 4666 
L 6859 4666 
L 5759 0 
L 4372 0 
L 3525 3547 
L 2688 0 
L 1300 0 
L 191 4666 
z
" transform="scale(0.015625)"/>
      <path id="DejaVuSans-Bold-2014" d="M 344 2156 
L 6056 2156 
L 6056 1350 
L 344 1350 
L 344 2156 
z
" transform="scale(0.015625)"/>
      <path id="DejaVuSans-Bold-6a" d="M 538 3500 
L 1656 3500 
L 1656 63 
Q 1656 -641 1318 -1011 
Q 981 -1381 341 -1381 
L -213 -1381 
L -213 -647 
L -19 -647 
Q 300 -647 419 -503 
Q 538 -359 538 63 
L 538 3500 
z
M 538 4863 
L 1656 4863 
L 1656 3950 
L 538 3950 
L 538 4863 
z
" transform="scale(0.015625)"/>
      <path id="DejaVuSans-Bold-33" d="M 2981 2516 
Q 3453 2394 3698 2092 
Q 3944 1791 3944 1325 
Q 3944 631 3412 270 
Q 2881 -91 1863 -91 
Q 1503 -91 1142 -33 
Q 781 25 428 141 
L 428 1069 
Q 766 900 1098 814 
Q 1431 728 1753 728 
Q 2231 728 2486 893 
Q 2741 1059 2741 1369 
Q 2741 1688 2480 1852 
Q 2219 2016 1709 2016 
L 1228 2016 
L 1228 2791 
L 1734 2791 
Q 2188 2791 2409 2933 
Q 2631 3075 2631 3366 
Q 2631 3634 2415 3781 
Q 2200 3928 1806 3928 
Q 1516 3928 1219 3862 
Q 922 3797 628 3669 
L 628 4550 
Q 984 4650 1334 4700 
Q 1684 4750 2022 4750 
Q 2931 4750 3382 4451 
Q 3834 4153 3834 3553 
Q 3834 3144 3618 2883 
Q 3403 2622 2981 2516 
z
" transform="scale(0.015625)"/>
      <path id="DejaVuSans-Bold-2d" d="M 347 2297 
L 2309 2297 
L 2309 1388 
L 347 1388 
L 347 2297 
z
" transform="scale(0.015625)"/>
     </defs>
     <use xlink:href="#DejaVuSans-Bold-45"/>
     <use xlink:href="#DejaVuSans-Bold-58" transform="translate(68.310547 0)"/>
     <use xlink:href="#DejaVuSans-Bold-50" transform="translate(145.410156 0)"/>
     <use xlink:href="#DejaVuSans-Bold-4c" transform="translate(218.701172 0)"/>
     <use xlink:href="#DejaVuSans-Bold-4f" transform="translate(278.796875 0)"/>
     <use xlink:href="#DejaVuSans-Bold-44" transform="translate(363.806641 0)"/>
     <use xlink:href="#DejaVuSans-Bold-45" transform="translate(446.814453 0)"/>
     <use xlink:href="#DejaVuSans-Bold-44" transform="translate(515.125 0)"/>
     <use xlink:href="#DejaVuSans-Bold-20" transform="translate(598.132812 0)"/>
     <use xlink:href="#DejaVuSans-Bold-41" transform="translate(632.947266 0)"/>
     <use xlink:href="#DejaVuSans-Bold-53" transform="translate(710.339844 0)"/>
     <use xlink:href="#DejaVuSans-Bold-53" transform="translate(777.861328 0)"/>
     <use xlink:href="#DejaVuSans-Bold-45" transform="translate(849.882812 0)"/>
     <use xlink:href="#DejaVuSans-Bold-4d" transform="translate(918.193359 0)"/>
     <use xlink:href="#DejaVuSans-Bold-42" transform="translate(1017.705078 0)"/>
     <use xlink:href="#DejaVuSans-Bold-4c" transform="translate(1093.925781 0)"/>
     <use xlink:href="#DejaVuSans-Bold-59" transform="translate(1142.021484 0)"/>
     <use xlink:href="#DejaVuSans-Bold-20" transform="translate(1214.433594 0)"/>
     <use xlink:href="#DejaVuSans-Bold-56" transform="translate(1249.248047 0)"/>
     <use xlink:href="#DejaVuSans-Bold-49" transform="translate(1326.640625 0)"/>
     <use xlink:href="#DejaVuSans-Bold-45" transform="translate(1363.847656 0)"/>
     <use xlink:href="#DejaVuSans-Bold-57" transform="translate(1432.158203 0)"/>
     <use xlink:href="#DejaVuSans-Bold-20" transform="translate(1542.460938 0)"/>
     <use xlink:href="#DejaVuSans-Bold-2014" transform="translate(1577.275391 0)"/>
     <use xlink:href="#DejaVuSans-Bold-20" transform="translate(1677.275391 0)"/>
     <use xlink:href="#DejaVuSans-Bold-41" transform="translate(1712.089844 0)"/>
     <use xlink:href="#DejaVuSans-Bold-6c" transform="translate(1789.482422 0)"/>
     <use xlink:href="#DejaVuSans-Bold-6c" transform="translate(1823.759766 0)"/>
     <use xlink:href="#DejaVuSans-Bold-20" transform="translate(1858.037109 0)"/>
     <use xlink:href="#DejaVuSans-Bold-4d" transform="translate(1892.851562 0)"/>
     <use xlink:href="#DejaVuSans-Bold-61" transform="translate(1992.363281 0)"/>
     <use xlink:href="#DejaVuSans-Bold-6a" transform="translate(2059.84375 0)"/>
     <use xlink:href="#DejaVuSans-Bold-6f" transform="translate(2094.121094 0)"/>
     <use xlink:href="#DejaVuSans-Bold-72" transform="translate(2162.822266 0)"/>
     <use xlink:href="#DejaVuSans-Bold-20" transform="translate(2212.138672 0)"/>
     <use xlink:href="#DejaVuSans-Bold-33" transform="translate(2246.953125 0)"/>
     <use xlink:href="#DejaVuSans-Bold-44" transform="translate(2316.533203 0)"/>
     <use xlink:href="#DejaVuSans-Bold-2d" transform="translate(2401.416016 0)"/>
     <use xlink:href="#DejaVuSans-Bold-50" transform="translate(2442.919922 0)"/>
     <use xlink:href="#DejaVuSans-Bold-72" transform="translate(2516.210938 0)"/>
     <use xlink:href="#DejaVuSans-Bold-69" transform="translate(2565.527344 0)"/>
     <use xlink:href="#DejaVuSans-Bold-6e" transform="translate(2599.804688 0)"/>
     <use xlink:href="#DejaVuSans-Bold-74" transform="translate(2670.996094 0)"/>
     <use xlink:href="#DejaVuSans-Bold-65" transform="translate(2718.798828 0)"/>
     <use xlink:href="#DejaVuSans-Bold-64" transform="translate(2786.621094 0)"/>
     <use xlink:href="#DejaVuSans-Bold-20" transform="translate(2858.203125 0)"/>
     <use xlink:href="#DejaVuSans-Bold-43" transform="translate(2893.017578 0)"/>
     <use xlink:href="#DejaVuSans-Bold-6f" transform="translate(2966.40625 0)"/>
     <use xlink:href="#DejaVuSans-Bold-6d" transform="translate(3035.107422 0)"/>
     <use xlink:href="#DejaVuSans-Bold-70" transform="translate(3139.306641 0)"/>
     <use xlink:href="#DejaVuSans-Bold-6f" transform="translate(3210.888672 0)"/>
     <use xlink:href="#DejaVuSans-Bold-6e" transform="translate(3279.589844 0)"/>
     <use xlink:href="#DejaVuSans-Bold-65" transform="translate(3350.78125 0)"/>
     <use xlink:href="#DejaVuSans-Bold-6e" transform="translate(3418.603516 0)"/>
     <use xlink:href="#DejaVuSans-Bold-74" transform="translate(3489.794922 0)"/>
     <use xlink:href="#DejaVuSans-Bold-73" transform="translate(3537.597656 0)"/>
    </g>
    <!-- HDD Platter Flow Conditioner (25-platter configuration) -->
    <g transform="translate(103.462266 31.561812) scale(0.11 -0.11)">
     <defs>
      <path id="DejaVuSans-Bold-46" d="M 588 4666 
L 3834 4666 
L 3834 3756 
L 1791 3756 
L 1791 2888 
L 3713 2888 
L 3713 1978 
L 1791 1978 
L 1791 0 
L 588 0 
L 588 4666 
z
" transform="scale(0.015625)"/>
     </defs>
     <use xlink:href="#DejaVuSans-Bold-48"/>
     <use xlink:href="#DejaVuSans-Bold-44" transform="translate(83.691406 0)"/>
     <use xlink:href="#DejaVuSans-Bold-44" transform="translate(166.699219 0)"/>
     <use xlink:href="#DejaVuSans-Bold-20" transform="translate(249.707031 0)"/>
     <use xlink:href="#DejaVuSans-Bold-50" transform="translate(284.521484 0)"/>
     <use xlink:href="#DejaVuSans-Bold-6c" transform="translate(357.8125 0)"/>
     <use xlink:href="#DejaVuSans-Bold-61" transform="translate(392.089844 0)"/>
     <use xlink:href="#DejaVuSans-Bold-74" transform="translate(459.570312 0)"/>
     <use xlink:href="#DejaVuSans-Bold-74" transform="translate(507.373047 0)"/>
     <use xlink:href="#DejaVuSans-Bold-65" transform="translate(555.175781 0)"/>
     <use xlink:href="#DejaVuSans-Bold-72" transform="translate(622.998047 0)"/>
     <use xlink:href="#DejaVuSans-Bold-20" transform="translate(672.314453 0)"/>
     <use xlink:href="#DejaVuSans-Bold-46" transform="translate(707.128906 0)"/>
     <use xlink:href="#DejaVuSans-Bold-6c" transform="translate(775.439453 0)"/>
     <use xlink:href="#DejaVuSans-Bold-6f" transform="translate(809.716797 0)"/>
     <use xlink:href="#DejaVuSans-Bold-77" transform="translate(878.417969 0)"/>
     <use xlink:href="#DejaVuSans-Bold-20" transform="translate(970.800781 0)"/>
     <use xlink:href="#DejaVuSans-Bold-43" transform="translate(1005.615234 0)"/>
     <use xlink:href="#DejaVuSans-Bold-6f" transform="translate(1079.003906 0)"/>
     <use xlink:href="#DejaVuSans-Bold-6e" transform="translate(1147.705078 0)"/>
     <use xlink:href="#DejaVuSans-Bold-64" transform="translate(1218.896484 0)"/>
     <use xlink:href="#DejaVuSans-Bold-69" transform="translate(1290.478516 0)"/>
     <use xlink:href="#DejaVuSans-Bold-74" transform="translate(1324.755859 0)"/>
     <use xlink:href="#DejaVuSans-Bold-69" transform="translate(1372.558594 0)"/>
     <use xlink:href="#DejaVuSans-Bold-6f" transform="translate(1406.835938 0)"/>
     <use xlink:href="#DejaVuSans-Bold-6e" transform="translate(1475.537109 0)"/>
     <use xlink:href="#DejaVuSans-Bold-65" transform="translate(1546.728516 0)"/>
     <use xlink:href="#DejaVuSans-Bold-72" transform="translate(1614.550781 0)"/>
     <use xlink:href="#DejaVuSans-Bold-20" transform="translate(1663.867188 0)"/>
     <use xlink:href="#DejaVuSans-Bold-28" transform="translate(1698.681641 0)"/>
     <use xlink:href="#DejaVuSans-Bold-32" transform="translate(1744.384766 0)"/>
     <use xlink:href="#DejaVuSans-Bold-35" transform="translate(1813.964844 0)"/>
     <use xlink:href="#DejaVuSans-Bold-2d" transform="translate(1883.544922 0)"/>
     <use xlink:href="#DejaVuSans-Bold-70" transform="translate(1925.048828 0)"/>
     <use xlink:href="#DejaVuSans-Bold-6c" transform="translate(1996.630859 0)"/>
     <use xlink:href="#DejaVuSans-Bold-61" transform="translate(2030.908203 0)"/>
     <use xlink:href="#DejaVuSans-Bold-74" transform="translate(2098.388672 0)"/>
     <use xlink:href="#DejaVuSans-Bold-74" transform="translate(2146.191406 0)"/>
     <use xlink:href="#DejaVuSans-Bold-65" transform="translate(2193.994141 0)"/>
     <use xlink:href="#DejaVuSans-Bold-72" transform="translate(2261.816406 0)"/>
     <use xlink:href="#DejaVuSans-Bold-20" transform="translate(2311.132812 0)"/>
     <use xlink:href="#DejaVuSans-Bold-63" transform="translate(2345.947266 0)"/>
     <use xlink:href="#DejaVuSans-Bold-6f" transform="translate(2405.224609 0)"/>
     <use xlink:href="#DejaVuSans-Bold-6e" transform="translate(2473.925781 0)"/>
     <use xlink:href="#DejaVuSans-Bold-66" transform="translate(2545.117188 0)"/>
     <use xlink:href="#DejaVuSans-Bold-69" transform="translate(2588.623047 0)"/>
     <use xlink:href="#DejaVuSans-Bold-67" transform="translate(2622.900391 0)"/>
     <use xlink:href="#DejaVuSans-Bold-75" transform="translate(2694.482422 0)"/>
     <use xlink:href="#DejaVuSans-Bold-72" transform="translate(2765.673828 0)"/>
     <use xlink:href="#DejaVuSans-Bold-61" transform="translate(2814.990234 0)"/>
     <use xlink:href="#DejaVuSans-Bold-74" transform="translate(2882.470703 0)"/>
     <use xlink:href="#DejaVuSans-Bold-69" transform="translate(2930.273438 0)"/>
     <use xlink:href="#DejaVuSans-Bold-6f" transform="translate(2964.550781 0)"/>
     <use xlink:href="#DejaVuSans-Bold-6e" transform="translate(3033.251953 0)"/>
     <use xlink:href="#DejaVuSans-Bold-29" transform="translate(3104.443359 0)"/>
    </g>
   </g>
  </g>
 </g>
</svg>
