<?xml version="1.0" encoding="utf-8" standalone="no"?>
<!DOCTYPE svg PUBLIC "-//W3C//DTD SVG 1.1//EN"
  "http://www.w3.org/Graphics/SVG/1.1/DTD/svg11.dtd">
<svg xmlns:xlink="http://www.w3.org/1999/xlink" width="938.32pt" height="339.50725pt" viewBox="0 0 938.32 339.50725" xmlns="http://www.w3.org/2000/svg" version="1.1">
 <metadata>
  <rdf:RDF xmlns:dc="http://purl.org/dc/elements/1.1/" xmlns:cc="http://creativecommons.org/ns#" xmlns:rdf="http://www.w3.org/1999/02/22-rdf-syntax-ns#">
   <cc:Work>
    <dc:type rdf:resource="http://purl.org/dc/dcmitype/StillImage"/>
    <dc:date>2026-05-28T09:18:31.224328</dc:date>
    <dc:format>image/svg+xml</dc:format>
    <dc:creator>
     <cc:Agent>
      <dc:title>Matplotlib v3.10.9, https://matplotlib.org/</dc:title>
     </cc:Agent>
    </dc:creator>
   </cc:Work>
  </rdf:RDF>
 </metadata>
 <defs>
  <style type="text/css">*{stroke-linejoin: round; stroke-linecap: butt}</style>
 </defs>
 <g id="figure_1">
  <g id="patch_1">
   <path d="M 0 339.50725 
L 938.32 339.50725 
L 938.32 0 
L 0 0 
z
" style="fill: #ffffff"/>
  </g>
  <g id="axes_1">
   <g id="patch_2">
    <path d="M 163.36 259.8835 
L 818.36 259.8835 
L 818.36 35.7555 
L 163.36 35.7555 
z
" style="fill: #ffffff"/>
   </g>
   <g id="matplotlib.axis_1">
    <g id="xtick_1">
     <g id="line2d_1">
      <path d="M 230.348636 259.8835 
L 230.348636 35.7555 
" clip-path="url(#p5851cbf8a5)" style="fill: none; stroke: #b0b0b0; stroke-opacity: 0.3; stroke-width: 0.8; stroke-linecap: square"/>
     </g>
     <g id="line2d_2">
      <defs>
       <path id="m39f0347475" d="M 0 0 
L 0 3.5 
" style="stroke: #000000; stroke-width: 0.8"/>
      </defs>
      <g>
       <use xlink:href="#m39f0347475" x="230.348636" y="259.8835" style="stroke: #000000; stroke-width: 0.8"/>
      </g>
     </g>
     <g id="text_1">
      <!-- 10 -->
      <g transform="translate(223.986136 274.481937) scale(0.1 -0.1)">
       <defs>
        <path id="DejaVuSans-31" d="M 794 531 
L 1825 531 
L 1825 4091 
L 703 3866 
L 703 4441 
L 1819 4666 
L 2450 4666 
L 2450 531 
L 3481 531 
L 3481 0 
L 794 0 
L 794 531 
z
" transform="scale(0.015625)"/>
        <path id="DejaVuSans-30" d="M 2034 4250 
Q 1547 4250 1301 3770 
Q 1056 3291 1056 2328 
Q 1056 1369 1301 889 
Q 1547 409 2034 409 
Q 2525 409 2770 889 
Q 3016 1369 3016 2328 
Q 3016 3291 2770 3770 
Q 2525 4250 2034 4250 
z
M 2034 4750 
Q 2819 4750 3233 4129 
Q 3647 3509 3647 2328 
Q 3647 1150 3233 529 
Q 2819 -91 2034 -91 
Q 1250 -91 836 529 
Q 422 1150 422 2328 
Q 422 3509 836 4129 
Q 1250 4750 2034 4750 
z
" transform="scale(0.015625)"/>
       </defs>
       <use xlink:href="#DejaVuSans-31"/>
       <use xlink:href="#DejaVuSans-30" transform="translate(63.623047 0)"/>
      </g>
     </g>
    </g>
    <g id="xtick_2">
     <g id="line2d_3">
      <path d="M 323.388409 259.8835 
L 323.388409 35.7555 
" clip-path="url(#p5851cbf8a5)" style="fill: none; stroke: #b0b0b0; stroke-opacity: 0.3; stroke-width: 0.8; stroke-linecap: square"/>
     </g>
     <g id="line2d_4">
      <g>
       <use xlink:href="#m39f0347475" x="323.388409" y="259.8835" style="stroke: #000000; stroke-width: 0.8"/>
      </g>
     </g>
     <g id="text_2">
      <!-- 15 -->
      <g transform="translate(317.025909 274.481937) scale(0.1 -0.1)">
       <defs>
        <path id="DejaVuSans-35" d="M 691 4666 
L 3169 4666 
L 3169 4134 
L 1269 4134 
L 1269 2991 
Q 1406 3038 1543 3061 
Q 1681 3084 1819 3084 
Q 2600 3084 3056 2656 
Q 3513 2228 3513 1497 
Q 3513 744 3044 326 
Q 2575 -91 1722 -91 
Q 1428 -91 1123 -41 
Q 819 9 494 109 
L 494 744 
Q 775 591 1075 516 
Q 1375 441 1709 441 
Q 2250 441 2565 725 
Q 2881 1009 2881 1497 
Q 2881 1984 2565 2268 
Q 2250 2553 1709 2553 
Q 1456 2553 1204 2497 
Q 953 2441 691 2322 
L 691 4666 
z
" transform="scale(0.015625)"/>
       </defs>
       <use xlink:href="#DejaVuSans-31"/>
       <use xlink:href="#DejaVuSans-35" transform="translate(63.623047 0)"/>
      </g>
     </g>
    </g>
    <g id="xtick_3">
     <g id="line2d_5">
      <path d="M 416.428182 259.8835 
L 416.428182 35.7555 
" clip-path="url(#p5851cbf8a5)" style="fill: none; stroke: #b0b0b0; stroke-opacity: 0.3; stroke-width: 0.8; stroke-linecap: square"/>
     </g>
     <g id="line2d_6">
      <g>
       <use xlink:href="#m39f0347475" x="416.428182" y="259.8835" style="stroke: #000000; stroke-width: 0.8"/>
      </g>
     </g>
     <g id="text_3">
      <!-- 20 -->
      <g transform="translate(410.065682 274.481937) scale(0.1 -0.1)">
       <defs>
        <path id="DejaVuSans-32" d="M 1228 531 
L 3431 531 
L 3431 0 
L 469 0 
L 469 531 
Q 828 903 1448 1529 
Q 2069 2156 2228 2338 
Q 2531 2678 2651 2914 
Q 2772 3150 2772 3378 
Q 2772 3750 2511 3984 
Q 2250 4219 1831 4219 
Q 1534 4219 1204 4116 
Q 875 4013 500 3803 
L 500 4441 
Q 881 4594 1212 4672 
Q 1544 4750 1819 4750 
Q 2544 4750 2975 4387 
Q 3406 4025 3406 3419 
Q 3406 3131 3298 2873 
Q 3191 2616 2906 2266 
Q 2828 2175 2409 1742 
Q 1991 1309 1228 531 
z
" transform="scale(0.015625)"/>
       </defs>
       <use xlink:href="#DejaVuSans-32"/>
       <use xlink:href="#DejaVuSans-30" transform="translate(63.623047 0)"/>
      </g>
     </g>
    </g>
    <g id="xtick_4">
     <g id="line2d_7">
      <path d="M 509.467955 259.8835 
L 509.467955 35.7555 
" clip-path="url(#p5851cbf8a5)" style="fill: none; stroke: #b0b0b0; stroke-opacity: 0.3; stroke-width: 0.8; stroke-linecap: square"/>
     </g>
     <g id="line2d_8">
      <g>
       <use xlink:href="#m39f0347475" x="509.467955" y="259.8835" style="stroke: #000000; stroke-width: 0.8"/>
      </g>
     </g>
     <g id="text_4">
      <!-- 25 -->
      <g transform="translate(503.105455 274.481937) scale(0.1 -0.1)">
       <use xlink:href="#DejaVuSans-32"/>
       <use xlink:href="#DejaVuSans-35" transform="translate(63.623047 0)"/>
      </g>
     </g>
    </g>
    <g id="xtick_5">
     <g id="line2d_9">
      <path d="M 602.507727 259.8835 
L 602.507727 35.7555 
" clip-path="url(#p5851cbf8a5)" style="fill: none; stroke: #b0b0b0; stroke-opacity: 0.3; stroke-width: 0.8; stroke-linecap: square"/>
     </g>
     <g id="line2d_10">
      <g>
       <use xlink:href="#m39f0347475" x="602.507727" y="259.8835" style="stroke: #000000; stroke-width: 0.8"/>
      </g>
     </g>
     <g id="text_5">
      <!-- 30 -->
      <g transform="translate(596.145227 274.481937) scale(0.1 -0.1)">
       <defs>
        <path id="DejaVuSans-33" d="M 2597 2516 
Q 3050 2419 3304 2112 
Q 3559 1806 3559 1356 
Q 3559 666 3084 287 
Q 2609 -91 1734 -91 
Q 1441 -91 1130 -33 
Q 819 25 488 141 
L 488 750 
Q 750 597 1062 519 
Q 1375 441 1716 441 
Q 2309 441 2620 675 
Q 2931 909 2931 1356 
Q 2931 1769 2642 2001 
Q 2353 2234 1838 2234 
L 1294 2234 
L 1294 2753 
L 1863 2753 
Q 2328 2753 2575 2939 
Q 2822 3125 2822 3475 
Q 2822 3834 2567 4026 
Q 2313 4219 1838 4219 
Q 1578 4219 1281 4162 
Q 984 4106 628 3988 
L 628 4550 
Q 988 4650 1302 4700 
Q 1616 4750 1894 4750 
Q 2613 4750 3031 4423 
Q 3450 4097 3450 3541 
Q 3450 3153 3228 2886 
Q 3006 2619 2597 2516 
z
" transform="scale(0.015625)"/>
       </defs>
       <use xlink:href="#DejaVuSans-33"/>
       <use xlink:href="#DejaVuSans-30" transform="translate(63.623047 0)"/>
      </g>
     </g>
    </g>
    <g id="xtick_6">
     <g id="line2d_11">
      <path d="M 695.5475 259.8835 
L 695.5475 35.7555 
" clip-path="url(#p5851cbf8a5)" style="fill: none; stroke: #b0b0b0; stroke-opacity: 0.3; stroke-width: 0.8; stroke-linecap: square"/>
     </g>
     <g id="line2d_12">
      <g>
       <use xlink:href="#m39f0347475" x="695.5475" y="259.8835" style="stroke: #000000; stroke-width: 0.8"/>
      </g>
     </g>
     <g id="text_6">
      <!-- 35 -->
      <g transform="translate(689.185 274.481937) scale(0.1 -0.1)">
       <use xlink:href="#DejaVuSans-33"/>
       <use xlink:href="#DejaVuSans-35" transform="translate(63.623047 0)"/>
      </g>
     </g>
    </g>
    <g id="xtick_7">
     <g id="line2d_13">
      <path d="M 788.587273 259.8835 
L 788.587273 35.7555 
" clip-path="url(#p5851cbf8a5)" style="fill: none; stroke: #b0b0b0; stroke-opacity: 0.3; stroke-width: 0.8; stroke-linecap: square"/>
     </g>
     <g id="line2d_14">
      <g>
       <use xlink:href="#m39f0347475" x="788.587273" y="259.8835" style="stroke: #000000; stroke-width: 0.8"/>
      </g>
     </g>
     <g id="text_7">
      <!-- 40 -->
      <g transform="translate(782.224773 274.481937) scale(0.1 -0.1)">
       <defs>
        <path id="DejaVuSans-34" d="M 2419 4116 
L 825 1625 
L 2419 1625 
L 2419 4116 
z
M 2253 4666 
L 3047 4666 
L 3047 1625 
L 3713 1625 
L 3713 1100 
L 3047 1100 
L 3047 0 
L 2419 0 
L 2419 1100 
L 313 1100 
L 313 1709 
L 2253 4666 
z
" transform="scale(0.015625)"/>
       </defs>
       <use xlink:href="#DejaVuSans-34"/>
       <use xlink:href="#DejaVuSans-30" transform="translate(63.623047 0)"/>
      </g>
     </g>
    </g>
    <g id="text_8">
     <!-- Number of Discs -->
     <g transform="translate(449.57875 288.160062) scale(0.1 -0.1)">
      <defs>
       <path id="DejaVuSans-4e" d="M 628 4666 
L 1478 4666 
L 3547 763 
L 3547 4666 
L 4159 4666 
L 4159 0 
L 3309 0 
L 1241 3903 
L 1241 0 
L 628 0 
L 628 4666 
z
" transform="scale(0.015625)"/>
       <path id="DejaVuSans-75" d="M 544 1381 
L 544 3500 
L 1119 3500 
L 1119 1403 
Q 1119 906 1312 657 
Q 1506 409 1894 409 
Q 2359 409 2629 706 
Q 2900 1003 2900 1516 
L 2900 3500 
L 3475 3500 
L 3475 0 
L 2900 0 
L 2900 538 
Q 2691 219 2414 64 
Q 2138 -91 1772 -91 
Q 1169 -91 856 284 
Q 544 659 544 1381 
z
M 1991 3584 
L 1991 3584 
z
" transform="scale(0.015625)"/>
       <path id="DejaVuSans-6d" d="M 3328 2828 
Q 3544 3216 3844 3400 
Q 4144 3584 4550 3584 
Q 5097 3584 5394 3201 
Q 5691 2819 5691 2113 
L 5691 0 
L 5113 0 
L 5113 2094 
Q 5113 2597 4934 2840 
Q 4756 3084 4391 3084 
Q 3944 3084 3684 2787 
Q 3425 2491 3425 1978 
L 3425 0 
L 2847 0 
L 2847 2094 
Q 2847 2600 2669 2842 
Q 2491 3084 2119 3084 
Q 1678 3084 1418 2786 
Q 1159 2488 1159 1978 
L 1159 0 
L 581 0 
L 581 3500 
L 1159 3500 
L 1159 2956 
Q 1356 3278 1631 3431 
Q 1906 3584 2284 3584 
Q 2666 3584 2933 3390 
Q 3200 3197 3328 2828 
z
" transform="scale(0.015625)"/>
       <path id="DejaVuSans-62" d="M 3116 1747 
Q 3116 2381 2855 2742 
Q 2594 3103 2138 3103 
Q 1681 3103 1420 2742 
Q 1159 2381 1159 1747 
Q 1159 1113 1420 752 
Q 1681 391 2138 391 
Q 2594 391 2855 752 
Q 3116 1113 3116 1747 
z
M 1159 2969 
Q 1341 3281 1617 3432 
Q 1894 3584 2278 3584 
Q 2916 3584 3314 3078 
Q 3713 2572 3713 1747 
Q 3713 922 3314 415 
Q 2916 -91 2278 -91 
Q 1894 -91 1617 61 
Q 1341 213 1159 525 
L 1159 0 
L 581 0 
L 581 4863 
L 1159 4863 
L 1159 2969 
z
" transform="scale(0.015625)"/>
       <path id="DejaVuSans-65" d="M 3597 1894 
L 3597 1613 
L 953 1613 
Q 991 1019 1311 708 
Q 1631 397 2203 397 
Q 2534 397 2845 478 
Q 3156 559 3463 722 
L 3463 178 
Q 3153 47 2828 -22 
Q 2503 -91 2169 -91 
Q 1331 -91 842 396 
Q 353 884 353 1716 
Q 353 2575 817 3079 
Q 1281 3584 2069 3584 
Q 2775 3584 3186 3129 
Q 3597 2675 3597 1894 
z
M 3022 2063 
Q 3016 2534 2758 2815 
Q 2500 3097 2075 3097 
Q 1594 3097 1305 2825 
Q 1016 2553 972 2059 
L 3022 2063 
z
" transform="scale(0.015625)"/>
       <path id="DejaVuSans-72" d="M 2631 2963 
Q 2534 3019 2420 3045 
Q 2306 3072 2169 3072 
Q 1681 3072 1420 2755 
Q 1159 2438 1159 1844 
L 1159 0 
L 581 0 
L 581 3500 
L 1159 3500 
L 1159 2956 
Q 1341 3275 1631 3429 
Q 1922 3584 2338 3584 
Q 2397 3584 2469 3576 
Q 2541 3569 2628 3553 
L 2631 2963 
z
" transform="scale(0.015625)"/>
       <path id="DejaVuSans-20" transform="scale(0.015625)"/>
       <path id="DejaVuSans-6f" d="M 1959 3097 
Q 1497 3097 1228 2736 
Q 959 2375 959 1747 
Q 959 1119 1226 758 
Q 1494 397 1959 397 
Q 2419 397 2687 759 
Q 2956 1122 2956 1747 
Q 2956 2369 2687 2733 
Q 2419 3097 1959 3097 
z
M 1959 3584 
Q 2709 3584 3137 3096 
Q 3566 2609 3566 1747 
Q 3566 888 3137 398 
Q 2709 -91 1959 -91 
Q 1206 -91 779 398 
Q 353 888 353 1747 
Q 353 2609 779 3096 
Q 1206 3584 1959 3584 
z
" transform="scale(0.015625)"/>
       <path id="DejaVuSans-66" d="M 2375 4863 
L 2375 4384 
L 1825 4384 
Q 1516 4384 1395 4259 
Q 1275 4134 1275 3809 
L 1275 3500 
L 2222 3500 
L 2222 3053 
L 1275 3053 
L 1275 0 
L 697 0 
L 697 3053 
L 147 3053 
L 147 3500 
L 697 3500 
L 697 3744 
Q 697 4328 969 4595 
Q 1241 4863 1831 4863 
L 2375 4863 
z
" transform="scale(0.015625)"/>
       <path id="DejaVuSans-44" d="M 1259 4147 
L 1259 519 
L 2022 519 
Q 2988 519 3436 956 
Q 3884 1394 3884 2338 
Q 3884 3275 3436 3711 
Q 2988 4147 2022 4147 
L 1259 4147 
z
M 628 4666 
L 1925 4666 
Q 3281 4666 3915 4102 
Q 4550 3538 4550 2338 
Q 4550 1131 3912 565 
Q 3275 0 1925 0 
L 628 0 
L 628 4666 
z
" transform="scale(0.015625)"/>
       <path id="DejaVuSans-69" d="M 603 3500 
L 1178 3500 
L 1178 0 
L 603 0 
L 603 3500 
z
M 603 4863 
L 1178 4863 
L 1178 4134 
L 603 4134 
L 603 4863 
z
" transform="scale(0.015625)"/>
       <path id="DejaVuSans-73" d="M 2834 3397 
L 2834 2853 
Q 2591 2978 2328 3040 
Q 2066 3103 1784 3103 
Q 1356 3103 1142 2972 
Q 928 2841 928 2578 
Q 928 2378 1081 2264 
Q 1234 2150 1697 2047 
L 1894 2003 
Q 2506 1872 2764 1633 
Q 3022 1394 3022 966 
Q 3022 478 2636 193 
Q 2250 -91 1575 -91 
Q 1294 -91 989 -36 
Q 684 19 347 128 
L 347 722 
Q 666 556 975 473 
Q 1284 391 1588 391 
Q 1994 391 2212 530 
Q 2431 669 2431 922 
Q 2431 1156 2273 1281 
Q 2116 1406 1581 1522 
L 1381 1569 
Q 847 1681 609 1914 
Q 372 2147 372 2553 
Q 372 3047 722 3315 
Q 1072 3584 1716 3584 
Q 2034 3584 2315 3537 
Q 2597 3491 2834 3397 
z
" transform="scale(0.015625)"/>
       <path id="DejaVuSans-63" d="M 3122 3366 
L 3122 2828 
Q 2878 2963 2633 3030 
Q 2388 3097 2138 3097 
Q 1578 3097 1268 2742 
Q 959 2388 959 1747 
Q 959 1106 1268 751 
Q 1578 397 2138 397 
Q 2388 397 2633 464 
Q 2878 531 3122 666 
L 3122 134 
Q 2881 22 2623 -34 
Q 2366 -91 2075 -91 
Q 1284 -91 818 406 
Q 353 903 353 1747 
Q 353 2603 823 3093 
Q 1294 3584 2113 3584 
Q 2378 3584 2631 3529 
Q 2884 3475 3122 3366 
z
" transform="scale(0.015625)"/>
      </defs>
      <use xlink:href="#DejaVuSans-4e"/>
      <use xlink:href="#DejaVuSans-75" transform="translate(74.804688 0)"/>
      <use xlink:href="#DejaVuSans-6d" transform="translate(138.183594 0)"/>
      <use xlink:href="#DejaVuSans-62" transform="translate(235.595703 0)"/>
      <use xlink:href="#DejaVuSans-65" transform="translate(299.072266 0)"/>
      <use xlink:href="#DejaVuSans-72" transform="translate(360.595703 0)"/>
      <use xlink:href="#DejaVuSans-20" transform="translate(401.708984 0)"/>
      <use xlink:href="#DejaVuSans-6f" transform="translate(433.496094 0)"/>
      <use xlink:href="#DejaVuSans-66" transform="translate(494.677734 0)"/>
      <use xlink:href="#DejaVuSans-20" transform="translate(529.882812 0)"/>
      <use xlink:href="#DejaVuSans-44" transform="translate(561.669922 0)"/>
      <use xlink:href="#DejaVuSans-69" transform="translate(638.671875 0)"/>
      <use xlink:href="#DejaVuSans-73" transform="translate(666.455078 0)"/>
      <use xlink:href="#DejaVuSans-63" transform="translate(718.554688 0)"/>
      <use xlink:href="#DejaVuSans-73" transform="translate(773.535156 0)"/>
     </g>
    </g>
   </g>
   <g id="matplotlib.axis_2">
    <g id="ytick_1">
     <g id="line2d_15">
      <path d="M 163.36 243.746734 
L 818.36 243.746734 
" clip-path="url(#p5851cbf8a5)" style="fill: none; stroke: #b0b0b0; stroke-opacity: 0.3; stroke-width: 0.8; stroke-linecap: square"/>
     </g>
     <g id="line2d_16">
      <defs>
       <path id="me1329ced01" d="M 0 0 
L -3.5 0 
" style="stroke: #000000; stroke-width: 0.8"/>
      </defs>
      <g>
       <use xlink:href="#me1329ced01" x="163.36" y="243.746734" style="stroke: #000000; stroke-width: 0.8"/>
      </g>
     </g>
     <g id="text_9">
      <!-- 12.5 -->
      <g transform="translate(134.094375 247.545953) scale(0.1 -0.1)">
       <defs>
        <path id="DejaVuSans-2e" d="M 684 794 
L 1344 794 
L 1344 0 
L 684 0 
L 684 794 
z
" transform="scale(0.015625)"/>
       </defs>
       <use xlink:href="#DejaVuSans-31"/>
       <use xlink:href="#DejaVuSans-32" transform="translate(63.623047 0)"/>
       <use xlink:href="#DejaVuSans-2e" transform="translate(127.246094 0)"/>
       <use xlink:href="#DejaVuSans-35" transform="translate(159.033203 0)"/>
      </g>
     </g>
    </g>
    <g id="ytick_2">
     <g id="line2d_17">
      <path d="M 163.36 214.001085 
L 818.36 214.001085 
" clip-path="url(#p5851cbf8a5)" style="fill: none; stroke: #b0b0b0; stroke-opacity: 0.3; stroke-width: 0.8; stroke-linecap: square"/>
     </g>
     <g id="line2d_18">
      <g>
       <use xlink:href="#me1329ced01" x="163.36" y="214.001085" style="stroke: #000000; stroke-width: 0.8"/>
      </g>
     </g>
     <g id="text_10">
      <!-- 15.0 -->
      <g transform="translate(134.094375 217.800304) scale(0.1 -0.1)">
       <use xlink:href="#DejaVuSans-31"/>
       <use xlink:href="#DejaVuSans-35" transform="translate(63.623047 0)"/>
       <use xlink:href="#DejaVuSans-2e" transform="translate(127.246094 0)"/>
       <use xlink:href="#DejaVuSans-30" transform="translate(159.033203 0)"/>
      </g>
     </g>
    </g>
    <g id="ytick_3">
     <g id="line2d_19">
      <path d="M 163.36 184.255436 
L 818.36 184.255436 
" clip-path="url(#p5851cbf8a5)" style="fill: none; stroke: #b0b0b0; stroke-opacity: 0.3; stroke-width: 0.8; stroke-linecap: square"/>
     </g>
     <g id="line2d_20">
      <g>
       <use xlink:href="#me1329ced01" x="163.36" y="184.255436" style="stroke: #000000; stroke-width: 0.8"/>
      </g>
     </g>
     <g id="text_11">
      <!-- 17.5 -->
      <g transform="translate(134.094375 188.054655) scale(0.1 -0.1)">
       <defs>
        <path id="DejaVuSans-37" d="M 525 4666 
L 3525 4666 
L 3525 4397 
L 1831 0 
L 1172 0 
L 2766 4134 
L 525 4134 
L 525 4666 
z
" transform="scale(0.015625)"/>
       </defs>
       <use xlink:href="#DejaVuSans-31"/>
       <use xlink:href="#DejaVuSans-37" transform="translate(63.623047 0)"/>
       <use xlink:href="#DejaVuSans-2e" transform="translate(127.246094 0)"/>
       <use xlink:href="#DejaVuSans-35" transform="translate(159.033203 0)"/>
      </g>
     </g>
    </g>
    <g id="ytick_4">
     <g id="line2d_21">
      <path d="M 163.36 154.509787 
L 818.36 154.509787 
" clip-path="url(#p5851cbf8a5)" style="fill: none; stroke: #b0b0b0; stroke-opacity: 0.3; stroke-width: 0.8; stroke-linecap: square"/>
     </g>
     <g id="line2d_22">
      <g>
       <use xlink:href="#me1329ced01" x="163.36" y="154.509787" style="stroke: #000000; stroke-width: 0.8"/>
      </g>
     </g>
     <g id="text_12">
      <!-- 20.0 -->
      <g transform="translate(134.094375 158.309006) scale(0.1 -0.1)">
       <use xlink:href="#DejaVuSans-32"/>
       <use xlink:href="#DejaVuSans-30" transform="translate(63.623047 0)"/>
       <use xlink:href="#DejaVuSans-2e" transform="translate(127.246094 0)"/>
       <use xlink:href="#DejaVuSans-30" transform="translate(159.033203 0)"/>
      </g>
     </g>
    </g>
    <g id="ytick_5">
     <g id="line2d_23">
      <path d="M 163.36 124.764138 
L 818.36 124.764138 
" clip-path="url(#p5851cbf8a5)" style="fill: none; stroke: #b0b0b0; stroke-opacity: 0.3; stroke-width: 0.8; stroke-linecap: square"/>
     </g>
     <g id="line2d_24">
      <g>
       <use xlink:href="#me1329ced01" x="163.36" y="124.764138" style="stroke: #000000; stroke-width: 0.8"/>
      </g>
     </g>
     <g id="text_13">
      <!-- 22.5 -->
      <g transform="translate(134.094375 128.563357) scale(0.1 -0.1)">
       <use xlink:href="#DejaVuSans-32"/>
       <use xlink:href="#DejaVuSans-32" transform="translate(63.623047 0)"/>
       <use xlink:href="#DejaVuSans-2e" transform="translate(127.246094 0)"/>
       <use xlink:href="#DejaVuSans-35" transform="translate(159.033203 0)"/>
      </g>
     </g>
    </g>
    <g id="ytick_6">
     <g id="line2d_25">
      <path d="M 163.36 95.018489 
L 818.36 95.018489 
" clip-path="url(#p5851cbf8a5)" style="fill: none; stroke: #b0b0b0; stroke-opacity: 0.3; stroke-width: 0.8; stroke-linecap: square"/>
     </g>
     <g id="line2d_26">
      <g>
       <use xlink:href="#me1329ced01" x="163.36" y="95.018489" style="stroke: #000000; stroke-width: 0.8"/>
      </g>
     </g>
     <g id="text_14">
      <!-- 25.0 -->
      <g transform="translate(134.094375 98.817708) scale(0.1 -0.1)">
       <use xlink:href="#DejaVuSans-32"/>
       <use xlink:href="#DejaVuSans-35" transform="translate(63.623047 0)"/>
       <use xlink:href="#DejaVuSans-2e" transform="translate(127.246094 0)"/>
       <use xlink:href="#DejaVuSans-30" transform="translate(159.033203 0)"/>
      </g>
     </g>
    </g>
    <g id="ytick_7">
     <g id="line2d_27">
      <path d="M 163.36 65.27284 
L 818.36 65.27284 
" clip-path="url(#p5851cbf8a5)" style="fill: none; stroke: #b0b0b0; stroke-opacity: 0.3; stroke-width: 0.8; stroke-linecap: square"/>
     </g>
     <g id="line2d_28">
      <g>
       <use xlink:href="#me1329ced01" x="163.36" y="65.27284" style="stroke: #000000; stroke-width: 0.8"/>
      </g>
     </g>
     <g id="text_15">
      <!-- 27.5 -->
      <g transform="translate(134.094375 69.072059) scale(0.1 -0.1)">
       <use xlink:href="#DejaVuSans-32"/>
       <use xlink:href="#DejaVuSans-37" transform="translate(63.623047 0)"/>
       <use xlink:href="#DejaVuSans-2e" transform="translate(127.246094 0)"/>
       <use xlink:href="#DejaVuSans-35" transform="translate(159.033203 0)"/>
      </g>
     </g>
    </g>
    <g id="text_16">
     <!-- Estimated Relative Pressure Drop (arbitrary units) -->
     <g transform="translate(128.014688 272.528875) rotate(-90) scale(0.1 -0.1)">
      <defs>
       <path id="DejaVuSans-45" d="M 628 4666 
L 3578 4666 
L 3578 4134 
L 1259 4134 
L 1259 2753 
L 3481 2753 
L 3481 2222 
L 1259 2222 
L 1259 531 
L 3634 531 
L 3634 0 
L 628 0 
L 628 4666 
z
" transform="scale(0.015625)"/>
       <path id="DejaVuSans-74" d="M 1172 4494 
L 1172 3500 
L 2356 3500 
L 2356 3053 
L 1172 3053 
L 1172 1153 
Q 1172 725 1289 603 
Q 1406 481 1766 481 
L 2356 481 
L 2356 0 
L 1766 0 
Q 1100 0 847 248 
Q 594 497 594 1153 
L 594 3053 
L 172 3053 
L 172 3500 
L 594 3500 
L 594 4494 
L 1172 4494 
z
" transform="scale(0.015625)"/>
       <path id="DejaVuSans-61" d="M 2194 1759 
Q 1497 1759 1228 1600 
Q 959 1441 959 1056 
Q 959 750 1161 570 
Q 1363 391 1709 391 
Q 2188 391 2477 730 
Q 2766 1069 2766 1631 
L 2766 1759 
L 2194 1759 
z
M 3341 1997 
L 3341 0 
L 2766 0 
L 2766 531 
Q 2569 213 2275 61 
Q 1981 -91 1556 -91 
Q 1019 -91 701 211 
Q 384 513 384 1019 
Q 384 1609 779 1909 
Q 1175 2209 1959 2209 
L 2766 2209 
L 2766 2266 
Q 2766 2663 2505 2880 
Q 2244 3097 1772 3097 
Q 1472 3097 1187 3025 
Q 903 2953 641 2809 
L 641 3341 
Q 956 3463 1253 3523 
Q 1550 3584 1831 3584 
Q 2591 3584 2966 3190 
Q 3341 2797 3341 1997 
z
" transform="scale(0.015625)"/>
       <path id="DejaVuSans-64" d="M 2906 2969 
L 2906 4863 
L 3481 4863 
L 3481 0 
L 2906 0 
L 2906 525 
Q 2725 213 2448 61 
Q 2172 -91 1784 -91 
Q 1150 -91 751 415 
Q 353 922 353 1747 
Q 353 2572 751 3078 
Q 1150 3584 1784 3584 
Q 2172 3584 2448 3432 
Q 2725 3281 2906 2969 
z
M 947 1747 
Q 947 1113 1208 752 
Q 1469 391 1925 391 
Q 2381 391 2643 752 
Q 2906 1113 2906 1747 
Q 2906 2381 2643 2742 
Q 2381 3103 1925 3103 
Q 1469 3103 1208 2742 
Q 947 2381 947 1747 
z
" transform="scale(0.015625)"/>
       <path id="DejaVuSans-52" d="M 2841 2188 
Q 3044 2119 3236 1894 
Q 3428 1669 3622 1275 
L 4263 0 
L 3584 0 
L 2988 1197 
Q 2756 1666 2539 1819 
Q 2322 1972 1947 1972 
L 1259 1972 
L 1259 0 
L 628 0 
L 628 4666 
L 2053 4666 
Q 2853 4666 3247 4331 
Q 3641 3997 3641 3322 
Q 3641 2881 3436 2590 
Q 3231 2300 2841 2188 
z
M 1259 4147 
L 1259 2491 
L 2053 2491 
Q 2509 2491 2742 2702 
Q 2975 2913 2975 3322 
Q 2975 3731 2742 3939 
Q 2509 4147 2053 4147 
L 1259 4147 
z
" transform="scale(0.015625)"/>
       <path id="DejaVuSans-6c" d="M 603 4863 
L 1178 4863 
L 1178 0 
L 603 0 
L 603 4863 
z
" transform="scale(0.015625)"/>
       <path id="DejaVuSans-76" d="M 191 3500 
L 800 3500 
L 1894 563 
L 2988 3500 
L 3597 3500 
L 2284 0 
L 1503 0 
L 191 3500 
z
" transform="scale(0.015625)"/>
       <path id="DejaVuSans-50" d="M 1259 4147 
L 1259 2394 
L 2053 2394 
Q 2494 2394 2734 2622 
Q 2975 2850 2975 3272 
Q 2975 3691 2734 3919 
Q 2494 4147 2053 4147 
L 1259 4147 
z
M 628 4666 
L 2053 4666 
Q 2838 4666 3239 4311 
Q 3641 3956 3641 3272 
Q 3641 2581 3239 2228 
Q 2838 1875 2053 1875 
L 1259 1875 
L 1259 0 
L 628 0 
L 628 4666 
z
" transform="scale(0.015625)"/>
       <path id="DejaVuSans-70" d="M 1159 525 
L 1159 -1331 
L 581 -1331 
L 581 3500 
L 1159 3500 
L 1159 2969 
Q 1341 3281 1617 3432 
Q 1894 3584 2278 3584 
Q 2916 3584 3314 3078 
Q 3713 2572 3713 1747 
Q 3713 922 3314 415 
Q 2916 -91 2278 -91 
Q 1894 -91 1617 61 
Q 1341 213 1159 525 
z
M 3116 1747 
Q 3116 2381 2855 2742 
Q 2594 3103 2138 3103 
Q 1681 3103 1420 2742 
Q 1159 2381 1159 1747 
Q 1159 1113 1420 752 
Q 1681 391 2138 391 
Q 2594 391 2855 752 
Q 3116 1113 3116 1747 
z
" transform="scale(0.015625)"/>
       <path id="DejaVuSans-28" d="M 1984 4856 
Q 1566 4138 1362 3434 
Q 1159 2731 1159 2009 
Q 1159 1288 1364 580 
Q 1569 -128 1984 -844 
L 1484 -844 
Q 1016 -109 783 600 
Q 550 1309 550 2009 
Q 550 2706 781 3412 
Q 1013 4119 1484 4856 
L 1984 4856 
z
" transform="scale(0.015625)"/>
       <path id="DejaVuSans-79" d="M 2059 -325 
Q 1816 -950 1584 -1140 
Q 1353 -1331 966 -1331 
L 506 -1331 
L 506 -850 
L 844 -850 
Q 1081 -850 1212 -737 
Q 1344 -625 1503 -206 
L 1606 56 
L 191 3500 
L 800 3500 
L 1894 763 
L 2988 3500 
L 3597 3500 
L 2059 -325 
z
" transform="scale(0.015625)"/>
       <path id="DejaVuSans-6e" d="M 3513 2113 
L 3513 0 
L 2938 0 
L 2938 2094 
Q 2938 2591 2744 2837 
Q 2550 3084 2163 3084 
Q 1697 3084 1428 2787 
Q 1159 2491 1159 1978 
L 1159 0 
L 581 0 
L 581 3500 
L 1159 3500 
L 1159 2956 
Q 1366 3272 1645 3428 
Q 1925 3584 2291 3584 
Q 2894 3584 3203 3211 
Q 3513 2838 3513 2113 
z
" transform="scale(0.015625)"/>
       <path id="DejaVuSans-29" d="M 513 4856 
L 1013 4856 
Q 1481 4119 1714 3412 
Q 1947 2706 1947 2009 
Q 1947 1309 1714 600 
Q 1481 -109 1013 -844 
L 513 -844 
Q 928 -128 1133 580 
Q 1338 1288 1338 2009 
Q 1338 2731 1133 3434 
Q 928 4138 513 4856 
z
" transform="scale(0.015625)"/>
      </defs>
      <use xlink:href="#DejaVuSans-45"/>
      <use xlink:href="#DejaVuSans-73" transform="translate(63.183594 0)"/>
      <use xlink:href="#DejaVuSans-74" transform="translate(115.283203 0)"/>
      <use xlink:href="#DejaVuSans-69" transform="translate(154.492188 0)"/>
      <use xlink:href="#DejaVuSans-6d" transform="translate(182.275391 0)"/>
      <use xlink:href="#DejaVuSans-61" transform="translate(279.6875 0)"/>
      <use xlink:href="#DejaVuSans-74" transform="translate(340.966797 0)"/>
      <use xlink:href="#DejaVuSans-65" transform="translate(380.175781 0)"/>
      <use xlink:href="#DejaVuSans-64" transform="translate(441.699219 0)"/>
      <use xlink:href="#DejaVuSans-20" transform="translate(505.175781 0)"/>
      <use xlink:href="#DejaVuSans-52" transform="translate(536.962891 0)"/>
      <use xlink:href="#DejaVuSans-65" transform="translate(601.945312 0)"/>
      <use xlink:href="#DejaVuSans-6c" transform="translate(663.46875 0)"/>
      <use xlink:href="#DejaVuSans-61" transform="translate(691.251953 0)"/>
      <use xlink:href="#DejaVuSans-74" transform="translate(752.53125 0)"/>
      <use xlink:href="#DejaVuSans-69" transform="translate(791.740234 0)"/>
      <use xlink:href="#DejaVuSans-76" transform="translate(819.523438 0)"/>
      <use xlink:href="#DejaVuSans-65" transform="translate(878.703125 0)"/>
      <use xlink:href="#DejaVuSans-20" transform="translate(940.226562 0)"/>
      <use xlink:href="#DejaVuSans-50" transform="translate(972.013672 0)"/>
      <use xlink:href="#DejaVuSans-72" transform="translate(1030.566406 0)"/>
      <use xlink:href="#DejaVuSans-65" transform="translate(1069.429688 0)"/>
      <use xlink:href="#DejaVuSans-73" transform="translate(1130.953125 0)"/>
      <use xlink:href="#DejaVuSans-73" transform="translate(1183.052734 0)"/>
      <use xlink:href="#DejaVuSans-75" transform="translate(1235.152344 0)"/>
      <use xlink:href="#DejaVuSans-72" transform="translate(1298.53125 0)"/>
      <use xlink:href="#DejaVuSans-65" transform="translate(1337.394531 0)"/>
      <use xlink:href="#DejaVuSans-20" transform="translate(1398.917969 0)"/>
      <use xlink:href="#DejaVuSans-44" transform="translate(1430.705078 0)"/>
      <use xlink:href="#DejaVuSans-72" transform="translate(1507.707031 0)"/>
      <use xlink:href="#DejaVuSans-6f" transform="translate(1546.570312 0)"/>
      <use xlink:href="#DejaVuSans-70" transform="translate(1607.751953 0)"/>
      <use xlink:href="#DejaVuSans-20" transform="translate(1671.228516 0)"/>
      <use xlink:href="#DejaVuSans-28" transform="translate(1703.015625 0)"/>
      <use xlink:href="#DejaVuSans-61" transform="translate(1742.029297 0)"/>
      <use xlink:href="#DejaVuSans-72" transform="translate(1803.308594 0)"/>
      <use xlink:href="#DejaVuSans-62" transform="translate(1844.421875 0)"/>
      <use xlink:href="#DejaVuSans-69" transform="translate(1907.898438 0)"/>
      <use xlink:href="#DejaVuSans-74" transform="translate(1935.681641 0)"/>
      <use xlink:href="#DejaVuSans-72" transform="translate(1974.890625 0)"/>
      <use xlink:href="#DejaVuSans-61" transform="translate(2016.003906 0)"/>
      <use xlink:href="#DejaVuSans-72" transform="translate(2077.283203 0)"/>
      <use xlink:href="#DejaVuSans-79" transform="translate(2118.396484 0)"/>
      <use xlink:href="#DejaVuSans-20" transform="translate(2177.576172 0)"/>
      <use xlink:href="#DejaVuSans-75" transform="translate(2209.363281 0)"/>
      <use xlink:href="#DejaVuSans-6e" transform="translate(2272.742188 0)"/>
      <use xlink:href="#DejaVuSans-69" transform="translate(2336.121094 0)"/>
      <use xlink:href="#DejaVuSans-74" transform="translate(2363.904297 0)"/>
      <use xlink:href="#DejaVuSans-73" transform="translate(2403.113281 0)"/>
      <use xlink:href="#DejaVuSans-29" transform="translate(2455.212891 0)"/>
     </g>
    </g>
   </g>
   <g id="line2d_29">
    <path d="M 193.132727 249.695864 
L 230.348636 230.393902 
L 267.564545 214.90406 
L 304.780455 200.587608 
L 341.996364 186.983606 
L 379.212273 173.885959 
L 416.428182 161.178187 
L 453.644091 148.78573 
L 490.86 136.656961 
L 528.075909 124.754115 
L 565.291818 113.048441 
L 602.507727 101.517352 
L 639.723636 90.142669 
L 676.939545 78.909459 
L 714.155455 67.805255 
L 751.371364 56.819497 
L 788.587273 45.943136 
" clip-path="url(#p5851cbf8a5)" style="fill: none; stroke: #800080; stroke-width: 1.5; stroke-linecap: square"/>
    <defs>
     <path id="m167908f382" d="M -2.5 2.5 
L 2.5 2.5 
L 2.5 -2.5 
L -2.5 -2.5 
z
" style="stroke: #800080; stroke-linejoin: miter"/>
    </defs>
    <g clip-path="url(#p5851cbf8a5)">
     <use xlink:href="#m167908f382" x="193.132727" y="249.695864" style="fill: #800080; stroke: #800080; stroke-linejoin: miter"/>
     <use xlink:href="#m167908f382" x="230.348636" y="230.393902" style="fill: #800080; stroke: #800080; stroke-linejoin: miter"/>
     <use xlink:href="#m167908f382" x="267.564545" y="214.90406" style="fill: #800080; stroke: #800080; stroke-linejoin: miter"/>
     <use xlink:href="#m167908f382" x="304.780455" y="200.587608" style="fill: #800080; stroke: #800080; stroke-linejoin: miter"/>
     <use xlink:href="#m167908f382" x="341.996364" y="186.983606" style="fill: #800080; stroke: #800080; stroke-linejoin: miter"/>
     <use xlink:href="#m167908f382" x="379.212273" y="173.885959" style="fill: #800080; stroke: #800080; stroke-linejoin: miter"/>
     <use xlink:href="#m167908f382" x="416.428182" y="161.178187" style="fill: #800080; stroke: #800080; stroke-linejoin: miter"/>
     <use xlink:href="#m167908f382" x="453.644091" y="148.78573" style="fill: #800080; stroke: #800080; stroke-linejoin: miter"/>
     <use xlink:href="#m167908f382" x="490.86" y="136.656961" style="fill: #800080; stroke: #800080; stroke-linejoin: miter"/>
     <use xlink:href="#m167908f382" x="528.075909" y="124.754115" style="fill: #800080; stroke: #800080; stroke-linejoin: miter"/>
     <use xlink:href="#m167908f382" x="565.291818" y="113.048441" style="fill: #800080; stroke: #800080; stroke-linejoin: miter"/>
     <use xlink:href="#m167908f382" x="602.507727" y="101.517352" style="fill: #800080; stroke: #800080; stroke-linejoin: miter"/>
     <use xlink:href="#m167908f382" x="639.723636" y="90.142669" style="fill: #800080; stroke: #800080; stroke-linejoin: miter"/>
     <use xlink:href="#m167908f382" x="676.939545" y="78.909459" style="fill: #800080; stroke: #800080; stroke-linejoin: miter"/>
     <use xlink:href="#m167908f382" x="714.155455" y="67.805255" style="fill: #800080; stroke: #800080; stroke-linejoin: miter"/>
     <use xlink:href="#m167908f382" x="751.371364" y="56.819497" style="fill: #800080; stroke: #800080; stroke-linejoin: miter"/>
     <use xlink:href="#m167908f382" x="788.587273" y="45.943136" style="fill: #800080; stroke: #800080; stroke-linejoin: miter"/>
    </g>
   </g>
   <g id="line2d_30">
    <path d="M 509.467955 259.8835 
L 509.467955 35.7555 
" clip-path="url(#p5851cbf8a5)" style="fill: none; stroke-dasharray: 5.55,2.4; stroke-dashoffset: 0; stroke: #808080; stroke-opacity: 0.6; stroke-width: 1.5"/>
   </g>
   <g id="patch_3">
    <path d="M 163.36 259.8835 
L 163.36 35.7555 
" style="fill: none; stroke: #000000; stroke-width: 0.8; stroke-linejoin: miter; stroke-linecap: square"/>
   </g>
   <g id="patch_4">
    <path d="M 818.36 259.8835 
L 818.36 35.7555 
" style="fill: none; stroke: #000000; stroke-width: 0.8; stroke-linejoin: miter; stroke-linecap: square"/>
   </g>
   <g id="patch_5">
    <path d="M 163.36 259.8835 
L 818.36 259.8835 
" style="fill: none; stroke: #000000; stroke-width: 0.8; stroke-linejoin: miter; stroke-linecap: square"/>
   </g>
   <g id="patch_6">
    <path d="M 163.36 35.7555 
L 818.36 35.7555 
" style="fill: none; stroke: #000000; stroke-width: 0.8; stroke-linejoin: miter; stroke-linecap: square"/>
   </g>
   <g id="text_17">
    <!-- Effect of Stack Height (Number of Discs) on System Pressure Drop -->
    <g transform="translate(291.90375 16.318125) scale(0.12 -0.12)">
     <defs>
      <path id="DejaVuSans-53" d="M 3425 4513 
L 3425 3897 
Q 3066 4069 2747 4153 
Q 2428 4238 2131 4238 
Q 1616 4238 1336 4038 
Q 1056 3838 1056 3469 
Q 1056 3159 1242 3001 
Q 1428 2844 1947 2747 
L 2328 2669 
Q 3034 2534 3370 2195 
Q 3706 1856 3706 1288 
Q 3706 609 3251 259 
Q 2797 -91 1919 -91 
Q 1588 -91 1214 -16 
Q 841 59 441 206 
L 441 856 
Q 825 641 1194 531 
Q 1563 422 1919 422 
Q 2459 422 2753 634 
Q 3047 847 3047 1241 
Q 3047 1584 2836 1778 
Q 2625 1972 2144 2069 
L 1759 2144 
Q 1053 2284 737 2584 
Q 422 2884 422 3419 
Q 422 4038 858 4394 
Q 1294 4750 2059 4750 
Q 2388 4750 2728 4690 
Q 3069 4631 3425 4513 
z
" transform="scale(0.015625)"/>
      <path id="DejaVuSans-6b" d="M 581 4863 
L 1159 4863 
L 1159 1991 
L 2875 3500 
L 3609 3500 
L 1753 1863 
L 3688 0 
L 2938 0 
L 1159 1709 
L 1159 0 
L 581 0 
L 581 4863 
z
" transform="scale(0.015625)"/>
      <path id="DejaVuSans-48" d="M 628 4666 
L 1259 4666 
L 1259 2753 
L 3553 2753 
L 3553 4666 
L 4184 4666 
L 4184 0 
L 3553 0 
L 3553 2222 
L 1259 2222 
L 1259 0 
L 628 0 
L 628 4666 
z
" transform="scale(0.015625)"/>
      <path id="DejaVuSans-67" d="M 2906 1791 
Q 2906 2416 2648 2759 
Q 2391 3103 1925 3103 
Q 1463 3103 1205 2759 
Q 947 2416 947 1791 
Q 947 1169 1205 825 
Q 1463 481 1925 481 
Q 2391 481 2648 825 
Q 2906 1169 2906 1791 
z
M 3481 434 
Q 3481 -459 3084 -895 
Q 2688 -1331 1869 -1331 
Q 1566 -1331 1297 -1286 
Q 1028 -1241 775 -1147 
L 775 -588 
Q 1028 -725 1275 -790 
Q 1522 -856 1778 -856 
Q 2344 -856 2625 -561 
Q 2906 -266 2906 331 
L 2906 616 
Q 2728 306 2450 153 
Q 2172 0 1784 0 
Q 1141 0 747 490 
Q 353 981 353 1791 
Q 353 2603 747 3093 
Q 1141 3584 1784 3584 
Q 2172 3584 2450 3431 
Q 2728 3278 2906 2969 
L 2906 3500 
L 3481 3500 
L 3481 434 
z
" transform="scale(0.015625)"/>
      <path id="DejaVuSans-68" d="M 3513 2113 
L 3513 0 
L 2938 0 
L 2938 2094 
Q 2938 2591 2744 2837 
Q 2550 3084 2163 3084 
Q 1697 3084 1428 2787 
Q 1159 2491 1159 1978 
L 1159 0 
L 581 0 
L 581 4863 
L 1159 4863 
L 1159 2956 
Q 1366 3272 1645 3428 
Q 1925 3584 2291 3584 
Q 2894 3584 3203 3211 
Q 3513 2838 3513 2113 
z
" transform="scale(0.015625)"/>
     </defs>
     <use xlink:href="#DejaVuSans-45"/>
     <use xlink:href="#DejaVuSans-66" transform="translate(63.183594 0)"/>
     <use xlink:href="#DejaVuSans-66" transform="translate(98.388672 0)"/>
     <use xlink:href="#DejaVuSans-65" transform="translate(133.59375 0)"/>
     <use xlink:href="#DejaVuSans-63" transform="translate(195.117188 0)"/>
     <use xlink:href="#DejaVuSans-74" transform="translate(250.097656 0)"/>
     <use xlink:href="#DejaVuSans-20" transform="translate(289.306641 0)"/>
     <use xlink:href="#DejaVuSans-6f" transform="translate(321.09375 0)"/>
     <use xlink:href="#DejaVuSans-66" transform="translate(382.275391 0)"/>
     <use xlink:href="#DejaVuSans-20" transform="translate(417.480469 0)"/>
     <use xlink:href="#DejaVuSans-53" transform="translate(449.267578 0)"/>
     <use xlink:href="#DejaVuSans-74" transform="translate(512.744141 0)"/>
     <use xlink:href="#DejaVuSans-61" transform="translate(551.953125 0)"/>
     <use xlink:href="#DejaVuSans-63" transform="translate(613.232422 0)"/>
     <use xlink:href="#DejaVuSans-6b" transform="translate(668.212891 0)"/>
     <use xlink:href="#DejaVuSans-20" transform="translate(726.123047 0)"/>
     <use xlink:href="#DejaVuSans-48" transform="translate(757.910156 0)"/>
     <use xlink:href="#DejaVuSans-65" transform="translate(833.105469 0)"/>
     <use xlink:href="#DejaVuSans-69" transform="translate(894.628906 0)"/>
     <use xlink:href="#DejaVuSans-67" transform="translate(922.412109 0)"/>
     <use xlink:href="#DejaVuSans-68" transform="translate(985.888672 0)"/>
     <use xlink:href="#DejaVuSans-74" transform="translate(1049.267578 0)"/>
     <use xlink:href="#DejaVuSans-20" transform="translate(1088.476562 0)"/>
     <use xlink:href="#DejaVuSans-28" transform="translate(1120.263672 0)"/>
     <use xlink:href="#DejaVuSans-4e" transform="translate(1159.277344 0)"/>
     <use xlink:href="#DejaVuSans-75" transform="translate(1234.082031 0)"/>
     <use xlink:href="#DejaVuSans-6d" transform="translate(1297.460938 0)"/>
     <use xlink:href="#DejaVuSans-62" transform="translate(1394.873047 0)"/>
     <use xlink:href="#DejaVuSans-65" transform="translate(1458.349609 0)"/>
     <use xlink:href="#DejaVuSans-72" transform="translate(1519.873047 0)"/>
     <use xlink:href="#DejaVuSans-20" transform="translate(1560.986328 0)"/>
     <use xlink:href="#DejaVuSans-6f" transform="translate(1592.773438 0)"/>
     <use xlink:href="#DejaVuSans-66" transform="translate(1653.955078 0)"/>
     <use xlink:href="#DejaVuSans-20" transform="translate(1689.160156 0)"/>
     <use xlink:href="#DejaVuSans-44" transform="translate(1720.947266 0)"/>
     <use xlink:href="#DejaVuSans-69" transform="translate(1797.949219 0)"/>
     <use xlink:href="#DejaVuSans-73" transform="translate(1825.732422 0)"/>
     <use xlink:href="#DejaVuSans-63" transform="translate(1877.832031 0)"/>
     <use xlink:href="#DejaVuSans-73" transform="translate(1932.8125 0)"/>
     <use xlink:href="#DejaVuSans-29" transform="translate(1984.912109 0)"/>
     <use xlink:href="#DejaVuSans-20" transform="translate(2023.925781 0)"/>
     <use xlink:href="#DejaVuSans-6f" transform="translate(2055.712891 0)"/>
     <use xlink:href="#DejaVuSans-6e" transform="translate(2116.894531 0)"/>
     <use xlink:href="#DejaVuSans-20" transform="translate(2180.273438 0)"/>
     <use xlink:href="#DejaVuSans-53" transform="translate(2212.060547 0)"/>
     <use xlink:href="#DejaVuSans-79" transform="translate(2275.537109 0)"/>
     <use xlink:href="#DejaVuSans-73" transform="translate(2334.716797 0)"/>
     <use xlink:href="#DejaVuSans-74" transform="translate(2386.816406 0)"/>
     <use xlink:href="#DejaVuSans-65" transform="translate(2426.025391 0)"/>
     <use xlink:href="#DejaVuSans-6d" transform="translate(2487.548828 0)"/>
     <use xlink:href="#DejaVuSans-20" transform="translate(2584.960938 0)"/>
     <use xlink:href="#DejaVuSans-50" transform="translate(2616.748047 0)"/>
     <use xlink:href="#DejaVuSans-72" transform="translate(2675.300781 0)"/>
     <use xlink:href="#DejaVuSans-65" transform="translate(2714.164062 0)"/>
     <use xlink:href="#DejaVuSans-73" transform="translate(2775.6875 0)"/>
     <use xlink:href="#DejaVuSans-73" transform="translate(2827.787109 0)"/>
     <use xlink:href="#DejaVuSans-75" transform="translate(2879.886719 0)"/>
     <use xlink:href="#DejaVuSans-72" transform="translate(2943.265625 0)"/>
     <use xlink:href="#DejaVuSans-65" transform="translate(2982.128906 0)"/>
     <use xlink:href="#DejaVuSans-20" transform="translate(3043.652344 0)"/>
     <use xlink:href="#DejaVuSans-44" transform="translate(3075.439453 0)"/>
     <use xlink:href="#DejaVuSans-72" transform="translate(3152.441406 0)"/>
     <use xlink:href="#DejaVuSans-6f" transform="translate(3191.304688 0)"/>
     <use xlink:href="#DejaVuSans-70" transform="translate(3252.486328 0)"/>
    </g>
    <!-- (Simplified Model) -->
    <g transform="translate(436.512188 29.7555) scale(0.12 -0.12)">
     <defs>
      <path id="DejaVuSans-4d" d="M 628 4666 
L 1569 4666 
L 2759 1491 
L 3956 4666 
L 4897 4666 
L 4897 0 
L 4281 0 
L 4281 4097 
L 3078 897 
L 2444 897 
L 1241 4097 
L 1241 0 
L 628 0 
L 628 4666 
z
" transform="scale(0.015625)"/>
     </defs>
     <use xlink:href="#DejaVuSans-28"/>
     <use xlink:href="#DejaVuSans-53" transform="translate(39.013672 0)"/>
     <use xlink:href="#DejaVuSans-69" transform="translate(102.490234 0)"/>
     <use xlink:href="#DejaVuSans-6d" transform="translate(130.273438 0)"/>
     <use xlink:href="#DejaVuSans-70" transform="translate(227.685547 0)"/>
     <use xlink:href="#DejaVuSans-6c" transform="translate(291.162109 0)"/>
     <use xlink:href="#DejaVuSans-69" transform="translate(318.945312 0)"/>
     <use xlink:href="#DejaVuSans-66" transform="translate(346.728516 0)"/>
     <use xlink:href="#DejaVuSans-69" transform="translate(381.933594 0)"/>
     <use xlink:href="#DejaVuSans-65" transform="translate(409.716797 0)"/>
     <use xlink:href="#DejaVuSans-64" transform="translate(471.240234 0)"/>
     <use xlink:href="#DejaVuSans-20" transform="translate(534.716797 0)"/>
     <use xlink:href="#DejaVuSans-4d" transform="translate(566.503906 0)"/>
     <use xlink:href="#DejaVuSans-6f" transform="translate(652.783203 0)"/>
     <use xlink:href="#DejaVuSans-64" transform="translate(713.964844 0)"/>
     <use xlink:href="#DejaVuSans-65" transform="translate(777.441406 0)"/>
     <use xlink:href="#DejaVuSans-6c" transform="translate(838.964844 0)"/>
     <use xlink:href="#DejaVuSans-29" transform="translate(866.748047 0)"/>
    </g>
   </g>
  </g>
  <g id="text_18">
   <g id="patch_7">
    <path d="M 7.2 334.70725 
L 931.12 334.70725 
Q 933.52 334.70725 933.52 332.30725 
L 933.52 324.56475 
Q 933.52 322.16475 931.12 322.16475 
L 7.2 322.16475 
Q 4.8 322.16475 4.8 324.56475 
L 4.8 332.30725 
Q 4.8 334.70725 7.2 334.70725 
z
" style="fill: #d5f5e3; opacity: 0.85; stroke: #000000; stroke-linejoin: miter"/>
   </g>
   <!-- Note: This is a rough scaling estimate. Actual pressure drop also depends strongly on gap size, surface roughness, and nozzle design. Useful for understanding trade-offs between conditioning quality and driving pressure required. -->
   <g transform="translate(7.2 330.6435) scale(0.08 -0.08)">
    <defs>
     <path id="DejaVuSans-Oblique-4e" d="M 1081 4666 
L 1931 4666 
L 3219 666 
L 4000 4666 
L 4616 4666 
L 3706 0 
L 2853 0 
L 1569 4025 
L 788 0 
L 172 0 
L 1081 4666 
z
" transform="scale(0.015625)"/>
     <path id="DejaVuSans-Oblique-6f" d="M 1625 -91 
Q 1009 -91 651 289 
Q 294 669 294 1325 
Q 294 1706 417 2101 
Q 541 2497 738 2766 
Q 1047 3184 1428 3384 
Q 1809 3584 2291 3584 
Q 2888 3584 3255 3212 
Q 3622 2841 3622 2241 
Q 3622 1825 3500 1412 
Q 3378 1000 3181 728 
Q 2875 309 2494 109 
Q 2113 -91 1625 -91 
z
M 891 1344 
Q 891 869 1089 633 
Q 1288 397 1691 397 
Q 2269 397 2648 901 
Q 3028 1406 3028 2181 
Q 3028 2634 2825 2865 
Q 2622 3097 2228 3097 
Q 1903 3097 1650 2945 
Q 1397 2794 1197 2484 
Q 1050 2253 970 1956 
Q 891 1659 891 1344 
z
" transform="scale(0.015625)"/>
     <path id="DejaVuSans-Oblique-74" d="M 2706 3500 
L 2619 3053 
L 1472 3053 
L 1100 1153 
Q 1081 1047 1072 975 
Q 1063 903 1063 863 
Q 1063 663 1183 572 
Q 1303 481 1569 481 
L 2150 481 
L 2053 0 
L 1503 0 
Q 991 0 739 200 
Q 488 400 488 806 
Q 488 878 497 964 
Q 506 1050 525 1153 
L 897 3053 
L 409 3053 
L 500 3500 
L 978 3500 
L 1172 4494 
L 1747 4494 
L 1556 3500 
L 2706 3500 
z
" transform="scale(0.015625)"/>
     <path id="DejaVuSans-Oblique-65" d="M 3078 2063 
Q 3088 2113 3092 2166 
Q 3097 2219 3097 2272 
Q 3097 2653 2873 2875 
Q 2650 3097 2266 3097 
Q 1838 3097 1509 2826 
Q 1181 2556 1013 2059 
L 3078 2063 
z
M 3578 1613 
L 903 1613 
Q 884 1494 878 1425 
Q 872 1356 872 1306 
Q 872 872 1139 634 
Q 1406 397 1894 397 
Q 2269 397 2603 481 
Q 2938 566 3225 728 
L 3116 159 
Q 2806 34 2476 -28 
Q 2147 -91 1806 -91 
Q 1078 -91 686 257 
Q 294 606 294 1247 
Q 294 1794 489 2264 
Q 684 2734 1063 3103 
Q 1306 3334 1642 3459 
Q 1978 3584 2356 3584 
Q 2950 3584 3301 3228 
Q 3653 2872 3653 2272 
Q 3653 2128 3634 1964 
Q 3616 1800 3578 1613 
z
" transform="scale(0.015625)"/>
     <path id="DejaVuSans-Oblique-3a" d="M 978 3309 
L 1638 3309 
L 1484 2516 
L 825 2516 
L 978 3309 
z
M 488 794 
L 1147 794 
L 991 0 
L 331 0 
L 488 794 
z
" transform="scale(0.015625)"/>
     <path id="DejaVuSans-Oblique-20" transform="scale(0.015625)"/>
     <path id="DejaVuSans-Oblique-54" d="M 378 4666 
L 4325 4666 
L 4225 4134 
L 2559 4134 
L 1759 0 
L 1125 0 
L 1925 4134 
L 275 4134 
L 378 4666 
z
" transform="scale(0.015625)"/>
     <path id="DejaVuSans-Oblique-68" d="M 3566 2113 
L 3156 0 
L 2578 0 
L 2988 2091 
Q 3016 2238 3031 2350 
Q 3047 2463 3047 2528 
Q 3047 2791 2881 2937 
Q 2716 3084 2419 3084 
Q 1956 3084 1617 2771 
Q 1278 2459 1178 1941 
L 800 0 
L 225 0 
L 1172 4863 
L 1747 4863 
L 1375 2950 
Q 1594 3244 1934 3414 
Q 2275 3584 2650 3584 
Q 3113 3584 3367 3334 
Q 3622 3084 3622 2631 
Q 3622 2519 3608 2391 
Q 3594 2263 3566 2113 
z
" transform="scale(0.015625)"/>
     <path id="DejaVuSans-Oblique-69" d="M 1172 4863 
L 1747 4863 
L 1606 4134 
L 1031 4134 
L 1172 4863 
z
M 909 3500 
L 1484 3500 
L 800 0 
L 225 0 
L 909 3500 
z
" transform="scale(0.015625)"/>
     <path id="DejaVuSans-Oblique-73" d="M 3200 3397 
L 3091 2853 
Q 2863 2978 2609 3040 
Q 2356 3103 2088 3103 
Q 1634 3103 1373 2948 
Q 1113 2794 1113 2528 
Q 1113 2219 1719 2053 
Q 1766 2041 1788 2034 
L 1972 1978 
Q 2547 1819 2739 1644 
Q 2931 1469 2931 1166 
Q 2931 609 2489 259 
Q 2047 -91 1331 -91 
Q 1053 -91 747 -37 
Q 441 16 72 128 
L 184 722 
Q 500 559 806 475 
Q 1113 391 1394 391 
Q 1816 391 2080 572 
Q 2344 753 2344 1031 
Q 2344 1331 1650 1516 
L 1591 1531 
L 1394 1581 
Q 956 1697 753 1886 
Q 550 2075 550 2369 
Q 550 2928 970 3256 
Q 1391 3584 2113 3584 
Q 2397 3584 2667 3537 
Q 2938 3491 3200 3397 
z
" transform="scale(0.015625)"/>
     <path id="DejaVuSans-Oblique-61" d="M 3438 1997 
L 3047 0 
L 2472 0 
L 2578 531 
Q 2325 219 2001 64 
Q 1678 -91 1281 -91 
Q 834 -91 548 182 
Q 263 456 263 884 
Q 263 1497 752 1853 
Q 1241 2209 2100 2209 
L 2900 2209 
L 2931 2363 
Q 2938 2388 2941 2417 
Q 2944 2447 2944 2509 
Q 2944 2788 2717 2942 
Q 2491 3097 2081 3097 
Q 1800 3097 1504 3025 
Q 1209 2953 897 2809 
L 997 3341 
Q 1322 3463 1633 3523 
Q 1944 3584 2234 3584 
Q 2853 3584 3176 3315 
Q 3500 3047 3500 2534 
Q 3500 2431 3484 2292 
Q 3469 2153 3438 1997 
z
M 2816 1759 
L 2241 1759 
Q 1534 1759 1195 1570 
Q 856 1381 856 984 
Q 856 709 1029 553 
Q 1203 397 1509 397 
Q 1978 397 2328 733 
Q 2678 1069 2791 1631 
L 2816 1759 
z
" transform="scale(0.015625)"/>
     <path id="DejaVuSans-Oblique-72" d="M 2853 2969 
Q 2766 3016 2653 3041 
Q 2541 3066 2413 3066 
Q 1953 3066 1609 2717 
Q 1266 2369 1153 1784 
L 800 0 
L 225 0 
L 909 3500 
L 1484 3500 
L 1375 2956 
Q 1603 3259 1920 3421 
Q 2238 3584 2597 3584 
Q 2691 3584 2781 3573 
Q 2872 3563 2963 3538 
L 2853 2969 
z
" transform="scale(0.015625)"/>
     <path id="DejaVuSans-Oblique-75" d="M 428 1388 
L 838 3500 
L 1416 3500 
L 1006 1409 
Q 975 1256 961 1147 
Q 947 1038 947 966 
Q 947 700 1109 554 
Q 1272 409 1569 409 
Q 2031 409 2368 721 
Q 2706 1034 2809 1563 
L 3194 3500 
L 3769 3500 
L 3091 0 
L 2516 0 
L 2631 550 
Q 2388 244 2052 76 
Q 1716 -91 1338 -91 
Q 878 -91 622 161 
Q 366 413 366 863 
Q 366 956 381 1097 
Q 397 1238 428 1388 
z
" transform="scale(0.015625)"/>
     <path id="DejaVuSans-Oblique-67" d="M 3816 3500 
L 3219 434 
Q 3047 -456 2561 -893 
Q 2075 -1331 1253 -1331 
Q 950 -1331 690 -1286 
Q 431 -1241 206 -1147 
L 313 -588 
Q 525 -725 762 -790 
Q 1000 -856 1269 -856 
Q 1816 -856 2167 -557 
Q 2519 -259 2631 300 
L 2681 563 
Q 2441 288 2122 144 
Q 1803 0 1434 0 
Q 903 0 598 351 
Q 294 703 294 1319 
Q 294 1803 478 2267 
Q 663 2731 997 3091 
Q 1219 3328 1514 3456 
Q 1809 3584 2131 3584 
Q 2484 3584 2746 3420 
Q 3009 3256 3138 2956 
L 3238 3500 
L 3816 3500 
z
M 2950 2216 
Q 2950 2641 2750 2872 
Q 2550 3103 2181 3103 
Q 1953 3103 1747 3012 
Q 1541 2922 1394 2759 
Q 1156 2491 1023 2127 
Q 891 1763 891 1375 
Q 891 944 1092 712 
Q 1294 481 1672 481 
Q 2219 481 2584 976 
Q 2950 1472 2950 2216 
z
" transform="scale(0.015625)"/>
     <path id="DejaVuSans-Oblique-63" d="M 3431 3366 
L 3316 2797 
Q 3109 2947 2876 3022 
Q 2644 3097 2394 3097 
Q 2119 3097 1870 3000 
Q 1622 2903 1453 2725 
Q 1184 2453 1037 2087 
Q 891 1722 891 1331 
Q 891 859 1127 628 
Q 1363 397 1844 397 
Q 2081 397 2348 469 
Q 2616 541 2906 684 
L 2797 116 
Q 2547 13 2283 -39 
Q 2019 -91 1741 -91 
Q 1044 -91 669 257 
Q 294 606 294 1253 
Q 294 1797 489 2255 
Q 684 2713 1069 3078 
Q 1331 3328 1684 3456 
Q 2038 3584 2456 3584 
Q 2700 3584 2940 3529 
Q 3181 3475 3431 3366 
z
" transform="scale(0.015625)"/>
     <path id="DejaVuSans-Oblique-6c" d="M 1172 4863 
L 1747 4863 
L 800 0 
L 225 0 
L 1172 4863 
z
" transform="scale(0.015625)"/>
     <path id="DejaVuSans-Oblique-6e" d="M 3566 2113 
L 3156 0 
L 2578 0 
L 2988 2091 
Q 3016 2238 3031 2350 
Q 3047 2463 3047 2528 
Q 3047 2791 2881 2937 
Q 2716 3084 2419 3084 
Q 1956 3084 1622 2776 
Q 1288 2469 1184 1941 
L 800 0 
L 225 0 
L 903 3500 
L 1478 3500 
L 1363 2950 
Q 1603 3253 1940 3418 
Q 2278 3584 2650 3584 
Q 3113 3584 3367 3334 
Q 3622 3084 3622 2631 
Q 3622 2519 3608 2391 
Q 3594 2263 3566 2113 
z
" transform="scale(0.015625)"/>
     <path id="DejaVuSans-Oblique-6d" d="M 5747 2113 
L 5338 0 
L 4763 0 
L 5166 2094 
Q 5191 2228 5203 2325 
Q 5216 2422 5216 2491 
Q 5216 2772 5059 2928 
Q 4903 3084 4622 3084 
Q 4203 3084 3875 2770 
Q 3547 2456 3450 1953 
L 3066 0 
L 2491 0 
L 2900 2094 
Q 2925 2209 2937 2307 
Q 2950 2406 2950 2484 
Q 2950 2769 2794 2926 
Q 2638 3084 2363 3084 
Q 1938 3084 1609 2770 
Q 1281 2456 1184 1953 
L 800 0 
L 225 0 
L 909 3500 
L 1484 3500 
L 1375 2956 
Q 1609 3263 1923 3423 
Q 2238 3584 2597 3584 
Q 2978 3584 3223 3384 
Q 3469 3184 3519 2828 
Q 3781 3197 4126 3390 
Q 4472 3584 4856 3584 
Q 5306 3584 5551 3325 
Q 5797 3066 5797 2591 
Q 5797 2488 5784 2364 
Q 5772 2241 5747 2113 
z
" transform="scale(0.015625)"/>
     <path id="DejaVuSans-Oblique-2e" d="M 525 794 
L 1184 794 
L 1031 0 
L 372 0 
L 525 794 
z
" transform="scale(0.015625)"/>
     <path id="DejaVuSans-Oblique-41" d="M 2356 4666 
L 3072 4666 
L 3938 0 
L 3278 0 
L 3084 1197 
L 984 1197 
L 325 0 
L -341 0 
L 2356 4666 
z
M 2584 4044 
L 1275 1722 
L 2988 1722 
L 2584 4044 
z
" transform="scale(0.015625)"/>
     <path id="DejaVuSans-Oblique-70" d="M 3175 2156 
Q 3175 2616 2975 2859 
Q 2775 3103 2400 3103 
Q 2144 3103 1911 2972 
Q 1678 2841 1497 2591 
Q 1319 2344 1212 1994 
Q 1106 1644 1106 1300 
Q 1106 863 1306 627 
Q 1506 391 1875 391 
Q 2147 391 2380 519 
Q 2613 647 2778 891 
Q 2956 1147 3065 1494 
Q 3175 1841 3175 2156 
z
M 1394 2969 
Q 1625 3272 1939 3428 
Q 2253 3584 2638 3584 
Q 3175 3584 3472 3232 
Q 3769 2881 3769 2247 
Q 3769 1728 3584 1258 
Q 3400 788 3053 416 
Q 2822 169 2531 39 
Q 2241 -91 1919 -91 
Q 1547 -91 1294 64 
Q 1041 219 916 525 
L 556 -1331 
L -19 -1331 
L 922 3500 
L 1497 3500 
L 1394 2969 
z
" transform="scale(0.015625)"/>
     <path id="DejaVuSans-Oblique-64" d="M 2675 525 
Q 2444 222 2128 65 
Q 1813 -91 1428 -91 
Q 903 -91 598 267 
Q 294 625 294 1247 
Q 294 1766 478 2236 
Q 663 2706 1013 3078 
Q 1244 3325 1534 3454 
Q 1825 3584 2144 3584 
Q 2481 3584 2739 3421 
Q 2997 3259 3138 2956 
L 3513 4863 
L 4091 4863 
L 3144 0 
L 2566 0 
L 2675 525 
z
M 891 1350 
Q 891 897 1095 644 
Q 1300 391 1663 391 
Q 1931 391 2161 520 
Q 2391 650 2566 903 
Q 2750 1166 2856 1509 
Q 2963 1853 2963 2188 
Q 2963 2622 2758 2865 
Q 2553 3109 2194 3109 
Q 1922 3109 1687 2981 
Q 1453 2853 1288 2613 
Q 1106 2353 998 2009 
Q 891 1666 891 1350 
z
" transform="scale(0.015625)"/>
     <path id="DejaVuSans-Oblique-79" d="M 1588 -325 
Q 1188 -997 936 -1164 
Q 684 -1331 294 -1331 
L -159 -1331 
L -63 -850 
L 269 -850 
Q 509 -850 678 -719 
Q 847 -588 1056 -206 
L 1234 128 
L 459 3500 
L 1069 3500 
L 1650 819 
L 3256 3500 
L 3859 3500 
L 1588 -325 
z
" transform="scale(0.015625)"/>
     <path id="DejaVuSans-Oblique-7a" d="M 744 3500 
L 3475 3500 
L 3372 2975 
L 738 459 
L 2913 459 
L 2822 0 
L -19 0 
L 84 525 
L 2719 3041 
L 653 3041 
L 744 3500 
z
" transform="scale(0.015625)"/>
     <path id="DejaVuSans-Oblique-2c" d="M 575 794 
L 1234 794 
L 1131 256 
L 422 -744 
L 19 -744 
L 469 256 
L 575 794 
z
" transform="scale(0.015625)"/>
     <path id="DejaVuSans-Oblique-66" d="M 3059 4863 
L 2969 4384 
L 2419 4384 
Q 2106 4384 1964 4261 
Q 1822 4138 1753 3809 
L 1691 3500 
L 2638 3500 
L 2553 3053 
L 1606 3053 
L 1013 0 
L 434 0 
L 1031 3053 
L 481 3053 
L 563 3500 
L 1113 3500 
L 1159 3744 
Q 1278 4363 1576 4613 
Q 1875 4863 2516 4863 
L 3059 4863 
z
" transform="scale(0.015625)"/>
     <path id="DejaVuSans-Oblique-55" d="M 991 4666 
L 1625 4666 
L 1075 1831 
Q 1041 1641 1027 1517 
Q 1013 1394 1013 1300 
Q 1013 869 1253 645 
Q 1494 422 1959 422 
Q 2563 422 2898 753 
Q 3234 1084 3378 1831 
L 3928 4666 
L 4563 4666 
L 4000 1753 
Q 3816 809 3300 359 
Q 2784 -91 1888 -91 
Q 1188 -91 780 261 
Q 372 613 372 1216 
Q 372 1325 387 1461 
Q 403 1597 434 1753 
L 991 4666 
z
" transform="scale(0.015625)"/>
     <path id="DejaVuSans-Oblique-2d" d="M 391 2009 
L 2075 2009 
L 1978 1497 
L 288 1497 
L 391 2009 
z
" transform="scale(0.015625)"/>
     <path id="DejaVuSans-Oblique-62" d="M 3169 2138 
Q 3169 2591 2961 2847 
Q 2753 3103 2388 3103 
Q 2122 3103 1889 2973 
Q 1656 2844 1484 2597 
Q 1303 2338 1198 1995 
Q 1094 1653 1094 1313 
Q 1094 881 1298 636 
Q 1503 391 1863 391 
Q 2134 391 2365 517 
Q 2597 644 2772 891 
Q 2950 1147 3059 1487 
Q 3169 1828 3169 2138 
z
M 1381 2969 
Q 1594 3256 1914 3420 
Q 2234 3584 2584 3584 
Q 3122 3584 3439 3221 
Q 3756 2859 3756 2241 
Q 3756 1734 3570 1259 
Q 3384 784 3041 416 
Q 2816 172 2522 40 
Q 2228 -91 1906 -91 
Q 1566 -91 1316 65 
Q 1066 222 909 531 
L 806 0 
L 231 0 
L 1178 4863 
L 1753 4863 
L 1381 2969 
z
" transform="scale(0.015625)"/>
     <path id="DejaVuSans-Oblique-77" d="M 544 3500 
L 1113 3500 
L 1259 684 
L 2566 3500 
L 3231 3500 
L 3425 684 
L 4666 3500 
L 5241 3500 
L 3641 0 
L 2969 0 
L 2797 2900 
L 1459 0 
L 781 0 
L 544 3500 
z
" transform="scale(0.015625)"/>
     <path id="DejaVuSans-Oblique-71" d="M 2669 525 
Q 2438 222 2123 65 
Q 1809 -91 1428 -91 
Q 897 -91 595 267 
Q 294 625 294 1253 
Q 294 1759 480 2231 
Q 666 2703 1013 3078 
Q 1238 3322 1530 3453 
Q 1822 3584 2144 3584 
Q 2531 3584 2781 3431 
Q 3031 3278 3144 2969 
L 3244 3494 
L 3822 3494 
L 2888 -1319 
L 2309 -1319 
L 2669 525 
z
M 891 1338 
Q 891 875 1084 633 
Q 1278 391 1644 391 
Q 2188 391 2572 911 
Q 2956 1431 2956 2175 
Q 2956 2625 2757 2864 
Q 2559 3103 2188 3103 
Q 1916 3103 1684 2976 
Q 1453 2850 1281 2606 
Q 1100 2350 995 2006 
Q 891 1663 891 1338 
z
" transform="scale(0.015625)"/>
     <path id="DejaVuSans-Oblique-76" d="M 459 3500 
L 1069 3500 
L 1581 525 
L 3256 3500 
L 3866 3500 
L 1875 0 
L 1100 0 
L 459 3500 
z
" transform="scale(0.015625)"/>
    </defs>
    <use xlink:href="#DejaVuSans-Oblique-4e"/>
    <use xlink:href="#DejaVuSans-Oblique-6f" transform="translate(74.804688 0)"/>
    <use xlink:href="#DejaVuSans-Oblique-74" transform="translate(135.986328 0)"/>
    <use xlink:href="#DejaVuSans-Oblique-65" transform="translate(175.195312 0)"/>
    <use xlink:href="#DejaVuSans-Oblique-3a" transform="translate(236.71875 0)"/>
    <use xlink:href="#DejaVuSans-Oblique-20" transform="translate(270.410156 0)"/>
    <use xlink:href="#DejaVuSans-Oblique-54" transform="translate(302.197266 0)"/>
    <use xlink:href="#DejaVuSans-Oblique-68" transform="translate(363.28125 0)"/>
    <use xlink:href="#DejaVuSans-Oblique-69" transform="translate(426.660156 0)"/>
    <use xlink:href="#DejaVuSans-Oblique-73" transform="translate(454.443359 0)"/>
    <use xlink:href="#DejaVuSans-Oblique-20" transform="translate(506.542969 0)"/>
    <use xlink:href="#DejaVuSans-Oblique-69" transform="translate(538.330078 0)"/>
    <use xlink:href="#DejaVuSans-Oblique-73" transform="translate(566.113281 0)"/>
    <use xlink:href="#DejaVuSans-Oblique-20" transform="translate(618.212891 0)"/>
    <use xlink:href="#DejaVuSans-Oblique-61" transform="translate(650 0)"/>
    <use xlink:href="#DejaVuSans-Oblique-20" transform="translate(711.279297 0)"/>
    <use xlink:href="#DejaVuSans-Oblique-72" transform="translate(743.066406 0)"/>
    <use xlink:href="#DejaVuSans-Oblique-6f" transform="translate(784.179688 0)"/>
    <use xlink:href="#DejaVuSans-Oblique-75" transform="translate(845.361328 0)"/>
    <use xlink:href="#DejaVuSans-Oblique-67" transform="translate(908.740234 0)"/>
    <use xlink:href="#DejaVuSans-Oblique-68" transform="translate(972.216797 0)"/>
    <use xlink:href="#DejaVuSans-Oblique-20" transform="translate(1035.595703 0)"/>
    <use xlink:href="#DejaVuSans-Oblique-73" transform="translate(1067.382812 0)"/>
    <use xlink:href="#DejaVuSans-Oblique-63" transform="translate(1119.482422 0)"/>
    <use xlink:href="#DejaVuSans-Oblique-61" transform="translate(1174.462891 0)"/>
    <use xlink:href="#DejaVuSans-Oblique-6c" transform="translate(1235.742188 0)"/>
    <use xlink:href="#DejaVuSans-Oblique-69" transform="translate(1263.525391 0)"/>
    <use xlink:href="#DejaVuSans-Oblique-6e" transform="translate(1291.308594 0)"/>
    <use xlink:href="#DejaVuSans-Oblique-67" transform="translate(1354.6875 0)"/>
    <use xlink:href="#DejaVuSans-Oblique-20" transform="translate(1418.164062 0)"/>
    <use xlink:href="#DejaVuSans-Oblique-65" transform="translate(1449.951172 0)"/>
    <use xlink:href="#DejaVuSans-Oblique-73" transform="translate(1511.474609 0)"/>
    <use xlink:href="#DejaVuSans-Oblique-74" transform="translate(1563.574219 0)"/>
    <use xlink:href="#DejaVuSans-Oblique-69" transform="translate(1602.783203 0)"/>
    <use xlink:href="#DejaVuSans-Oblique-6d" transform="translate(1630.566406 0)"/>
    <use xlink:href="#DejaVuSans-Oblique-61" transform="translate(1727.978516 0)"/>
    <use xlink:href="#DejaVuSans-Oblique-74" transform="translate(1789.257812 0)"/>
    <use xlink:href="#DejaVuSans-Oblique-65" transform="translate(1828.466797 0)"/>
    <use xlink:href="#DejaVuSans-Oblique-2e" transform="translate(1889.990234 0)"/>
    <use xlink:href="#DejaVuSans-Oblique-20" transform="translate(1921.777344 0)"/>
    <use xlink:href="#DejaVuSans-Oblique-41" transform="translate(1953.564453 0)"/>
    <use xlink:href="#DejaVuSans-Oblique-63" transform="translate(2021.972656 0)"/>
    <use xlink:href="#DejaVuSans-Oblique-74" transform="translate(2076.953125 0)"/>
    <use xlink:href="#DejaVuSans-Oblique-75" transform="translate(2116.162109 0)"/>
    <use xlink:href="#DejaVuSans-Oblique-61" transform="translate(2179.541016 0)"/>
    <use xlink:href="#DejaVuSans-Oblique-6c" transform="translate(2240.820312 0)"/>
    <use xlink:href="#DejaVuSans-Oblique-20" transform="translate(2268.603516 0)"/>
    <use xlink:href="#DejaVuSans-Oblique-70" transform="translate(2300.390625 0)"/>
    <use xlink:href="#DejaVuSans-Oblique-72" transform="translate(2363.867188 0)"/>
    <use xlink:href="#DejaVuSans-Oblique-65" transform="translate(2404.980469 0)"/>
    <use xlink:href="#DejaVuSans-Oblique-73" transform="translate(2466.503906 0)"/>
    <use xlink:href="#DejaVuSans-Oblique-73" transform="translate(2518.603516 0)"/>
    <use xlink:href="#DejaVuSans-Oblique-75" transform="translate(2570.703125 0)"/>
    <use xlink:href="#DejaVuSans-Oblique-72" transform="translate(2634.082031 0)"/>
    <use xlink:href="#DejaVuSans-Oblique-65" transform="translate(2675.195312 0)"/>
    <use xlink:href="#DejaVuSans-Oblique-20" transform="translate(2736.71875 0)"/>
    <use xlink:href="#DejaVuSans-Oblique-64" transform="translate(2768.505859 0)"/>
    <use xlink:href="#DejaVuSans-Oblique-72" transform="translate(2831.982422 0)"/>
    <use xlink:href="#DejaVuSans-Oblique-6f" transform="translate(2873.095703 0)"/>
    <use xlink:href="#DejaVuSans-Oblique-70" transform="translate(2934.277344 0)"/>
    <use xlink:href="#DejaVuSans-Oblique-20" transform="translate(2997.753906 0)"/>
    <use xlink:href="#DejaVuSans-Oblique-61" transform="translate(3029.541016 0)"/>
    <use xlink:href="#DejaVuSans-Oblique-6c" transform="translate(3090.820312 0)"/>
    <use xlink:href="#DejaVuSans-Oblique-73" transform="translate(3118.603516 0)"/>
    <use xlink:href="#DejaVuSans-Oblique-6f" transform="translate(3170.703125 0)"/>
    <use xlink:href="#DejaVuSans-Oblique-20" transform="translate(3231.884766 0)"/>
    <use xlink:href="#DejaVuSans-Oblique-64" transform="translate(3263.671875 0)"/>
    <use xlink:href="#DejaVuSans-Oblique-65" transform="translate(3327.148438 0)"/>
    <use xlink:href="#DejaVuSans-Oblique-70" transform="translate(3388.671875 0)"/>
    <use xlink:href="#DejaVuSans-Oblique-65" transform="translate(3452.148438 0)"/>
    <use xlink:href="#DejaVuSans-Oblique-6e" transform="translate(3513.671875 0)"/>
    <use xlink:href="#DejaVuSans-Oblique-64" transform="translate(3577.050781 0)"/>
    <use xlink:href="#DejaVuSans-Oblique-73" transform="translate(3640.527344 0)"/>
    <use xlink:href="#DejaVuSans-Oblique-20" transform="translate(3692.626953 0)"/>
    <use xlink:href="#DejaVuSans-Oblique-73" transform="translate(3724.414062 0)"/>
    <use xlink:href="#DejaVuSans-Oblique-74" transform="translate(3776.513672 0)"/>
    <use xlink:href="#DejaVuSans-Oblique-72" transform="translate(3815.722656 0)"/>
    <use xlink:href="#DejaVuSans-Oblique-6f" transform="translate(3856.835938 0)"/>
    <use xlink:href="#DejaVuSans-Oblique-6e" transform="translate(3918.017578 0)"/>
    <use xlink:href="#DejaVuSans-Oblique-67" transform="translate(3981.396484 0)"/>
    <use xlink:href="#DejaVuSans-Oblique-6c" transform="translate(4044.873047 0)"/>
    <use xlink:href="#DejaVuSans-Oblique-79" transform="translate(4072.65625 0)"/>
    <use xlink:href="#DejaVuSans-Oblique-20" transform="translate(4131.835938 0)"/>
    <use xlink:href="#DejaVuSans-Oblique-6f" transform="translate(4163.623047 0)"/>
    <use xlink:href="#DejaVuSans-Oblique-6e" transform="translate(4224.804688 0)"/>
    <use xlink:href="#DejaVuSans-Oblique-20" transform="translate(4288.183594 0)"/>
    <use xlink:href="#DejaVuSans-Oblique-67" transform="translate(4319.970703 0)"/>
    <use xlink:href="#DejaVuSans-Oblique-61" transform="translate(4383.447266 0)"/>
    <use xlink:href="#DejaVuSans-Oblique-70" transform="translate(4444.726562 0)"/>
    <use xlink:href="#DejaVuSans-Oblique-20" transform="translate(4508.203125 0)"/>
    <use xlink:href="#DejaVuSans-Oblique-73" transform="translate(4539.990234 0)"/>
    <use xlink:href="#DejaVuSans-Oblique-69" transform="translate(4592.089844 0)"/>
    <use xlink:href="#DejaVuSans-Oblique-7a" transform="translate(4619.873047 0)"/>
    <use xlink:href="#DejaVuSans-Oblique-65" transform="translate(4672.363281 0)"/>
    <use xlink:href="#DejaVuSans-Oblique-2c" transform="translate(4733.886719 0)"/>
    <use xlink:href="#DejaVuSans-Oblique-20" transform="translate(4765.673828 0)"/>
    <use xlink:href="#DejaVuSans-Oblique-73" transform="translate(4797.460938 0)"/>
    <use xlink:href="#DejaVuSans-Oblique-75" transform="translate(4849.560547 0)"/>
    <use xlink:href="#DejaVuSans-Oblique-72" transform="translate(4912.939453 0)"/>
    <use xlink:href="#DejaVuSans-Oblique-66" transform="translate(4954.052734 0)"/>
    <use xlink:href="#DejaVuSans-Oblique-61" transform="translate(4989.257812 0)"/>
    <use xlink:href="#DejaVuSans-Oblique-63" transform="translate(5050.537109 0)"/>
    <use xlink:href="#DejaVuSans-Oblique-65" transform="translate(5105.517578 0)"/>
    <use xlink:href="#DejaVuSans-Oblique-20" transform="translate(5167.041016 0)"/>
    <use xlink:href="#DejaVuSans-Oblique-72" transform="translate(5198.828125 0)"/>
    <use xlink:href="#DejaVuSans-Oblique-6f" transform="translate(5239.941406 0)"/>
    <use xlink:href="#DejaVuSans-Oblique-75" transform="translate(5301.123047 0)"/>
    <use xlink:href="#DejaVuSans-Oblique-67" transform="translate(5364.501953 0)"/>
    <use xlink:href="#DejaVuSans-Oblique-68" transform="translate(5427.978516 0)"/>
    <use xlink:href="#DejaVuSans-Oblique-6e" transform="translate(5491.357422 0)"/>
    <use xlink:href="#DejaVuSans-Oblique-65" transform="translate(5554.736328 0)"/>
    <use xlink:href="#DejaVuSans-Oblique-73" transform="translate(5616.259766 0)"/>
    <use xlink:href="#DejaVuSans-Oblique-73" transform="translate(5668.359375 0)"/>
    <use xlink:href="#DejaVuSans-Oblique-2c" transform="translate(5720.458984 0)"/>
    <use xlink:href="#DejaVuSans-Oblique-20" transform="translate(5752.246094 0)"/>
    <use xlink:href="#DejaVuSans-Oblique-61" transform="translate(5784.033203 0)"/>
    <use xlink:href="#DejaVuSans-Oblique-6e" transform="translate(5845.3125 0)"/>
    <use xlink:href="#DejaVuSans-Oblique-64" transform="translate(5908.691406 0)"/>
    <use xlink:href="#DejaVuSans-Oblique-20" transform="translate(5972.167969 0)"/>
    <use xlink:href="#DejaVuSans-Oblique-6e" transform="translate(6003.955078 0)"/>
    <use xlink:href="#DejaVuSans-Oblique-6f" transform="translate(6067.333984 0)"/>
    <use xlink:href="#DejaVuSans-Oblique-7a" transform="translate(6128.515625 0)"/>
    <use xlink:href="#DejaVuSans-Oblique-7a" transform="translate(6181.005859 0)"/>
    <use xlink:href="#DejaVuSans-Oblique-6c" transform="translate(6233.496094 0)"/>
    <use xlink:href="#DejaVuSans-Oblique-65" transform="translate(6261.279297 0)"/>
    <use xlink:href="#DejaVuSans-Oblique-20" transform="translate(6322.802734 0)"/>
    <use xlink:href="#DejaVuSans-Oblique-64" transform="translate(6354.589844 0)"/>
    <use xlink:href="#DejaVuSans-Oblique-65" transform="translate(6418.066406 0)"/>
    <use xlink:href="#DejaVuSans-Oblique-73" transform="translate(6479.589844 0)"/>
    <use xlink:href="#DejaVuSans-Oblique-69" transform="translate(6531.689453 0)"/>
    <use xlink:href="#DejaVuSans-Oblique-67" transform="translate(6559.472656 0)"/>
    <use xlink:href="#DejaVuSans-Oblique-6e" transform="translate(6622.949219 0)"/>
    <use xlink:href="#DejaVuSans-Oblique-2e" transform="translate(6686.328125 0)"/>
    <use xlink:href="#DejaVuSans-Oblique-20" transform="translate(6718.115234 0)"/>
    <use xlink:href="#DejaVuSans-Oblique-55" transform="translate(6749.902344 0)"/>
    <use xlink:href="#DejaVuSans-Oblique-73" transform="translate(6823.095703 0)"/>
    <use xlink:href="#DejaVuSans-Oblique-65" transform="translate(6875.195312 0)"/>
    <use xlink:href="#DejaVuSans-Oblique-66" transform="translate(6936.71875 0)"/>
    <use xlink:href="#DejaVuSans-Oblique-75" transform="translate(6971.923828 0)"/>
    <use xlink:href="#DejaVuSans-Oblique-6c" transform="translate(7035.302734 0)"/>
    <use xlink:href="#DejaVuSans-Oblique-20" transform="translate(7063.085938 0)"/>
    <use xlink:href="#DejaVuSans-Oblique-66" transform="translate(7094.873047 0)"/>
    <use xlink:href="#DejaVuSans-Oblique-6f" transform="translate(7130.078125 0)"/>
    <use xlink:href="#DejaVuSans-Oblique-72" transform="translate(7191.259766 0)"/>
    <use xlink:href="#DejaVuSans-Oblique-20" transform="translate(7232.373047 0)"/>
    <use xlink:href="#DejaVuSans-Oblique-75" transform="translate(7264.160156 0)"/>
    <use xlink:href="#DejaVuSans-Oblique-6e" transform="translate(7327.539062 0)"/>
    <use xlink:href="#DejaVuSans-Oblique-64" transform="translate(7390.917969 0)"/>
    <use xlink:href="#DejaVuSans-Oblique-65" transform="translate(7454.394531 0)"/>
    <use xlink:href="#DejaVuSans-Oblique-72" transform="translate(7515.917969 0)"/>
    <use xlink:href="#DejaVuSans-Oblique-73" transform="translate(7557.03125 0)"/>
    <use xlink:href="#DejaVuSans-Oblique-74" transform="translate(7609.130859 0)"/>
    <use xlink:href="#DejaVuSans-Oblique-61" transform="translate(7648.339844 0)"/>
    <use xlink:href="#DejaVuSans-Oblique-6e" transform="translate(7709.619141 0)"/>
    <use xlink:href="#DejaVuSans-Oblique-64" transform="translate(7772.998047 0)"/>
    <use xlink:href="#DejaVuSans-Oblique-69" transform="translate(7836.474609 0)"/>
    <use xlink:href="#DejaVuSans-Oblique-6e" transform="translate(7864.257812 0)"/>
    <use xlink:href="#DejaVuSans-Oblique-67" transform="translate(7927.636719 0)"/>
    <use xlink:href="#DejaVuSans-Oblique-20" transform="translate(7991.113281 0)"/>
    <use xlink:href="#DejaVuSans-Oblique-74" transform="translate(8022.900391 0)"/>
    <use xlink:href="#DejaVuSans-Oblique-72" transform="translate(8062.109375 0)"/>
    <use xlink:href="#DejaVuSans-Oblique-61" transform="translate(8103.222656 0)"/>
    <use xlink:href="#DejaVuSans-Oblique-64" transform="translate(8164.501953 0)"/>
    <use xlink:href="#DejaVuSans-Oblique-65" transform="translate(8227.978516 0)"/>
    <use xlink:href="#DejaVuSans-Oblique-2d" transform="translate(8289.501953 0)"/>
    <use xlink:href="#DejaVuSans-Oblique-6f" transform="translate(8325.585938 0)"/>
    <use xlink:href="#DejaVuSans-Oblique-66" transform="translate(8386.767578 0)"/>
    <use xlink:href="#DejaVuSans-Oblique-66" transform="translate(8421.972656 0)"/>
    <use xlink:href="#DejaVuSans-Oblique-73" transform="translate(8457.177734 0)"/>
    <use xlink:href="#DejaVuSans-Oblique-20" transform="translate(8509.277344 0)"/>
    <use xlink:href="#DejaVuSans-Oblique-62" transform="translate(8541.064453 0)"/>
    <use xlink:href="#DejaVuSans-Oblique-65" transform="translate(8604.541016 0)"/>
    <use xlink:href="#DejaVuSans-Oblique-74" transform="translate(8666.064453 0)"/>
    <use xlink:href="#DejaVuSans-Oblique-77" transform="translate(8705.273438 0)"/>
    <use xlink:href="#DejaVuSans-Oblique-65" transform="translate(8787.060547 0)"/>
    <use xlink:href="#DejaVuSans-Oblique-65" transform="translate(8848.583984 0)"/>
    <use xlink:href="#DejaVuSans-Oblique-6e" transform="translate(8910.107422 0)"/>
    <use xlink:href="#DejaVuSans-Oblique-20" transform="translate(8973.486328 0)"/>
    <use xlink:href="#DejaVuSans-Oblique-63" transform="translate(9005.273438 0)"/>
    <use xlink:href="#DejaVuSans-Oblique-6f" transform="translate(9060.253906 0)"/>
    <use xlink:href="#DejaVuSans-Oblique-6e" transform="translate(9121.435547 0)"/>
    <use xlink:href="#DejaVuSans-Oblique-64" transform="translate(9184.814453 0)"/>
    <use xlink:href="#DejaVuSans-Oblique-69" transform="translate(9248.291016 0)"/>
    <use xlink:href="#DejaVuSans-Oblique-74" transform="translate(9276.074219 0)"/>
    <use xlink:href="#DejaVuSans-Oblique-69" transform="translate(9315.283203 0)"/>
    <use xlink:href="#DejaVuSans-Oblique-6f" transform="translate(9343.066406 0)"/>
    <use xlink:href="#DejaVuSans-Oblique-6e" transform="translate(9404.248047 0)"/>
    <use xlink:href="#DejaVuSans-Oblique-69" transform="translate(9467.626953 0)"/>
    <use xlink:href="#DejaVuSans-Oblique-6e" transform="translate(9495.410156 0)"/>
    <use xlink:href="#DejaVuSans-Oblique-67" transform="translate(9558.789062 0)"/>
    <use xlink:href="#DejaVuSans-Oblique-20" transform="translate(9622.265625 0)"/>
    <use xlink:href="#DejaVuSans-Oblique-71" transform="translate(9654.052734 0)"/>
    <use xlink:href="#DejaVuSans-Oblique-75" transform="translate(9717.529297 0)"/>
    <use xlink:href="#DejaVuSans-Oblique-61" transform="translate(9780.908203 0)"/>
    <use xlink:href="#DejaVuSans-Oblique-6c" transform="translate(9842.1875 0)"/>
    <use xlink:href="#DejaVuSans-Oblique-69" transform="translate(9869.970703 0)"/>
    <use xlink:href="#DejaVuSans-Oblique-74" transform="translate(9897.753906 0)"/>
    <use xlink:href="#DejaVuSans-Oblique-79" transform="translate(9936.962891 0)"/>
    <use xlink:href="#DejaVuSans-Oblique-20" transform="translate(9996.142578 0)"/>
    <use xlink:href="#DejaVuSans-Oblique-61" transform="translate(10027.929688 0)"/>
    <use xlink:href="#DejaVuSans-Oblique-6e" transform="translate(10089.208984 0)"/>
    <use xlink:href="#DejaVuSans-Oblique-64" transform="translate(10152.587891 0)"/>
    <use xlink:href="#DejaVuSans-Oblique-20" transform="translate(10216.064453 0)"/>
    <use xlink:href="#DejaVuSans-Oblique-64" transform="translate(10247.851562 0)"/>
    <use xlink:href="#DejaVuSans-Oblique-72" transform="translate(10311.328125 0)"/>
    <use xlink:href="#DejaVuSans-Oblique-69" transform="translate(10352.441406 0)"/>
    <use xlink:href="#DejaVuSans-Oblique-76" transform="translate(10380.224609 0)"/>
    <use xlink:href="#DejaVuSans-Oblique-69" transform="translate(10439.404297 0)"/>
    <use xlink:href="#DejaVuSans-Oblique-6e" transform="translate(10467.1875 0)"/>
    <use xlink:href="#DejaVuSans-Oblique-67" transform="translate(10530.566406 0)"/>
    <use xlink:href="#DejaVuSans-Oblique-20" transform="translate(10594.042969 0)"/>
    <use xlink:href="#DejaVuSans-Oblique-70" transform="translate(10625.830078 0)"/>
    <use xlink:href="#DejaVuSans-Oblique-72" transform="translate(10689.306641 0)"/>
    <use xlink:href="#DejaVuSans-Oblique-65" transform="translate(10730.419922 0)"/>
    <use xlink:href="#DejaVuSans-Oblique-73" transform="translate(10791.943359 0)"/>
    <use xlink:href="#DejaVuSans-Oblique-73" transform="translate(10844.042969 0)"/>
    <use xlink:href="#DejaVuSans-Oblique-75" transform="translate(10896.142578 0)"/>
    <use xlink:href="#DejaVuSans-Oblique-72" transform="translate(10959.521484 0)"/>
    <use xlink:href="#DejaVuSans-Oblique-65" transform="translate(11000.634766 0)"/>
    <use xlink:href="#DejaVuSans-Oblique-20" transform="translate(11062.158203 0)"/>
    <use xlink:href="#DejaVuSans-Oblique-72" transform="translate(11093.945312 0)"/>
    <use xlink:href="#DejaVuSans-Oblique-65" transform="translate(11135.058594 0)"/>
    <use xlink:href="#DejaVuSans-Oblique-71" transform="translate(11196.582031 0)"/>
    <use xlink:href="#DejaVuSans-Oblique-75" transform="translate(11260.058594 0)"/>
    <use xlink:href="#DejaVuSans-Oblique-69" transform="translate(11323.4375 0)"/>
    <use xlink:href="#DejaVuSans-Oblique-72" transform="translate(11351.220703 0)"/>
    <use xlink:href="#DejaVuSans-Oblique-65" transform="translate(11392.333984 0)"/>
    <use xlink:href="#DejaVuSans-Oblique-64" transform="translate(11453.857422 0)"/>
    <use xlink:href="#DejaVuSans-Oblique-2e" transform="translate(11517.333984 0)"/>
   </g>
  </g>
 </g>
 <defs>
  <clipPath id="p5851cbf8a5">
   <rect x="163.36" y="35.7555" width="655" height="224.128"/>
  </clipPath>
 </defs>
</svg>
