<?xml version="1.0" encoding="utf-8" standalone="no"?>
<!DOCTYPE svg PUBLIC "-//W3C//DTD SVG 1.1//EN"
  "http://www.w3.org/Graphics/SVG/1.1/DTD/svg11.dtd">
<svg xmlns:xlink="http://www.w3.org/1999/xlink" width="1267.2225pt" height="406.46725pt" viewBox="0 0 1267.2225 406.46725" xmlns="http://www.w3.org/2000/svg" version="1.1">
 <metadata>
  <rdf:RDF xmlns:dc="http://purl.org/dc/elements/1.1/" xmlns:cc="http://creativecommons.org/ns#" xmlns:rdf="http://www.w3.org/1999/02/22-rdf-syntax-ns#">
   <cc:Work>
    <dc:type rdf:resource="http://purl.org/dc/dcmitype/StillImage"/>
    <dc:date>2026-05-28T09:18:31.121033</dc:date>
    <dc:format>image/svg+xml</dc:format>
    <dc:creator>
     <cc:Agent>
      <dc:title>Matplotlib v3.10.9, https://matplotlib.org/</dc:title>
     </cc:Agent>
    </dc:creator>
   </cc:Work>
  </rdf:RDF>
 </metadata>
 <defs>
  <style type="text/css">*{stroke-linejoin: round; stroke-linecap: butt}</style>
 </defs>
 <g id="figure_1">
  <g id="patch_1">
   <path d="M 0 406.46725 
L 1267.2225 406.46725 
L 1267.2225 0 
L 0 0 
z
" style="fill: #ffffff"/>
  </g>
  <g id="axes_1">
   <g id="patch_2">
    <path d="M 324.61625 321.0835 
L 982.81125 321.0835 
L 982.81125 35.7555 
L 324.61625 35.7555 
z
" style="fill: #ffffff"/>
   </g>
   <g id="FillBetweenPolyCollection_1">
    <path d="M 354.534205 48.724955 
L 354.534205 251.218411 
L 360.578236 249.857118 
L 366.622267 248.509604 
L 372.666298 247.189547 
L 378.710329 245.910435 
L 384.754361 244.685463 
L 390.798392 243.527444 
L 396.842423 242.448716 
L 402.886454 241.461057 
L 408.930486 240.575598 
L 414.974517 239.802748 
L 421.018548 239.152118 
L 427.062579 238.632453 
L 433.10661 238.251572 
L 439.150642 238.016311 
L 445.194673 237.932472 
L 451.238704 238.004789 
L 457.282735 238.236887 
L 463.326767 238.631261 
L 469.370798 239.189257 
L 475.414829 239.911062 
L 481.45886 240.795702 
L 487.502891 241.841052 
L 493.546923 243.043847 
L 499.590954 244.399708 
L 505.634985 245.903173 
L 511.679016 247.547733 
L 517.723048 249.325881 
L 523.767079 251.229164 
L 529.81111 253.248242 
L 535.855141 255.372956 
L 541.899172 257.592399 
L 547.943204 259.894992 
L 553.987235 262.268568 
L 560.031266 264.700458 
L 566.075297 267.177579 
L 572.119329 269.686529 
L 578.16336 272.213678 
L 584.207391 274.745271 
L 590.251422 277.267517 
L 596.295453 279.766696 
L 602.339485 282.229247 
L 608.383516 284.641871 
L 614.427547 286.991622 
L 620.471578 289.266 
L 626.51561 291.453035 
L 632.559641 293.541381 
L 638.603672 295.520388 
L 644.647703 297.380178 
L 650.691734 299.111722 
L 656.735766 300.706896 
L 662.779797 302.158543 
L 668.823828 303.46052 
L 674.867859 304.607747 
L 680.91189 305.596239 
L 686.955922 306.423133 
L 692.999953 307.086713 
L 699.043984 307.586417 
L 705.088015 307.922846 
L 711.132047 308.097756 
L 717.176078 308.114045 
L 723.220109 307.975738 
L 729.26414 307.687952 
L 735.308171 307.256862 
L 741.352203 306.68966 
L 747.396234 305.994501 
L 753.440265 305.180445 
L 759.484296 304.257396 
L 765.528328 303.236027 
L 771.572359 302.12771 
L 777.61639 300.944432 
L 783.660421 299.698709 
L 789.704452 298.403501 
L 795.748484 297.072119 
L 801.792515 295.718127 
L 807.836546 294.355254 
L 813.880577 292.997287 
L 819.924609 291.657981 
L 825.96864 290.350958 
L 832.012671 289.089612 
L 838.056702 287.887014 
L 844.100733 286.755816 
L 850.144765 285.708169 
L 856.188796 284.755628 
L 862.232827 283.909078 
L 868.276858 283.178651 
L 874.32089 282.573658 
L 880.364921 282.10252 
L 886.408952 281.772714 
L 892.452983 281.590712 
L 898.497014 281.561941 
L 904.541046 281.690744 
L 910.585077 281.980347 
L 916.629108 282.432836 
L 922.673139 283.049147 
L 928.717171 283.829054 
L 934.761202 284.77117 
L 940.805233 285.872965 
L 946.849264 287.130774 
L 952.893295 288.539827 
L 952.893295 230.684554 
L 952.893295 230.684554 
L 946.849264 227.814508 
L 940.805233 225.095708 
L 934.761202 222.532922 
L 928.717171 220.129813 
L 922.673139 217.888915 
L 916.629108 215.811613 
L 910.585077 213.898131 
L 904.541046 212.147537 
L 898.497014 210.557742 
L 892.452983 209.125521 
L 886.408952 207.846531 
L 880.364921 206.715346 
L 874.32089 205.725492 
L 868.276858 204.869493 
L 862.232827 204.138928 
L 856.188796 203.524487 
L 850.144765 203.016036 
L 844.100733 202.602691 
L 838.056702 202.272897 
L 832.012671 202.014504 
L 825.96864 201.814858 
L 819.924609 201.660889 
L 813.880577 201.539203 
L 807.836546 201.436178 
L 801.792515 201.33806 
L 795.748484 201.23106 
L 789.704452 201.101451 
L 783.660421 200.935667 
L 777.61639 200.720398 
L 771.572359 200.442685 
L 765.528328 200.09001 
L 759.484296 199.650387 
L 753.440265 199.112444 
L 747.396234 198.465508 
L 741.352203 197.699676 
L 735.308171 196.805886 
L 729.26414 195.775984 
L 723.220109 194.602778 
L 717.176078 193.280094 
L 711.132047 191.802812 
L 705.088015 190.166911 
L 699.043984 188.36949 
L 692.999953 186.408794 
L 686.955922 184.284222 
L 680.91189 181.996337 
L 674.867859 179.546853 
L 668.823828 176.938634 
L 662.779797 174.175665 
L 656.735766 171.263027 
L 650.691734 168.206861 
L 644.647703 165.014326 
L 638.603672 161.693543 
L 632.559641 158.253545 
L 626.51561 154.704208 
L 620.471578 151.05618 
L 614.427547 147.320811 
L 608.383516 143.510068 
L 602.339485 139.636452 
L 596.295453 135.712909 
L 590.251422 131.752739 
L 584.207391 127.769501 
L 578.16336 123.776916 
L 572.119329 119.788775 
L 566.075297 115.818834 
L 560.031266 111.880721 
L 553.987235 107.987839 
L 547.943204 104.153271 
L 541.899172 100.389686 
L 535.855141 96.709252 
L 529.81111 93.123546 
L 523.767079 89.643476 
L 517.723048 86.279202 
L 511.679016 83.040062 
L 505.634985 79.93451 
L 499.590954 76.970053 
L 493.546923 74.1532 
L 487.502891 71.489413 
L 481.45886 68.983072 
L 475.414829 66.63744 
L 469.370798 64.454644 
L 463.326767 62.435656 
L 457.282735 60.58029 
L 451.238704 58.8872 
L 445.194673 57.353892 
L 439.150642 55.976739 
L 433.10661 54.751009 
L 427.062579 53.670898 
L 421.018548 52.72957 
L 414.974517 51.919209 
L 408.930486 51.231067 
L 402.886454 50.655534 
L 396.842423 50.182202 
L 390.798392 49.799938 
L 384.754361 49.496965 
L 378.710329 49.260945 
L 372.666298 49.079066 
L 366.622267 48.938131 
L 360.578236 48.824654 
L 354.534205 48.724955 
z
" clip-path="url(#p27f0594bce)" style="fill: #1f77b4; fill-opacity: 0.25"/>
   </g>
   <g id="matplotlib.axis_1">
    <g id="xtick_1">
     <g id="line2d_1">
      <path d="M 354.534205 321.0835 
L 354.534205 35.7555 
" clip-path="url(#p27f0594bce)" style="fill: none; stroke: #b0b0b0; stroke-opacity: 0.3; stroke-width: 0.8; stroke-linecap: square"/>
     </g>
     <g id="line2d_2">
      <defs>
       <path id="mc783a1d77d" d="M 0 0 
L 0 3.5 
" style="stroke: #000000; stroke-width: 0.8"/>
      </defs>
      <g>
       <use xlink:href="#mc783a1d77d" x="354.534205" y="321.0835" style="stroke: #000000; stroke-width: 0.8"/>
      </g>
     </g>
     <g id="text_1">
      <!-- 0 -->
      <g transform="translate(351.352955 335.681938) scale(0.1 -0.1)">
       <defs>
        <path id="DejaVuSans-30" d="M 2034 4250 
Q 1547 4250 1301 3770 
Q 1056 3291 1056 2328 
Q 1056 1369 1301 889 
Q 1547 409 2034 409 
Q 2525 409 2770 889 
Q 3016 1369 3016 2328 
Q 3016 3291 2770 3770 
Q 2525 4250 2034 4250 
z
M 2034 4750 
Q 2819 4750 3233 4129 
Q 3647 3509 3647 2328 
Q 3647 1150 3233 529 
Q 2819 -91 2034 -91 
Q 1250 -91 836 529 
Q 422 1150 422 2328 
Q 422 3509 836 4129 
Q 1250 4750 2034 4750 
z
" transform="scale(0.015625)"/>
       </defs>
       <use xlink:href="#DejaVuSans-30"/>
      </g>
     </g>
    </g>
    <g id="xtick_2">
     <g id="line2d_3">
      <path d="M 474.206023 321.0835 
L 474.206023 35.7555 
" clip-path="url(#p27f0594bce)" style="fill: none; stroke: #b0b0b0; stroke-opacity: 0.3; stroke-width: 0.8; stroke-linecap: square"/>
     </g>
     <g id="line2d_4">
      <g>
       <use xlink:href="#mc783a1d77d" x="474.206023" y="321.0835" style="stroke: #000000; stroke-width: 0.8"/>
      </g>
     </g>
     <g id="text_2">
      <!-- 20 -->
      <g transform="translate(467.843523 335.681938) scale(0.1 -0.1)">
       <defs>
        <path id="DejaVuSans-32" d="M 1228 531 
L 3431 531 
L 3431 0 
L 469 0 
L 469 531 
Q 828 903 1448 1529 
Q 2069 2156 2228 2338 
Q 2531 2678 2651 2914 
Q 2772 3150 2772 3378 
Q 2772 3750 2511 3984 
Q 2250 4219 1831 4219 
Q 1534 4219 1204 4116 
Q 875 4013 500 3803 
L 500 4441 
Q 881 4594 1212 4672 
Q 1544 4750 1819 4750 
Q 2544 4750 2975 4387 
Q 3406 4025 3406 3419 
Q 3406 3131 3298 2873 
Q 3191 2616 2906 2266 
Q 2828 2175 2409 1742 
Q 1991 1309 1228 531 
z
" transform="scale(0.015625)"/>
       </defs>
       <use xlink:href="#DejaVuSans-32"/>
       <use xlink:href="#DejaVuSans-30" transform="translate(63.623047 0)"/>
      </g>
     </g>
    </g>
    <g id="xtick_3">
     <g id="line2d_5">
      <path d="M 593.877841 321.0835 
L 593.877841 35.7555 
" clip-path="url(#p27f0594bce)" style="fill: none; stroke: #b0b0b0; stroke-opacity: 0.3; stroke-width: 0.8; stroke-linecap: square"/>
     </g>
     <g id="line2d_6">
      <g>
       <use xlink:href="#mc783a1d77d" x="593.877841" y="321.0835" style="stroke: #000000; stroke-width: 0.8"/>
      </g>
     </g>
     <g id="text_3">
      <!-- 40 -->
      <g transform="translate(587.515341 335.681938) scale(0.1 -0.1)">
       <defs>
        <path id="DejaVuSans-34" d="M 2419 4116 
L 825 1625 
L 2419 1625 
L 2419 4116 
z
M 2253 4666 
L 3047 4666 
L 3047 1625 
L 3713 1625 
L 3713 1100 
L 3047 1100 
L 3047 0 
L 2419 0 
L 2419 1100 
L 313 1100 
L 313 1709 
L 2253 4666 
z
" transform="scale(0.015625)"/>
       </defs>
       <use xlink:href="#DejaVuSans-34"/>
       <use xlink:href="#DejaVuSans-30" transform="translate(63.623047 0)"/>
      </g>
     </g>
    </g>
    <g id="xtick_4">
     <g id="line2d_7">
      <path d="M 713.549659 321.0835 
L 713.549659 35.7555 
" clip-path="url(#p27f0594bce)" style="fill: none; stroke: #b0b0b0; stroke-opacity: 0.3; stroke-width: 0.8; stroke-linecap: square"/>
     </g>
     <g id="line2d_8">
      <g>
       <use xlink:href="#mc783a1d77d" x="713.549659" y="321.0835" style="stroke: #000000; stroke-width: 0.8"/>
      </g>
     </g>
     <g id="text_4">
      <!-- 60 -->
      <g transform="translate(707.187159 335.681938) scale(0.1 -0.1)">
       <defs>
        <path id="DejaVuSans-36" d="M 2113 2584 
Q 1688 2584 1439 2293 
Q 1191 2003 1191 1497 
Q 1191 994 1439 701 
Q 1688 409 2113 409 
Q 2538 409 2786 701 
Q 3034 994 3034 1497 
Q 3034 2003 2786 2293 
Q 2538 2584 2113 2584 
z
M 3366 4563 
L 3366 3988 
Q 3128 4100 2886 4159 
Q 2644 4219 2406 4219 
Q 1781 4219 1451 3797 
Q 1122 3375 1075 2522 
Q 1259 2794 1537 2939 
Q 1816 3084 2150 3084 
Q 2853 3084 3261 2657 
Q 3669 2231 3669 1497 
Q 3669 778 3244 343 
Q 2819 -91 2113 -91 
Q 1303 -91 875 529 
Q 447 1150 447 2328 
Q 447 3434 972 4092 
Q 1497 4750 2381 4750 
Q 2619 4750 2861 4703 
Q 3103 4656 3366 4563 
z
" transform="scale(0.015625)"/>
       </defs>
       <use xlink:href="#DejaVuSans-36"/>
       <use xlink:href="#DejaVuSans-30" transform="translate(63.623047 0)"/>
      </g>
     </g>
    </g>
    <g id="xtick_5">
     <g id="line2d_9">
      <path d="M 833.221477 321.0835 
L 833.221477 35.7555 
" clip-path="url(#p27f0594bce)" style="fill: none; stroke: #b0b0b0; stroke-opacity: 0.3; stroke-width: 0.8; stroke-linecap: square"/>
     </g>
     <g id="line2d_10">
      <g>
       <use xlink:href="#mc783a1d77d" x="833.221477" y="321.0835" style="stroke: #000000; stroke-width: 0.8"/>
      </g>
     </g>
     <g id="text_5">
      <!-- 80 -->
      <g transform="translate(826.858977 335.681938) scale(0.1 -0.1)">
       <defs>
        <path id="DejaVuSans-38" d="M 2034 2216 
Q 1584 2216 1326 1975 
Q 1069 1734 1069 1313 
Q 1069 891 1326 650 
Q 1584 409 2034 409 
Q 2484 409 2743 651 
Q 3003 894 3003 1313 
Q 3003 1734 2745 1975 
Q 2488 2216 2034 2216 
z
M 1403 2484 
Q 997 2584 770 2862 
Q 544 3141 544 3541 
Q 544 4100 942 4425 
Q 1341 4750 2034 4750 
Q 2731 4750 3128 4425 
Q 3525 4100 3525 3541 
Q 3525 3141 3298 2862 
Q 3072 2584 2669 2484 
Q 3125 2378 3379 2068 
Q 3634 1759 3634 1313 
Q 3634 634 3220 271 
Q 2806 -91 2034 -91 
Q 1263 -91 848 271 
Q 434 634 434 1313 
Q 434 1759 690 2068 
Q 947 2378 1403 2484 
z
M 1172 3481 
Q 1172 3119 1398 2916 
Q 1625 2713 2034 2713 
Q 2441 2713 2670 2916 
Q 2900 3119 2900 3481 
Q 2900 3844 2670 4047 
Q 2441 4250 2034 4250 
Q 1625 4250 1398 4047 
Q 1172 3844 1172 3481 
z
" transform="scale(0.015625)"/>
       </defs>
       <use xlink:href="#DejaVuSans-38"/>
       <use xlink:href="#DejaVuSans-30" transform="translate(63.623047 0)"/>
      </g>
     </g>
    </g>
    <g id="xtick_6">
     <g id="line2d_11">
      <path d="M 952.893295 321.0835 
L 952.893295 35.7555 
" clip-path="url(#p27f0594bce)" style="fill: none; stroke: #b0b0b0; stroke-opacity: 0.3; stroke-width: 0.8; stroke-linecap: square"/>
     </g>
     <g id="line2d_12">
      <g>
       <use xlink:href="#mc783a1d77d" x="952.893295" y="321.0835" style="stroke: #000000; stroke-width: 0.8"/>
      </g>
     </g>
     <g id="text_6">
      <!-- 100 -->
      <g transform="translate(943.349545 335.681938) scale(0.1 -0.1)">
       <defs>
        <path id="DejaVuSans-31" d="M 794 531 
L 1825 531 
L 1825 4091 
L 703 3866 
L 703 4441 
L 1819 4666 
L 2450 4666 
L 2450 531 
L 3481 531 
L 3481 0 
L 794 0 
L 794 531 
z
" transform="scale(0.015625)"/>
       </defs>
       <use xlink:href="#DejaVuSans-31"/>
       <use xlink:href="#DejaVuSans-30" transform="translate(63.623047 0)"/>
       <use xlink:href="#DejaVuSans-30" transform="translate(127.246094 0)"/>
      </g>
     </g>
    </g>
    <g id="text_7">
     <!-- HVAT Brake Position (% locked) -->
     <g transform="translate(575.789531 349.360062) scale(0.1 -0.1)">
      <defs>
       <path id="DejaVuSans-48" d="M 628 4666 
L 1259 4666 
L 1259 2753 
L 3553 2753 
L 3553 4666 
L 4184 4666 
L 4184 0 
L 3553 0 
L 3553 2222 
L 1259 2222 
L 1259 0 
L 628 0 
L 628 4666 
z
" transform="scale(0.015625)"/>
       <path id="DejaVuSans-56" d="M 1831 0 
L 50 4666 
L 709 4666 
L 2188 738 
L 3669 4666 
L 4325 4666 
L 2547 0 
L 1831 0 
z
" transform="scale(0.015625)"/>
       <path id="DejaVuSans-41" d="M 2188 4044 
L 1331 1722 
L 3047 1722 
L 2188 4044 
z
M 1831 4666 
L 2547 4666 
L 4325 0 
L 3669 0 
L 3244 1197 
L 1141 1197 
L 716 0 
L 50 0 
L 1831 4666 
z
" transform="scale(0.015625)"/>
       <path id="DejaVuSans-54" d="M -19 4666 
L 3928 4666 
L 3928 4134 
L 2272 4134 
L 2272 0 
L 1638 0 
L 1638 4134 
L -19 4134 
L -19 4666 
z
" transform="scale(0.015625)"/>
       <path id="DejaVuSans-20" transform="scale(0.015625)"/>
       <path id="DejaVuSans-42" d="M 1259 2228 
L 1259 519 
L 2272 519 
Q 2781 519 3026 730 
Q 3272 941 3272 1375 
Q 3272 1813 3026 2020 
Q 2781 2228 2272 2228 
L 1259 2228 
z
M 1259 4147 
L 1259 2741 
L 2194 2741 
Q 2656 2741 2882 2914 
Q 3109 3088 3109 3444 
Q 3109 3797 2882 3972 
Q 2656 4147 2194 4147 
L 1259 4147 
z
M 628 4666 
L 2241 4666 
Q 2963 4666 3353 4366 
Q 3744 4066 3744 3513 
Q 3744 3084 3544 2831 
Q 3344 2578 2956 2516 
Q 3422 2416 3680 2098 
Q 3938 1781 3938 1306 
Q 3938 681 3513 340 
Q 3088 0 2303 0 
L 628 0 
L 628 4666 
z
" transform="scale(0.015625)"/>
       <path id="DejaVuSans-72" d="M 2631 2963 
Q 2534 3019 2420 3045 
Q 2306 3072 2169 3072 
Q 1681 3072 1420 2755 
Q 1159 2438 1159 1844 
L 1159 0 
L 581 0 
L 581 3500 
L 1159 3500 
L 1159 2956 
Q 1341 3275 1631 3429 
Q 1922 3584 2338 3584 
Q 2397 3584 2469 3576 
Q 2541 3569 2628 3553 
L 2631 2963 
z
" transform="scale(0.015625)"/>
       <path id="DejaVuSans-61" d="M 2194 1759 
Q 1497 1759 1228 1600 
Q 959 1441 959 1056 
Q 959 750 1161 570 
Q 1363 391 1709 391 
Q 2188 391 2477 730 
Q 2766 1069 2766 1631 
L 2766 1759 
L 2194 1759 
z
M 3341 1997 
L 3341 0 
L 2766 0 
L 2766 531 
Q 2569 213 2275 61 
Q 1981 -91 1556 -91 
Q 1019 -91 701 211 
Q 384 513 384 1019 
Q 384 1609 779 1909 
Q 1175 2209 1959 2209 
L 2766 2209 
L 2766 2266 
Q 2766 2663 2505 2880 
Q 2244 3097 1772 3097 
Q 1472 3097 1187 3025 
Q 903 2953 641 2809 
L 641 3341 
Q 956 3463 1253 3523 
Q 1550 3584 1831 3584 
Q 2591 3584 2966 3190 
Q 3341 2797 3341 1997 
z
" transform="scale(0.015625)"/>
       <path id="DejaVuSans-6b" d="M 581 4863 
L 1159 4863 
L 1159 1991 
L 2875 3500 
L 3609 3500 
L 1753 1863 
L 3688 0 
L 2938 0 
L 1159 1709 
L 1159 0 
L 581 0 
L 581 4863 
z
" transform="scale(0.015625)"/>
       <path id="DejaVuSans-65" d="M 3597 1894 
L 3597 1613 
L 953 1613 
Q 991 1019 1311 708 
Q 1631 397 2203 397 
Q 2534 397 2845 478 
Q 3156 559 3463 722 
L 3463 178 
Q 3153 47 2828 -22 
Q 2503 -91 2169 -91 
Q 1331 -91 842 396 
Q 353 884 353 1716 
Q 353 2575 817 3079 
Q 1281 3584 2069 3584 
Q 2775 3584 3186 3129 
Q 3597 2675 3597 1894 
z
M 3022 2063 
Q 3016 2534 2758 2815 
Q 2500 3097 2075 3097 
Q 1594 3097 1305 2825 
Q 1016 2553 972 2059 
L 3022 2063 
z
" transform="scale(0.015625)"/>
       <path id="DejaVuSans-50" d="M 1259 4147 
L 1259 2394 
L 2053 2394 
Q 2494 2394 2734 2622 
Q 2975 2850 2975 3272 
Q 2975 3691 2734 3919 
Q 2494 4147 2053 4147 
L 1259 4147 
z
M 628 4666 
L 2053 4666 
Q 2838 4666 3239 4311 
Q 3641 3956 3641 3272 
Q 3641 2581 3239 2228 
Q 2838 1875 2053 1875 
L 1259 1875 
L 1259 0 
L 628 0 
L 628 4666 
z
" transform="scale(0.015625)"/>
       <path id="DejaVuSans-6f" d="M 1959 3097 
Q 1497 3097 1228 2736 
Q 959 2375 959 1747 
Q 959 1119 1226 758 
Q 1494 397 1959 397 
Q 2419 397 2687 759 
Q 2956 1122 2956 1747 
Q 2956 2369 2687 2733 
Q 2419 3097 1959 3097 
z
M 1959 3584 
Q 2709 3584 3137 3096 
Q 3566 2609 3566 1747 
Q 3566 888 3137 398 
Q 2709 -91 1959 -91 
Q 1206 -91 779 398 
Q 353 888 353 1747 
Q 353 2609 779 3096 
Q 1206 3584 1959 3584 
z
" transform="scale(0.015625)"/>
       <path id="DejaVuSans-73" d="M 2834 3397 
L 2834 2853 
Q 2591 2978 2328 3040 
Q 2066 3103 1784 3103 
Q 1356 3103 1142 2972 
Q 928 2841 928 2578 
Q 928 2378 1081 2264 
Q 1234 2150 1697 2047 
L 1894 2003 
Q 2506 1872 2764 1633 
Q 3022 1394 3022 966 
Q 3022 478 2636 193 
Q 2250 -91 1575 -91 
Q 1294 -91 989 -36 
Q 684 19 347 128 
L 347 722 
Q 666 556 975 473 
Q 1284 391 1588 391 
Q 1994 391 2212 530 
Q 2431 669 2431 922 
Q 2431 1156 2273 1281 
Q 2116 1406 1581 1522 
L 1381 1569 
Q 847 1681 609 1914 
Q 372 2147 372 2553 
Q 372 3047 722 3315 
Q 1072 3584 1716 3584 
Q 2034 3584 2315 3537 
Q 2597 3491 2834 3397 
z
" transform="scale(0.015625)"/>
       <path id="DejaVuSans-69" d="M 603 3500 
L 1178 3500 
L 1178 0 
L 603 0 
L 603 3500 
z
M 603 4863 
L 1178 4863 
L 1178 4134 
L 603 4134 
L 603 4863 
z
" transform="scale(0.015625)"/>
       <path id="DejaVuSans-74" d="M 1172 4494 
L 1172 3500 
L 2356 3500 
L 2356 3053 
L 1172 3053 
L 1172 1153 
Q 1172 725 1289 603 
Q 1406 481 1766 481 
L 2356 481 
L 2356 0 
L 1766 0 
Q 1100 0 847 248 
Q 594 497 594 1153 
L 594 3053 
L 172 3053 
L 172 3500 
L 594 3500 
L 594 4494 
L 1172 4494 
z
" transform="scale(0.015625)"/>
       <path id="DejaVuSans-6e" d="M 3513 2113 
L 3513 0 
L 2938 0 
L 2938 2094 
Q 2938 2591 2744 2837 
Q 2550 3084 2163 3084 
Q 1697 3084 1428 2787 
Q 1159 2491 1159 1978 
L 1159 0 
L 581 0 
L 581 3500 
L 1159 3500 
L 1159 2956 
Q 1366 3272 1645 3428 
Q 1925 3584 2291 3584 
Q 2894 3584 3203 3211 
Q 3513 2838 3513 2113 
z
" transform="scale(0.015625)"/>
       <path id="DejaVuSans-28" d="M 1984 4856 
Q 1566 4138 1362 3434 
Q 1159 2731 1159 2009 
Q 1159 1288 1364 580 
Q 1569 -128 1984 -844 
L 1484 -844 
Q 1016 -109 783 600 
Q 550 1309 550 2009 
Q 550 2706 781 3412 
Q 1013 4119 1484 4856 
L 1984 4856 
z
" transform="scale(0.015625)"/>
       <path id="DejaVuSans-25" d="M 4653 2053 
Q 4381 2053 4226 1822 
Q 4072 1591 4072 1178 
Q 4072 772 4226 539 
Q 4381 306 4653 306 
Q 4919 306 5073 539 
Q 5228 772 5228 1178 
Q 5228 1588 5073 1820 
Q 4919 2053 4653 2053 
z
M 4653 2450 
Q 5147 2450 5437 2106 
Q 5728 1763 5728 1178 
Q 5728 594 5436 251 
Q 5144 -91 4653 -91 
Q 4153 -91 3862 251 
Q 3572 594 3572 1178 
Q 3572 1766 3864 2108 
Q 4156 2450 4653 2450 
z
M 1428 4353 
Q 1159 4353 1004 4120 
Q 850 3888 850 3481 
Q 850 3069 1003 2837 
Q 1156 2606 1428 2606 
Q 1700 2606 1854 2837 
Q 2009 3069 2009 3481 
Q 2009 3884 1853 4118 
Q 1697 4353 1428 4353 
z
M 4250 4750 
L 4750 4750 
L 1831 -91 
L 1331 -91 
L 4250 4750 
z
M 1428 4750 
Q 1922 4750 2215 4408 
Q 2509 4066 2509 3481 
Q 2509 2891 2217 2550 
Q 1925 2209 1428 2209 
Q 931 2209 642 2551 
Q 353 2894 353 3481 
Q 353 4063 643 4406 
Q 934 4750 1428 4750 
z
" transform="scale(0.015625)"/>
       <path id="DejaVuSans-6c" d="M 603 4863 
L 1178 4863 
L 1178 0 
L 603 0 
L 603 4863 
z
" transform="scale(0.015625)"/>
       <path id="DejaVuSans-63" d="M 3122 3366 
L 3122 2828 
Q 2878 2963 2633 3030 
Q 2388 3097 2138 3097 
Q 1578 3097 1268 2742 
Q 959 2388 959 1747 
Q 959 1106 1268 751 
Q 1578 397 2138 397 
Q 2388 397 2633 464 
Q 2878 531 3122 666 
L 3122 134 
Q 2881 22 2623 -34 
Q 2366 -91 2075 -91 
Q 1284 -91 818 406 
Q 353 903 353 1747 
Q 353 2603 823 3093 
Q 1294 3584 2113 3584 
Q 2378 3584 2631 3529 
Q 2884 3475 3122 3366 
z
" transform="scale(0.015625)"/>
       <path id="DejaVuSans-64" d="M 2906 2969 
L 2906 4863 
L 3481 4863 
L 3481 0 
L 2906 0 
L 2906 525 
Q 2725 213 2448 61 
Q 2172 -91 1784 -91 
Q 1150 -91 751 415 
Q 353 922 353 1747 
Q 353 2572 751 3078 
Q 1150 3584 1784 3584 
Q 2172 3584 2448 3432 
Q 2725 3281 2906 2969 
z
M 947 1747 
Q 947 1113 1208 752 
Q 1469 391 1925 391 
Q 2381 391 2643 752 
Q 2906 1113 2906 1747 
Q 2906 2381 2643 2742 
Q 2381 3103 1925 3103 
Q 1469 3103 1208 2742 
Q 947 2381 947 1747 
z
" transform="scale(0.015625)"/>
       <path id="DejaVuSans-29" d="M 513 4856 
L 1013 4856 
Q 1481 4119 1714 3412 
Q 1947 2706 1947 2009 
Q 1947 1309 1714 600 
Q 1481 -109 1013 -844 
L 513 -844 
Q 928 -128 1133 580 
Q 1338 1288 1338 2009 
Q 1338 2731 1133 3434 
Q 928 4138 513 4856 
z
" transform="scale(0.015625)"/>
      </defs>
      <use xlink:href="#DejaVuSans-48"/>
      <use xlink:href="#DejaVuSans-56" transform="translate(75.195312 0)"/>
      <use xlink:href="#DejaVuSans-41" transform="translate(137.228516 0)"/>
      <use xlink:href="#DejaVuSans-54" transform="translate(197.886719 0)"/>
      <use xlink:href="#DejaVuSans-20" transform="translate(258.970703 0)"/>
      <use xlink:href="#DejaVuSans-42" transform="translate(290.757812 0)"/>
      <use xlink:href="#DejaVuSans-72" transform="translate(359.361328 0)"/>
      <use xlink:href="#DejaVuSans-61" transform="translate(400.474609 0)"/>
      <use xlink:href="#DejaVuSans-6b" transform="translate(461.753906 0)"/>
      <use xlink:href="#DejaVuSans-65" transform="translate(516.039062 0)"/>
      <use xlink:href="#DejaVuSans-20" transform="translate(577.5625 0)"/>
      <use xlink:href="#DejaVuSans-50" transform="translate(609.349609 0)"/>
      <use xlink:href="#DejaVuSans-6f" transform="translate(666.027344 0)"/>
      <use xlink:href="#DejaVuSans-73" transform="translate(727.208984 0)"/>
      <use xlink:href="#DejaVuSans-69" transform="translate(779.308594 0)"/>
      <use xlink:href="#DejaVuSans-74" transform="translate(807.091797 0)"/>
      <use xlink:href="#DejaVuSans-69" transform="translate(846.300781 0)"/>
      <use xlink:href="#DejaVuSans-6f" transform="translate(874.083984 0)"/>
      <use xlink:href="#DejaVuSans-6e" transform="translate(935.265625 0)"/>
      <use xlink:href="#DejaVuSans-20" transform="translate(998.644531 0)"/>
      <use xlink:href="#DejaVuSans-28" transform="translate(1030.431641 0)"/>
      <use xlink:href="#DejaVuSans-25" transform="translate(1069.445312 0)"/>
      <use xlink:href="#DejaVuSans-20" transform="translate(1164.464844 0)"/>
      <use xlink:href="#DejaVuSans-6c" transform="translate(1196.251953 0)"/>
      <use xlink:href="#DejaVuSans-6f" transform="translate(1224.035156 0)"/>
      <use xlink:href="#DejaVuSans-63" transform="translate(1285.216797 0)"/>
      <use xlink:href="#DejaVuSans-6b" transform="translate(1340.197266 0)"/>
      <use xlink:href="#DejaVuSans-65" transform="translate(1394.482422 0)"/>
      <use xlink:href="#DejaVuSans-64" transform="translate(1456.005859 0)"/>
      <use xlink:href="#DejaVuSans-29" transform="translate(1519.482422 0)"/>
     </g>
    </g>
   </g>
   <g id="matplotlib.axis_2">
    <g id="ytick_1">
     <g id="line2d_13">
      <path d="M 324.61625 265.68223 
L 982.81125 265.68223 
" clip-path="url(#p27f0594bce)" style="fill: none; stroke: #b0b0b0; stroke-opacity: 0.3; stroke-width: 0.8; stroke-linecap: square"/>
     </g>
     <g id="line2d_14">
      <defs>
       <path id="m2d19889e33" d="M 0 0 
L -3.5 0 
" style="stroke: #000000; stroke-width: 0.8"/>
      </defs>
      <g>
       <use xlink:href="#m2d19889e33" x="324.61625" y="265.68223" style="stroke: #000000; stroke-width: 0.8"/>
      </g>
     </g>
     <g id="text_8">
      <!-- 60 -->
      <g transform="translate(304.89125 269.481448) scale(0.1 -0.1)">
       <use xlink:href="#DejaVuSans-36"/>
       <use xlink:href="#DejaVuSans-30" transform="translate(63.623047 0)"/>
      </g>
     </g>
    </g>
    <g id="ytick_2">
     <g id="line2d_15">
      <path d="M 324.61625 207.826956 
L 982.81125 207.826956 
" clip-path="url(#p27f0594bce)" style="fill: none; stroke: #b0b0b0; stroke-opacity: 0.3; stroke-width: 0.8; stroke-linecap: square"/>
     </g>
     <g id="line2d_16">
      <g>
       <use xlink:href="#m2d19889e33" x="324.61625" y="207.826956" style="stroke: #000000; stroke-width: 0.8"/>
      </g>
     </g>
     <g id="text_9">
      <!-- 80 -->
      <g transform="translate(304.89125 211.626175) scale(0.1 -0.1)">
       <use xlink:href="#DejaVuSans-38"/>
       <use xlink:href="#DejaVuSans-30" transform="translate(63.623047 0)"/>
      </g>
     </g>
    </g>
    <g id="ytick_3">
     <g id="line2d_17">
      <path d="M 324.61625 149.971683 
L 982.81125 149.971683 
" clip-path="url(#p27f0594bce)" style="fill: none; stroke: #b0b0b0; stroke-opacity: 0.3; stroke-width: 0.8; stroke-linecap: square"/>
     </g>
     <g id="line2d_18">
      <g>
       <use xlink:href="#m2d19889e33" x="324.61625" y="149.971683" style="stroke: #000000; stroke-width: 0.8"/>
      </g>
     </g>
     <g id="text_10">
      <!-- 100 -->
      <g transform="translate(298.52875 153.770902) scale(0.1 -0.1)">
       <use xlink:href="#DejaVuSans-31"/>
       <use xlink:href="#DejaVuSans-30" transform="translate(63.623047 0)"/>
       <use xlink:href="#DejaVuSans-30" transform="translate(127.246094 0)"/>
      </g>
     </g>
    </g>
    <g id="ytick_4">
     <g id="line2d_19">
      <path d="M 324.61625 92.11641 
L 982.81125 92.11641 
" clip-path="url(#p27f0594bce)" style="fill: none; stroke: #b0b0b0; stroke-opacity: 0.3; stroke-width: 0.8; stroke-linecap: square"/>
     </g>
     <g id="line2d_20">
      <g>
       <use xlink:href="#m2d19889e33" x="324.61625" y="92.11641" style="stroke: #000000; stroke-width: 0.8"/>
      </g>
     </g>
     <g id="text_11">
      <!-- 120 -->
      <g transform="translate(298.52875 95.915628) scale(0.1 -0.1)">
       <use xlink:href="#DejaVuSans-31"/>
       <use xlink:href="#DejaVuSans-32" transform="translate(63.623047 0)"/>
       <use xlink:href="#DejaVuSans-30" transform="translate(127.246094 0)"/>
      </g>
     </g>
    </g>
    <g id="text_12">
     <!-- Relative Bubble Size / Variation -->
     <g transform="translate(292.449062 256.484344) rotate(-90) scale(0.1 -0.1)">
      <defs>
       <path id="DejaVuSans-52" d="M 2841 2188 
Q 3044 2119 3236 1894 
Q 3428 1669 3622 1275 
L 4263 0 
L 3584 0 
L 2988 1197 
Q 2756 1666 2539 1819 
Q 2322 1972 1947 1972 
L 1259 1972 
L 1259 0 
L 628 0 
L 628 4666 
L 2053 4666 
Q 2853 4666 3247 4331 
Q 3641 3997 3641 3322 
Q 3641 2881 3436 2590 
Q 3231 2300 2841 2188 
z
M 1259 4147 
L 1259 2491 
L 2053 2491 
Q 2509 2491 2742 2702 
Q 2975 2913 2975 3322 
Q 2975 3731 2742 3939 
Q 2509 4147 2053 4147 
L 1259 4147 
z
" transform="scale(0.015625)"/>
       <path id="DejaVuSans-76" d="M 191 3500 
L 800 3500 
L 1894 563 
L 2988 3500 
L 3597 3500 
L 2284 0 
L 1503 0 
L 191 3500 
z
" transform="scale(0.015625)"/>
       <path id="DejaVuSans-75" d="M 544 1381 
L 544 3500 
L 1119 3500 
L 1119 1403 
Q 1119 906 1312 657 
Q 1506 409 1894 409 
Q 2359 409 2629 706 
Q 2900 1003 2900 1516 
L 2900 3500 
L 3475 3500 
L 3475 0 
L 2900 0 
L 2900 538 
Q 2691 219 2414 64 
Q 2138 -91 1772 -91 
Q 1169 -91 856 284 
Q 544 659 544 1381 
z
M 1991 3584 
L 1991 3584 
z
" transform="scale(0.015625)"/>
       <path id="DejaVuSans-62" d="M 3116 1747 
Q 3116 2381 2855 2742 
Q 2594 3103 2138 3103 
Q 1681 3103 1420 2742 
Q 1159 2381 1159 1747 
Q 1159 1113 1420 752 
Q 1681 391 2138 391 
Q 2594 391 2855 752 
Q 3116 1113 3116 1747 
z
M 1159 2969 
Q 1341 3281 1617 3432 
Q 1894 3584 2278 3584 
Q 2916 3584 3314 3078 
Q 3713 2572 3713 1747 
Q 3713 922 3314 415 
Q 2916 -91 2278 -91 
Q 1894 -91 1617 61 
Q 1341 213 1159 525 
L 1159 0 
L 581 0 
L 581 4863 
L 1159 4863 
L 1159 2969 
z
" transform="scale(0.015625)"/>
       <path id="DejaVuSans-53" d="M 3425 4513 
L 3425 3897 
Q 3066 4069 2747 4153 
Q 2428 4238 2131 4238 
Q 1616 4238 1336 4038 
Q 1056 3838 1056 3469 
Q 1056 3159 1242 3001 
Q 1428 2844 1947 2747 
L 2328 2669 
Q 3034 2534 3370 2195 
Q 3706 1856 3706 1288 
Q 3706 609 3251 259 
Q 2797 -91 1919 -91 
Q 1588 -91 1214 -16 
Q 841 59 441 206 
L 441 856 
Q 825 641 1194 531 
Q 1563 422 1919 422 
Q 2459 422 2753 634 
Q 3047 847 3047 1241 
Q 3047 1584 2836 1778 
Q 2625 1972 2144 2069 
L 1759 2144 
Q 1053 2284 737 2584 
Q 422 2884 422 3419 
Q 422 4038 858 4394 
Q 1294 4750 2059 4750 
Q 2388 4750 2728 4690 
Q 3069 4631 3425 4513 
z
" transform="scale(0.015625)"/>
       <path id="DejaVuSans-7a" d="M 353 3500 
L 3084 3500 
L 3084 2975 
L 922 459 
L 3084 459 
L 3084 0 
L 275 0 
L 275 525 
L 2438 3041 
L 353 3041 
L 353 3500 
z
" transform="scale(0.015625)"/>
       <path id="DejaVuSans-2f" d="M 1625 4666 
L 2156 4666 
L 531 -594 
L 0 -594 
L 1625 4666 
z
" transform="scale(0.015625)"/>
      </defs>
      <use xlink:href="#DejaVuSans-52"/>
      <use xlink:href="#DejaVuSans-65" transform="translate(64.982422 0)"/>
      <use xlink:href="#DejaVuSans-6c" transform="translate(126.505859 0)"/>
      <use xlink:href="#DejaVuSans-61" transform="translate(154.289062 0)"/>
      <use xlink:href="#DejaVuSans-74" transform="translate(215.568359 0)"/>
      <use xlink:href="#DejaVuSans-69" transform="translate(254.777344 0)"/>
      <use xlink:href="#DejaVuSans-76" transform="translate(282.560547 0)"/>
      <use xlink:href="#DejaVuSans-65" transform="translate(341.740234 0)"/>
      <use xlink:href="#DejaVuSans-20" transform="translate(403.263672 0)"/>
      <use xlink:href="#DejaVuSans-42" transform="translate(435.050781 0)"/>
      <use xlink:href="#DejaVuSans-75" transform="translate(503.654297 0)"/>
      <use xlink:href="#DejaVuSans-62" transform="translate(567.033203 0)"/>
      <use xlink:href="#DejaVuSans-62" transform="translate(630.509766 0)"/>
      <use xlink:href="#DejaVuSans-6c" transform="translate(693.986328 0)"/>
      <use xlink:href="#DejaVuSans-65" transform="translate(721.769531 0)"/>
      <use xlink:href="#DejaVuSans-20" transform="translate(783.292969 0)"/>
      <use xlink:href="#DejaVuSans-53" transform="translate(815.080078 0)"/>
      <use xlink:href="#DejaVuSans-69" transform="translate(878.556641 0)"/>
      <use xlink:href="#DejaVuSans-7a" transform="translate(906.339844 0)"/>
      <use xlink:href="#DejaVuSans-65" transform="translate(958.830078 0)"/>
      <use xlink:href="#DejaVuSans-20" transform="translate(1020.353516 0)"/>
      <use xlink:href="#DejaVuSans-2f" transform="translate(1052.140625 0)"/>
      <use xlink:href="#DejaVuSans-20" transform="translate(1085.832031 0)"/>
      <use xlink:href="#DejaVuSans-56" transform="translate(1117.619141 0)"/>
      <use xlink:href="#DejaVuSans-61" transform="translate(1178.277344 0)"/>
      <use xlink:href="#DejaVuSans-72" transform="translate(1239.556641 0)"/>
      <use xlink:href="#DejaVuSans-69" transform="translate(1280.669922 0)"/>
      <use xlink:href="#DejaVuSans-61" transform="translate(1308.453125 0)"/>
      <use xlink:href="#DejaVuSans-74" transform="translate(1369.732422 0)"/>
      <use xlink:href="#DejaVuSans-69" transform="translate(1408.941406 0)"/>
      <use xlink:href="#DejaVuSans-6f" transform="translate(1436.724609 0)"/>
      <use xlink:href="#DejaVuSans-6e" transform="translate(1497.90625 0)"/>
     </g>
    </g>
   </g>
   <g id="line2d_21">
    <path d="M 354.534205 149.971683 
L 360.578236 149.340886 
L 366.622267 148.723867 
L 372.666298 148.134307 
L 378.710329 147.58569 
L 384.754361 147.091214 
L 390.798392 146.663691 
L 396.842423 146.315459 
L 402.886454 146.058295 
L 408.930486 145.903332 
L 414.974517 145.860978 
L 421.018548 145.940844 
L 427.062579 146.151675 
L 433.10661 146.501291 
L 439.150642 146.996525 
L 445.194673 147.643182 
L 451.238704 148.445995 
L 457.282735 149.408589 
L 463.326767 150.533459 
L 469.370798 151.82195 
L 475.414829 153.274251 
L 481.45886 154.889387 
L 487.502891 156.665232 
L 493.546923 158.598523 
L 499.590954 160.684881 
L 505.634985 162.918842 
L 511.679016 165.293898 
L 517.723048 167.802541 
L 523.767079 170.43632 
L 529.81111 173.185894 
L 535.855141 176.041104 
L 541.899172 178.991043 
L 547.943204 182.024131 
L 553.987235 185.128204 
L 560.031266 188.29059 
L 566.075297 191.498207 
L 572.119329 194.737652 
L 578.16336 197.995297 
L 584.207391 201.257386 
L 590.251422 204.510128 
L 596.295453 207.739802 
L 602.339485 210.93285 
L 608.383516 214.07597 
L 614.427547 217.156217 
L 620.471578 220.16109 
L 626.51561 223.078622 
L 632.559641 225.897463 
L 638.603672 228.606965 
L 644.647703 231.197252 
L 650.691734 233.659292 
L 656.735766 235.984962 
L 662.779797 238.167104 
L 668.823828 240.199577 
L 674.867859 242.0773 
L 680.91189 243.796288 
L 686.955922 245.353678 
L 692.999953 246.747753 
L 699.043984 247.977954 
L 705.088015 249.044879 
L 711.132047 249.950284 
L 717.176078 250.69707 
L 723.220109 251.289258 
L 729.26414 251.731968 
L 735.308171 252.031374 
L 741.352203 252.194668 
L 747.396234 252.230005 
L 753.440265 252.146445 
L 759.484296 251.953891 
L 765.528328 251.663019 
L 771.572359 251.285197 
L 777.61639 250.832415 
L 783.660421 250.317188 
L 789.704452 249.752476 
L 795.748484 249.151589 
L 801.792515 248.528094 
L 807.836546 247.895716 
L 813.880577 247.268245 
L 819.924609 246.659435 
L 825.96864 246.082908 
L 832.012671 245.552058 
L 838.056702 245.079955 
L 844.100733 244.679254 
L 850.144765 244.362102 
L 856.188796 244.140058 
L 862.232827 244.024003 
L 868.276858 244.024072 
L 874.32089 244.149575 
L 880.364921 244.408933 
L 886.408952 244.809623 
L 892.452983 245.358117 
L 898.497014 246.059842 
L 904.541046 246.919141 
L 910.585077 247.939239 
L 916.629108 249.122225 
L 922.673139 250.469031 
L 928.717171 251.979433 
L 934.761202 253.652046 
L 940.805233 255.484337 
L 946.849264 257.472641 
L 952.893295 259.612191 
" clip-path="url(#p27f0594bce)" style="fill: none; stroke: #0000ff; stroke-width: 2; stroke-linecap: square"/>
   </g>
   <g id="line2d_22">
    <path d="M 563.959886 321.0835 
L 563.959886 35.7555 
" clip-path="url(#p27f0594bce)" style="fill: none; stroke-dasharray: 5.55,2.4; stroke-dashoffset: 0; stroke: #008000; stroke-opacity: 0.7; stroke-width: 1.5"/>
   </g>
   <g id="patch_3">
    <path d="M 324.61625 321.0835 
L 324.61625 35.7555 
" style="fill: none; stroke: #000000; stroke-width: 0.8; stroke-linejoin: miter; stroke-linecap: square"/>
   </g>
   <g id="patch_4">
    <path d="M 982.81125 321.0835 
L 982.81125 35.7555 
" style="fill: none; stroke: #000000; stroke-width: 0.8; stroke-linejoin: miter; stroke-linecap: square"/>
   </g>
   <g id="patch_5">
    <path d="M 324.61625 321.0835 
L 982.81125 321.0835 
" style="fill: none; stroke: #000000; stroke-width: 0.8; stroke-linejoin: miter; stroke-linecap: square"/>
   </g>
   <g id="patch_6">
    <path d="M 324.61625 35.7555 
L 982.81125 35.7555 
" style="fill: none; stroke: #000000; stroke-width: 0.8; stroke-linejoin: miter; stroke-linecap: square"/>
   </g>
   <g id="text_13">
    <!-- Effect of HVAT Brake on Estimated Bubble Size Distribution -->
    <g transform="translate(476.570312 16.318125) scale(0.12 -0.12)">
     <defs>
      <path id="DejaVuSans-45" d="M 628 4666 
L 3578 4666 
L 3578 4134 
L 1259 4134 
L 1259 2753 
L 3481 2753 
L 3481 2222 
L 1259 2222 
L 1259 531 
L 3634 531 
L 3634 0 
L 628 0 
L 628 4666 
z
" transform="scale(0.015625)"/>
      <path id="DejaVuSans-66" d="M 2375 4863 
L 2375 4384 
L 1825 4384 
Q 1516 4384 1395 4259 
Q 1275 4134 1275 3809 
L 1275 3500 
L 2222 3500 
L 2222 3053 
L 1275 3053 
L 1275 0 
L 697 0 
L 697 3053 
L 147 3053 
L 147 3500 
L 697 3500 
L 697 3744 
Q 697 4328 969 4595 
Q 1241 4863 1831 4863 
L 2375 4863 
z
" transform="scale(0.015625)"/>
      <path id="DejaVuSans-6d" d="M 3328 2828 
Q 3544 3216 3844 3400 
Q 4144 3584 4550 3584 
Q 5097 3584 5394 3201 
Q 5691 2819 5691 2113 
L 5691 0 
L 5113 0 
L 5113 2094 
Q 5113 2597 4934 2840 
Q 4756 3084 4391 3084 
Q 3944 3084 3684 2787 
Q 3425 2491 3425 1978 
L 3425 0 
L 2847 0 
L 2847 2094 
Q 2847 2600 2669 2842 
Q 2491 3084 2119 3084 
Q 1678 3084 1418 2786 
Q 1159 2488 1159 1978 
L 1159 0 
L 581 0 
L 581 3500 
L 1159 3500 
L 1159 2956 
Q 1356 3278 1631 3431 
Q 1906 3584 2284 3584 
Q 2666 3584 2933 3390 
Q 3200 3197 3328 2828 
z
" transform="scale(0.015625)"/>
      <path id="DejaVuSans-44" d="M 1259 4147 
L 1259 519 
L 2022 519 
Q 2988 519 3436 956 
Q 3884 1394 3884 2338 
Q 3884 3275 3436 3711 
Q 2988 4147 2022 4147 
L 1259 4147 
z
M 628 4666 
L 1925 4666 
Q 3281 4666 3915 4102 
Q 4550 3538 4550 2338 
Q 4550 1131 3912 565 
Q 3275 0 1925 0 
L 628 0 
L 628 4666 
z
" transform="scale(0.015625)"/>
     </defs>
     <use xlink:href="#DejaVuSans-45"/>
     <use xlink:href="#DejaVuSans-66" transform="translate(63.183594 0)"/>
     <use xlink:href="#DejaVuSans-66" transform="translate(98.388672 0)"/>
     <use xlink:href="#DejaVuSans-65" transform="translate(133.59375 0)"/>
     <use xlink:href="#DejaVuSans-63" transform="translate(195.117188 0)"/>
     <use xlink:href="#DejaVuSans-74" transform="translate(250.097656 0)"/>
     <use xlink:href="#DejaVuSans-20" transform="translate(289.306641 0)"/>
     <use xlink:href="#DejaVuSans-6f" transform="translate(321.09375 0)"/>
     <use xlink:href="#DejaVuSans-66" transform="translate(382.275391 0)"/>
     <use xlink:href="#DejaVuSans-20" transform="translate(417.480469 0)"/>
     <use xlink:href="#DejaVuSans-48" transform="translate(449.267578 0)"/>
     <use xlink:href="#DejaVuSans-56" transform="translate(524.462891 0)"/>
     <use xlink:href="#DejaVuSans-41" transform="translate(586.496094 0)"/>
     <use xlink:href="#DejaVuSans-54" transform="translate(647.154297 0)"/>
     <use xlink:href="#DejaVuSans-20" transform="translate(708.238281 0)"/>
     <use xlink:href="#DejaVuSans-42" transform="translate(740.025391 0)"/>
     <use xlink:href="#DejaVuSans-72" transform="translate(808.628906 0)"/>
     <use xlink:href="#DejaVuSans-61" transform="translate(849.742188 0)"/>
     <use xlink:href="#DejaVuSans-6b" transform="translate(911.021484 0)"/>
     <use xlink:href="#DejaVuSans-65" transform="translate(965.306641 0)"/>
     <use xlink:href="#DejaVuSans-20" transform="translate(1026.830078 0)"/>
     <use xlink:href="#DejaVuSans-6f" transform="translate(1058.617188 0)"/>
     <use xlink:href="#DejaVuSans-6e" transform="translate(1119.798828 0)"/>
     <use xlink:href="#DejaVuSans-20" transform="translate(1183.177734 0)"/>
     <use xlink:href="#DejaVuSans-45" transform="translate(1214.964844 0)"/>
     <use xlink:href="#DejaVuSans-73" transform="translate(1278.148438 0)"/>
     <use xlink:href="#DejaVuSans-74" transform="translate(1330.248047 0)"/>
     <use xlink:href="#DejaVuSans-69" transform="translate(1369.457031 0)"/>
     <use xlink:href="#DejaVuSans-6d" transform="translate(1397.240234 0)"/>
     <use xlink:href="#DejaVuSans-61" transform="translate(1494.652344 0)"/>
     <use xlink:href="#DejaVuSans-74" transform="translate(1555.931641 0)"/>
     <use xlink:href="#DejaVuSans-65" transform="translate(1595.140625 0)"/>
     <use xlink:href="#DejaVuSans-64" transform="translate(1656.664062 0)"/>
     <use xlink:href="#DejaVuSans-20" transform="translate(1720.140625 0)"/>
     <use xlink:href="#DejaVuSans-42" transform="translate(1751.927734 0)"/>
     <use xlink:href="#DejaVuSans-75" transform="translate(1820.53125 0)"/>
     <use xlink:href="#DejaVuSans-62" transform="translate(1883.910156 0)"/>
     <use xlink:href="#DejaVuSans-62" transform="translate(1947.386719 0)"/>
     <use xlink:href="#DejaVuSans-6c" transform="translate(2010.863281 0)"/>
     <use xlink:href="#DejaVuSans-65" transform="translate(2038.646484 0)"/>
     <use xlink:href="#DejaVuSans-20" transform="translate(2100.169922 0)"/>
     <use xlink:href="#DejaVuSans-53" transform="translate(2131.957031 0)"/>
     <use xlink:href="#DejaVuSans-69" transform="translate(2195.433594 0)"/>
     <use xlink:href="#DejaVuSans-7a" transform="translate(2223.216797 0)"/>
     <use xlink:href="#DejaVuSans-65" transform="translate(2275.707031 0)"/>
     <use xlink:href="#DejaVuSans-20" transform="translate(2337.230469 0)"/>
     <use xlink:href="#DejaVuSans-44" transform="translate(2369.017578 0)"/>
     <use xlink:href="#DejaVuSans-69" transform="translate(2446.019531 0)"/>
     <use xlink:href="#DejaVuSans-73" transform="translate(2473.802734 0)"/>
     <use xlink:href="#DejaVuSans-74" transform="translate(2525.902344 0)"/>
     <use xlink:href="#DejaVuSans-72" transform="translate(2565.111328 0)"/>
     <use xlink:href="#DejaVuSans-69" transform="translate(2606.224609 0)"/>
     <use xlink:href="#DejaVuSans-62" transform="translate(2634.007812 0)"/>
     <use xlink:href="#DejaVuSans-75" transform="translate(2697.484375 0)"/>
     <use xlink:href="#DejaVuSans-74" transform="translate(2760.863281 0)"/>
     <use xlink:href="#DejaVuSans-69" transform="translate(2800.072266 0)"/>
     <use xlink:href="#DejaVuSans-6f" transform="translate(2827.855469 0)"/>
     <use xlink:href="#DejaVuSans-6e" transform="translate(2889.037109 0)"/>
    </g>
    <!-- (Software Model — For Exploration Only) -->
    <g transform="translate(531.79375 29.7555) scale(0.12 -0.12)">
     <defs>
      <path id="DejaVuSans-77" d="M 269 3500 
L 844 3500 
L 1563 769 
L 2278 3500 
L 2956 3500 
L 3675 769 
L 4391 3500 
L 4966 3500 
L 4050 0 
L 3372 0 
L 2619 2869 
L 1863 0 
L 1184 0 
L 269 3500 
z
" transform="scale(0.015625)"/>
      <path id="DejaVuSans-4d" d="M 628 4666 
L 1569 4666 
L 2759 1491 
L 3956 4666 
L 4897 4666 
L 4897 0 
L 4281 0 
L 4281 4097 
L 3078 897 
L 2444 897 
L 1241 4097 
L 1241 0 
L 628 0 
L 628 4666 
z
" transform="scale(0.015625)"/>
      <path id="DejaVuSans-2014" d="M 313 1978 
L 6088 1978 
L 6088 1528 
L 313 1528 
L 313 1978 
z
" transform="scale(0.015625)"/>
      <path id="DejaVuSans-46" d="M 628 4666 
L 3309 4666 
L 3309 4134 
L 1259 4134 
L 1259 2759 
L 3109 2759 
L 3109 2228 
L 1259 2228 
L 1259 0 
L 628 0 
L 628 4666 
z
" transform="scale(0.015625)"/>
      <path id="DejaVuSans-78" d="M 3513 3500 
L 2247 1797 
L 3578 0 
L 2900 0 
L 1881 1375 
L 863 0 
L 184 0 
L 1544 1831 
L 300 3500 
L 978 3500 
L 1906 2253 
L 2834 3500 
L 3513 3500 
z
" transform="scale(0.015625)"/>
      <path id="DejaVuSans-70" d="M 1159 525 
L 1159 -1331 
L 581 -1331 
L 581 3500 
L 1159 3500 
L 1159 2969 
Q 1341 3281 1617 3432 
Q 1894 3584 2278 3584 
Q 2916 3584 3314 3078 
Q 3713 2572 3713 1747 
Q 3713 922 3314 415 
Q 2916 -91 2278 -91 
Q 1894 -91 1617 61 
Q 1341 213 1159 525 
z
M 3116 1747 
Q 3116 2381 2855 2742 
Q 2594 3103 2138 3103 
Q 1681 3103 1420 2742 
Q 1159 2381 1159 1747 
Q 1159 1113 1420 752 
Q 1681 391 2138 391 
Q 2594 391 2855 752 
Q 3116 1113 3116 1747 
z
" transform="scale(0.015625)"/>
      <path id="DejaVuSans-4f" d="M 2522 4238 
Q 1834 4238 1429 3725 
Q 1025 3213 1025 2328 
Q 1025 1447 1429 934 
Q 1834 422 2522 422 
Q 3209 422 3611 934 
Q 4013 1447 4013 2328 
Q 4013 3213 3611 3725 
Q 3209 4238 2522 4238 
z
M 2522 4750 
Q 3503 4750 4090 4092 
Q 4678 3434 4678 2328 
Q 4678 1225 4090 567 
Q 3503 -91 2522 -91 
Q 1538 -91 948 565 
Q 359 1222 359 2328 
Q 359 3434 948 4092 
Q 1538 4750 2522 4750 
z
" transform="scale(0.015625)"/>
      <path id="DejaVuSans-79" d="M 2059 -325 
Q 1816 -950 1584 -1140 
Q 1353 -1331 966 -1331 
L 506 -1331 
L 506 -850 
L 844 -850 
Q 1081 -850 1212 -737 
Q 1344 -625 1503 -206 
L 1606 56 
L 191 3500 
L 800 3500 
L 1894 763 
L 2988 3500 
L 3597 3500 
L 2059 -325 
z
" transform="scale(0.015625)"/>
     </defs>
     <use xlink:href="#DejaVuSans-28"/>
     <use xlink:href="#DejaVuSans-53" transform="translate(39.013672 0)"/>
     <use xlink:href="#DejaVuSans-6f" transform="translate(102.490234 0)"/>
     <use xlink:href="#DejaVuSans-66" transform="translate(163.671875 0)"/>
     <use xlink:href="#DejaVuSans-74" transform="translate(197.126953 0)"/>
     <use xlink:href="#DejaVuSans-77" transform="translate(236.335938 0)"/>
     <use xlink:href="#DejaVuSans-61" transform="translate(318.123047 0)"/>
     <use xlink:href="#DejaVuSans-72" transform="translate(379.402344 0)"/>
     <use xlink:href="#DejaVuSans-65" transform="translate(418.265625 0)"/>
     <use xlink:href="#DejaVuSans-20" transform="translate(479.789062 0)"/>
     <use xlink:href="#DejaVuSans-4d" transform="translate(511.576172 0)"/>
     <use xlink:href="#DejaVuSans-6f" transform="translate(597.855469 0)"/>
     <use xlink:href="#DejaVuSans-64" transform="translate(659.037109 0)"/>
     <use xlink:href="#DejaVuSans-65" transform="translate(722.513672 0)"/>
     <use xlink:href="#DejaVuSans-6c" transform="translate(784.037109 0)"/>
     <use xlink:href="#DejaVuSans-20" transform="translate(811.820312 0)"/>
     <use xlink:href="#DejaVuSans-2014" transform="translate(843.607422 0)"/>
     <use xlink:href="#DejaVuSans-20" transform="translate(943.607422 0)"/>
     <use xlink:href="#DejaVuSans-46" transform="translate(975.394531 0)"/>
     <use xlink:href="#DejaVuSans-6f" transform="translate(1029.289062 0)"/>
     <use xlink:href="#DejaVuSans-72" transform="translate(1090.470703 0)"/>
     <use xlink:href="#DejaVuSans-20" transform="translate(1131.583984 0)"/>
     <use xlink:href="#DejaVuSans-45" transform="translate(1163.371094 0)"/>
     <use xlink:href="#DejaVuSans-78" transform="translate(1226.554688 0)"/>
     <use xlink:href="#DejaVuSans-70" transform="translate(1285.734375 0)"/>
     <use xlink:href="#DejaVuSans-6c" transform="translate(1349.210938 0)"/>
     <use xlink:href="#DejaVuSans-6f" transform="translate(1376.994141 0)"/>
     <use xlink:href="#DejaVuSans-72" transform="translate(1438.175781 0)"/>
     <use xlink:href="#DejaVuSans-61" transform="translate(1479.289062 0)"/>
     <use xlink:href="#DejaVuSans-74" transform="translate(1540.568359 0)"/>
     <use xlink:href="#DejaVuSans-69" transform="translate(1579.777344 0)"/>
     <use xlink:href="#DejaVuSans-6f" transform="translate(1607.560547 0)"/>
     <use xlink:href="#DejaVuSans-6e" transform="translate(1668.742188 0)"/>
     <use xlink:href="#DejaVuSans-20" transform="translate(1732.121094 0)"/>
     <use xlink:href="#DejaVuSans-4f" transform="translate(1763.908203 0)"/>
     <use xlink:href="#DejaVuSans-6e" transform="translate(1842.619141 0)"/>
     <use xlink:href="#DejaVuSans-6c" transform="translate(1905.998047 0)"/>
     <use xlink:href="#DejaVuSans-79" transform="translate(1933.78125 0)"/>
     <use xlink:href="#DejaVuSans-29" transform="translate(1992.960938 0)"/>
    </g>
   </g>
   <g id="legend_1">
    <g id="patch_7">
     <path d="M 693.456562 73.11175 
L 975.81125 73.11175 
Q 977.81125 73.11175 977.81125 71.11175 
L 977.81125 42.7555 
Q 977.81125 40.7555 975.81125 40.7555 
L 693.456562 40.7555 
Q 691.456562 40.7555 691.456562 42.7555 
L 691.456562 71.11175 
Q 691.456562 73.11175 693.456562 73.11175 
z
" style="fill: #ffffff; opacity: 0.8; stroke: #cccccc; stroke-linejoin: miter"/>
    </g>
    <g id="line2d_23">
     <path d="M 695.456562 48.853937 
L 705.456562 48.853937 
L 715.456562 48.853937 
" style="fill: none; stroke: #0000ff; stroke-width: 2; stroke-linecap: square"/>
    </g>
    <g id="text_14">
     <!-- Estimated mean bubble diameter (arbitrary units) -->
     <g transform="translate(723.456562 52.353937) scale(0.1 -0.1)">
      <use xlink:href="#DejaVuSans-45"/>
      <use xlink:href="#DejaVuSans-73" transform="translate(63.183594 0)"/>
      <use xlink:href="#DejaVuSans-74" transform="translate(115.283203 0)"/>
      <use xlink:href="#DejaVuSans-69" transform="translate(154.492188 0)"/>
      <use xlink:href="#DejaVuSans-6d" transform="translate(182.275391 0)"/>
      <use xlink:href="#DejaVuSans-61" transform="translate(279.6875 0)"/>
      <use xlink:href="#DejaVuSans-74" transform="translate(340.966797 0)"/>
      <use xlink:href="#DejaVuSans-65" transform="translate(380.175781 0)"/>
      <use xlink:href="#DejaVuSans-64" transform="translate(441.699219 0)"/>
      <use xlink:href="#DejaVuSans-20" transform="translate(505.175781 0)"/>
      <use xlink:href="#DejaVuSans-6d" transform="translate(536.962891 0)"/>
      <use xlink:href="#DejaVuSans-65" transform="translate(634.375 0)"/>
      <use xlink:href="#DejaVuSans-61" transform="translate(695.898438 0)"/>
      <use xlink:href="#DejaVuSans-6e" transform="translate(757.177734 0)"/>
      <use xlink:href="#DejaVuSans-20" transform="translate(820.556641 0)"/>
      <use xlink:href="#DejaVuSans-62" transform="translate(852.34375 0)"/>
      <use xlink:href="#DejaVuSans-75" transform="translate(915.820312 0)"/>
      <use xlink:href="#DejaVuSans-62" transform="translate(979.199219 0)"/>
      <use xlink:href="#DejaVuSans-62" transform="translate(1042.675781 0)"/>
      <use xlink:href="#DejaVuSans-6c" transform="translate(1106.152344 0)"/>
      <use xlink:href="#DejaVuSans-65" transform="translate(1133.935547 0)"/>
      <use xlink:href="#DejaVuSans-20" transform="translate(1195.458984 0)"/>
      <use xlink:href="#DejaVuSans-64" transform="translate(1227.246094 0)"/>
      <use xlink:href="#DejaVuSans-69" transform="translate(1290.722656 0)"/>
      <use xlink:href="#DejaVuSans-61" transform="translate(1318.505859 0)"/>
      <use xlink:href="#DejaVuSans-6d" transform="translate(1379.785156 0)"/>
      <use xlink:href="#DejaVuSans-65" transform="translate(1477.197266 0)"/>
      <use xlink:href="#DejaVuSans-74" transform="translate(1538.720703 0)"/>
      <use xlink:href="#DejaVuSans-65" transform="translate(1577.929688 0)"/>
      <use xlink:href="#DejaVuSans-72" transform="translate(1639.453125 0)"/>
      <use xlink:href="#DejaVuSans-20" transform="translate(1680.566406 0)"/>
      <use xlink:href="#DejaVuSans-28" transform="translate(1712.353516 0)"/>
      <use xlink:href="#DejaVuSans-61" transform="translate(1751.367188 0)"/>
      <use xlink:href="#DejaVuSans-72" transform="translate(1812.646484 0)"/>
      <use xlink:href="#DejaVuSans-62" transform="translate(1853.759766 0)"/>
      <use xlink:href="#DejaVuSans-69" transform="translate(1917.236328 0)"/>
      <use xlink:href="#DejaVuSans-74" transform="translate(1945.019531 0)"/>
      <use xlink:href="#DejaVuSans-72" transform="translate(1984.228516 0)"/>
      <use xlink:href="#DejaVuSans-61" transform="translate(2025.341797 0)"/>
      <use xlink:href="#DejaVuSans-72" transform="translate(2086.621094 0)"/>
      <use xlink:href="#DejaVuSans-79" transform="translate(2127.734375 0)"/>
      <use xlink:href="#DejaVuSans-20" transform="translate(2186.914062 0)"/>
      <use xlink:href="#DejaVuSans-75" transform="translate(2218.701172 0)"/>
      <use xlink:href="#DejaVuSans-6e" transform="translate(2282.080078 0)"/>
      <use xlink:href="#DejaVuSans-69" transform="translate(2345.458984 0)"/>
      <use xlink:href="#DejaVuSans-74" transform="translate(2373.242188 0)"/>
      <use xlink:href="#DejaVuSans-73" transform="translate(2412.451172 0)"/>
      <use xlink:href="#DejaVuSans-29" transform="translate(2464.550781 0)"/>
     </g>
    </g>
    <g id="patch_8">
     <path d="M 695.456562 67.032062 
L 715.456562 67.032062 
L 715.456562 60.032062 
L 695.456562 60.032062 
z
" style="fill: #1f77b4; fill-opacity: 0.25"/>
    </g>
    <g id="text_15">
     <!-- Estimated bubble size distribution width -->
     <g transform="translate(723.456562 67.032062) scale(0.1 -0.1)">
      <defs>
       <path id="DejaVuSans-68" d="M 3513 2113 
L 3513 0 
L 2938 0 
L 2938 2094 
Q 2938 2591 2744 2837 
Q 2550 3084 2163 3084 
Q 1697 3084 1428 2787 
Q 1159 2491 1159 1978 
L 1159 0 
L 581 0 
L 581 4863 
L 1159 4863 
L 1159 2956 
Q 1366 3272 1645 3428 
Q 1925 3584 2291 3584 
Q 2894 3584 3203 3211 
Q 3513 2838 3513 2113 
z
" transform="scale(0.015625)"/>
      </defs>
      <use xlink:href="#DejaVuSans-45"/>
      <use xlink:href="#DejaVuSans-73" transform="translate(63.183594 0)"/>
      <use xlink:href="#DejaVuSans-74" transform="translate(115.283203 0)"/>
      <use xlink:href="#DejaVuSans-69" transform="translate(154.492188 0)"/>
      <use xlink:href="#DejaVuSans-6d" transform="translate(182.275391 0)"/>
      <use xlink:href="#DejaVuSans-61" transform="translate(279.6875 0)"/>
      <use xlink:href="#DejaVuSans-74" transform="translate(340.966797 0)"/>
      <use xlink:href="#DejaVuSans-65" transform="translate(380.175781 0)"/>
      <use xlink:href="#DejaVuSans-64" transform="translate(441.699219 0)"/>
      <use xlink:href="#DejaVuSans-20" transform="translate(505.175781 0)"/>
      <use xlink:href="#DejaVuSans-62" transform="translate(536.962891 0)"/>
      <use xlink:href="#DejaVuSans-75" transform="translate(600.439453 0)"/>
      <use xlink:href="#DejaVuSans-62" transform="translate(663.818359 0)"/>
      <use xlink:href="#DejaVuSans-62" transform="translate(727.294922 0)"/>
      <use xlink:href="#DejaVuSans-6c" transform="translate(790.771484 0)"/>
      <use xlink:href="#DejaVuSans-65" transform="translate(818.554688 0)"/>
      <use xlink:href="#DejaVuSans-20" transform="translate(880.078125 0)"/>
      <use xlink:href="#DejaVuSans-73" transform="translate(911.865234 0)"/>
      <use xlink:href="#DejaVuSans-69" transform="translate(963.964844 0)"/>
      <use xlink:href="#DejaVuSans-7a" transform="translate(991.748047 0)"/>
      <use xlink:href="#DejaVuSans-65" transform="translate(1044.238281 0)"/>
      <use xlink:href="#DejaVuSans-20" transform="translate(1105.761719 0)"/>
      <use xlink:href="#DejaVuSans-64" transform="translate(1137.548828 0)"/>
      <use xlink:href="#DejaVuSans-69" transform="translate(1201.025391 0)"/>
      <use xlink:href="#DejaVuSans-73" transform="translate(1228.808594 0)"/>
      <use xlink:href="#DejaVuSans-74" transform="translate(1280.908203 0)"/>
      <use xlink:href="#DejaVuSans-72" transform="translate(1320.117188 0)"/>
      <use xlink:href="#DejaVuSans-69" transform="translate(1361.230469 0)"/>
      <use xlink:href="#DejaVuSans-62" transform="translate(1389.013672 0)"/>
      <use xlink:href="#DejaVuSans-75" transform="translate(1452.490234 0)"/>
      <use xlink:href="#DejaVuSans-74" transform="translate(1515.869141 0)"/>
      <use xlink:href="#DejaVuSans-69" transform="translate(1555.078125 0)"/>
      <use xlink:href="#DejaVuSans-6f" transform="translate(1582.861328 0)"/>
      <use xlink:href="#DejaVuSans-6e" transform="translate(1644.042969 0)"/>
      <use xlink:href="#DejaVuSans-20" transform="translate(1707.421875 0)"/>
      <use xlink:href="#DejaVuSans-77" transform="translate(1739.208984 0)"/>
      <use xlink:href="#DejaVuSans-69" transform="translate(1820.996094 0)"/>
      <use xlink:href="#DejaVuSans-64" transform="translate(1848.779297 0)"/>
      <use xlink:href="#DejaVuSans-74" transform="translate(1912.255859 0)"/>
      <use xlink:href="#DejaVuSans-68" transform="translate(1951.464844 0)"/>
     </g>
    </g>
   </g>
  </g>
  <g id="text_16">
   <g id="patch_9">
    <path d="M 7.2 401.66725 
L 1260.0225 401.66725 
Q 1262.4225 401.66725 1262.4225 399.26725 
L 1262.4225 391.52475 
Q 1262.4225 389.12475 1260.0225 389.12475 
L 7.2 389.12475 
Q 4.8 389.12475 4.8 391.52475 
L 4.8 399.26725 
Q 4.8 401.66725 7.2 401.66725 
z
" style="fill: #fadbd8; opacity: 0.9; stroke: #000000; stroke-linejoin: miter"/>
   </g>
   <!-- DISCLAIMER: This is a highly simplified conceptual model. Real bubble size distributions in cavitation are complex and depend on many factors (gas content, surface tension, turbulence spectrum, acoustic field if hybrid, etc.). Use only as a starting point for hypothesis generation. Always validate experimentally. -->
   <g style="fill: #c0392b" transform="translate(7.2 397.6035) scale(0.08 -0.08)">
    <defs>
     <path id="DejaVuSans-Oblique-44" d="M 1081 4666 
L 2438 4666 
Q 3519 4666 4070 4208 
Q 4622 3750 4622 2847 
Q 4622 2250 4412 1698 
Q 4203 1147 3834 769 
Q 3463 381 2891 190 
Q 2319 0 1538 0 
L 172 0 
L 1081 4666 
z
M 1613 4147 
L 909 519 
L 1734 519 
Q 2794 519 3375 1128 
Q 3956 1738 3956 2847 
Q 3956 3519 3581 3833 
Q 3206 4147 2406 4147 
L 1613 4147 
z
" transform="scale(0.015625)"/>
     <path id="DejaVuSans-Oblique-49" d="M 1081 4666 
L 1716 4666 
L 806 0 
L 172 0 
L 1081 4666 
z
" transform="scale(0.015625)"/>
     <path id="DejaVuSans-Oblique-53" d="M 3859 4513 
L 3738 3897 
Q 3422 4066 3111 4152 
Q 2800 4238 2509 4238 
Q 1944 4238 1609 3991 
Q 1275 3744 1275 3334 
Q 1275 3109 1398 2989 
Q 1522 2869 2034 2731 
L 2413 2638 
Q 3053 2472 3303 2217 
Q 3553 1963 3553 1503 
Q 3553 797 2998 353 
Q 2444 -91 1538 -91 
Q 1166 -91 791 -17 
Q 416 56 38 206 
L 166 856 
Q 513 641 861 531 
Q 1209 422 1556 422 
Q 2147 422 2503 684 
Q 2859 947 2859 1369 
Q 2859 1650 2717 1795 
Q 2575 1941 2106 2059 
L 1728 2156 
Q 1081 2325 845 2545 
Q 609 2766 609 3163 
Q 609 3859 1145 4304 
Q 1681 4750 2541 4750 
Q 2875 4750 3203 4690 
Q 3531 4631 3859 4513 
z
" transform="scale(0.015625)"/>
     <path id="DejaVuSans-Oblique-43" d="M 4447 4306 
L 4319 3641 
Q 4019 3944 3683 4091 
Q 3347 4238 2956 4238 
Q 2422 4238 2017 3981 
Q 1613 3725 1319 3200 
Q 1131 2863 1032 2486 
Q 934 2109 934 1728 
Q 934 1091 1264 756 
Q 1594 422 2222 422 
Q 2656 422 3056 561 
Q 3456 700 3834 978 
L 3688 231 
Q 3316 72 2936 -9 
Q 2556 -91 2175 -91 
Q 1278 -91 773 396 
Q 269 884 269 1753 
Q 269 2309 461 2846 
Q 653 3384 1013 3828 
Q 1394 4300 1883 4525 
Q 2372 4750 3022 4750 
Q 3422 4750 3780 4639 
Q 4138 4528 4447 4306 
z
" transform="scale(0.015625)"/>
     <path id="DejaVuSans-Oblique-4c" d="M 1075 4666 
L 1709 4666 
L 909 525 
L 3181 525 
L 3078 0 
L 172 0 
L 1075 4666 
z
" transform="scale(0.015625)"/>
     <path id="DejaVuSans-Oblique-41" d="M 2356 4666 
L 3072 4666 
L 3938 0 
L 3278 0 
L 3084 1197 
L 984 1197 
L 325 0 
L -341 0 
L 2356 4666 
z
M 2584 4044 
L 1275 1722 
L 2988 1722 
L 2584 4044 
z
" transform="scale(0.015625)"/>
     <path id="DejaVuSans-Oblique-4d" d="M 1081 4666 
L 2028 4666 
L 2572 1522 
L 4378 4666 
L 5350 4666 
L 4441 0 
L 3828 0 
L 4622 4091 
L 2791 897 
L 2175 897 
L 1581 4103 
L 788 0 
L 172 0 
L 1081 4666 
z
" transform="scale(0.015625)"/>
     <path id="DejaVuSans-Oblique-45" d="M 1081 4666 
L 4031 4666 
L 3928 4134 
L 1606 4134 
L 1338 2753 
L 3566 2753 
L 3463 2222 
L 1234 2222 
L 909 531 
L 3284 531 
L 3181 0 
L 172 0 
L 1081 4666 
z
" transform="scale(0.015625)"/>
     <path id="DejaVuSans-Oblique-52" d="M 1613 4147 
L 1294 2491 
L 2106 2491 
Q 2584 2491 2879 2755 
Q 3175 3019 3175 3444 
Q 3175 3784 2976 3965 
Q 2778 4147 2406 4147 
L 1613 4147 
z
M 2772 2241 
Q 2972 2194 3105 2009 
Q 3238 1825 3413 1275 
L 3809 0 
L 3144 0 
L 2778 1197 
Q 2638 1659 2453 1815 
Q 2269 1972 1888 1972 
L 1191 1972 
L 806 0 
L 172 0 
L 1081 4666 
L 2503 4666 
Q 3150 4666 3495 4373 
Q 3841 4081 3841 3531 
Q 3841 3044 3547 2687 
Q 3253 2331 2772 2241 
z
" transform="scale(0.015625)"/>
     <path id="DejaVuSans-Oblique-3a" d="M 978 3309 
L 1638 3309 
L 1484 2516 
L 825 2516 
L 978 3309 
z
M 488 794 
L 1147 794 
L 991 0 
L 331 0 
L 488 794 
z
" transform="scale(0.015625)"/>
     <path id="DejaVuSans-Oblique-20" transform="scale(0.015625)"/>
     <path id="DejaVuSans-Oblique-54" d="M 378 4666 
L 4325 4666 
L 4225 4134 
L 2559 4134 
L 1759 0 
L 1125 0 
L 1925 4134 
L 275 4134 
L 378 4666 
z
" transform="scale(0.015625)"/>
     <path id="DejaVuSans-Oblique-68" d="M 3566 2113 
L 3156 0 
L 2578 0 
L 2988 2091 
Q 3016 2238 3031 2350 
Q 3047 2463 3047 2528 
Q 3047 2791 2881 2937 
Q 2716 3084 2419 3084 
Q 1956 3084 1617 2771 
Q 1278 2459 1178 1941 
L 800 0 
L 225 0 
L 1172 4863 
L 1747 4863 
L 1375 2950 
Q 1594 3244 1934 3414 
Q 2275 3584 2650 3584 
Q 3113 3584 3367 3334 
Q 3622 3084 3622 2631 
Q 3622 2519 3608 2391 
Q 3594 2263 3566 2113 
z
" transform="scale(0.015625)"/>
     <path id="DejaVuSans-Oblique-69" d="M 1172 4863 
L 1747 4863 
L 1606 4134 
L 1031 4134 
L 1172 4863 
z
M 909 3500 
L 1484 3500 
L 800 0 
L 225 0 
L 909 3500 
z
" transform="scale(0.015625)"/>
     <path id="DejaVuSans-Oblique-73" d="M 3200 3397 
L 3091 2853 
Q 2863 2978 2609 3040 
Q 2356 3103 2088 3103 
Q 1634 3103 1373 2948 
Q 1113 2794 1113 2528 
Q 1113 2219 1719 2053 
Q 1766 2041 1788 2034 
L 1972 1978 
Q 2547 1819 2739 1644 
Q 2931 1469 2931 1166 
Q 2931 609 2489 259 
Q 2047 -91 1331 -91 
Q 1053 -91 747 -37 
Q 441 16 72 128 
L 184 722 
Q 500 559 806 475 
Q 1113 391 1394 391 
Q 1816 391 2080 572 
Q 2344 753 2344 1031 
Q 2344 1331 1650 1516 
L 1591 1531 
L 1394 1581 
Q 956 1697 753 1886 
Q 550 2075 550 2369 
Q 550 2928 970 3256 
Q 1391 3584 2113 3584 
Q 2397 3584 2667 3537 
Q 2938 3491 3200 3397 
z
" transform="scale(0.015625)"/>
     <path id="DejaVuSans-Oblique-61" d="M 3438 1997 
L 3047 0 
L 2472 0 
L 2578 531 
Q 2325 219 2001 64 
Q 1678 -91 1281 -91 
Q 834 -91 548 182 
Q 263 456 263 884 
Q 263 1497 752 1853 
Q 1241 2209 2100 2209 
L 2900 2209 
L 2931 2363 
Q 2938 2388 2941 2417 
Q 2944 2447 2944 2509 
Q 2944 2788 2717 2942 
Q 2491 3097 2081 3097 
Q 1800 3097 1504 3025 
Q 1209 2953 897 2809 
L 997 3341 
Q 1322 3463 1633 3523 
Q 1944 3584 2234 3584 
Q 2853 3584 3176 3315 
Q 3500 3047 3500 2534 
Q 3500 2431 3484 2292 
Q 3469 2153 3438 1997 
z
M 2816 1759 
L 2241 1759 
Q 1534 1759 1195 1570 
Q 856 1381 856 984 
Q 856 709 1029 553 
Q 1203 397 1509 397 
Q 1978 397 2328 733 
Q 2678 1069 2791 1631 
L 2816 1759 
z
" transform="scale(0.015625)"/>
     <path id="DejaVuSans-Oblique-67" d="M 3816 3500 
L 3219 434 
Q 3047 -456 2561 -893 
Q 2075 -1331 1253 -1331 
Q 950 -1331 690 -1286 
Q 431 -1241 206 -1147 
L 313 -588 
Q 525 -725 762 -790 
Q 1000 -856 1269 -856 
Q 1816 -856 2167 -557 
Q 2519 -259 2631 300 
L 2681 563 
Q 2441 288 2122 144 
Q 1803 0 1434 0 
Q 903 0 598 351 
Q 294 703 294 1319 
Q 294 1803 478 2267 
Q 663 2731 997 3091 
Q 1219 3328 1514 3456 
Q 1809 3584 2131 3584 
Q 2484 3584 2746 3420 
Q 3009 3256 3138 2956 
L 3238 3500 
L 3816 3500 
z
M 2950 2216 
Q 2950 2641 2750 2872 
Q 2550 3103 2181 3103 
Q 1953 3103 1747 3012 
Q 1541 2922 1394 2759 
Q 1156 2491 1023 2127 
Q 891 1763 891 1375 
Q 891 944 1092 712 
Q 1294 481 1672 481 
Q 2219 481 2584 976 
Q 2950 1472 2950 2216 
z
" transform="scale(0.015625)"/>
     <path id="DejaVuSans-Oblique-6c" d="M 1172 4863 
L 1747 4863 
L 800 0 
L 225 0 
L 1172 4863 
z
" transform="scale(0.015625)"/>
     <path id="DejaVuSans-Oblique-79" d="M 1588 -325 
Q 1188 -997 936 -1164 
Q 684 -1331 294 -1331 
L -159 -1331 
L -63 -850 
L 269 -850 
Q 509 -850 678 -719 
Q 847 -588 1056 -206 
L 1234 128 
L 459 3500 
L 1069 3500 
L 1650 819 
L 3256 3500 
L 3859 3500 
L 1588 -325 
z
" transform="scale(0.015625)"/>
     <path id="DejaVuSans-Oblique-6d" d="M 5747 2113 
L 5338 0 
L 4763 0 
L 5166 2094 
Q 5191 2228 5203 2325 
Q 5216 2422 5216 2491 
Q 5216 2772 5059 2928 
Q 4903 3084 4622 3084 
Q 4203 3084 3875 2770 
Q 3547 2456 3450 1953 
L 3066 0 
L 2491 0 
L 2900 2094 
Q 2925 2209 2937 2307 
Q 2950 2406 2950 2484 
Q 2950 2769 2794 2926 
Q 2638 3084 2363 3084 
Q 1938 3084 1609 2770 
Q 1281 2456 1184 1953 
L 800 0 
L 225 0 
L 909 3500 
L 1484 3500 
L 1375 2956 
Q 1609 3263 1923 3423 
Q 2238 3584 2597 3584 
Q 2978 3584 3223 3384 
Q 3469 3184 3519 2828 
Q 3781 3197 4126 3390 
Q 4472 3584 4856 3584 
Q 5306 3584 5551 3325 
Q 5797 3066 5797 2591 
Q 5797 2488 5784 2364 
Q 5772 2241 5747 2113 
z
" transform="scale(0.015625)"/>
     <path id="DejaVuSans-Oblique-70" d="M 3175 2156 
Q 3175 2616 2975 2859 
Q 2775 3103 2400 3103 
Q 2144 3103 1911 2972 
Q 1678 2841 1497 2591 
Q 1319 2344 1212 1994 
Q 1106 1644 1106 1300 
Q 1106 863 1306 627 
Q 1506 391 1875 391 
Q 2147 391 2380 519 
Q 2613 647 2778 891 
Q 2956 1147 3065 1494 
Q 3175 1841 3175 2156 
z
M 1394 2969 
Q 1625 3272 1939 3428 
Q 2253 3584 2638 3584 
Q 3175 3584 3472 3232 
Q 3769 2881 3769 2247 
Q 3769 1728 3584 1258 
Q 3400 788 3053 416 
Q 2822 169 2531 39 
Q 2241 -91 1919 -91 
Q 1547 -91 1294 64 
Q 1041 219 916 525 
L 556 -1331 
L -19 -1331 
L 922 3500 
L 1497 3500 
L 1394 2969 
z
" transform="scale(0.015625)"/>
     <path id="DejaVuSans-Oblique-66" d="M 3059 4863 
L 2969 4384 
L 2419 4384 
Q 2106 4384 1964 4261 
Q 1822 4138 1753 3809 
L 1691 3500 
L 2638 3500 
L 2553 3053 
L 1606 3053 
L 1013 0 
L 434 0 
L 1031 3053 
L 481 3053 
L 563 3500 
L 1113 3500 
L 1159 3744 
Q 1278 4363 1576 4613 
Q 1875 4863 2516 4863 
L 3059 4863 
z
" transform="scale(0.015625)"/>
     <path id="DejaVuSans-Oblique-65" d="M 3078 2063 
Q 3088 2113 3092 2166 
Q 3097 2219 3097 2272 
Q 3097 2653 2873 2875 
Q 2650 3097 2266 3097 
Q 1838 3097 1509 2826 
Q 1181 2556 1013 2059 
L 3078 2063 
z
M 3578 1613 
L 903 1613 
Q 884 1494 878 1425 
Q 872 1356 872 1306 
Q 872 872 1139 634 
Q 1406 397 1894 397 
Q 2269 397 2603 481 
Q 2938 566 3225 728 
L 3116 159 
Q 2806 34 2476 -28 
Q 2147 -91 1806 -91 
Q 1078 -91 686 257 
Q 294 606 294 1247 
Q 294 1794 489 2264 
Q 684 2734 1063 3103 
Q 1306 3334 1642 3459 
Q 1978 3584 2356 3584 
Q 2950 3584 3301 3228 
Q 3653 2872 3653 2272 
Q 3653 2128 3634 1964 
Q 3616 1800 3578 1613 
z
" transform="scale(0.015625)"/>
     <path id="DejaVuSans-Oblique-64" d="M 2675 525 
Q 2444 222 2128 65 
Q 1813 -91 1428 -91 
Q 903 -91 598 267 
Q 294 625 294 1247 
Q 294 1766 478 2236 
Q 663 2706 1013 3078 
Q 1244 3325 1534 3454 
Q 1825 3584 2144 3584 
Q 2481 3584 2739 3421 
Q 2997 3259 3138 2956 
L 3513 4863 
L 4091 4863 
L 3144 0 
L 2566 0 
L 2675 525 
z
M 891 1350 
Q 891 897 1095 644 
Q 1300 391 1663 391 
Q 1931 391 2161 520 
Q 2391 650 2566 903 
Q 2750 1166 2856 1509 
Q 2963 1853 2963 2188 
Q 2963 2622 2758 2865 
Q 2553 3109 2194 3109 
Q 1922 3109 1687 2981 
Q 1453 2853 1288 2613 
Q 1106 2353 998 2009 
Q 891 1666 891 1350 
z
" transform="scale(0.015625)"/>
     <path id="DejaVuSans-Oblique-63" d="M 3431 3366 
L 3316 2797 
Q 3109 2947 2876 3022 
Q 2644 3097 2394 3097 
Q 2119 3097 1870 3000 
Q 1622 2903 1453 2725 
Q 1184 2453 1037 2087 
Q 891 1722 891 1331 
Q 891 859 1127 628 
Q 1363 397 1844 397 
Q 2081 397 2348 469 
Q 2616 541 2906 684 
L 2797 116 
Q 2547 13 2283 -39 
Q 2019 -91 1741 -91 
Q 1044 -91 669 257 
Q 294 606 294 1253 
Q 294 1797 489 2255 
Q 684 2713 1069 3078 
Q 1331 3328 1684 3456 
Q 2038 3584 2456 3584 
Q 2700 3584 2940 3529 
Q 3181 3475 3431 3366 
z
" transform="scale(0.015625)"/>
     <path id="DejaVuSans-Oblique-6f" d="M 1625 -91 
Q 1009 -91 651 289 
Q 294 669 294 1325 
Q 294 1706 417 2101 
Q 541 2497 738 2766 
Q 1047 3184 1428 3384 
Q 1809 3584 2291 3584 
Q 2888 3584 3255 3212 
Q 3622 2841 3622 2241 
Q 3622 1825 3500 1412 
Q 3378 1000 3181 728 
Q 2875 309 2494 109 
Q 2113 -91 1625 -91 
z
M 891 1344 
Q 891 869 1089 633 
Q 1288 397 1691 397 
Q 2269 397 2648 901 
Q 3028 1406 3028 2181 
Q 3028 2634 2825 2865 
Q 2622 3097 2228 3097 
Q 1903 3097 1650 2945 
Q 1397 2794 1197 2484 
Q 1050 2253 970 1956 
Q 891 1659 891 1344 
z
" transform="scale(0.015625)"/>
     <path id="DejaVuSans-Oblique-6e" d="M 3566 2113 
L 3156 0 
L 2578 0 
L 2988 2091 
Q 3016 2238 3031 2350 
Q 3047 2463 3047 2528 
Q 3047 2791 2881 2937 
Q 2716 3084 2419 3084 
Q 1956 3084 1622 2776 
Q 1288 2469 1184 1941 
L 800 0 
L 225 0 
L 903 3500 
L 1478 3500 
L 1363 2950 
Q 1603 3253 1940 3418 
Q 2278 3584 2650 3584 
Q 3113 3584 3367 3334 
Q 3622 3084 3622 2631 
Q 3622 2519 3608 2391 
Q 3594 2263 3566 2113 
z
" transform="scale(0.015625)"/>
     <path id="DejaVuSans-Oblique-74" d="M 2706 3500 
L 2619 3053 
L 1472 3053 
L 1100 1153 
Q 1081 1047 1072 975 
Q 1063 903 1063 863 
Q 1063 663 1183 572 
Q 1303 481 1569 481 
L 2150 481 
L 2053 0 
L 1503 0 
Q 991 0 739 200 
Q 488 400 488 806 
Q 488 878 497 964 
Q 506 1050 525 1153 
L 897 3053 
L 409 3053 
L 500 3500 
L 978 3500 
L 1172 4494 
L 1747 4494 
L 1556 3500 
L 2706 3500 
z
" transform="scale(0.015625)"/>
     <path id="DejaVuSans-Oblique-75" d="M 428 1388 
L 838 3500 
L 1416 3500 
L 1006 1409 
Q 975 1256 961 1147 
Q 947 1038 947 966 
Q 947 700 1109 554 
Q 1272 409 1569 409 
Q 2031 409 2368 721 
Q 2706 1034 2809 1563 
L 3194 3500 
L 3769 3500 
L 3091 0 
L 2516 0 
L 2631 550 
Q 2388 244 2052 76 
Q 1716 -91 1338 -91 
Q 878 -91 622 161 
Q 366 413 366 863 
Q 366 956 381 1097 
Q 397 1238 428 1388 
z
" transform="scale(0.015625)"/>
     <path id="DejaVuSans-Oblique-2e" d="M 525 794 
L 1184 794 
L 1031 0 
L 372 0 
L 525 794 
z
" transform="scale(0.015625)"/>
     <path id="DejaVuSans-Oblique-62" d="M 3169 2138 
Q 3169 2591 2961 2847 
Q 2753 3103 2388 3103 
Q 2122 3103 1889 2973 
Q 1656 2844 1484 2597 
Q 1303 2338 1198 1995 
Q 1094 1653 1094 1313 
Q 1094 881 1298 636 
Q 1503 391 1863 391 
Q 2134 391 2365 517 
Q 2597 644 2772 891 
Q 2950 1147 3059 1487 
Q 3169 1828 3169 2138 
z
M 1381 2969 
Q 1594 3256 1914 3420 
Q 2234 3584 2584 3584 
Q 3122 3584 3439 3221 
Q 3756 2859 3756 2241 
Q 3756 1734 3570 1259 
Q 3384 784 3041 416 
Q 2816 172 2522 40 
Q 2228 -91 1906 -91 
Q 1566 -91 1316 65 
Q 1066 222 909 531 
L 806 0 
L 231 0 
L 1178 4863 
L 1753 4863 
L 1381 2969 
z
" transform="scale(0.015625)"/>
     <path id="DejaVuSans-Oblique-7a" d="M 744 3500 
L 3475 3500 
L 3372 2975 
L 738 459 
L 2913 459 
L 2822 0 
L -19 0 
L 84 525 
L 2719 3041 
L 653 3041 
L 744 3500 
z
" transform="scale(0.015625)"/>
     <path id="DejaVuSans-Oblique-72" d="M 2853 2969 
Q 2766 3016 2653 3041 
Q 2541 3066 2413 3066 
Q 1953 3066 1609 2717 
Q 1266 2369 1153 1784 
L 800 0 
L 225 0 
L 909 3500 
L 1484 3500 
L 1375 2956 
Q 1603 3259 1920 3421 
Q 2238 3584 2597 3584 
Q 2691 3584 2781 3573 
Q 2872 3563 2963 3538 
L 2853 2969 
z
" transform="scale(0.015625)"/>
     <path id="DejaVuSans-Oblique-76" d="M 459 3500 
L 1069 3500 
L 1581 525 
L 3256 3500 
L 3866 3500 
L 1875 0 
L 1100 0 
L 459 3500 
z
" transform="scale(0.015625)"/>
     <path id="DejaVuSans-Oblique-78" d="M 3841 3500 
L 2234 1784 
L 3219 0 
L 2559 0 
L 1819 1388 
L 531 0 
L -166 0 
L 1556 1844 
L 641 3500 
L 1300 3500 
L 1972 2234 
L 3144 3500 
L 3841 3500 
z
" transform="scale(0.015625)"/>
     <path id="DejaVuSans-Oblique-28" d="M 2731 4856 
Q 1903 3822 1495 2892 
Q 1088 1963 1088 1100 
Q 1088 606 1206 120 
Q 1325 -366 1563 -844 
L 1063 -844 
Q 775 -306 634 201 
Q 494 709 494 1197 
Q 494 2125 923 3036 
Q 1353 3947 2222 4856 
L 2731 4856 
z
" transform="scale(0.015625)"/>
     <path id="DejaVuSans-Oblique-2c" d="M 575 794 
L 1234 794 
L 1131 256 
L 422 -744 
L 19 -744 
L 469 256 
L 575 794 
z
" transform="scale(0.015625)"/>
     <path id="DejaVuSans-Oblique-29" d="M -397 -844 
Q 434 191 840 1120 
Q 1247 2050 1247 2913 
Q 1247 3406 1130 3892 
Q 1013 4378 775 4856 
L 1275 4856 
Q 1563 4316 1703 3812 
Q 1844 3309 1844 2822 
Q 1844 1891 1411 973 
Q 978 56 116 -844 
L -397 -844 
z
" transform="scale(0.015625)"/>
     <path id="DejaVuSans-Oblique-55" d="M 991 4666 
L 1625 4666 
L 1075 1831 
Q 1041 1641 1027 1517 
Q 1013 1394 1013 1300 
Q 1013 869 1253 645 
Q 1494 422 1959 422 
Q 2563 422 2898 753 
Q 3234 1084 3378 1831 
L 3928 4666 
L 4563 4666 
L 4000 1753 
Q 3816 809 3300 359 
Q 2784 -91 1888 -91 
Q 1188 -91 780 261 
Q 372 613 372 1216 
Q 372 1325 387 1461 
Q 403 1597 434 1753 
L 991 4666 
z
" transform="scale(0.015625)"/>
     <path id="DejaVuSans-Oblique-77" d="M 544 3500 
L 1113 3500 
L 1259 684 
L 2566 3500 
L 3231 3500 
L 3425 684 
L 4666 3500 
L 5241 3500 
L 3641 0 
L 2969 0 
L 2797 2900 
L 1459 0 
L 781 0 
L 544 3500 
z
" transform="scale(0.015625)"/>
    </defs>
    <use xlink:href="#DejaVuSans-Oblique-44"/>
    <use xlink:href="#DejaVuSans-Oblique-49" transform="translate(77.001953 0)"/>
    <use xlink:href="#DejaVuSans-Oblique-53" transform="translate(106.494141 0)"/>
    <use xlink:href="#DejaVuSans-Oblique-43" transform="translate(169.970703 0)"/>
    <use xlink:href="#DejaVuSans-Oblique-4c" transform="translate(239.794922 0)"/>
    <use xlink:href="#DejaVuSans-Oblique-41" transform="translate(295.507812 0)"/>
    <use xlink:href="#DejaVuSans-Oblique-49" transform="translate(363.916016 0)"/>
    <use xlink:href="#DejaVuSans-Oblique-4d" transform="translate(393.408203 0)"/>
    <use xlink:href="#DejaVuSans-Oblique-45" transform="translate(479.6875 0)"/>
    <use xlink:href="#DejaVuSans-Oblique-52" transform="translate(542.871094 0)"/>
    <use xlink:href="#DejaVuSans-Oblique-3a" transform="translate(612.353516 0)"/>
    <use xlink:href="#DejaVuSans-Oblique-20" transform="translate(646.044922 0)"/>
    <use xlink:href="#DejaVuSans-Oblique-54" transform="translate(677.832031 0)"/>
    <use xlink:href="#DejaVuSans-Oblique-68" transform="translate(738.916016 0)"/>
    <use xlink:href="#DejaVuSans-Oblique-69" transform="translate(802.294922 0)"/>
    <use xlink:href="#DejaVuSans-Oblique-73" transform="translate(830.078125 0)"/>
    <use xlink:href="#DejaVuSans-Oblique-20" transform="translate(882.177734 0)"/>
    <use xlink:href="#DejaVuSans-Oblique-69" transform="translate(913.964844 0)"/>
    <use xlink:href="#DejaVuSans-Oblique-73" transform="translate(941.748047 0)"/>
    <use xlink:href="#DejaVuSans-Oblique-20" transform="translate(993.847656 0)"/>
    <use xlink:href="#DejaVuSans-Oblique-61" transform="translate(1025.634766 0)"/>
    <use xlink:href="#DejaVuSans-Oblique-20" transform="translate(1086.914062 0)"/>
    <use xlink:href="#DejaVuSans-Oblique-68" transform="translate(1118.701172 0)"/>
    <use xlink:href="#DejaVuSans-Oblique-69" transform="translate(1182.080078 0)"/>
    <use xlink:href="#DejaVuSans-Oblique-67" transform="translate(1209.863281 0)"/>
    <use xlink:href="#DejaVuSans-Oblique-68" transform="translate(1273.339844 0)"/>
    <use xlink:href="#DejaVuSans-Oblique-6c" transform="translate(1336.71875 0)"/>
    <use xlink:href="#DejaVuSans-Oblique-79" transform="translate(1364.501953 0)"/>
    <use xlink:href="#DejaVuSans-Oblique-20" transform="translate(1423.681641 0)"/>
    <use xlink:href="#DejaVuSans-Oblique-73" transform="translate(1455.46875 0)"/>
    <use xlink:href="#DejaVuSans-Oblique-69" transform="translate(1507.568359 0)"/>
    <use xlink:href="#DejaVuSans-Oblique-6d" transform="translate(1535.351562 0)"/>
    <use xlink:href="#DejaVuSans-Oblique-70" transform="translate(1632.763672 0)"/>
    <use xlink:href="#DejaVuSans-Oblique-6c" transform="translate(1696.240234 0)"/>
    <use xlink:href="#DejaVuSans-Oblique-69" transform="translate(1724.023438 0)"/>
    <use xlink:href="#DejaVuSans-Oblique-66" transform="translate(1751.806641 0)"/>
    <use xlink:href="#DejaVuSans-Oblique-69" transform="translate(1787.011719 0)"/>
    <use xlink:href="#DejaVuSans-Oblique-65" transform="translate(1814.794922 0)"/>
    <use xlink:href="#DejaVuSans-Oblique-64" transform="translate(1876.318359 0)"/>
    <use xlink:href="#DejaVuSans-Oblique-20" transform="translate(1939.794922 0)"/>
    <use xlink:href="#DejaVuSans-Oblique-63" transform="translate(1971.582031 0)"/>
    <use xlink:href="#DejaVuSans-Oblique-6f" transform="translate(2026.5625 0)"/>
    <use xlink:href="#DejaVuSans-Oblique-6e" transform="translate(2087.744141 0)"/>
    <use xlink:href="#DejaVuSans-Oblique-63" transform="translate(2151.123047 0)"/>
    <use xlink:href="#DejaVuSans-Oblique-65" transform="translate(2206.103516 0)"/>
    <use xlink:href="#DejaVuSans-Oblique-70" transform="translate(2267.626953 0)"/>
    <use xlink:href="#DejaVuSans-Oblique-74" transform="translate(2331.103516 0)"/>
    <use xlink:href="#DejaVuSans-Oblique-75" transform="translate(2370.3125 0)"/>
    <use xlink:href="#DejaVuSans-Oblique-61" transform="translate(2433.691406 0)"/>
    <use xlink:href="#DejaVuSans-Oblique-6c" transform="translate(2494.970703 0)"/>
    <use xlink:href="#DejaVuSans-Oblique-20" transform="translate(2522.753906 0)"/>
    <use xlink:href="#DejaVuSans-Oblique-6d" transform="translate(2554.541016 0)"/>
    <use xlink:href="#DejaVuSans-Oblique-6f" transform="translate(2651.953125 0)"/>
    <use xlink:href="#DejaVuSans-Oblique-64" transform="translate(2713.134766 0)"/>
    <use xlink:href="#DejaVuSans-Oblique-65" transform="translate(2776.611328 0)"/>
    <use xlink:href="#DejaVuSans-Oblique-6c" transform="translate(2838.134766 0)"/>
    <use xlink:href="#DejaVuSans-Oblique-2e" transform="translate(2865.917969 0)"/>
    <use xlink:href="#DejaVuSans-Oblique-20" transform="translate(2897.705078 0)"/>
    <use xlink:href="#DejaVuSans-Oblique-52" transform="translate(2929.492188 0)"/>
    <use xlink:href="#DejaVuSans-Oblique-65" transform="translate(2998.974609 0)"/>
    <use xlink:href="#DejaVuSans-Oblique-61" transform="translate(3060.498047 0)"/>
    <use xlink:href="#DejaVuSans-Oblique-6c" transform="translate(3121.777344 0)"/>
    <use xlink:href="#DejaVuSans-Oblique-20" transform="translate(3149.560547 0)"/>
    <use xlink:href="#DejaVuSans-Oblique-62" transform="translate(3181.347656 0)"/>
    <use xlink:href="#DejaVuSans-Oblique-75" transform="translate(3244.824219 0)"/>
    <use xlink:href="#DejaVuSans-Oblique-62" transform="translate(3308.203125 0)"/>
    <use xlink:href="#DejaVuSans-Oblique-62" transform="translate(3371.679688 0)"/>
    <use xlink:href="#DejaVuSans-Oblique-6c" transform="translate(3435.15625 0)"/>
    <use xlink:href="#DejaVuSans-Oblique-65" transform="translate(3462.939453 0)"/>
    <use xlink:href="#DejaVuSans-Oblique-20" transform="translate(3524.462891 0)"/>
    <use xlink:href="#DejaVuSans-Oblique-73" transform="translate(3556.25 0)"/>
    <use xlink:href="#DejaVuSans-Oblique-69" transform="translate(3608.349609 0)"/>
    <use xlink:href="#DejaVuSans-Oblique-7a" transform="translate(3636.132812 0)"/>
    <use xlink:href="#DejaVuSans-Oblique-65" transform="translate(3688.623047 0)"/>
    <use xlink:href="#DejaVuSans-Oblique-20" transform="translate(3750.146484 0)"/>
    <use xlink:href="#DejaVuSans-Oblique-64" transform="translate(3781.933594 0)"/>
    <use xlink:href="#DejaVuSans-Oblique-69" transform="translate(3845.410156 0)"/>
    <use xlink:href="#DejaVuSans-Oblique-73" transform="translate(3873.193359 0)"/>
    <use xlink:href="#DejaVuSans-Oblique-74" transform="translate(3925.292969 0)"/>
    <use xlink:href="#DejaVuSans-Oblique-72" transform="translate(3964.501953 0)"/>
    <use xlink:href="#DejaVuSans-Oblique-69" transform="translate(4005.615234 0)"/>
    <use xlink:href="#DejaVuSans-Oblique-62" transform="translate(4033.398438 0)"/>
    <use xlink:href="#DejaVuSans-Oblique-75" transform="translate(4096.875 0)"/>
    <use xlink:href="#DejaVuSans-Oblique-74" transform="translate(4160.253906 0)"/>
    <use xlink:href="#DejaVuSans-Oblique-69" transform="translate(4199.462891 0)"/>
    <use xlink:href="#DejaVuSans-Oblique-6f" transform="translate(4227.246094 0)"/>
    <use xlink:href="#DejaVuSans-Oblique-6e" transform="translate(4288.427734 0)"/>
    <use xlink:href="#DejaVuSans-Oblique-73" transform="translate(4351.806641 0)"/>
    <use xlink:href="#DejaVuSans-Oblique-20" transform="translate(4403.90625 0)"/>
    <use xlink:href="#DejaVuSans-Oblique-69" transform="translate(4435.693359 0)"/>
    <use xlink:href="#DejaVuSans-Oblique-6e" transform="translate(4463.476562 0)"/>
    <use xlink:href="#DejaVuSans-Oblique-20" transform="translate(4526.855469 0)"/>
    <use xlink:href="#DejaVuSans-Oblique-63" transform="translate(4558.642578 0)"/>
    <use xlink:href="#DejaVuSans-Oblique-61" transform="translate(4613.623047 0)"/>
    <use xlink:href="#DejaVuSans-Oblique-76" transform="translate(4674.902344 0)"/>
    <use xlink:href="#DejaVuSans-Oblique-69" transform="translate(4734.082031 0)"/>
    <use xlink:href="#DejaVuSans-Oblique-74" transform="translate(4761.865234 0)"/>
    <use xlink:href="#DejaVuSans-Oblique-61" transform="translate(4801.074219 0)"/>
    <use xlink:href="#DejaVuSans-Oblique-74" transform="translate(4862.353516 0)"/>
    <use xlink:href="#DejaVuSans-Oblique-69" transform="translate(4901.5625 0)"/>
    <use xlink:href="#DejaVuSans-Oblique-6f" transform="translate(4929.345703 0)"/>
    <use xlink:href="#DejaVuSans-Oblique-6e" transform="translate(4990.527344 0)"/>
    <use xlink:href="#DejaVuSans-Oblique-20" transform="translate(5053.90625 0)"/>
    <use xlink:href="#DejaVuSans-Oblique-61" transform="translate(5085.693359 0)"/>
    <use xlink:href="#DejaVuSans-Oblique-72" transform="translate(5146.972656 0)"/>
    <use xlink:href="#DejaVuSans-Oblique-65" transform="translate(5188.085938 0)"/>
    <use xlink:href="#DejaVuSans-Oblique-20" transform="translate(5249.609375 0)"/>
    <use xlink:href="#DejaVuSans-Oblique-63" transform="translate(5281.396484 0)"/>
    <use xlink:href="#DejaVuSans-Oblique-6f" transform="translate(5336.376953 0)"/>
    <use xlink:href="#DejaVuSans-Oblique-6d" transform="translate(5397.558594 0)"/>
    <use xlink:href="#DejaVuSans-Oblique-70" transform="translate(5494.970703 0)"/>
    <use xlink:href="#DejaVuSans-Oblique-6c" transform="translate(5558.447266 0)"/>
    <use xlink:href="#DejaVuSans-Oblique-65" transform="translate(5586.230469 0)"/>
    <use xlink:href="#DejaVuSans-Oblique-78" transform="translate(5647.753906 0)"/>
    <use xlink:href="#DejaVuSans-Oblique-20" transform="translate(5706.933594 0)"/>
    <use xlink:href="#DejaVuSans-Oblique-61" transform="translate(5738.720703 0)"/>
    <use xlink:href="#DejaVuSans-Oblique-6e" transform="translate(5800 0)"/>
    <use xlink:href="#DejaVuSans-Oblique-64" transform="translate(5863.378906 0)"/>
    <use xlink:href="#DejaVuSans-Oblique-20" transform="translate(5926.855469 0)"/>
    <use xlink:href="#DejaVuSans-Oblique-64" transform="translate(5958.642578 0)"/>
    <use xlink:href="#DejaVuSans-Oblique-65" transform="translate(6022.119141 0)"/>
    <use xlink:href="#DejaVuSans-Oblique-70" transform="translate(6083.642578 0)"/>
    <use xlink:href="#DejaVuSans-Oblique-65" transform="translate(6147.119141 0)"/>
    <use xlink:href="#DejaVuSans-Oblique-6e" transform="translate(6208.642578 0)"/>
    <use xlink:href="#DejaVuSans-Oblique-64" transform="translate(6272.021484 0)"/>
    <use xlink:href="#DejaVuSans-Oblique-20" transform="translate(6335.498047 0)"/>
    <use xlink:href="#DejaVuSans-Oblique-6f" transform="translate(6367.285156 0)"/>
    <use xlink:href="#DejaVuSans-Oblique-6e" transform="translate(6428.466797 0)"/>
    <use xlink:href="#DejaVuSans-Oblique-20" transform="translate(6491.845703 0)"/>
    <use xlink:href="#DejaVuSans-Oblique-6d" transform="translate(6523.632812 0)"/>
    <use xlink:href="#DejaVuSans-Oblique-61" transform="translate(6621.044922 0)"/>
    <use xlink:href="#DejaVuSans-Oblique-6e" transform="translate(6682.324219 0)"/>
    <use xlink:href="#DejaVuSans-Oblique-79" transform="translate(6745.703125 0)"/>
    <use xlink:href="#DejaVuSans-Oblique-20" transform="translate(6804.882812 0)"/>
    <use xlink:href="#DejaVuSans-Oblique-66" transform="translate(6836.669922 0)"/>
    <use xlink:href="#DejaVuSans-Oblique-61" transform="translate(6871.875 0)"/>
    <use xlink:href="#DejaVuSans-Oblique-63" transform="translate(6933.154297 0)"/>
    <use xlink:href="#DejaVuSans-Oblique-74" transform="translate(6988.134766 0)"/>
    <use xlink:href="#DejaVuSans-Oblique-6f" transform="translate(7027.34375 0)"/>
    <use xlink:href="#DejaVuSans-Oblique-72" transform="translate(7088.525391 0)"/>
    <use xlink:href="#DejaVuSans-Oblique-73" transform="translate(7129.638672 0)"/>
    <use xlink:href="#DejaVuSans-Oblique-20" transform="translate(7181.738281 0)"/>
    <use xlink:href="#DejaVuSans-Oblique-28" transform="translate(7213.525391 0)"/>
    <use xlink:href="#DejaVuSans-Oblique-67" transform="translate(7252.539062 0)"/>
    <use xlink:href="#DejaVuSans-Oblique-61" transform="translate(7316.015625 0)"/>
    <use xlink:href="#DejaVuSans-Oblique-73" transform="translate(7377.294922 0)"/>
    <use xlink:href="#DejaVuSans-Oblique-20" transform="translate(7429.394531 0)"/>
    <use xlink:href="#DejaVuSans-Oblique-63" transform="translate(7461.181641 0)"/>
    <use xlink:href="#DejaVuSans-Oblique-6f" transform="translate(7516.162109 0)"/>
    <use xlink:href="#DejaVuSans-Oblique-6e" transform="translate(7577.34375 0)"/>
    <use xlink:href="#DejaVuSans-Oblique-74" transform="translate(7640.722656 0)"/>
    <use xlink:href="#DejaVuSans-Oblique-65" transform="translate(7679.931641 0)"/>
    <use xlink:href="#DejaVuSans-Oblique-6e" transform="translate(7741.455078 0)"/>
    <use xlink:href="#DejaVuSans-Oblique-74" transform="translate(7804.833984 0)"/>
    <use xlink:href="#DejaVuSans-Oblique-2c" transform="translate(7844.042969 0)"/>
    <use xlink:href="#DejaVuSans-Oblique-20" transform="translate(7875.830078 0)"/>
    <use xlink:href="#DejaVuSans-Oblique-73" transform="translate(7907.617188 0)"/>
    <use xlink:href="#DejaVuSans-Oblique-75" transform="translate(7959.716797 0)"/>
    <use xlink:href="#DejaVuSans-Oblique-72" transform="translate(8023.095703 0)"/>
    <use xlink:href="#DejaVuSans-Oblique-66" transform="translate(8064.208984 0)"/>
    <use xlink:href="#DejaVuSans-Oblique-61" transform="translate(8099.414062 0)"/>
    <use xlink:href="#DejaVuSans-Oblique-63" transform="translate(8160.693359 0)"/>
    <use xlink:href="#DejaVuSans-Oblique-65" transform="translate(8215.673828 0)"/>
    <use xlink:href="#DejaVuSans-Oblique-20" transform="translate(8277.197266 0)"/>
    <use xlink:href="#DejaVuSans-Oblique-74" transform="translate(8308.984375 0)"/>
    <use xlink:href="#DejaVuSans-Oblique-65" transform="translate(8348.193359 0)"/>
    <use xlink:href="#DejaVuSans-Oblique-6e" transform="translate(8409.716797 0)"/>
    <use xlink:href="#DejaVuSans-Oblique-73" transform="translate(8473.095703 0)"/>
    <use xlink:href="#DejaVuSans-Oblique-69" transform="translate(8525.195312 0)"/>
    <use xlink:href="#DejaVuSans-Oblique-6f" transform="translate(8552.978516 0)"/>
    <use xlink:href="#DejaVuSans-Oblique-6e" transform="translate(8614.160156 0)"/>
    <use xlink:href="#DejaVuSans-Oblique-2c" transform="translate(8677.539062 0)"/>
    <use xlink:href="#DejaVuSans-Oblique-20" transform="translate(8709.326172 0)"/>
    <use xlink:href="#DejaVuSans-Oblique-74" transform="translate(8741.113281 0)"/>
    <use xlink:href="#DejaVuSans-Oblique-75" transform="translate(8780.322266 0)"/>
    <use xlink:href="#DejaVuSans-Oblique-72" transform="translate(8843.701172 0)"/>
    <use xlink:href="#DejaVuSans-Oblique-62" transform="translate(8884.814453 0)"/>
    <use xlink:href="#DejaVuSans-Oblique-75" transform="translate(8948.291016 0)"/>
    <use xlink:href="#DejaVuSans-Oblique-6c" transform="translate(9011.669922 0)"/>
    <use xlink:href="#DejaVuSans-Oblique-65" transform="translate(9039.453125 0)"/>
    <use xlink:href="#DejaVuSans-Oblique-6e" transform="translate(9100.976562 0)"/>
    <use xlink:href="#DejaVuSans-Oblique-63" transform="translate(9164.355469 0)"/>
    <use xlink:href="#DejaVuSans-Oblique-65" transform="translate(9219.335938 0)"/>
    <use xlink:href="#DejaVuSans-Oblique-20" transform="translate(9280.859375 0)"/>
    <use xlink:href="#DejaVuSans-Oblique-73" transform="translate(9312.646484 0)"/>
    <use xlink:href="#DejaVuSans-Oblique-70" transform="translate(9364.746094 0)"/>
    <use xlink:href="#DejaVuSans-Oblique-65" transform="translate(9428.222656 0)"/>
    <use xlink:href="#DejaVuSans-Oblique-63" transform="translate(9489.746094 0)"/>
    <use xlink:href="#DejaVuSans-Oblique-74" transform="translate(9544.726562 0)"/>
    <use xlink:href="#DejaVuSans-Oblique-72" transform="translate(9583.935547 0)"/>
    <use xlink:href="#DejaVuSans-Oblique-75" transform="translate(9625.048828 0)"/>
    <use xlink:href="#DejaVuSans-Oblique-6d" transform="translate(9688.427734 0)"/>
    <use xlink:href="#DejaVuSans-Oblique-2c" transform="translate(9785.839844 0)"/>
    <use xlink:href="#DejaVuSans-Oblique-20" transform="translate(9817.626953 0)"/>
    <use xlink:href="#DejaVuSans-Oblique-61" transform="translate(9849.414062 0)"/>
    <use xlink:href="#DejaVuSans-Oblique-63" transform="translate(9910.693359 0)"/>
    <use xlink:href="#DejaVuSans-Oblique-6f" transform="translate(9965.673828 0)"/>
    <use xlink:href="#DejaVuSans-Oblique-75" transform="translate(10026.855469 0)"/>
    <use xlink:href="#DejaVuSans-Oblique-73" transform="translate(10090.234375 0)"/>
    <use xlink:href="#DejaVuSans-Oblique-74" transform="translate(10142.333984 0)"/>
    <use xlink:href="#DejaVuSans-Oblique-69" transform="translate(10181.542969 0)"/>
    <use xlink:href="#DejaVuSans-Oblique-63" transform="translate(10209.326172 0)"/>
    <use xlink:href="#DejaVuSans-Oblique-20" transform="translate(10264.306641 0)"/>
    <use xlink:href="#DejaVuSans-Oblique-66" transform="translate(10296.09375 0)"/>
    <use xlink:href="#DejaVuSans-Oblique-69" transform="translate(10331.298828 0)"/>
    <use xlink:href="#DejaVuSans-Oblique-65" transform="translate(10359.082031 0)"/>
    <use xlink:href="#DejaVuSans-Oblique-6c" transform="translate(10420.605469 0)"/>
    <use xlink:href="#DejaVuSans-Oblique-64" transform="translate(10448.388672 0)"/>
    <use xlink:href="#DejaVuSans-Oblique-20" transform="translate(10511.865234 0)"/>
    <use xlink:href="#DejaVuSans-Oblique-69" transform="translate(10543.652344 0)"/>
    <use xlink:href="#DejaVuSans-Oblique-66" transform="translate(10571.435547 0)"/>
    <use xlink:href="#DejaVuSans-Oblique-20" transform="translate(10606.640625 0)"/>
    <use xlink:href="#DejaVuSans-Oblique-68" transform="translate(10638.427734 0)"/>
    <use xlink:href="#DejaVuSans-Oblique-79" transform="translate(10701.806641 0)"/>
    <use xlink:href="#DejaVuSans-Oblique-62" transform="translate(10760.986328 0)"/>
    <use xlink:href="#DejaVuSans-Oblique-72" transform="translate(10824.462891 0)"/>
    <use xlink:href="#DejaVuSans-Oblique-69" transform="translate(10865.576172 0)"/>
    <use xlink:href="#DejaVuSans-Oblique-64" transform="translate(10893.359375 0)"/>
    <use xlink:href="#DejaVuSans-Oblique-2c" transform="translate(10956.835938 0)"/>
    <use xlink:href="#DejaVuSans-Oblique-20" transform="translate(10988.623047 0)"/>
    <use xlink:href="#DejaVuSans-Oblique-65" transform="translate(11020.410156 0)"/>
    <use xlink:href="#DejaVuSans-Oblique-74" transform="translate(11081.933594 0)"/>
    <use xlink:href="#DejaVuSans-Oblique-63" transform="translate(11121.142578 0)"/>
    <use xlink:href="#DejaVuSans-Oblique-2e" transform="translate(11176.123047 0)"/>
    <use xlink:href="#DejaVuSans-Oblique-29" transform="translate(11207.910156 0)"/>
    <use xlink:href="#DejaVuSans-Oblique-2e" transform="translate(11246.923828 0)"/>
    <use xlink:href="#DejaVuSans-Oblique-20" transform="translate(11278.710938 0)"/>
    <use xlink:href="#DejaVuSans-Oblique-55" transform="translate(11310.498047 0)"/>
    <use xlink:href="#DejaVuSans-Oblique-73" transform="translate(11383.691406 0)"/>
    <use xlink:href="#DejaVuSans-Oblique-65" transform="translate(11435.791016 0)"/>
    <use xlink:href="#DejaVuSans-Oblique-20" transform="translate(11497.314453 0)"/>
    <use xlink:href="#DejaVuSans-Oblique-6f" transform="translate(11529.101562 0)"/>
    <use xlink:href="#DejaVuSans-Oblique-6e" transform="translate(11590.283203 0)"/>
    <use xlink:href="#DejaVuSans-Oblique-6c" transform="translate(11653.662109 0)"/>
    <use xlink:href="#DejaVuSans-Oblique-79" transform="translate(11681.445312 0)"/>
    <use xlink:href="#DejaVuSans-Oblique-20" transform="translate(11740.625 0)"/>
    <use xlink:href="#DejaVuSans-Oblique-61" transform="translate(11772.412109 0)"/>
    <use xlink:href="#DejaVuSans-Oblique-73" transform="translate(11833.691406 0)"/>
    <use xlink:href="#DejaVuSans-Oblique-20" transform="translate(11885.791016 0)"/>
    <use xlink:href="#DejaVuSans-Oblique-61" transform="translate(11917.578125 0)"/>
    <use xlink:href="#DejaVuSans-Oblique-20" transform="translate(11978.857422 0)"/>
    <use xlink:href="#DejaVuSans-Oblique-73" transform="translate(12010.644531 0)"/>
    <use xlink:href="#DejaVuSans-Oblique-74" transform="translate(12062.744141 0)"/>
    <use xlink:href="#DejaVuSans-Oblique-61" transform="translate(12101.953125 0)"/>
    <use xlink:href="#DejaVuSans-Oblique-72" transform="translate(12163.232422 0)"/>
    <use xlink:href="#DejaVuSans-Oblique-74" transform="translate(12204.345703 0)"/>
    <use xlink:href="#DejaVuSans-Oblique-69" transform="translate(12243.554688 0)"/>
    <use xlink:href="#DejaVuSans-Oblique-6e" transform="translate(12271.337891 0)"/>
    <use xlink:href="#DejaVuSans-Oblique-67" transform="translate(12334.716797 0)"/>
    <use xlink:href="#DejaVuSans-Oblique-20" transform="translate(12398.193359 0)"/>
    <use xlink:href="#DejaVuSans-Oblique-70" transform="translate(12429.980469 0)"/>
    <use xlink:href="#DejaVuSans-Oblique-6f" transform="translate(12493.457031 0)"/>
    <use xlink:href="#DejaVuSans-Oblique-69" transform="translate(12554.638672 0)"/>
    <use xlink:href="#DejaVuSans-Oblique-6e" transform="translate(12582.421875 0)"/>
    <use xlink:href="#DejaVuSans-Oblique-74" transform="translate(12645.800781 0)"/>
    <use xlink:href="#DejaVuSans-Oblique-20" transform="translate(12685.009766 0)"/>
    <use xlink:href="#DejaVuSans-Oblique-66" transform="translate(12716.796875 0)"/>
    <use xlink:href="#DejaVuSans-Oblique-6f" transform="translate(12752.001953 0)"/>
    <use xlink:href="#DejaVuSans-Oblique-72" transform="translate(12813.183594 0)"/>
    <use xlink:href="#DejaVuSans-Oblique-20" transform="translate(12854.296875 0)"/>
    <use xlink:href="#DejaVuSans-Oblique-68" transform="translate(12886.083984 0)"/>
    <use xlink:href="#DejaVuSans-Oblique-79" transform="translate(12949.462891 0)"/>
    <use xlink:href="#DejaVuSans-Oblique-70" transform="translate(13008.642578 0)"/>
    <use xlink:href="#DejaVuSans-Oblique-6f" transform="translate(13072.119141 0)"/>
    <use xlink:href="#DejaVuSans-Oblique-74" transform="translate(13133.300781 0)"/>
    <use xlink:href="#DejaVuSans-Oblique-68" transform="translate(13172.509766 0)"/>
    <use xlink:href="#DejaVuSans-Oblique-65" transform="translate(13235.888672 0)"/>
    <use xlink:href="#DejaVuSans-Oblique-73" transform="translate(13297.412109 0)"/>
    <use xlink:href="#DejaVuSans-Oblique-69" transform="translate(13349.511719 0)"/>
    <use xlink:href="#DejaVuSans-Oblique-73" transform="translate(13377.294922 0)"/>
    <use xlink:href="#DejaVuSans-Oblique-20" transform="translate(13429.394531 0)"/>
    <use xlink:href="#DejaVuSans-Oblique-67" transform="translate(13461.181641 0)"/>
    <use xlink:href="#DejaVuSans-Oblique-65" transform="translate(13524.658203 0)"/>
    <use xlink:href="#DejaVuSans-Oblique-6e" transform="translate(13586.181641 0)"/>
    <use xlink:href="#DejaVuSans-Oblique-65" transform="translate(13649.560547 0)"/>
    <use xlink:href="#DejaVuSans-Oblique-72" transform="translate(13711.083984 0)"/>
    <use xlink:href="#DejaVuSans-Oblique-61" transform="translate(13752.197266 0)"/>
    <use xlink:href="#DejaVuSans-Oblique-74" transform="translate(13813.476562 0)"/>
    <use xlink:href="#DejaVuSans-Oblique-69" transform="translate(13852.685547 0)"/>
    <use xlink:href="#DejaVuSans-Oblique-6f" transform="translate(13880.46875 0)"/>
    <use xlink:href="#DejaVuSans-Oblique-6e" transform="translate(13941.650391 0)"/>
    <use xlink:href="#DejaVuSans-Oblique-2e" transform="translate(14005.029297 0)"/>
    <use xlink:href="#DejaVuSans-Oblique-20" transform="translate(14036.816406 0)"/>
    <use xlink:href="#DejaVuSans-Oblique-41" transform="translate(14068.603516 0)"/>
    <use xlink:href="#DejaVuSans-Oblique-6c" transform="translate(14137.011719 0)"/>
    <use xlink:href="#DejaVuSans-Oblique-77" transform="translate(14164.794922 0)"/>
    <use xlink:href="#DejaVuSans-Oblique-61" transform="translate(14246.582031 0)"/>
    <use xlink:href="#DejaVuSans-Oblique-79" transform="translate(14307.861328 0)"/>
    <use xlink:href="#DejaVuSans-Oblique-73" transform="translate(14367.041016 0)"/>
    <use xlink:href="#DejaVuSans-Oblique-20" transform="translate(14419.140625 0)"/>
    <use xlink:href="#DejaVuSans-Oblique-76" transform="translate(14450.927734 0)"/>
    <use xlink:href="#DejaVuSans-Oblique-61" transform="translate(14510.107422 0)"/>
    <use xlink:href="#DejaVuSans-Oblique-6c" transform="translate(14571.386719 0)"/>
    <use xlink:href="#DejaVuSans-Oblique-69" transform="translate(14599.169922 0)"/>
    <use xlink:href="#DejaVuSans-Oblique-64" transform="translate(14626.953125 0)"/>
    <use xlink:href="#DejaVuSans-Oblique-61" transform="translate(14690.429688 0)"/>
    <use xlink:href="#DejaVuSans-Oblique-74" transform="translate(14751.708984 0)"/>
    <use xlink:href="#DejaVuSans-Oblique-65" transform="translate(14790.917969 0)"/>
    <use xlink:href="#DejaVuSans-Oblique-20" transform="translate(14852.441406 0)"/>
    <use xlink:href="#DejaVuSans-Oblique-65" transform="translate(14884.228516 0)"/>
    <use xlink:href="#DejaVuSans-Oblique-78" transform="translate(14945.751953 0)"/>
    <use xlink:href="#DejaVuSans-Oblique-70" transform="translate(15004.931641 0)"/>
    <use xlink:href="#DejaVuSans-Oblique-65" transform="translate(15068.408203 0)"/>
    <use xlink:href="#DejaVuSans-Oblique-72" transform="translate(15129.931641 0)"/>
    <use xlink:href="#DejaVuSans-Oblique-69" transform="translate(15171.044922 0)"/>
    <use xlink:href="#DejaVuSans-Oblique-6d" transform="translate(15198.828125 0)"/>
    <use xlink:href="#DejaVuSans-Oblique-65" transform="translate(15296.240234 0)"/>
    <use xlink:href="#DejaVuSans-Oblique-6e" transform="translate(15357.763672 0)"/>
    <use xlink:href="#DejaVuSans-Oblique-74" transform="translate(15421.142578 0)"/>
    <use xlink:href="#DejaVuSans-Oblique-61" transform="translate(15460.351562 0)"/>
    <use xlink:href="#DejaVuSans-Oblique-6c" transform="translate(15521.630859 0)"/>
    <use xlink:href="#DejaVuSans-Oblique-6c" transform="translate(15549.414062 0)"/>
    <use xlink:href="#DejaVuSans-Oblique-79" transform="translate(15577.197266 0)"/>
    <use xlink:href="#DejaVuSans-Oblique-2e" transform="translate(15628.626953 0)"/>
   </g>
  </g>
 </g>
 <defs>
  <clipPath id="p27f0594bce">
   <rect x="324.61625" y="35.7555" width="658.195" height="285.328"/>
  </clipPath>
 </defs>
</svg>
