<?xml version="1.0" encoding="utf-8" standalone="no"?>
<!DOCTYPE svg PUBLIC "-//W3C//DTD SVG 1.1//EN"
  "http://www.w3.org/Graphics/SVG/1.1/DTD/svg11.dtd">
<svg xmlns:xlink="http://www.w3.org/1999/xlink" width="1125.005pt" height="339.50725pt" viewBox="0 0 1125.005 339.50725" xmlns="http://www.w3.org/2000/svg" version="1.1">
 <metadata>
  <rdf:RDF xmlns:dc="http://purl.org/dc/elements/1.1/" xmlns:cc="http://creativecommons.org/ns#" xmlns:rdf="http://www.w3.org/1999/02/22-rdf-syntax-ns#">
   <cc:Work>
    <dc:type rdf:resource="http://purl.org/dc/dcmitype/StillImage"/>
    <dc:date>2026-05-28T09:21:09.578652</dc:date>
    <dc:format>image/svg+xml</dc:format>
    <dc:creator>
     <cc:Agent>
      <dc:title>Matplotlib v3.10.9, https://matplotlib.org/</dc:title>
     </cc:Agent>
    </dc:creator>
   </cc:Work>
  </rdf:RDF>
 </metadata>
 <defs>
  <style type="text/css">*{stroke-linejoin: round; stroke-linecap: butt}</style>
 </defs>
 <g id="figure_1">
  <g id="patch_1">
   <path d="M -0 339.50725 
L 1125.005 339.50725 
L 1125.005 0 
L -0 0 
z
" style="fill: #ffffff"/>
  </g>
  <g id="axes_1">
   <g id="patch_2">
    <path d="M 250.3575 259.8835 
L 911.7025 259.8835 
L 911.7025 35.7555 
L 250.3575 35.7555 
z
" style="fill: #ffffff"/>
   </g>
   <g id="FillBetweenPolyCollection_1">
    <defs>
     <path id="md2e219879e" d="M 280.418636 -89.811386 
L 280.418636 -140.749568 
L 286.491593 -140.749568 
L 292.56455 -140.749568 
L 298.637507 -140.749568 
L 304.710464 -140.749568 
L 310.783421 -140.749568 
L 316.856377 -140.749568 
L 322.929334 -140.749568 
L 329.002291 -140.749568 
L 335.075248 -140.749568 
L 341.148205 -140.749568 
L 347.221162 -140.749568 
L 353.294118 -140.749568 
L 359.367075 -140.749568 
L 365.440032 -140.749568 
L 371.512989 -140.749568 
L 377.585946 -140.749568 
L 383.658903 -140.749568 
L 389.73186 -140.749568 
L 395.804816 -140.749568 
L 401.877773 -140.749568 
L 407.95073 -140.749568 
L 414.023687 -140.749568 
L 420.096644 -140.749568 
L 426.169601 -140.749568 
L 432.242557 -140.749568 
L 438.315514 -140.749568 
L 444.388471 -140.749568 
L 450.461428 -140.749568 
L 456.534385 -140.749568 
L 462.607342 -140.749568 
L 468.680298 -140.749568 
L 474.753255 -140.749568 
L 480.826212 -140.749568 
L 486.899169 -140.749568 
L 492.972126 -140.749568 
L 499.045083 -140.749568 
L 505.118039 -140.749568 
L 511.190996 -140.749568 
L 517.263953 -140.749568 
L 523.33691 -140.749568 
L 529.409867 -140.749568 
L 535.482824 -140.749568 
L 541.555781 -140.749568 
L 547.628737 -140.749568 
L 553.701694 -140.749568 
L 559.774651 -140.749568 
L 565.847608 -140.749568 
L 571.920565 -140.749568 
L 577.993522 -140.749568 
L 584.066478 -140.749568 
L 590.139435 -140.749568 
L 596.212392 -140.749568 
L 602.285349 -140.749568 
L 608.358306 -140.749568 
L 614.431263 -140.749568 
L 620.504219 -140.749568 
L 626.577176 -140.749568 
L 632.650133 -140.749568 
L 638.72309 -140.749568 
L 644.796047 -140.749568 
L 650.869004 -140.749568 
L 656.941961 -140.749568 
L 663.014917 -140.749568 
L 669.087874 -140.749568 
L 675.160831 -140.749568 
L 681.233788 -140.749568 
L 687.306745 -140.749568 
L 693.379702 -140.749568 
L 699.452658 -140.749568 
L 705.525615 -140.749568 
L 711.598572 -140.749568 
L 717.671529 -140.749568 
L 723.744486 -140.749568 
L 729.817443 -140.749568 
L 735.890399 -140.749568 
L 741.963356 -140.749568 
L 748.036313 -140.749568 
L 754.10927 -140.749568 
L 760.182227 -140.749568 
L 766.255184 -140.749568 
L 772.32814 -140.749568 
L 778.401097 -140.749568 
L 784.474054 -140.749568 
L 790.547011 -140.749568 
L 796.619968 -140.749568 
L 802.692925 -140.749568 
L 808.765882 -140.749568 
L 814.838838 -140.749568 
L 820.911795 -140.749568 
L 826.984752 -140.749568 
L 833.057709 -140.749568 
L 839.130666 -140.749568 
L 845.203623 -140.749568 
L 851.276579 -140.749568 
L 857.349536 -140.749568 
L 863.422493 -140.749568 
L 869.49545 -140.749568 
L 875.568407 -140.749568 
L 881.641364 -140.749568 
L 881.641364 -293.564114 
L 881.641364 -293.564114 
L 875.568407 -292.326742 
L 869.49545 -291.08431 
L 863.422493 -289.836743 
L 857.349536 -288.583967 
L 851.276579 -287.325906 
L 845.203623 -286.062479 
L 839.130666 -284.793606 
L 833.057709 -283.519204 
L 826.984752 -282.239188 
L 820.911795 -280.953471 
L 814.838838 -279.661961 
L 808.765882 -278.364568 
L 802.692925 -277.061196 
L 796.619968 -275.751747 
L 790.547011 -274.436122 
L 784.474054 -273.114216 
L 778.401097 -271.785924 
L 772.32814 -270.451137 
L 766.255184 -269.109742 
L 760.182227 -267.761622 
L 754.10927 -266.40666 
L 748.036313 -265.04473 
L 741.963356 -263.675708 
L 735.890399 -262.29946 
L 729.817443 -260.915853 
L 723.744486 -259.524746 
L 717.671529 -258.125995 
L 711.598572 -256.719452 
L 705.525615 -255.304961 
L 699.452658 -253.882365 
L 693.379702 -252.451497 
L 687.306745 -251.012187 
L 681.233788 -249.564259 
L 675.160831 -248.107527 
L 669.087874 -246.641804 
L 663.014917 -245.16689 
L 656.941961 -243.682582 
L 650.869004 -242.188666 
L 644.796047 -240.684921 
L 638.72309 -239.171117 
L 632.650133 -237.647014 
L 626.577176 -236.112364 
L 620.504219 -234.566905 
L 614.431263 -233.010367 
L 608.358306 -231.442467 
L 602.285349 -229.862909 
L 596.212392 -228.271384 
L 590.139435 -226.667568 
L 584.066478 -225.051123 
L 577.993522 -223.421693 
L 571.920565 -221.778907 
L 565.847608 -220.122372 
L 559.774651 -218.451677 
L 553.701694 -216.76639 
L 547.628737 -215.066054 
L 541.555781 -213.350189 
L 535.482824 -211.618286 
L 529.409867 -209.869808 
L 523.33691 -208.104186 
L 517.263953 -206.320816 
L 511.190996 -204.51906 
L 505.118039 -202.698235 
L 499.045083 -200.857615 
L 492.972126 -198.996427 
L 486.899169 -197.113843 
L 480.826212 -195.208976 
L 474.753255 -193.280875 
L 468.680298 -191.328516 
L 462.607342 -189.350797 
L 456.534385 -187.346527 
L 450.461428 -185.314412 
L 444.388471 -183.253052 
L 438.315514 -181.160917 
L 432.242557 -179.036338 
L 426.169601 -176.87748 
L 420.096644 -174.682327 
L 414.023687 -172.448649 
L 407.95073 -170.17397 
L 401.877773 -167.855529 
L 395.804816 -165.490228 
L 389.73186 -163.074575 
L 383.658903 -160.604606 
L 377.585946 -158.07579 
L 371.512989 -155.482906 
L 365.440032 -152.819886 
L 359.367075 -150.079601 
L 353.294118 -147.253586 
L 347.221162 -144.331647 
L 341.148205 -141.301318 
L 335.075248 -138.147065 
L 329.002291 -134.849097 
L 322.929334 -131.381493 
L 316.856377 -127.709105 
L 310.783421 -123.782072 
L 304.710464 -119.525194 
L 298.637507 -114.814556 
L 292.56455 -109.415189 
L 286.491593 -102.745072 
L 280.418636 -89.811386 
z
" style="stroke: #008080; stroke-opacity: 0.2"/>
    </defs>
    <g clip-path="url(#pdc62210631)">
     <use xlink:href="#md2e219879e" x="0" y="339.50725" style="fill: #008080; fill-opacity: 0.2; stroke: #008080; stroke-opacity: 0.2"/>
    </g>
   </g>
   <g id="matplotlib.axis_1">
    <g id="xtick_1">
     <g id="line2d_1">
      <path d="M 280.418636 259.8835 
L 280.418636 35.7555 
" clip-path="url(#pdc62210631)" style="fill: none; stroke: #b0b0b0; stroke-opacity: 0.3; stroke-width: 0.8; stroke-linecap: square"/>
     </g>
     <g id="line2d_2">
      <defs>
       <path id="mb92c292a81" d="M 0 0 
L 0 3.5 
" style="stroke: #000000; stroke-width: 0.8"/>
      </defs>
      <g>
       <use xlink:href="#mb92c292a81" x="280.418636" y="259.8835" style="stroke: #000000; stroke-width: 0.8"/>
      </g>
     </g>
     <g id="text_1">
      <!-- 0 -->
      <g transform="translate(277.237386 274.481937) scale(0.1 -0.1)">
       <defs>
        <path id="DejaVuSans-30" d="M 2034 4250 
Q 1547 4250 1301 3770 
Q 1056 3291 1056 2328 
Q 1056 1369 1301 889 
Q 1547 409 2034 409 
Q 2525 409 2770 889 
Q 3016 1369 3016 2328 
Q 3016 3291 2770 3770 
Q 2525 4250 2034 4250 
z
M 2034 4750 
Q 2819 4750 3233 4129 
Q 3647 3509 3647 2328 
Q 3647 1150 3233 529 
Q 2819 -91 2034 -91 
Q 1250 -91 836 529 
Q 422 1150 422 2328 
Q 422 3509 836 4129 
Q 1250 4750 2034 4750 
z
" transform="scale(0.015625)"/>
       </defs>
       <use xlink:href="#DejaVuSans-30"/>
      </g>
     </g>
    </g>
    <g id="xtick_2">
     <g id="line2d_3">
      <path d="M 400.663182 259.8835 
L 400.663182 35.7555 
" clip-path="url(#pdc62210631)" style="fill: none; stroke: #b0b0b0; stroke-opacity: 0.3; stroke-width: 0.8; stroke-linecap: square"/>
     </g>
     <g id="line2d_4">
      <g>
       <use xlink:href="#mb92c292a81" x="400.663182" y="259.8835" style="stroke: #000000; stroke-width: 0.8"/>
      </g>
     </g>
     <g id="text_2">
      <!-- 20 -->
      <g transform="translate(394.300682 274.481937) scale(0.1 -0.1)">
       <defs>
        <path id="DejaVuSans-32" d="M 1228 531 
L 3431 531 
L 3431 0 
L 469 0 
L 469 531 
Q 828 903 1448 1529 
Q 2069 2156 2228 2338 
Q 2531 2678 2651 2914 
Q 2772 3150 2772 3378 
Q 2772 3750 2511 3984 
Q 2250 4219 1831 4219 
Q 1534 4219 1204 4116 
Q 875 4013 500 3803 
L 500 4441 
Q 881 4594 1212 4672 
Q 1544 4750 1819 4750 
Q 2544 4750 2975 4387 
Q 3406 4025 3406 3419 
Q 3406 3131 3298 2873 
Q 3191 2616 2906 2266 
Q 2828 2175 2409 1742 
Q 1991 1309 1228 531 
z
" transform="scale(0.015625)"/>
       </defs>
       <use xlink:href="#DejaVuSans-32"/>
       <use xlink:href="#DejaVuSans-30" transform="translate(63.623047 0)"/>
      </g>
     </g>
    </g>
    <g id="xtick_3">
     <g id="line2d_5">
      <path d="M 520.907727 259.8835 
L 520.907727 35.7555 
" clip-path="url(#pdc62210631)" style="fill: none; stroke: #b0b0b0; stroke-opacity: 0.3; stroke-width: 0.8; stroke-linecap: square"/>
     </g>
     <g id="line2d_6">
      <g>
       <use xlink:href="#mb92c292a81" x="520.907727" y="259.8835" style="stroke: #000000; stroke-width: 0.8"/>
      </g>
     </g>
     <g id="text_3">
      <!-- 40 -->
      <g transform="translate(514.545227 274.481937) scale(0.1 -0.1)">
       <defs>
        <path id="DejaVuSans-34" d="M 2419 4116 
L 825 1625 
L 2419 1625 
L 2419 4116 
z
M 2253 4666 
L 3047 4666 
L 3047 1625 
L 3713 1625 
L 3713 1100 
L 3047 1100 
L 3047 0 
L 2419 0 
L 2419 1100 
L 313 1100 
L 313 1709 
L 2253 4666 
z
" transform="scale(0.015625)"/>
       </defs>
       <use xlink:href="#DejaVuSans-34"/>
       <use xlink:href="#DejaVuSans-30" transform="translate(63.623047 0)"/>
      </g>
     </g>
    </g>
    <g id="xtick_4">
     <g id="line2d_7">
      <path d="M 641.152273 259.8835 
L 641.152273 35.7555 
" clip-path="url(#pdc62210631)" style="fill: none; stroke: #b0b0b0; stroke-opacity: 0.3; stroke-width: 0.8; stroke-linecap: square"/>
     </g>
     <g id="line2d_8">
      <g>
       <use xlink:href="#mb92c292a81" x="641.152273" y="259.8835" style="stroke: #000000; stroke-width: 0.8"/>
      </g>
     </g>
     <g id="text_4">
      <!-- 60 -->
      <g transform="translate(634.789773 274.481937) scale(0.1 -0.1)">
       <defs>
        <path id="DejaVuSans-36" d="M 2113 2584 
Q 1688 2584 1439 2293 
Q 1191 2003 1191 1497 
Q 1191 994 1439 701 
Q 1688 409 2113 409 
Q 2538 409 2786 701 
Q 3034 994 3034 1497 
Q 3034 2003 2786 2293 
Q 2538 2584 2113 2584 
z
M 3366 4563 
L 3366 3988 
Q 3128 4100 2886 4159 
Q 2644 4219 2406 4219 
Q 1781 4219 1451 3797 
Q 1122 3375 1075 2522 
Q 1259 2794 1537 2939 
Q 1816 3084 2150 3084 
Q 2853 3084 3261 2657 
Q 3669 2231 3669 1497 
Q 3669 778 3244 343 
Q 2819 -91 2113 -91 
Q 1303 -91 875 529 
Q 447 1150 447 2328 
Q 447 3434 972 4092 
Q 1497 4750 2381 4750 
Q 2619 4750 2861 4703 
Q 3103 4656 3366 4563 
z
" transform="scale(0.015625)"/>
       </defs>
       <use xlink:href="#DejaVuSans-36"/>
       <use xlink:href="#DejaVuSans-30" transform="translate(63.623047 0)"/>
      </g>
     </g>
    </g>
    <g id="xtick_5">
     <g id="line2d_9">
      <path d="M 761.396818 259.8835 
L 761.396818 35.7555 
" clip-path="url(#pdc62210631)" style="fill: none; stroke: #b0b0b0; stroke-opacity: 0.3; stroke-width: 0.8; stroke-linecap: square"/>
     </g>
     <g id="line2d_10">
      <g>
       <use xlink:href="#mb92c292a81" x="761.396818" y="259.8835" style="stroke: #000000; stroke-width: 0.8"/>
      </g>
     </g>
     <g id="text_5">
      <!-- 80 -->
      <g transform="translate(755.034318 274.481937) scale(0.1 -0.1)">
       <defs>
        <path id="DejaVuSans-38" d="M 2034 2216 
Q 1584 2216 1326 1975 
Q 1069 1734 1069 1313 
Q 1069 891 1326 650 
Q 1584 409 2034 409 
Q 2484 409 2743 651 
Q 3003 894 3003 1313 
Q 3003 1734 2745 1975 
Q 2488 2216 2034 2216 
z
M 1403 2484 
Q 997 2584 770 2862 
Q 544 3141 544 3541 
Q 544 4100 942 4425 
Q 1341 4750 2034 4750 
Q 2731 4750 3128 4425 
Q 3525 4100 3525 3541 
Q 3525 3141 3298 2862 
Q 3072 2584 2669 2484 
Q 3125 2378 3379 2068 
Q 3634 1759 3634 1313 
Q 3634 634 3220 271 
Q 2806 -91 2034 -91 
Q 1263 -91 848 271 
Q 434 634 434 1313 
Q 434 1759 690 2068 
Q 947 2378 1403 2484 
z
M 1172 3481 
Q 1172 3119 1398 2916 
Q 1625 2713 2034 2713 
Q 2441 2713 2670 2916 
Q 2900 3119 2900 3481 
Q 2900 3844 2670 4047 
Q 2441 4250 2034 4250 
Q 1625 4250 1398 4047 
Q 1172 3844 1172 3481 
z
" transform="scale(0.015625)"/>
       </defs>
       <use xlink:href="#DejaVuSans-38"/>
       <use xlink:href="#DejaVuSans-30" transform="translate(63.623047 0)"/>
      </g>
     </g>
    </g>
    <g id="xtick_6">
     <g id="line2d_11">
      <path d="M 881.641364 259.8835 
L 881.641364 35.7555 
" clip-path="url(#pdc62210631)" style="fill: none; stroke: #b0b0b0; stroke-opacity: 0.3; stroke-width: 0.8; stroke-linecap: square"/>
     </g>
     <g id="line2d_12">
      <g>
       <use xlink:href="#mb92c292a81" x="881.641364" y="259.8835" style="stroke: #000000; stroke-width: 0.8"/>
      </g>
     </g>
     <g id="text_6">
      <!-- 100 -->
      <g transform="translate(872.097614 274.481937) scale(0.1 -0.1)">
       <defs>
        <path id="DejaVuSans-31" d="M 794 531 
L 1825 531 
L 1825 4091 
L 703 3866 
L 703 4441 
L 1819 4666 
L 2450 4666 
L 2450 531 
L 3481 531 
L 3481 0 
L 794 0 
L 794 531 
z
" transform="scale(0.015625)"/>
       </defs>
       <use xlink:href="#DejaVuSans-31"/>
       <use xlink:href="#DejaVuSans-30" transform="translate(63.623047 0)"/>
       <use xlink:href="#DejaVuSans-30" transform="translate(127.246094 0)"/>
      </g>
     </g>
    </g>
    <g id="text_7">
     <!-- Pre-conditioning Quality from Platter Device (0 = poor, 100 = excellent) -->
     <g transform="translate(400.804219 288.160062) scale(0.1 -0.1)">
      <defs>
       <path id="DejaVuSans-50" d="M 1259 4147 
L 1259 2394 
L 2053 2394 
Q 2494 2394 2734 2622 
Q 2975 2850 2975 3272 
Q 2975 3691 2734 3919 
Q 2494 4147 2053 4147 
L 1259 4147 
z
M 628 4666 
L 2053 4666 
Q 2838 4666 3239 4311 
Q 3641 3956 3641 3272 
Q 3641 2581 3239 2228 
Q 2838 1875 2053 1875 
L 1259 1875 
L 1259 0 
L 628 0 
L 628 4666 
z
" transform="scale(0.015625)"/>
       <path id="DejaVuSans-72" d="M 2631 2963 
Q 2534 3019 2420 3045 
Q 2306 3072 2169 3072 
Q 1681 3072 1420 2755 
Q 1159 2438 1159 1844 
L 1159 0 
L 581 0 
L 581 3500 
L 1159 3500 
L 1159 2956 
Q 1341 3275 1631 3429 
Q 1922 3584 2338 3584 
Q 2397 3584 2469 3576 
Q 2541 3569 2628 3553 
L 2631 2963 
z
" transform="scale(0.015625)"/>
       <path id="DejaVuSans-65" d="M 3597 1894 
L 3597 1613 
L 953 1613 
Q 991 1019 1311 708 
Q 1631 397 2203 397 
Q 2534 397 2845 478 
Q 3156 559 3463 722 
L 3463 178 
Q 3153 47 2828 -22 
Q 2503 -91 2169 -91 
Q 1331 -91 842 396 
Q 353 884 353 1716 
Q 353 2575 817 3079 
Q 1281 3584 2069 3584 
Q 2775 3584 3186 3129 
Q 3597 2675 3597 1894 
z
M 3022 2063 
Q 3016 2534 2758 2815 
Q 2500 3097 2075 3097 
Q 1594 3097 1305 2825 
Q 1016 2553 972 2059 
L 3022 2063 
z
" transform="scale(0.015625)"/>
       <path id="DejaVuSans-2d" d="M 313 2009 
L 1997 2009 
L 1997 1497 
L 313 1497 
L 313 2009 
z
" transform="scale(0.015625)"/>
       <path id="DejaVuSans-63" d="M 3122 3366 
L 3122 2828 
Q 2878 2963 2633 3030 
Q 2388 3097 2138 3097 
Q 1578 3097 1268 2742 
Q 959 2388 959 1747 
Q 959 1106 1268 751 
Q 1578 397 2138 397 
Q 2388 397 2633 464 
Q 2878 531 3122 666 
L 3122 134 
Q 2881 22 2623 -34 
Q 2366 -91 2075 -91 
Q 1284 -91 818 406 
Q 353 903 353 1747 
Q 353 2603 823 3093 
Q 1294 3584 2113 3584 
Q 2378 3584 2631 3529 
Q 2884 3475 3122 3366 
z
" transform="scale(0.015625)"/>
       <path id="DejaVuSans-6f" d="M 1959 3097 
Q 1497 3097 1228 2736 
Q 959 2375 959 1747 
Q 959 1119 1226 758 
Q 1494 397 1959 397 
Q 2419 397 2687 759 
Q 2956 1122 2956 1747 
Q 2956 2369 2687 2733 
Q 2419 3097 1959 3097 
z
M 1959 3584 
Q 2709 3584 3137 3096 
Q 3566 2609 3566 1747 
Q 3566 888 3137 398 
Q 2709 -91 1959 -91 
Q 1206 -91 779 398 
Q 353 888 353 1747 
Q 353 2609 779 3096 
Q 1206 3584 1959 3584 
z
" transform="scale(0.015625)"/>
       <path id="DejaVuSans-6e" d="M 3513 2113 
L 3513 0 
L 2938 0 
L 2938 2094 
Q 2938 2591 2744 2837 
Q 2550 3084 2163 3084 
Q 1697 3084 1428 2787 
Q 1159 2491 1159 1978 
L 1159 0 
L 581 0 
L 581 3500 
L 1159 3500 
L 1159 2956 
Q 1366 3272 1645 3428 
Q 1925 3584 2291 3584 
Q 2894 3584 3203 3211 
Q 3513 2838 3513 2113 
z
" transform="scale(0.015625)"/>
       <path id="DejaVuSans-64" d="M 2906 2969 
L 2906 4863 
L 3481 4863 
L 3481 0 
L 2906 0 
L 2906 525 
Q 2725 213 2448 61 
Q 2172 -91 1784 -91 
Q 1150 -91 751 415 
Q 353 922 353 1747 
Q 353 2572 751 3078 
Q 1150 3584 1784 3584 
Q 2172 3584 2448 3432 
Q 2725 3281 2906 2969 
z
M 947 1747 
Q 947 1113 1208 752 
Q 1469 391 1925 391 
Q 2381 391 2643 752 
Q 2906 1113 2906 1747 
Q 2906 2381 2643 2742 
Q 2381 3103 1925 3103 
Q 1469 3103 1208 2742 
Q 947 2381 947 1747 
z
" transform="scale(0.015625)"/>
       <path id="DejaVuSans-69" d="M 603 3500 
L 1178 3500 
L 1178 0 
L 603 0 
L 603 3500 
z
M 603 4863 
L 1178 4863 
L 1178 4134 
L 603 4134 
L 603 4863 
z
" transform="scale(0.015625)"/>
       <path id="DejaVuSans-74" d="M 1172 4494 
L 1172 3500 
L 2356 3500 
L 2356 3053 
L 1172 3053 
L 1172 1153 
Q 1172 725 1289 603 
Q 1406 481 1766 481 
L 2356 481 
L 2356 0 
L 1766 0 
Q 1100 0 847 248 
Q 594 497 594 1153 
L 594 3053 
L 172 3053 
L 172 3500 
L 594 3500 
L 594 4494 
L 1172 4494 
z
" transform="scale(0.015625)"/>
       <path id="DejaVuSans-67" d="M 2906 1791 
Q 2906 2416 2648 2759 
Q 2391 3103 1925 3103 
Q 1463 3103 1205 2759 
Q 947 2416 947 1791 
Q 947 1169 1205 825 
Q 1463 481 1925 481 
Q 2391 481 2648 825 
Q 2906 1169 2906 1791 
z
M 3481 434 
Q 3481 -459 3084 -895 
Q 2688 -1331 1869 -1331 
Q 1566 -1331 1297 -1286 
Q 1028 -1241 775 -1147 
L 775 -588 
Q 1028 -725 1275 -790 
Q 1522 -856 1778 -856 
Q 2344 -856 2625 -561 
Q 2906 -266 2906 331 
L 2906 616 
Q 2728 306 2450 153 
Q 2172 0 1784 0 
Q 1141 0 747 490 
Q 353 981 353 1791 
Q 353 2603 747 3093 
Q 1141 3584 1784 3584 
Q 2172 3584 2450 3431 
Q 2728 3278 2906 2969 
L 2906 3500 
L 3481 3500 
L 3481 434 
z
" transform="scale(0.015625)"/>
       <path id="DejaVuSans-20" transform="scale(0.015625)"/>
       <path id="DejaVuSans-51" d="M 2522 4238 
Q 1834 4238 1429 3725 
Q 1025 3213 1025 2328 
Q 1025 1447 1429 934 
Q 1834 422 2522 422 
Q 3209 422 3611 934 
Q 4013 1447 4013 2328 
Q 4013 3213 3611 3725 
Q 3209 4238 2522 4238 
z
M 3406 84 
L 4238 -825 
L 3475 -825 
L 2784 -78 
Q 2681 -84 2626 -87 
Q 2572 -91 2522 -91 
Q 1538 -91 948 567 
Q 359 1225 359 2328 
Q 359 3434 948 4092 
Q 1538 4750 2522 4750 
Q 3503 4750 4090 4092 
Q 4678 3434 4678 2328 
Q 4678 1516 4351 937 
Q 4025 359 3406 84 
z
" transform="scale(0.015625)"/>
       <path id="DejaVuSans-75" d="M 544 1381 
L 544 3500 
L 1119 3500 
L 1119 1403 
Q 1119 906 1312 657 
Q 1506 409 1894 409 
Q 2359 409 2629 706 
Q 2900 1003 2900 1516 
L 2900 3500 
L 3475 3500 
L 3475 0 
L 2900 0 
L 2900 538 
Q 2691 219 2414 64 
Q 2138 -91 1772 -91 
Q 1169 -91 856 284 
Q 544 659 544 1381 
z
M 1991 3584 
L 1991 3584 
z
" transform="scale(0.015625)"/>
       <path id="DejaVuSans-61" d="M 2194 1759 
Q 1497 1759 1228 1600 
Q 959 1441 959 1056 
Q 959 750 1161 570 
Q 1363 391 1709 391 
Q 2188 391 2477 730 
Q 2766 1069 2766 1631 
L 2766 1759 
L 2194 1759 
z
M 3341 1997 
L 3341 0 
L 2766 0 
L 2766 531 
Q 2569 213 2275 61 
Q 1981 -91 1556 -91 
Q 1019 -91 701 211 
Q 384 513 384 1019 
Q 384 1609 779 1909 
Q 1175 2209 1959 2209 
L 2766 2209 
L 2766 2266 
Q 2766 2663 2505 2880 
Q 2244 3097 1772 3097 
Q 1472 3097 1187 3025 
Q 903 2953 641 2809 
L 641 3341 
Q 956 3463 1253 3523 
Q 1550 3584 1831 3584 
Q 2591 3584 2966 3190 
Q 3341 2797 3341 1997 
z
" transform="scale(0.015625)"/>
       <path id="DejaVuSans-6c" d="M 603 4863 
L 1178 4863 
L 1178 0 
L 603 0 
L 603 4863 
z
" transform="scale(0.015625)"/>
       <path id="DejaVuSans-79" d="M 2059 -325 
Q 1816 -950 1584 -1140 
Q 1353 -1331 966 -1331 
L 506 -1331 
L 506 -850 
L 844 -850 
Q 1081 -850 1212 -737 
Q 1344 -625 1503 -206 
L 1606 56 
L 191 3500 
L 800 3500 
L 1894 763 
L 2988 3500 
L 3597 3500 
L 2059 -325 
z
" transform="scale(0.015625)"/>
       <path id="DejaVuSans-66" d="M 2375 4863 
L 2375 4384 
L 1825 4384 
Q 1516 4384 1395 4259 
Q 1275 4134 1275 3809 
L 1275 3500 
L 2222 3500 
L 2222 3053 
L 1275 3053 
L 1275 0 
L 697 0 
L 697 3053 
L 147 3053 
L 147 3500 
L 697 3500 
L 697 3744 
Q 697 4328 969 4595 
Q 1241 4863 1831 4863 
L 2375 4863 
z
" transform="scale(0.015625)"/>
       <path id="DejaVuSans-6d" d="M 3328 2828 
Q 3544 3216 3844 3400 
Q 4144 3584 4550 3584 
Q 5097 3584 5394 3201 
Q 5691 2819 5691 2113 
L 5691 0 
L 5113 0 
L 5113 2094 
Q 5113 2597 4934 2840 
Q 4756 3084 4391 3084 
Q 3944 3084 3684 2787 
Q 3425 2491 3425 1978 
L 3425 0 
L 2847 0 
L 2847 2094 
Q 2847 2600 2669 2842 
Q 2491 3084 2119 3084 
Q 1678 3084 1418 2786 
Q 1159 2488 1159 1978 
L 1159 0 
L 581 0 
L 581 3500 
L 1159 3500 
L 1159 2956 
Q 1356 3278 1631 3431 
Q 1906 3584 2284 3584 
Q 2666 3584 2933 3390 
Q 3200 3197 3328 2828 
z
" transform="scale(0.015625)"/>
       <path id="DejaVuSans-44" d="M 1259 4147 
L 1259 519 
L 2022 519 
Q 2988 519 3436 956 
Q 3884 1394 3884 2338 
Q 3884 3275 3436 3711 
Q 2988 4147 2022 4147 
L 1259 4147 
z
M 628 4666 
L 1925 4666 
Q 3281 4666 3915 4102 
Q 4550 3538 4550 2338 
Q 4550 1131 3912 565 
Q 3275 0 1925 0 
L 628 0 
L 628 4666 
z
" transform="scale(0.015625)"/>
       <path id="DejaVuSans-76" d="M 191 3500 
L 800 3500 
L 1894 563 
L 2988 3500 
L 3597 3500 
L 2284 0 
L 1503 0 
L 191 3500 
z
" transform="scale(0.015625)"/>
       <path id="DejaVuSans-28" d="M 1984 4856 
Q 1566 4138 1362 3434 
Q 1159 2731 1159 2009 
Q 1159 1288 1364 580 
Q 1569 -128 1984 -844 
L 1484 -844 
Q 1016 -109 783 600 
Q 550 1309 550 2009 
Q 550 2706 781 3412 
Q 1013 4119 1484 4856 
L 1984 4856 
z
" transform="scale(0.015625)"/>
       <path id="DejaVuSans-3d" d="M 678 2906 
L 4684 2906 
L 4684 2381 
L 678 2381 
L 678 2906 
z
M 678 1631 
L 4684 1631 
L 4684 1100 
L 678 1100 
L 678 1631 
z
" transform="scale(0.015625)"/>
       <path id="DejaVuSans-70" d="M 1159 525 
L 1159 -1331 
L 581 -1331 
L 581 3500 
L 1159 3500 
L 1159 2969 
Q 1341 3281 1617 3432 
Q 1894 3584 2278 3584 
Q 2916 3584 3314 3078 
Q 3713 2572 3713 1747 
Q 3713 922 3314 415 
Q 2916 -91 2278 -91 
Q 1894 -91 1617 61 
Q 1341 213 1159 525 
z
M 3116 1747 
Q 3116 2381 2855 2742 
Q 2594 3103 2138 3103 
Q 1681 3103 1420 2742 
Q 1159 2381 1159 1747 
Q 1159 1113 1420 752 
Q 1681 391 2138 391 
Q 2594 391 2855 752 
Q 3116 1113 3116 1747 
z
" transform="scale(0.015625)"/>
       <path id="DejaVuSans-2c" d="M 750 794 
L 1409 794 
L 1409 256 
L 897 -744 
L 494 -744 
L 750 256 
L 750 794 
z
" transform="scale(0.015625)"/>
       <path id="DejaVuSans-78" d="M 3513 3500 
L 2247 1797 
L 3578 0 
L 2900 0 
L 1881 1375 
L 863 0 
L 184 0 
L 1544 1831 
L 300 3500 
L 978 3500 
L 1906 2253 
L 2834 3500 
L 3513 3500 
z
" transform="scale(0.015625)"/>
       <path id="DejaVuSans-29" d="M 513 4856 
L 1013 4856 
Q 1481 4119 1714 3412 
Q 1947 2706 1947 2009 
Q 1947 1309 1714 600 
Q 1481 -109 1013 -844 
L 513 -844 
Q 928 -128 1133 580 
Q 1338 1288 1338 2009 
Q 1338 2731 1133 3434 
Q 928 4138 513 4856 
z
" transform="scale(0.015625)"/>
      </defs>
      <use xlink:href="#DejaVuSans-50"/>
      <use xlink:href="#DejaVuSans-72" transform="translate(58.552734 0)"/>
      <use xlink:href="#DejaVuSans-65" transform="translate(97.416016 0)"/>
      <use xlink:href="#DejaVuSans-2d" transform="translate(158.939453 0)"/>
      <use xlink:href="#DejaVuSans-63" transform="translate(195.023438 0)"/>
      <use xlink:href="#DejaVuSans-6f" transform="translate(250.003906 0)"/>
      <use xlink:href="#DejaVuSans-6e" transform="translate(311.185547 0)"/>
      <use xlink:href="#DejaVuSans-64" transform="translate(374.564453 0)"/>
      <use xlink:href="#DejaVuSans-69" transform="translate(438.041016 0)"/>
      <use xlink:href="#DejaVuSans-74" transform="translate(465.824219 0)"/>
      <use xlink:href="#DejaVuSans-69" transform="translate(505.033203 0)"/>
      <use xlink:href="#DejaVuSans-6f" transform="translate(532.816406 0)"/>
      <use xlink:href="#DejaVuSans-6e" transform="translate(593.998047 0)"/>
      <use xlink:href="#DejaVuSans-69" transform="translate(657.376953 0)"/>
      <use xlink:href="#DejaVuSans-6e" transform="translate(685.160156 0)"/>
      <use xlink:href="#DejaVuSans-67" transform="translate(748.539062 0)"/>
      <use xlink:href="#DejaVuSans-20" transform="translate(812.015625 0)"/>
      <use xlink:href="#DejaVuSans-51" transform="translate(843.802734 0)"/>
      <use xlink:href="#DejaVuSans-75" transform="translate(922.513672 0)"/>
      <use xlink:href="#DejaVuSans-61" transform="translate(985.892578 0)"/>
      <use xlink:href="#DejaVuSans-6c" transform="translate(1047.171875 0)"/>
      <use xlink:href="#DejaVuSans-69" transform="translate(1074.955078 0)"/>
      <use xlink:href="#DejaVuSans-74" transform="translate(1102.738281 0)"/>
      <use xlink:href="#DejaVuSans-79" transform="translate(1141.947266 0)"/>
      <use xlink:href="#DejaVuSans-20" transform="translate(1201.126953 0)"/>
      <use xlink:href="#DejaVuSans-66" transform="translate(1232.914062 0)"/>
      <use xlink:href="#DejaVuSans-72" transform="translate(1268.119141 0)"/>
      <use xlink:href="#DejaVuSans-6f" transform="translate(1306.982422 0)"/>
      <use xlink:href="#DejaVuSans-6d" transform="translate(1368.164062 0)"/>
      <use xlink:href="#DejaVuSans-20" transform="translate(1465.576172 0)"/>
      <use xlink:href="#DejaVuSans-50" transform="translate(1497.363281 0)"/>
      <use xlink:href="#DejaVuSans-6c" transform="translate(1557.666016 0)"/>
      <use xlink:href="#DejaVuSans-61" transform="translate(1585.449219 0)"/>
      <use xlink:href="#DejaVuSans-74" transform="translate(1646.728516 0)"/>
      <use xlink:href="#DejaVuSans-74" transform="translate(1685.9375 0)"/>
      <use xlink:href="#DejaVuSans-65" transform="translate(1725.146484 0)"/>
      <use xlink:href="#DejaVuSans-72" transform="translate(1786.669922 0)"/>
      <use xlink:href="#DejaVuSans-20" transform="translate(1827.783203 0)"/>
      <use xlink:href="#DejaVuSans-44" transform="translate(1859.570312 0)"/>
      <use xlink:href="#DejaVuSans-65" transform="translate(1936.572266 0)"/>
      <use xlink:href="#DejaVuSans-76" transform="translate(1998.095703 0)"/>
      <use xlink:href="#DejaVuSans-69" transform="translate(2057.275391 0)"/>
      <use xlink:href="#DejaVuSans-63" transform="translate(2085.058594 0)"/>
      <use xlink:href="#DejaVuSans-65" transform="translate(2140.039062 0)"/>
      <use xlink:href="#DejaVuSans-20" transform="translate(2201.5625 0)"/>
      <use xlink:href="#DejaVuSans-28" transform="translate(2233.349609 0)"/>
      <use xlink:href="#DejaVuSans-30" transform="translate(2272.363281 0)"/>
      <use xlink:href="#DejaVuSans-20" transform="translate(2335.986328 0)"/>
      <use xlink:href="#DejaVuSans-3d" transform="translate(2367.773438 0)"/>
      <use xlink:href="#DejaVuSans-20" transform="translate(2451.5625 0)"/>
      <use xlink:href="#DejaVuSans-70" transform="translate(2483.349609 0)"/>
      <use xlink:href="#DejaVuSans-6f" transform="translate(2546.826172 0)"/>
      <use xlink:href="#DejaVuSans-6f" transform="translate(2608.007812 0)"/>
      <use xlink:href="#DejaVuSans-72" transform="translate(2669.189453 0)"/>
      <use xlink:href="#DejaVuSans-2c" transform="translate(2710.302734 0)"/>
      <use xlink:href="#DejaVuSans-20" transform="translate(2742.089844 0)"/>
      <use xlink:href="#DejaVuSans-31" transform="translate(2773.876953 0)"/>
      <use xlink:href="#DejaVuSans-30" transform="translate(2837.5 0)"/>
      <use xlink:href="#DejaVuSans-30" transform="translate(2901.123047 0)"/>
      <use xlink:href="#DejaVuSans-20" transform="translate(2964.746094 0)"/>
      <use xlink:href="#DejaVuSans-3d" transform="translate(2996.533203 0)"/>
      <use xlink:href="#DejaVuSans-20" transform="translate(3080.322266 0)"/>
      <use xlink:href="#DejaVuSans-65" transform="translate(3112.109375 0)"/>
      <use xlink:href="#DejaVuSans-78" transform="translate(3171.882812 0)"/>
      <use xlink:href="#DejaVuSans-63" transform="translate(3229.3125 0)"/>
      <use xlink:href="#DejaVuSans-65" transform="translate(3284.292969 0)"/>
      <use xlink:href="#DejaVuSans-6c" transform="translate(3345.816406 0)"/>
      <use xlink:href="#DejaVuSans-6c" transform="translate(3373.599609 0)"/>
      <use xlink:href="#DejaVuSans-65" transform="translate(3401.382812 0)"/>
      <use xlink:href="#DejaVuSans-6e" transform="translate(3462.90625 0)"/>
      <use xlink:href="#DejaVuSans-74" transform="translate(3526.285156 0)"/>
      <use xlink:href="#DejaVuSans-29" transform="translate(3565.494141 0)"/>
     </g>
    </g>
   </g>
   <g id="matplotlib.axis_2">
    <g id="ytick_1">
     <g id="line2d_13">
      <path d="M 250.3575 249.695864 
L 911.7025 249.695864 
" clip-path="url(#pdc62210631)" style="fill: none; stroke: #b0b0b0; stroke-opacity: 0.3; stroke-width: 0.8; stroke-linecap: square"/>
     </g>
     <g id="line2d_14">
      <defs>
       <path id="m867200ba74" d="M 0 0 
L -3.5 0 
" style="stroke: #000000; stroke-width: 0.8"/>
      </defs>
      <g>
       <use xlink:href="#m867200ba74" x="250.3575" y="249.695864" style="stroke: #000000; stroke-width: 0.8"/>
      </g>
     </g>
     <g id="text_8">
      <!-- 0.6 -->
      <g transform="translate(227.454375 253.495082) scale(0.1 -0.1)">
       <defs>
        <path id="DejaVuSans-2e" d="M 684 794 
L 1344 794 
L 1344 0 
L 684 0 
L 684 794 
z
" transform="scale(0.015625)"/>
       </defs>
       <use xlink:href="#DejaVuSans-30"/>
       <use xlink:href="#DejaVuSans-2e" transform="translate(63.623047 0)"/>
       <use xlink:href="#DejaVuSans-36" transform="translate(95.410156 0)"/>
      </g>
     </g>
    </g>
    <g id="ytick_2">
     <g id="line2d_15">
      <path d="M 250.3575 224.226773 
L 911.7025 224.226773 
" clip-path="url(#pdc62210631)" style="fill: none; stroke: #b0b0b0; stroke-opacity: 0.3; stroke-width: 0.8; stroke-linecap: square"/>
     </g>
     <g id="line2d_16">
      <g>
       <use xlink:href="#m867200ba74" x="250.3575" y="224.226773" style="stroke: #000000; stroke-width: 0.8"/>
      </g>
     </g>
     <g id="text_9">
      <!-- 0.7 -->
      <g transform="translate(227.454375 228.025991) scale(0.1 -0.1)">
       <defs>
        <path id="DejaVuSans-37" d="M 525 4666 
L 3525 4666 
L 3525 4397 
L 1831 0 
L 1172 0 
L 2766 4134 
L 525 4134 
L 525 4666 
z
" transform="scale(0.015625)"/>
       </defs>
       <use xlink:href="#DejaVuSans-30"/>
       <use xlink:href="#DejaVuSans-2e" transform="translate(63.623047 0)"/>
       <use xlink:href="#DejaVuSans-37" transform="translate(95.410156 0)"/>
      </g>
     </g>
    </g>
    <g id="ytick_3">
     <g id="line2d_17">
      <path d="M 250.3575 198.757682 
L 911.7025 198.757682 
" clip-path="url(#pdc62210631)" style="fill: none; stroke: #b0b0b0; stroke-opacity: 0.3; stroke-width: 0.8; stroke-linecap: square"/>
     </g>
     <g id="line2d_18">
      <g>
       <use xlink:href="#m867200ba74" x="250.3575" y="198.757682" style="stroke: #000000; stroke-width: 0.8"/>
      </g>
     </g>
     <g id="text_10">
      <!-- 0.8 -->
      <g transform="translate(227.454375 202.556901) scale(0.1 -0.1)">
       <use xlink:href="#DejaVuSans-30"/>
       <use xlink:href="#DejaVuSans-2e" transform="translate(63.623047 0)"/>
       <use xlink:href="#DejaVuSans-38" transform="translate(95.410156 0)"/>
      </g>
     </g>
    </g>
    <g id="ytick_4">
     <g id="line2d_19">
      <path d="M 250.3575 173.288591 
L 911.7025 173.288591 
" clip-path="url(#pdc62210631)" style="fill: none; stroke: #b0b0b0; stroke-opacity: 0.3; stroke-width: 0.8; stroke-linecap: square"/>
     </g>
     <g id="line2d_20">
      <g>
       <use xlink:href="#m867200ba74" x="250.3575" y="173.288591" style="stroke: #000000; stroke-width: 0.8"/>
      </g>
     </g>
     <g id="text_11">
      <!-- 0.9 -->
      <g transform="translate(227.454375 177.08781) scale(0.1 -0.1)">
       <defs>
        <path id="DejaVuSans-39" d="M 703 97 
L 703 672 
Q 941 559 1184 500 
Q 1428 441 1663 441 
Q 2288 441 2617 861 
Q 2947 1281 2994 2138 
Q 2813 1869 2534 1725 
Q 2256 1581 1919 1581 
Q 1219 1581 811 2004 
Q 403 2428 403 3163 
Q 403 3881 828 4315 
Q 1253 4750 1959 4750 
Q 2769 4750 3195 4129 
Q 3622 3509 3622 2328 
Q 3622 1225 3098 567 
Q 2575 -91 1691 -91 
Q 1453 -91 1209 -44 
Q 966 3 703 97 
z
M 1959 2075 
Q 2384 2075 2632 2365 
Q 2881 2656 2881 3163 
Q 2881 3666 2632 3958 
Q 2384 4250 1959 4250 
Q 1534 4250 1286 3958 
Q 1038 3666 1038 3163 
Q 1038 2656 1286 2365 
Q 1534 2075 1959 2075 
z
" transform="scale(0.015625)"/>
       </defs>
       <use xlink:href="#DejaVuSans-30"/>
       <use xlink:href="#DejaVuSans-2e" transform="translate(63.623047 0)"/>
       <use xlink:href="#DejaVuSans-39" transform="translate(95.410156 0)"/>
      </g>
     </g>
    </g>
    <g id="ytick_5">
     <g id="line2d_21">
      <path d="M 250.3575 147.8195 
L 911.7025 147.8195 
" clip-path="url(#pdc62210631)" style="fill: none; stroke: #b0b0b0; stroke-opacity: 0.3; stroke-width: 0.8; stroke-linecap: square"/>
     </g>
     <g id="line2d_22">
      <g>
       <use xlink:href="#m867200ba74" x="250.3575" y="147.8195" style="stroke: #000000; stroke-width: 0.8"/>
      </g>
     </g>
     <g id="text_12">
      <!-- 1.0 -->
      <g transform="translate(227.454375 151.618719) scale(0.1 -0.1)">
       <use xlink:href="#DejaVuSans-31"/>
       <use xlink:href="#DejaVuSans-2e" transform="translate(63.623047 0)"/>
       <use xlink:href="#DejaVuSans-30" transform="translate(95.410156 0)"/>
      </g>
     </g>
    </g>
    <g id="ytick_6">
     <g id="line2d_23">
      <path d="M 250.3575 122.350409 
L 911.7025 122.350409 
" clip-path="url(#pdc62210631)" style="fill: none; stroke: #b0b0b0; stroke-opacity: 0.3; stroke-width: 0.8; stroke-linecap: square"/>
     </g>
     <g id="line2d_24">
      <g>
       <use xlink:href="#m867200ba74" x="250.3575" y="122.350409" style="stroke: #000000; stroke-width: 0.8"/>
      </g>
     </g>
     <g id="text_13">
      <!-- 1.1 -->
      <g transform="translate(227.454375 126.149628) scale(0.1 -0.1)">
       <use xlink:href="#DejaVuSans-31"/>
       <use xlink:href="#DejaVuSans-2e" transform="translate(63.623047 0)"/>
       <use xlink:href="#DejaVuSans-31" transform="translate(95.410156 0)"/>
      </g>
     </g>
    </g>
    <g id="ytick_7">
     <g id="line2d_25">
      <path d="M 250.3575 96.881318 
L 911.7025 96.881318 
" clip-path="url(#pdc62210631)" style="fill: none; stroke: #b0b0b0; stroke-opacity: 0.3; stroke-width: 0.8; stroke-linecap: square"/>
     </g>
     <g id="line2d_26">
      <g>
       <use xlink:href="#m867200ba74" x="250.3575" y="96.881318" style="stroke: #000000; stroke-width: 0.8"/>
      </g>
     </g>
     <g id="text_14">
      <!-- 1.2 -->
      <g transform="translate(227.454375 100.680537) scale(0.1 -0.1)">
       <use xlink:href="#DejaVuSans-31"/>
       <use xlink:href="#DejaVuSans-2e" transform="translate(63.623047 0)"/>
       <use xlink:href="#DejaVuSans-32" transform="translate(95.410156 0)"/>
      </g>
     </g>
    </g>
    <g id="ytick_8">
     <g id="line2d_27">
      <path d="M 250.3575 71.412227 
L 911.7025 71.412227 
" clip-path="url(#pdc62210631)" style="fill: none; stroke: #b0b0b0; stroke-opacity: 0.3; stroke-width: 0.8; stroke-linecap: square"/>
     </g>
     <g id="line2d_28">
      <g>
       <use xlink:href="#m867200ba74" x="250.3575" y="71.412227" style="stroke: #000000; stroke-width: 0.8"/>
      </g>
     </g>
     <g id="text_15">
      <!-- 1.3 -->
      <g transform="translate(227.454375 75.211446) scale(0.1 -0.1)">
       <defs>
        <path id="DejaVuSans-33" d="M 2597 2516 
Q 3050 2419 3304 2112 
Q 3559 1806 3559 1356 
Q 3559 666 3084 287 
Q 2609 -91 1734 -91 
Q 1441 -91 1130 -33 
Q 819 25 488 141 
L 488 750 
Q 750 597 1062 519 
Q 1375 441 1716 441 
Q 2309 441 2620 675 
Q 2931 909 2931 1356 
Q 2931 1769 2642 2001 
Q 2353 2234 1838 2234 
L 1294 2234 
L 1294 2753 
L 1863 2753 
Q 2328 2753 2575 2939 
Q 2822 3125 2822 3475 
Q 2822 3834 2567 4026 
Q 2313 4219 1838 4219 
Q 1578 4219 1281 4162 
Q 984 4106 628 3988 
L 628 4550 
Q 988 4650 1302 4700 
Q 1616 4750 1894 4750 
Q 2613 4750 3031 4423 
Q 3450 4097 3450 3541 
Q 3450 3153 3228 2886 
Q 3006 2619 2597 2516 
z
" transform="scale(0.015625)"/>
       </defs>
       <use xlink:href="#DejaVuSans-31"/>
       <use xlink:href="#DejaVuSans-2e" transform="translate(63.623047 0)"/>
       <use xlink:href="#DejaVuSans-33" transform="translate(95.410156 0)"/>
      </g>
     </g>
    </g>
    <g id="ytick_9">
     <g id="line2d_29">
      <path d="M 250.3575 45.943136 
L 911.7025 45.943136 
" clip-path="url(#pdc62210631)" style="fill: none; stroke: #b0b0b0; stroke-opacity: 0.3; stroke-width: 0.8; stroke-linecap: square"/>
     </g>
     <g id="line2d_30">
      <g>
       <use xlink:href="#m867200ba74" x="250.3575" y="45.943136" style="stroke: #000000; stroke-width: 0.8"/>
      </g>
     </g>
     <g id="text_16">
      <!-- 1.4 -->
      <g transform="translate(227.454375 49.742355) scale(0.1 -0.1)">
       <use xlink:href="#DejaVuSans-31"/>
       <use xlink:href="#DejaVuSans-2e" transform="translate(63.623047 0)"/>
       <use xlink:href="#DejaVuSans-34" transform="translate(95.410156 0)"/>
      </g>
     </g>
    </g>
    <g id="text_17">
     <!-- Relative Enhancement of Ultrasonic Cavitation Effects (conceptual) -->
     <g transform="translate(221.374688 316.104656) rotate(-90) scale(0.1 -0.1)">
      <defs>
       <path id="DejaVuSans-52" d="M 2841 2188 
Q 3044 2119 3236 1894 
Q 3428 1669 3622 1275 
L 4263 0 
L 3584 0 
L 2988 1197 
Q 2756 1666 2539 1819 
Q 2322 1972 1947 1972 
L 1259 1972 
L 1259 0 
L 628 0 
L 628 4666 
L 2053 4666 
Q 2853 4666 3247 4331 
Q 3641 3997 3641 3322 
Q 3641 2881 3436 2590 
Q 3231 2300 2841 2188 
z
M 1259 4147 
L 1259 2491 
L 2053 2491 
Q 2509 2491 2742 2702 
Q 2975 2913 2975 3322 
Q 2975 3731 2742 3939 
Q 2509 4147 2053 4147 
L 1259 4147 
z
" transform="scale(0.015625)"/>
       <path id="DejaVuSans-45" d="M 628 4666 
L 3578 4666 
L 3578 4134 
L 1259 4134 
L 1259 2753 
L 3481 2753 
L 3481 2222 
L 1259 2222 
L 1259 531 
L 3634 531 
L 3634 0 
L 628 0 
L 628 4666 
z
" transform="scale(0.015625)"/>
       <path id="DejaVuSans-68" d="M 3513 2113 
L 3513 0 
L 2938 0 
L 2938 2094 
Q 2938 2591 2744 2837 
Q 2550 3084 2163 3084 
Q 1697 3084 1428 2787 
Q 1159 2491 1159 1978 
L 1159 0 
L 581 0 
L 581 4863 
L 1159 4863 
L 1159 2956 
Q 1366 3272 1645 3428 
Q 1925 3584 2291 3584 
Q 2894 3584 3203 3211 
Q 3513 2838 3513 2113 
z
" transform="scale(0.015625)"/>
       <path id="DejaVuSans-55" d="M 556 4666 
L 1191 4666 
L 1191 1831 
Q 1191 1081 1462 751 
Q 1734 422 2344 422 
Q 2950 422 3222 751 
Q 3494 1081 3494 1831 
L 3494 4666 
L 4128 4666 
L 4128 1753 
Q 4128 841 3676 375 
Q 3225 -91 2344 -91 
Q 1459 -91 1007 375 
Q 556 841 556 1753 
L 556 4666 
z
" transform="scale(0.015625)"/>
       <path id="DejaVuSans-73" d="M 2834 3397 
L 2834 2853 
Q 2591 2978 2328 3040 
Q 2066 3103 1784 3103 
Q 1356 3103 1142 2972 
Q 928 2841 928 2578 
Q 928 2378 1081 2264 
Q 1234 2150 1697 2047 
L 1894 2003 
Q 2506 1872 2764 1633 
Q 3022 1394 3022 966 
Q 3022 478 2636 193 
Q 2250 -91 1575 -91 
Q 1294 -91 989 -36 
Q 684 19 347 128 
L 347 722 
Q 666 556 975 473 
Q 1284 391 1588 391 
Q 1994 391 2212 530 
Q 2431 669 2431 922 
Q 2431 1156 2273 1281 
Q 2116 1406 1581 1522 
L 1381 1569 
Q 847 1681 609 1914 
Q 372 2147 372 2553 
Q 372 3047 722 3315 
Q 1072 3584 1716 3584 
Q 2034 3584 2315 3537 
Q 2597 3491 2834 3397 
z
" transform="scale(0.015625)"/>
       <path id="DejaVuSans-43" d="M 4122 4306 
L 4122 3641 
Q 3803 3938 3442 4084 
Q 3081 4231 2675 4231 
Q 1875 4231 1450 3742 
Q 1025 3253 1025 2328 
Q 1025 1406 1450 917 
Q 1875 428 2675 428 
Q 3081 428 3442 575 
Q 3803 722 4122 1019 
L 4122 359 
Q 3791 134 3420 21 
Q 3050 -91 2638 -91 
Q 1578 -91 968 557 
Q 359 1206 359 2328 
Q 359 3453 968 4101 
Q 1578 4750 2638 4750 
Q 3056 4750 3426 4639 
Q 3797 4528 4122 4306 
z
" transform="scale(0.015625)"/>
      </defs>
      <use xlink:href="#DejaVuSans-52"/>
      <use xlink:href="#DejaVuSans-65" transform="translate(64.982422 0)"/>
      <use xlink:href="#DejaVuSans-6c" transform="translate(126.505859 0)"/>
      <use xlink:href="#DejaVuSans-61" transform="translate(154.289062 0)"/>
      <use xlink:href="#DejaVuSans-74" transform="translate(215.568359 0)"/>
      <use xlink:href="#DejaVuSans-69" transform="translate(254.777344 0)"/>
      <use xlink:href="#DejaVuSans-76" transform="translate(282.560547 0)"/>
      <use xlink:href="#DejaVuSans-65" transform="translate(341.740234 0)"/>
      <use xlink:href="#DejaVuSans-20" transform="translate(403.263672 0)"/>
      <use xlink:href="#DejaVuSans-45" transform="translate(435.050781 0)"/>
      <use xlink:href="#DejaVuSans-6e" transform="translate(498.234375 0)"/>
      <use xlink:href="#DejaVuSans-68" transform="translate(561.613281 0)"/>
      <use xlink:href="#DejaVuSans-61" transform="translate(624.992188 0)"/>
      <use xlink:href="#DejaVuSans-6e" transform="translate(686.271484 0)"/>
      <use xlink:href="#DejaVuSans-63" transform="translate(749.650391 0)"/>
      <use xlink:href="#DejaVuSans-65" transform="translate(804.630859 0)"/>
      <use xlink:href="#DejaVuSans-6d" transform="translate(866.154297 0)"/>
      <use xlink:href="#DejaVuSans-65" transform="translate(963.566406 0)"/>
      <use xlink:href="#DejaVuSans-6e" transform="translate(1025.089844 0)"/>
      <use xlink:href="#DejaVuSans-74" transform="translate(1088.46875 0)"/>
      <use xlink:href="#DejaVuSans-20" transform="translate(1127.677734 0)"/>
      <use xlink:href="#DejaVuSans-6f" transform="translate(1159.464844 0)"/>
      <use xlink:href="#DejaVuSans-66" transform="translate(1220.646484 0)"/>
      <use xlink:href="#DejaVuSans-20" transform="translate(1255.851562 0)"/>
      <use xlink:href="#DejaVuSans-55" transform="translate(1287.638672 0)"/>
      <use xlink:href="#DejaVuSans-6c" transform="translate(1360.832031 0)"/>
      <use xlink:href="#DejaVuSans-74" transform="translate(1388.615234 0)"/>
      <use xlink:href="#DejaVuSans-72" transform="translate(1427.824219 0)"/>
      <use xlink:href="#DejaVuSans-61" transform="translate(1468.9375 0)"/>
      <use xlink:href="#DejaVuSans-73" transform="translate(1530.216797 0)"/>
      <use xlink:href="#DejaVuSans-6f" transform="translate(1582.316406 0)"/>
      <use xlink:href="#DejaVuSans-6e" transform="translate(1643.498047 0)"/>
      <use xlink:href="#DejaVuSans-69" transform="translate(1706.876953 0)"/>
      <use xlink:href="#DejaVuSans-63" transform="translate(1734.660156 0)"/>
      <use xlink:href="#DejaVuSans-20" transform="translate(1789.640625 0)"/>
      <use xlink:href="#DejaVuSans-43" transform="translate(1821.427734 0)"/>
      <use xlink:href="#DejaVuSans-61" transform="translate(1891.251953 0)"/>
      <use xlink:href="#DejaVuSans-76" transform="translate(1952.53125 0)"/>
      <use xlink:href="#DejaVuSans-69" transform="translate(2011.710938 0)"/>
      <use xlink:href="#DejaVuSans-74" transform="translate(2039.494141 0)"/>
      <use xlink:href="#DejaVuSans-61" transform="translate(2078.703125 0)"/>
      <use xlink:href="#DejaVuSans-74" transform="translate(2139.982422 0)"/>
      <use xlink:href="#DejaVuSans-69" transform="translate(2179.191406 0)"/>
      <use xlink:href="#DejaVuSans-6f" transform="translate(2206.974609 0)"/>
      <use xlink:href="#DejaVuSans-6e" transform="translate(2268.15625 0)"/>
      <use xlink:href="#DejaVuSans-20" transform="translate(2331.535156 0)"/>
      <use xlink:href="#DejaVuSans-45" transform="translate(2363.322266 0)"/>
      <use xlink:href="#DejaVuSans-66" transform="translate(2426.505859 0)"/>
      <use xlink:href="#DejaVuSans-66" transform="translate(2461.710938 0)"/>
      <use xlink:href="#DejaVuSans-65" transform="translate(2496.916016 0)"/>
      <use xlink:href="#DejaVuSans-63" transform="translate(2558.439453 0)"/>
      <use xlink:href="#DejaVuSans-74" transform="translate(2613.419922 0)"/>
      <use xlink:href="#DejaVuSans-73" transform="translate(2652.628906 0)"/>
      <use xlink:href="#DejaVuSans-20" transform="translate(2704.728516 0)"/>
      <use xlink:href="#DejaVuSans-28" transform="translate(2736.515625 0)"/>
      <use xlink:href="#DejaVuSans-63" transform="translate(2775.529297 0)"/>
      <use xlink:href="#DejaVuSans-6f" transform="translate(2830.509766 0)"/>
      <use xlink:href="#DejaVuSans-6e" transform="translate(2891.691406 0)"/>
      <use xlink:href="#DejaVuSans-63" transform="translate(2955.070312 0)"/>
      <use xlink:href="#DejaVuSans-65" transform="translate(3010.050781 0)"/>
      <use xlink:href="#DejaVuSans-70" transform="translate(3071.574219 0)"/>
      <use xlink:href="#DejaVuSans-74" transform="translate(3135.050781 0)"/>
      <use xlink:href="#DejaVuSans-75" transform="translate(3174.259766 0)"/>
      <use xlink:href="#DejaVuSans-61" transform="translate(3237.638672 0)"/>
      <use xlink:href="#DejaVuSans-6c" transform="translate(3298.917969 0)"/>
      <use xlink:href="#DejaVuSans-29" transform="translate(3326.701172 0)"/>
     </g>
    </g>
   </g>
   <g id="line2d_31">
    <path d="M 280.418636 249.695864 
L 286.491593 236.762178 
L 292.56455 230.092061 
L 298.637507 224.692694 
L 304.710464 219.982056 
L 310.783421 215.725178 
L 316.856377 211.798145 
L 322.929334 208.125757 
L 329.002291 204.658153 
L 335.075248 201.360185 
L 341.148205 198.205932 
L 347.221162 195.175603 
L 353.294118 192.253664 
L 359.367075 189.427649 
L 365.440032 186.687364 
L 371.512989 184.024344 
L 377.585946 181.43146 
L 383.658903 178.902644 
L 389.73186 176.432675 
L 395.804816 174.017022 
L 401.877773 171.651721 
L 407.95073 169.33328 
L 414.023687 167.058601 
L 420.096644 164.824923 
L 426.169601 162.62977 
L 432.242557 160.470912 
L 438.315514 158.346333 
L 444.388471 156.254198 
L 450.461428 154.192838 
L 456.534385 152.160723 
L 462.607342 150.156453 
L 468.680298 148.178734 
L 474.753255 146.226375 
L 480.826212 144.298274 
L 486.899169 142.393407 
L 492.972126 140.510823 
L 499.045083 138.649635 
L 505.118039 136.809015 
L 511.190996 134.98819 
L 517.263953 133.186434 
L 523.33691 131.403064 
L 529.409867 129.637442 
L 535.482824 127.888964 
L 541.555781 126.157061 
L 547.628737 124.441196 
L 553.701694 122.74086 
L 559.774651 121.055573 
L 565.847608 119.384878 
L 571.920565 117.728343 
L 577.993522 116.085557 
L 584.066478 114.456127 
L 590.139435 112.839682 
L 596.212392 111.235866 
L 602.285349 109.644341 
L 608.358306 108.064783 
L 614.431263 106.496883 
L 620.504219 104.940345 
L 626.577176 103.394886 
L 632.650133 101.860236 
L 638.72309 100.336133 
L 644.796047 98.822329 
L 650.869004 97.318584 
L 656.941961 95.824668 
L 663.014917 94.34036 
L 669.087874 92.865446 
L 675.160831 91.399723 
L 681.233788 89.942991 
L 687.306745 88.495063 
L 693.379702 87.055753 
L 699.452658 85.624885 
L 705.525615 84.202289 
L 711.598572 82.787798 
L 717.671529 81.381255 
L 723.744486 79.982504 
L 729.817443 78.591397 
L 735.890399 77.20779 
L 741.963356 75.831542 
L 748.036313 74.46252 
L 754.10927 73.10059 
L 760.182227 71.745628 
L 766.255184 70.397508 
L 772.32814 69.056113 
L 778.401097 67.721326 
L 784.474054 66.393034 
L 790.547011 65.071128 
L 796.619968 63.755503 
L 802.692925 62.446054 
L 808.765882 61.142682 
L 814.838838 59.845289 
L 820.911795 58.553779 
L 826.984752 57.268062 
L 833.057709 55.988046 
L 839.130666 54.713644 
L 845.203623 53.444771 
L 851.276579 52.181344 
L 857.349536 50.923283 
L 863.422493 49.670507 
L 869.49545 48.42294 
L 875.568407 47.180508 
L 881.641364 45.943136 
" clip-path="url(#pdc62210631)" style="fill: none; stroke: #008080; stroke-width: 2.5; stroke-linecap: square"/>
   </g>
   <g id="line2d_32">
    <path d="M 701.274545 259.8835 
L 701.274545 35.7555 
" clip-path="url(#pdc62210631)" style="fill: none; stroke-dasharray: 5.55,2.4; stroke-dashoffset: 0; stroke: #800080; stroke-opacity: 0.7; stroke-width: 1.5"/>
   </g>
   <g id="patch_3">
    <path d="M 250.3575 259.8835 
L 250.3575 35.7555 
" style="fill: none; stroke: #000000; stroke-width: 0.8; stroke-linejoin: miter; stroke-linecap: square"/>
   </g>
   <g id="patch_4">
    <path d="M 911.7025 259.8835 
L 911.7025 35.7555 
" style="fill: none; stroke: #000000; stroke-width: 0.8; stroke-linejoin: miter; stroke-linecap: square"/>
   </g>
   <g id="patch_5">
    <path d="M 250.3575 259.8835 
L 911.7025 259.8835 
" style="fill: none; stroke: #000000; stroke-width: 0.8; stroke-linejoin: miter; stroke-linecap: square"/>
   </g>
   <g id="patch_6">
    <path d="M 250.3575 35.7555 
L 911.7025 35.7555 
" style="fill: none; stroke: #000000; stroke-width: 0.8; stroke-linejoin: miter; stroke-linecap: square"/>
   </g>
   <g id="text_18">
    <!-- Hybrid Hydrodynamic + Ultrasonic Synergy -->
    <g transform="translate(450.33875 16.318125) scale(0.12 -0.12)">
     <defs>
      <path id="DejaVuSans-48" d="M 628 4666 
L 1259 4666 
L 1259 2753 
L 3553 2753 
L 3553 4666 
L 4184 4666 
L 4184 0 
L 3553 0 
L 3553 2222 
L 1259 2222 
L 1259 0 
L 628 0 
L 628 4666 
z
" transform="scale(0.015625)"/>
      <path id="DejaVuSans-62" d="M 3116 1747 
Q 3116 2381 2855 2742 
Q 2594 3103 2138 3103 
Q 1681 3103 1420 2742 
Q 1159 2381 1159 1747 
Q 1159 1113 1420 752 
Q 1681 391 2138 391 
Q 2594 391 2855 752 
Q 3116 1113 3116 1747 
z
M 1159 2969 
Q 1341 3281 1617 3432 
Q 1894 3584 2278 3584 
Q 2916 3584 3314 3078 
Q 3713 2572 3713 1747 
Q 3713 922 3314 415 
Q 2916 -91 2278 -91 
Q 1894 -91 1617 61 
Q 1341 213 1159 525 
L 1159 0 
L 581 0 
L 581 4863 
L 1159 4863 
L 1159 2969 
z
" transform="scale(0.015625)"/>
      <path id="DejaVuSans-2b" d="M 2944 4013 
L 2944 2272 
L 4684 2272 
L 4684 1741 
L 2944 1741 
L 2944 0 
L 2419 0 
L 2419 1741 
L 678 1741 
L 678 2272 
L 2419 2272 
L 2419 4013 
L 2944 4013 
z
" transform="scale(0.015625)"/>
      <path id="DejaVuSans-53" d="M 3425 4513 
L 3425 3897 
Q 3066 4069 2747 4153 
Q 2428 4238 2131 4238 
Q 1616 4238 1336 4038 
Q 1056 3838 1056 3469 
Q 1056 3159 1242 3001 
Q 1428 2844 1947 2747 
L 2328 2669 
Q 3034 2534 3370 2195 
Q 3706 1856 3706 1288 
Q 3706 609 3251 259 
Q 2797 -91 1919 -91 
Q 1588 -91 1214 -16 
Q 841 59 441 206 
L 441 856 
Q 825 641 1194 531 
Q 1563 422 1919 422 
Q 2459 422 2753 634 
Q 3047 847 3047 1241 
Q 3047 1584 2836 1778 
Q 2625 1972 2144 2069 
L 1759 2144 
Q 1053 2284 737 2584 
Q 422 2884 422 3419 
Q 422 4038 858 4394 
Q 1294 4750 2059 4750 
Q 2388 4750 2728 4690 
Q 3069 4631 3425 4513 
z
" transform="scale(0.015625)"/>
     </defs>
     <use xlink:href="#DejaVuSans-48"/>
     <use xlink:href="#DejaVuSans-79" transform="translate(75.195312 0)"/>
     <use xlink:href="#DejaVuSans-62" transform="translate(134.375 0)"/>
     <use xlink:href="#DejaVuSans-72" transform="translate(197.851562 0)"/>
     <use xlink:href="#DejaVuSans-69" transform="translate(238.964844 0)"/>
     <use xlink:href="#DejaVuSans-64" transform="translate(266.748047 0)"/>
     <use xlink:href="#DejaVuSans-20" transform="translate(330.224609 0)"/>
     <use xlink:href="#DejaVuSans-48" transform="translate(362.011719 0)"/>
     <use xlink:href="#DejaVuSans-79" transform="translate(437.207031 0)"/>
     <use xlink:href="#DejaVuSans-64" transform="translate(496.386719 0)"/>
     <use xlink:href="#DejaVuSans-72" transform="translate(559.863281 0)"/>
     <use xlink:href="#DejaVuSans-6f" transform="translate(598.726562 0)"/>
     <use xlink:href="#DejaVuSans-64" transform="translate(659.908203 0)"/>
     <use xlink:href="#DejaVuSans-79" transform="translate(723.384766 0)"/>
     <use xlink:href="#DejaVuSans-6e" transform="translate(782.564453 0)"/>
     <use xlink:href="#DejaVuSans-61" transform="translate(845.943359 0)"/>
     <use xlink:href="#DejaVuSans-6d" transform="translate(907.222656 0)"/>
     <use xlink:href="#DejaVuSans-69" transform="translate(1004.634766 0)"/>
     <use xlink:href="#DejaVuSans-63" transform="translate(1032.417969 0)"/>
     <use xlink:href="#DejaVuSans-20" transform="translate(1087.398438 0)"/>
     <use xlink:href="#DejaVuSans-2b" transform="translate(1119.185547 0)"/>
     <use xlink:href="#DejaVuSans-20" transform="translate(1202.974609 0)"/>
     <use xlink:href="#DejaVuSans-55" transform="translate(1234.761719 0)"/>
     <use xlink:href="#DejaVuSans-6c" transform="translate(1307.955078 0)"/>
     <use xlink:href="#DejaVuSans-74" transform="translate(1335.738281 0)"/>
     <use xlink:href="#DejaVuSans-72" transform="translate(1374.947266 0)"/>
     <use xlink:href="#DejaVuSans-61" transform="translate(1416.060547 0)"/>
     <use xlink:href="#DejaVuSans-73" transform="translate(1477.339844 0)"/>
     <use xlink:href="#DejaVuSans-6f" transform="translate(1529.439453 0)"/>
     <use xlink:href="#DejaVuSans-6e" transform="translate(1590.621094 0)"/>
     <use xlink:href="#DejaVuSans-69" transform="translate(1654 0)"/>
     <use xlink:href="#DejaVuSans-63" transform="translate(1681.783203 0)"/>
     <use xlink:href="#DejaVuSans-20" transform="translate(1736.763672 0)"/>
     <use xlink:href="#DejaVuSans-53" transform="translate(1768.550781 0)"/>
     <use xlink:href="#DejaVuSans-79" transform="translate(1832.027344 0)"/>
     <use xlink:href="#DejaVuSans-6e" transform="translate(1891.207031 0)"/>
     <use xlink:href="#DejaVuSans-65" transform="translate(1954.585938 0)"/>
     <use xlink:href="#DejaVuSans-72" transform="translate(2016.109375 0)"/>
     <use xlink:href="#DejaVuSans-67" transform="translate(2055.472656 0)"/>
     <use xlink:href="#DejaVuSans-79" transform="translate(2118.949219 0)"/>
    </g>
    <!-- (How good the flow from the device is before ultrasound is applied) -->
    <g transform="translate(378.403437 29.7555) scale(0.12 -0.12)">
     <defs>
      <path id="DejaVuSans-77" d="M 269 3500 
L 844 3500 
L 1563 769 
L 2278 3500 
L 2956 3500 
L 3675 769 
L 4391 3500 
L 4966 3500 
L 4050 0 
L 3372 0 
L 2619 2869 
L 1863 0 
L 1184 0 
L 269 3500 
z
" transform="scale(0.015625)"/>
     </defs>
     <use xlink:href="#DejaVuSans-28"/>
     <use xlink:href="#DejaVuSans-48" transform="translate(39.013672 0)"/>
     <use xlink:href="#DejaVuSans-6f" transform="translate(114.208984 0)"/>
     <use xlink:href="#DejaVuSans-77" transform="translate(175.390625 0)"/>
     <use xlink:href="#DejaVuSans-20" transform="translate(257.177734 0)"/>
     <use xlink:href="#DejaVuSans-67" transform="translate(288.964844 0)"/>
     <use xlink:href="#DejaVuSans-6f" transform="translate(352.441406 0)"/>
     <use xlink:href="#DejaVuSans-6f" transform="translate(413.623047 0)"/>
     <use xlink:href="#DejaVuSans-64" transform="translate(474.804688 0)"/>
     <use xlink:href="#DejaVuSans-20" transform="translate(538.28125 0)"/>
     <use xlink:href="#DejaVuSans-74" transform="translate(570.068359 0)"/>
     <use xlink:href="#DejaVuSans-68" transform="translate(609.277344 0)"/>
     <use xlink:href="#DejaVuSans-65" transform="translate(672.65625 0)"/>
     <use xlink:href="#DejaVuSans-20" transform="translate(734.179688 0)"/>
     <use xlink:href="#DejaVuSans-66" transform="translate(765.966797 0)"/>
     <use xlink:href="#DejaVuSans-6c" transform="translate(801.171875 0)"/>
     <use xlink:href="#DejaVuSans-6f" transform="translate(828.955078 0)"/>
     <use xlink:href="#DejaVuSans-77" transform="translate(890.136719 0)"/>
     <use xlink:href="#DejaVuSans-20" transform="translate(971.923828 0)"/>
     <use xlink:href="#DejaVuSans-66" transform="translate(1003.710938 0)"/>
     <use xlink:href="#DejaVuSans-72" transform="translate(1038.916016 0)"/>
     <use xlink:href="#DejaVuSans-6f" transform="translate(1077.779297 0)"/>
     <use xlink:href="#DejaVuSans-6d" transform="translate(1138.960938 0)"/>
     <use xlink:href="#DejaVuSans-20" transform="translate(1236.373047 0)"/>
     <use xlink:href="#DejaVuSans-74" transform="translate(1268.160156 0)"/>
     <use xlink:href="#DejaVuSans-68" transform="translate(1307.369141 0)"/>
     <use xlink:href="#DejaVuSans-65" transform="translate(1370.748047 0)"/>
     <use xlink:href="#DejaVuSans-20" transform="translate(1432.271484 0)"/>
     <use xlink:href="#DejaVuSans-64" transform="translate(1464.058594 0)"/>
     <use xlink:href="#DejaVuSans-65" transform="translate(1527.535156 0)"/>
     <use xlink:href="#DejaVuSans-76" transform="translate(1589.058594 0)"/>
     <use xlink:href="#DejaVuSans-69" transform="translate(1648.238281 0)"/>
     <use xlink:href="#DejaVuSans-63" transform="translate(1676.021484 0)"/>
     <use xlink:href="#DejaVuSans-65" transform="translate(1731.001953 0)"/>
     <use xlink:href="#DejaVuSans-20" transform="translate(1792.525391 0)"/>
     <use xlink:href="#DejaVuSans-69" transform="translate(1824.3125 0)"/>
     <use xlink:href="#DejaVuSans-73" transform="translate(1852.095703 0)"/>
     <use xlink:href="#DejaVuSans-20" transform="translate(1904.195312 0)"/>
     <use xlink:href="#DejaVuSans-62" transform="translate(1935.982422 0)"/>
     <use xlink:href="#DejaVuSans-65" transform="translate(1999.458984 0)"/>
     <use xlink:href="#DejaVuSans-66" transform="translate(2060.982422 0)"/>
     <use xlink:href="#DejaVuSans-6f" transform="translate(2096.1875 0)"/>
     <use xlink:href="#DejaVuSans-72" transform="translate(2157.369141 0)"/>
     <use xlink:href="#DejaVuSans-65" transform="translate(2196.232422 0)"/>
     <use xlink:href="#DejaVuSans-20" transform="translate(2257.755859 0)"/>
     <use xlink:href="#DejaVuSans-75" transform="translate(2289.542969 0)"/>
     <use xlink:href="#DejaVuSans-6c" transform="translate(2352.921875 0)"/>
     <use xlink:href="#DejaVuSans-74" transform="translate(2380.705078 0)"/>
     <use xlink:href="#DejaVuSans-72" transform="translate(2419.914062 0)"/>
     <use xlink:href="#DejaVuSans-61" transform="translate(2461.027344 0)"/>
     <use xlink:href="#DejaVuSans-73" transform="translate(2522.306641 0)"/>
     <use xlink:href="#DejaVuSans-6f" transform="translate(2574.40625 0)"/>
     <use xlink:href="#DejaVuSans-75" transform="translate(2635.587891 0)"/>
     <use xlink:href="#DejaVuSans-6e" transform="translate(2698.966797 0)"/>
     <use xlink:href="#DejaVuSans-64" transform="translate(2762.345703 0)"/>
     <use xlink:href="#DejaVuSans-20" transform="translate(2825.822266 0)"/>
     <use xlink:href="#DejaVuSans-69" transform="translate(2857.609375 0)"/>
     <use xlink:href="#DejaVuSans-73" transform="translate(2885.392578 0)"/>
     <use xlink:href="#DejaVuSans-20" transform="translate(2937.492188 0)"/>
     <use xlink:href="#DejaVuSans-61" transform="translate(2969.279297 0)"/>
     <use xlink:href="#DejaVuSans-70" transform="translate(3030.558594 0)"/>
     <use xlink:href="#DejaVuSans-70" transform="translate(3094.035156 0)"/>
     <use xlink:href="#DejaVuSans-6c" transform="translate(3157.511719 0)"/>
     <use xlink:href="#DejaVuSans-69" transform="translate(3185.294922 0)"/>
     <use xlink:href="#DejaVuSans-65" transform="translate(3213.078125 0)"/>
     <use xlink:href="#DejaVuSans-64" transform="translate(3274.601562 0)"/>
     <use xlink:href="#DejaVuSans-29" transform="translate(3338.078125 0)"/>
    </g>
   </g>
  </g>
  <g id="text_19">
   <g id="patch_7">
    <path d="M 7.2 334.70725 
L 1117.805 334.70725 
Q 1120.205 334.70725 1120.205 332.30725 
L 1120.205 324.56475 
Q 1120.205 322.16475 1117.805 322.16475 
L 7.2 322.16475 
Q 4.8 322.16475 4.8 324.56475 
L 4.8 332.30725 
Q 4.8 334.70725 7.2 334.70725 
z
" style="fill: #d6eaf8; opacity: 0.9; stroke: #000000; stroke-linejoin: miter"/>
   </g>
   <!-- DISCLAIMER: Highly conceptual. Based on literature suggesting that controlled microbubble injection and reduced large-scale turbulence can improve reproducibility and intensity of ultrasonic cavitation effects. This is one of the main motivations for the platter + HVAT design. -->
   <g style="fill: #c0392b" transform="translate(7.2 330.6435) scale(0.08 -0.08)">
    <defs>
     <path id="DejaVuSans-Oblique-44" d="M 1081 4666 
L 2438 4666 
Q 3519 4666 4070 4208 
Q 4622 3750 4622 2847 
Q 4622 2250 4412 1698 
Q 4203 1147 3834 769 
Q 3463 381 2891 190 
Q 2319 0 1538 0 
L 172 0 
L 1081 4666 
z
M 1613 4147 
L 909 519 
L 1734 519 
Q 2794 519 3375 1128 
Q 3956 1738 3956 2847 
Q 3956 3519 3581 3833 
Q 3206 4147 2406 4147 
L 1613 4147 
z
" transform="scale(0.015625)"/>
     <path id="DejaVuSans-Oblique-49" d="M 1081 4666 
L 1716 4666 
L 806 0 
L 172 0 
L 1081 4666 
z
" transform="scale(0.015625)"/>
     <path id="DejaVuSans-Oblique-53" d="M 3859 4513 
L 3738 3897 
Q 3422 4066 3111 4152 
Q 2800 4238 2509 4238 
Q 1944 4238 1609 3991 
Q 1275 3744 1275 3334 
Q 1275 3109 1398 2989 
Q 1522 2869 2034 2731 
L 2413 2638 
Q 3053 2472 3303 2217 
Q 3553 1963 3553 1503 
Q 3553 797 2998 353 
Q 2444 -91 1538 -91 
Q 1166 -91 791 -17 
Q 416 56 38 206 
L 166 856 
Q 513 641 861 531 
Q 1209 422 1556 422 
Q 2147 422 2503 684 
Q 2859 947 2859 1369 
Q 2859 1650 2717 1795 
Q 2575 1941 2106 2059 
L 1728 2156 
Q 1081 2325 845 2545 
Q 609 2766 609 3163 
Q 609 3859 1145 4304 
Q 1681 4750 2541 4750 
Q 2875 4750 3203 4690 
Q 3531 4631 3859 4513 
z
" transform="scale(0.015625)"/>
     <path id="DejaVuSans-Oblique-43" d="M 4447 4306 
L 4319 3641 
Q 4019 3944 3683 4091 
Q 3347 4238 2956 4238 
Q 2422 4238 2017 3981 
Q 1613 3725 1319 3200 
Q 1131 2863 1032 2486 
Q 934 2109 934 1728 
Q 934 1091 1264 756 
Q 1594 422 2222 422 
Q 2656 422 3056 561 
Q 3456 700 3834 978 
L 3688 231 
Q 3316 72 2936 -9 
Q 2556 -91 2175 -91 
Q 1278 -91 773 396 
Q 269 884 269 1753 
Q 269 2309 461 2846 
Q 653 3384 1013 3828 
Q 1394 4300 1883 4525 
Q 2372 4750 3022 4750 
Q 3422 4750 3780 4639 
Q 4138 4528 4447 4306 
z
" transform="scale(0.015625)"/>
     <path id="DejaVuSans-Oblique-4c" d="M 1075 4666 
L 1709 4666 
L 909 525 
L 3181 525 
L 3078 0 
L 172 0 
L 1075 4666 
z
" transform="scale(0.015625)"/>
     <path id="DejaVuSans-Oblique-41" d="M 2356 4666 
L 3072 4666 
L 3938 0 
L 3278 0 
L 3084 1197 
L 984 1197 
L 325 0 
L -341 0 
L 2356 4666 
z
M 2584 4044 
L 1275 1722 
L 2988 1722 
L 2584 4044 
z
" transform="scale(0.015625)"/>
     <path id="DejaVuSans-Oblique-4d" d="M 1081 4666 
L 2028 4666 
L 2572 1522 
L 4378 4666 
L 5350 4666 
L 4441 0 
L 3828 0 
L 4622 4091 
L 2791 897 
L 2175 897 
L 1581 4103 
L 788 0 
L 172 0 
L 1081 4666 
z
" transform="scale(0.015625)"/>
     <path id="DejaVuSans-Oblique-45" d="M 1081 4666 
L 4031 4666 
L 3928 4134 
L 1606 4134 
L 1338 2753 
L 3566 2753 
L 3463 2222 
L 1234 2222 
L 909 531 
L 3284 531 
L 3181 0 
L 172 0 
L 1081 4666 
z
" transform="scale(0.015625)"/>
     <path id="DejaVuSans-Oblique-52" d="M 1613 4147 
L 1294 2491 
L 2106 2491 
Q 2584 2491 2879 2755 
Q 3175 3019 3175 3444 
Q 3175 3784 2976 3965 
Q 2778 4147 2406 4147 
L 1613 4147 
z
M 2772 2241 
Q 2972 2194 3105 2009 
Q 3238 1825 3413 1275 
L 3809 0 
L 3144 0 
L 2778 1197 
Q 2638 1659 2453 1815 
Q 2269 1972 1888 1972 
L 1191 1972 
L 806 0 
L 172 0 
L 1081 4666 
L 2503 4666 
Q 3150 4666 3495 4373 
Q 3841 4081 3841 3531 
Q 3841 3044 3547 2687 
Q 3253 2331 2772 2241 
z
" transform="scale(0.015625)"/>
     <path id="DejaVuSans-Oblique-3a" d="M 978 3309 
L 1638 3309 
L 1484 2516 
L 825 2516 
L 978 3309 
z
M 488 794 
L 1147 794 
L 991 0 
L 331 0 
L 488 794 
z
" transform="scale(0.015625)"/>
     <path id="DejaVuSans-Oblique-20" transform="scale(0.015625)"/>
     <path id="DejaVuSans-Oblique-48" d="M 1081 4666 
L 1716 4666 
L 1344 2753 
L 3634 2753 
L 4006 4666 
L 4641 4666 
L 3731 0 
L 3097 0 
L 3531 2222 
L 1241 2222 
L 806 0 
L 172 0 
L 1081 4666 
z
" transform="scale(0.015625)"/>
     <path id="DejaVuSans-Oblique-69" d="M 1172 4863 
L 1747 4863 
L 1606 4134 
L 1031 4134 
L 1172 4863 
z
M 909 3500 
L 1484 3500 
L 800 0 
L 225 0 
L 909 3500 
z
" transform="scale(0.015625)"/>
     <path id="DejaVuSans-Oblique-67" d="M 3816 3500 
L 3219 434 
Q 3047 -456 2561 -893 
Q 2075 -1331 1253 -1331 
Q 950 -1331 690 -1286 
Q 431 -1241 206 -1147 
L 313 -588 
Q 525 -725 762 -790 
Q 1000 -856 1269 -856 
Q 1816 -856 2167 -557 
Q 2519 -259 2631 300 
L 2681 563 
Q 2441 288 2122 144 
Q 1803 0 1434 0 
Q 903 0 598 351 
Q 294 703 294 1319 
Q 294 1803 478 2267 
Q 663 2731 997 3091 
Q 1219 3328 1514 3456 
Q 1809 3584 2131 3584 
Q 2484 3584 2746 3420 
Q 3009 3256 3138 2956 
L 3238 3500 
L 3816 3500 
z
M 2950 2216 
Q 2950 2641 2750 2872 
Q 2550 3103 2181 3103 
Q 1953 3103 1747 3012 
Q 1541 2922 1394 2759 
Q 1156 2491 1023 2127 
Q 891 1763 891 1375 
Q 891 944 1092 712 
Q 1294 481 1672 481 
Q 2219 481 2584 976 
Q 2950 1472 2950 2216 
z
" transform="scale(0.015625)"/>
     <path id="DejaVuSans-Oblique-68" d="M 3566 2113 
L 3156 0 
L 2578 0 
L 2988 2091 
Q 3016 2238 3031 2350 
Q 3047 2463 3047 2528 
Q 3047 2791 2881 2937 
Q 2716 3084 2419 3084 
Q 1956 3084 1617 2771 
Q 1278 2459 1178 1941 
L 800 0 
L 225 0 
L 1172 4863 
L 1747 4863 
L 1375 2950 
Q 1594 3244 1934 3414 
Q 2275 3584 2650 3584 
Q 3113 3584 3367 3334 
Q 3622 3084 3622 2631 
Q 3622 2519 3608 2391 
Q 3594 2263 3566 2113 
z
" transform="scale(0.015625)"/>
     <path id="DejaVuSans-Oblique-6c" d="M 1172 4863 
L 1747 4863 
L 800 0 
L 225 0 
L 1172 4863 
z
" transform="scale(0.015625)"/>
     <path id="DejaVuSans-Oblique-79" d="M 1588 -325 
Q 1188 -997 936 -1164 
Q 684 -1331 294 -1331 
L -159 -1331 
L -63 -850 
L 269 -850 
Q 509 -850 678 -719 
Q 847 -588 1056 -206 
L 1234 128 
L 459 3500 
L 1069 3500 
L 1650 819 
L 3256 3500 
L 3859 3500 
L 1588 -325 
z
" transform="scale(0.015625)"/>
     <path id="DejaVuSans-Oblique-63" d="M 3431 3366 
L 3316 2797 
Q 3109 2947 2876 3022 
Q 2644 3097 2394 3097 
Q 2119 3097 1870 3000 
Q 1622 2903 1453 2725 
Q 1184 2453 1037 2087 
Q 891 1722 891 1331 
Q 891 859 1127 628 
Q 1363 397 1844 397 
Q 2081 397 2348 469 
Q 2616 541 2906 684 
L 2797 116 
Q 2547 13 2283 -39 
Q 2019 -91 1741 -91 
Q 1044 -91 669 257 
Q 294 606 294 1253 
Q 294 1797 489 2255 
Q 684 2713 1069 3078 
Q 1331 3328 1684 3456 
Q 2038 3584 2456 3584 
Q 2700 3584 2940 3529 
Q 3181 3475 3431 3366 
z
" transform="scale(0.015625)"/>
     <path id="DejaVuSans-Oblique-6f" d="M 1625 -91 
Q 1009 -91 651 289 
Q 294 669 294 1325 
Q 294 1706 417 2101 
Q 541 2497 738 2766 
Q 1047 3184 1428 3384 
Q 1809 3584 2291 3584 
Q 2888 3584 3255 3212 
Q 3622 2841 3622 2241 
Q 3622 1825 3500 1412 
Q 3378 1000 3181 728 
Q 2875 309 2494 109 
Q 2113 -91 1625 -91 
z
M 891 1344 
Q 891 869 1089 633 
Q 1288 397 1691 397 
Q 2269 397 2648 901 
Q 3028 1406 3028 2181 
Q 3028 2634 2825 2865 
Q 2622 3097 2228 3097 
Q 1903 3097 1650 2945 
Q 1397 2794 1197 2484 
Q 1050 2253 970 1956 
Q 891 1659 891 1344 
z
" transform="scale(0.015625)"/>
     <path id="DejaVuSans-Oblique-6e" d="M 3566 2113 
L 3156 0 
L 2578 0 
L 2988 2091 
Q 3016 2238 3031 2350 
Q 3047 2463 3047 2528 
Q 3047 2791 2881 2937 
Q 2716 3084 2419 3084 
Q 1956 3084 1622 2776 
Q 1288 2469 1184 1941 
L 800 0 
L 225 0 
L 903 3500 
L 1478 3500 
L 1363 2950 
Q 1603 3253 1940 3418 
Q 2278 3584 2650 3584 
Q 3113 3584 3367 3334 
Q 3622 3084 3622 2631 
Q 3622 2519 3608 2391 
Q 3594 2263 3566 2113 
z
" transform="scale(0.015625)"/>
     <path id="DejaVuSans-Oblique-65" d="M 3078 2063 
Q 3088 2113 3092 2166 
Q 3097 2219 3097 2272 
Q 3097 2653 2873 2875 
Q 2650 3097 2266 3097 
Q 1838 3097 1509 2826 
Q 1181 2556 1013 2059 
L 3078 2063 
z
M 3578 1613 
L 903 1613 
Q 884 1494 878 1425 
Q 872 1356 872 1306 
Q 872 872 1139 634 
Q 1406 397 1894 397 
Q 2269 397 2603 481 
Q 2938 566 3225 728 
L 3116 159 
Q 2806 34 2476 -28 
Q 2147 -91 1806 -91 
Q 1078 -91 686 257 
Q 294 606 294 1247 
Q 294 1794 489 2264 
Q 684 2734 1063 3103 
Q 1306 3334 1642 3459 
Q 1978 3584 2356 3584 
Q 2950 3584 3301 3228 
Q 3653 2872 3653 2272 
Q 3653 2128 3634 1964 
Q 3616 1800 3578 1613 
z
" transform="scale(0.015625)"/>
     <path id="DejaVuSans-Oblique-70" d="M 3175 2156 
Q 3175 2616 2975 2859 
Q 2775 3103 2400 3103 
Q 2144 3103 1911 2972 
Q 1678 2841 1497 2591 
Q 1319 2344 1212 1994 
Q 1106 1644 1106 1300 
Q 1106 863 1306 627 
Q 1506 391 1875 391 
Q 2147 391 2380 519 
Q 2613 647 2778 891 
Q 2956 1147 3065 1494 
Q 3175 1841 3175 2156 
z
M 1394 2969 
Q 1625 3272 1939 3428 
Q 2253 3584 2638 3584 
Q 3175 3584 3472 3232 
Q 3769 2881 3769 2247 
Q 3769 1728 3584 1258 
Q 3400 788 3053 416 
Q 2822 169 2531 39 
Q 2241 -91 1919 -91 
Q 1547 -91 1294 64 
Q 1041 219 916 525 
L 556 -1331 
L -19 -1331 
L 922 3500 
L 1497 3500 
L 1394 2969 
z
" transform="scale(0.015625)"/>
     <path id="DejaVuSans-Oblique-74" d="M 2706 3500 
L 2619 3053 
L 1472 3053 
L 1100 1153 
Q 1081 1047 1072 975 
Q 1063 903 1063 863 
Q 1063 663 1183 572 
Q 1303 481 1569 481 
L 2150 481 
L 2053 0 
L 1503 0 
Q 991 0 739 200 
Q 488 400 488 806 
Q 488 878 497 964 
Q 506 1050 525 1153 
L 897 3053 
L 409 3053 
L 500 3500 
L 978 3500 
L 1172 4494 
L 1747 4494 
L 1556 3500 
L 2706 3500 
z
" transform="scale(0.015625)"/>
     <path id="DejaVuSans-Oblique-75" d="M 428 1388 
L 838 3500 
L 1416 3500 
L 1006 1409 
Q 975 1256 961 1147 
Q 947 1038 947 966 
Q 947 700 1109 554 
Q 1272 409 1569 409 
Q 2031 409 2368 721 
Q 2706 1034 2809 1563 
L 3194 3500 
L 3769 3500 
L 3091 0 
L 2516 0 
L 2631 550 
Q 2388 244 2052 76 
Q 1716 -91 1338 -91 
Q 878 -91 622 161 
Q 366 413 366 863 
Q 366 956 381 1097 
Q 397 1238 428 1388 
z
" transform="scale(0.015625)"/>
     <path id="DejaVuSans-Oblique-61" d="M 3438 1997 
L 3047 0 
L 2472 0 
L 2578 531 
Q 2325 219 2001 64 
Q 1678 -91 1281 -91 
Q 834 -91 548 182 
Q 263 456 263 884 
Q 263 1497 752 1853 
Q 1241 2209 2100 2209 
L 2900 2209 
L 2931 2363 
Q 2938 2388 2941 2417 
Q 2944 2447 2944 2509 
Q 2944 2788 2717 2942 
Q 2491 3097 2081 3097 
Q 1800 3097 1504 3025 
Q 1209 2953 897 2809 
L 997 3341 
Q 1322 3463 1633 3523 
Q 1944 3584 2234 3584 
Q 2853 3584 3176 3315 
Q 3500 3047 3500 2534 
Q 3500 2431 3484 2292 
Q 3469 2153 3438 1997 
z
M 2816 1759 
L 2241 1759 
Q 1534 1759 1195 1570 
Q 856 1381 856 984 
Q 856 709 1029 553 
Q 1203 397 1509 397 
Q 1978 397 2328 733 
Q 2678 1069 2791 1631 
L 2816 1759 
z
" transform="scale(0.015625)"/>
     <path id="DejaVuSans-Oblique-2e" d="M 525 794 
L 1184 794 
L 1031 0 
L 372 0 
L 525 794 
z
" transform="scale(0.015625)"/>
     <path id="DejaVuSans-Oblique-42" d="M 1081 4666 
L 2694 4666 
Q 3350 4666 3675 4422 
Q 4000 4178 4000 3688 
Q 4000 3238 3720 2911 
Q 3441 2584 2988 2516 
Q 3375 2428 3569 2181 
Q 3763 1934 3763 1522 
Q 3763 819 3242 409 
Q 2722 0 1819 0 
L 172 0 
L 1081 4666 
z
M 1234 2228 
L 903 519 
L 1919 519 
Q 2491 519 2800 781 
Q 3109 1044 3109 1522 
Q 3109 1891 2904 2059 
Q 2700 2228 2247 2228 
L 1234 2228 
z
M 1606 4147 
L 1331 2741 
L 2272 2741 
Q 2775 2741 3058 2959 
Q 3341 3178 3341 3566 
Q 3341 3869 3150 4008 
Q 2959 4147 2541 4147 
L 1606 4147 
z
" transform="scale(0.015625)"/>
     <path id="DejaVuSans-Oblique-73" d="M 3200 3397 
L 3091 2853 
Q 2863 2978 2609 3040 
Q 2356 3103 2088 3103 
Q 1634 3103 1373 2948 
Q 1113 2794 1113 2528 
Q 1113 2219 1719 2053 
Q 1766 2041 1788 2034 
L 1972 1978 
Q 2547 1819 2739 1644 
Q 2931 1469 2931 1166 
Q 2931 609 2489 259 
Q 2047 -91 1331 -91 
Q 1053 -91 747 -37 
Q 441 16 72 128 
L 184 722 
Q 500 559 806 475 
Q 1113 391 1394 391 
Q 1816 391 2080 572 
Q 2344 753 2344 1031 
Q 2344 1331 1650 1516 
L 1591 1531 
L 1394 1581 
Q 956 1697 753 1886 
Q 550 2075 550 2369 
Q 550 2928 970 3256 
Q 1391 3584 2113 3584 
Q 2397 3584 2667 3537 
Q 2938 3491 3200 3397 
z
" transform="scale(0.015625)"/>
     <path id="DejaVuSans-Oblique-64" d="M 2675 525 
Q 2444 222 2128 65 
Q 1813 -91 1428 -91 
Q 903 -91 598 267 
Q 294 625 294 1247 
Q 294 1766 478 2236 
Q 663 2706 1013 3078 
Q 1244 3325 1534 3454 
Q 1825 3584 2144 3584 
Q 2481 3584 2739 3421 
Q 2997 3259 3138 2956 
L 3513 4863 
L 4091 4863 
L 3144 0 
L 2566 0 
L 2675 525 
z
M 891 1350 
Q 891 897 1095 644 
Q 1300 391 1663 391 
Q 1931 391 2161 520 
Q 2391 650 2566 903 
Q 2750 1166 2856 1509 
Q 2963 1853 2963 2188 
Q 2963 2622 2758 2865 
Q 2553 3109 2194 3109 
Q 1922 3109 1687 2981 
Q 1453 2853 1288 2613 
Q 1106 2353 998 2009 
Q 891 1666 891 1350 
z
" transform="scale(0.015625)"/>
     <path id="DejaVuSans-Oblique-72" d="M 2853 2969 
Q 2766 3016 2653 3041 
Q 2541 3066 2413 3066 
Q 1953 3066 1609 2717 
Q 1266 2369 1153 1784 
L 800 0 
L 225 0 
L 909 3500 
L 1484 3500 
L 1375 2956 
Q 1603 3259 1920 3421 
Q 2238 3584 2597 3584 
Q 2691 3584 2781 3573 
Q 2872 3563 2963 3538 
L 2853 2969 
z
" transform="scale(0.015625)"/>
     <path id="DejaVuSans-Oblique-6d" d="M 5747 2113 
L 5338 0 
L 4763 0 
L 5166 2094 
Q 5191 2228 5203 2325 
Q 5216 2422 5216 2491 
Q 5216 2772 5059 2928 
Q 4903 3084 4622 3084 
Q 4203 3084 3875 2770 
Q 3547 2456 3450 1953 
L 3066 0 
L 2491 0 
L 2900 2094 
Q 2925 2209 2937 2307 
Q 2950 2406 2950 2484 
Q 2950 2769 2794 2926 
Q 2638 3084 2363 3084 
Q 1938 3084 1609 2770 
Q 1281 2456 1184 1953 
L 800 0 
L 225 0 
L 909 3500 
L 1484 3500 
L 1375 2956 
Q 1609 3263 1923 3423 
Q 2238 3584 2597 3584 
Q 2978 3584 3223 3384 
Q 3469 3184 3519 2828 
Q 3781 3197 4126 3390 
Q 4472 3584 4856 3584 
Q 5306 3584 5551 3325 
Q 5797 3066 5797 2591 
Q 5797 2488 5784 2364 
Q 5772 2241 5747 2113 
z
" transform="scale(0.015625)"/>
     <path id="DejaVuSans-Oblique-62" d="M 3169 2138 
Q 3169 2591 2961 2847 
Q 2753 3103 2388 3103 
Q 2122 3103 1889 2973 
Q 1656 2844 1484 2597 
Q 1303 2338 1198 1995 
Q 1094 1653 1094 1313 
Q 1094 881 1298 636 
Q 1503 391 1863 391 
Q 2134 391 2365 517 
Q 2597 644 2772 891 
Q 2950 1147 3059 1487 
Q 3169 1828 3169 2138 
z
M 1381 2969 
Q 1594 3256 1914 3420 
Q 2234 3584 2584 3584 
Q 3122 3584 3439 3221 
Q 3756 2859 3756 2241 
Q 3756 1734 3570 1259 
Q 3384 784 3041 416 
Q 2816 172 2522 40 
Q 2228 -91 1906 -91 
Q 1566 -91 1316 65 
Q 1066 222 909 531 
L 806 0 
L 231 0 
L 1178 4863 
L 1753 4863 
L 1381 2969 
z
" transform="scale(0.015625)"/>
     <path id="DejaVuSans-Oblique-6a" d="M 928 3500 
L 1503 3500 
L 813 -63 
L 809 -78 
Q 694 -675 544 -897 
Q 403 -1106 132 -1218 
Q -138 -1331 -506 -1331 
L -722 -1331 
L -628 -844 
L -481 -844 
Q -144 -844 -1 -703 
Q 141 -563 238 -63 
L 928 3500 
z
M 1197 4863 
L 1772 4863 
L 1631 4134 
L 1056 4134 
L 1197 4863 
z
" transform="scale(0.015625)"/>
     <path id="DejaVuSans-Oblique-2d" d="M 391 2009 
L 2075 2009 
L 1978 1497 
L 288 1497 
L 391 2009 
z
" transform="scale(0.015625)"/>
     <path id="DejaVuSans-Oblique-76" d="M 459 3500 
L 1069 3500 
L 1581 525 
L 3256 3500 
L 3866 3500 
L 1875 0 
L 1100 0 
L 459 3500 
z
" transform="scale(0.015625)"/>
     <path id="DejaVuSans-Oblique-66" d="M 3059 4863 
L 2969 4384 
L 2419 4384 
Q 2106 4384 1964 4261 
Q 1822 4138 1753 3809 
L 1691 3500 
L 2638 3500 
L 2553 3053 
L 1606 3053 
L 1013 0 
L 434 0 
L 1031 3053 
L 481 3053 
L 563 3500 
L 1113 3500 
L 1159 3744 
Q 1278 4363 1576 4613 
Q 1875 4863 2516 4863 
L 3059 4863 
z
" transform="scale(0.015625)"/>
     <path id="DejaVuSans-Oblique-54" d="M 378 4666 
L 4325 4666 
L 4225 4134 
L 2559 4134 
L 1759 0 
L 1125 0 
L 1925 4134 
L 275 4134 
L 378 4666 
z
" transform="scale(0.015625)"/>
     <path id="DejaVuSans-Oblique-2b" d="M 2944 4013 
L 2944 2272 
L 4684 2272 
L 4684 1741 
L 2944 1741 
L 2944 0 
L 2419 0 
L 2419 1741 
L 678 1741 
L 678 2272 
L 2419 2272 
L 2419 4013 
L 2944 4013 
z
" transform="scale(0.015625)"/>
     <path id="DejaVuSans-Oblique-56" d="M 1319 0 
L 500 4666 
L 1119 4666 
L 1797 653 
L 4063 4666 
L 4750 4666 
L 2053 0 
L 1319 0 
z
" transform="scale(0.015625)"/>
    </defs>
    <use xlink:href="#DejaVuSans-Oblique-44"/>
    <use xlink:href="#DejaVuSans-Oblique-49" transform="translate(77.001953 0)"/>
    <use xlink:href="#DejaVuSans-Oblique-53" transform="translate(106.494141 0)"/>
    <use xlink:href="#DejaVuSans-Oblique-43" transform="translate(169.970703 0)"/>
    <use xlink:href="#DejaVuSans-Oblique-4c" transform="translate(239.794922 0)"/>
    <use xlink:href="#DejaVuSans-Oblique-41" transform="translate(295.507812 0)"/>
    <use xlink:href="#DejaVuSans-Oblique-49" transform="translate(363.916016 0)"/>
    <use xlink:href="#DejaVuSans-Oblique-4d" transform="translate(393.408203 0)"/>
    <use xlink:href="#DejaVuSans-Oblique-45" transform="translate(479.6875 0)"/>
    <use xlink:href="#DejaVuSans-Oblique-52" transform="translate(542.871094 0)"/>
    <use xlink:href="#DejaVuSans-Oblique-3a" transform="translate(612.353516 0)"/>
    <use xlink:href="#DejaVuSans-Oblique-20" transform="translate(646.044922 0)"/>
    <use xlink:href="#DejaVuSans-Oblique-48" transform="translate(677.832031 0)"/>
    <use xlink:href="#DejaVuSans-Oblique-69" transform="translate(753.027344 0)"/>
    <use xlink:href="#DejaVuSans-Oblique-67" transform="translate(780.810547 0)"/>
    <use xlink:href="#DejaVuSans-Oblique-68" transform="translate(844.287109 0)"/>
    <use xlink:href="#DejaVuSans-Oblique-6c" transform="translate(907.666016 0)"/>
    <use xlink:href="#DejaVuSans-Oblique-79" transform="translate(935.449219 0)"/>
    <use xlink:href="#DejaVuSans-Oblique-20" transform="translate(994.628906 0)"/>
    <use xlink:href="#DejaVuSans-Oblique-63" transform="translate(1026.416016 0)"/>
    <use xlink:href="#DejaVuSans-Oblique-6f" transform="translate(1081.396484 0)"/>
    <use xlink:href="#DejaVuSans-Oblique-6e" transform="translate(1142.578125 0)"/>
    <use xlink:href="#DejaVuSans-Oblique-63" transform="translate(1205.957031 0)"/>
    <use xlink:href="#DejaVuSans-Oblique-65" transform="translate(1260.9375 0)"/>
    <use xlink:href="#DejaVuSans-Oblique-70" transform="translate(1322.460938 0)"/>
    <use xlink:href="#DejaVuSans-Oblique-74" transform="translate(1385.9375 0)"/>
    <use xlink:href="#DejaVuSans-Oblique-75" transform="translate(1425.146484 0)"/>
    <use xlink:href="#DejaVuSans-Oblique-61" transform="translate(1488.525391 0)"/>
    <use xlink:href="#DejaVuSans-Oblique-6c" transform="translate(1549.804688 0)"/>
    <use xlink:href="#DejaVuSans-Oblique-2e" transform="translate(1577.587891 0)"/>
    <use xlink:href="#DejaVuSans-Oblique-20" transform="translate(1609.375 0)"/>
    <use xlink:href="#DejaVuSans-Oblique-42" transform="translate(1641.162109 0)"/>
    <use xlink:href="#DejaVuSans-Oblique-61" transform="translate(1709.765625 0)"/>
    <use xlink:href="#DejaVuSans-Oblique-73" transform="translate(1771.044922 0)"/>
    <use xlink:href="#DejaVuSans-Oblique-65" transform="translate(1823.144531 0)"/>
    <use xlink:href="#DejaVuSans-Oblique-64" transform="translate(1884.667969 0)"/>
    <use xlink:href="#DejaVuSans-Oblique-20" transform="translate(1948.144531 0)"/>
    <use xlink:href="#DejaVuSans-Oblique-6f" transform="translate(1979.931641 0)"/>
    <use xlink:href="#DejaVuSans-Oblique-6e" transform="translate(2041.113281 0)"/>
    <use xlink:href="#DejaVuSans-Oblique-20" transform="translate(2104.492188 0)"/>
    <use xlink:href="#DejaVuSans-Oblique-6c" transform="translate(2136.279297 0)"/>
    <use xlink:href="#DejaVuSans-Oblique-69" transform="translate(2164.0625 0)"/>
    <use xlink:href="#DejaVuSans-Oblique-74" transform="translate(2191.845703 0)"/>
    <use xlink:href="#DejaVuSans-Oblique-65" transform="translate(2231.054688 0)"/>
    <use xlink:href="#DejaVuSans-Oblique-72" transform="translate(2292.578125 0)"/>
    <use xlink:href="#DejaVuSans-Oblique-61" transform="translate(2333.691406 0)"/>
    <use xlink:href="#DejaVuSans-Oblique-74" transform="translate(2394.970703 0)"/>
    <use xlink:href="#DejaVuSans-Oblique-75" transform="translate(2434.179688 0)"/>
    <use xlink:href="#DejaVuSans-Oblique-72" transform="translate(2497.558594 0)"/>
    <use xlink:href="#DejaVuSans-Oblique-65" transform="translate(2538.671875 0)"/>
    <use xlink:href="#DejaVuSans-Oblique-20" transform="translate(2600.195312 0)"/>
    <use xlink:href="#DejaVuSans-Oblique-73" transform="translate(2631.982422 0)"/>
    <use xlink:href="#DejaVuSans-Oblique-75" transform="translate(2684.082031 0)"/>
    <use xlink:href="#DejaVuSans-Oblique-67" transform="translate(2747.460938 0)"/>
    <use xlink:href="#DejaVuSans-Oblique-67" transform="translate(2810.9375 0)"/>
    <use xlink:href="#DejaVuSans-Oblique-65" transform="translate(2874.414062 0)"/>
    <use xlink:href="#DejaVuSans-Oblique-73" transform="translate(2935.9375 0)"/>
    <use xlink:href="#DejaVuSans-Oblique-74" transform="translate(2988.037109 0)"/>
    <use xlink:href="#DejaVuSans-Oblique-69" transform="translate(3027.246094 0)"/>
    <use xlink:href="#DejaVuSans-Oblique-6e" transform="translate(3055.029297 0)"/>
    <use xlink:href="#DejaVuSans-Oblique-67" transform="translate(3118.408203 0)"/>
    <use xlink:href="#DejaVuSans-Oblique-20" transform="translate(3181.884766 0)"/>
    <use xlink:href="#DejaVuSans-Oblique-74" transform="translate(3213.671875 0)"/>
    <use xlink:href="#DejaVuSans-Oblique-68" transform="translate(3252.880859 0)"/>
    <use xlink:href="#DejaVuSans-Oblique-61" transform="translate(3316.259766 0)"/>
    <use xlink:href="#DejaVuSans-Oblique-74" transform="translate(3377.539062 0)"/>
    <use xlink:href="#DejaVuSans-Oblique-20" transform="translate(3416.748047 0)"/>
    <use xlink:href="#DejaVuSans-Oblique-63" transform="translate(3448.535156 0)"/>
    <use xlink:href="#DejaVuSans-Oblique-6f" transform="translate(3503.515625 0)"/>
    <use xlink:href="#DejaVuSans-Oblique-6e" transform="translate(3564.697266 0)"/>
    <use xlink:href="#DejaVuSans-Oblique-74" transform="translate(3628.076172 0)"/>
    <use xlink:href="#DejaVuSans-Oblique-72" transform="translate(3667.285156 0)"/>
    <use xlink:href="#DejaVuSans-Oblique-6f" transform="translate(3708.398438 0)"/>
    <use xlink:href="#DejaVuSans-Oblique-6c" transform="translate(3769.580078 0)"/>
    <use xlink:href="#DejaVuSans-Oblique-6c" transform="translate(3797.363281 0)"/>
    <use xlink:href="#DejaVuSans-Oblique-65" transform="translate(3825.146484 0)"/>
    <use xlink:href="#DejaVuSans-Oblique-64" transform="translate(3886.669922 0)"/>
    <use xlink:href="#DejaVuSans-Oblique-20" transform="translate(3950.146484 0)"/>
    <use xlink:href="#DejaVuSans-Oblique-6d" transform="translate(3981.933594 0)"/>
    <use xlink:href="#DejaVuSans-Oblique-69" transform="translate(4079.345703 0)"/>
    <use xlink:href="#DejaVuSans-Oblique-63" transform="translate(4107.128906 0)"/>
    <use xlink:href="#DejaVuSans-Oblique-72" transform="translate(4162.109375 0)"/>
    <use xlink:href="#DejaVuSans-Oblique-6f" transform="translate(4203.222656 0)"/>
    <use xlink:href="#DejaVuSans-Oblique-62" transform="translate(4264.404297 0)"/>
    <use xlink:href="#DejaVuSans-Oblique-75" transform="translate(4327.880859 0)"/>
    <use xlink:href="#DejaVuSans-Oblique-62" transform="translate(4391.259766 0)"/>
    <use xlink:href="#DejaVuSans-Oblique-62" transform="translate(4454.736328 0)"/>
    <use xlink:href="#DejaVuSans-Oblique-6c" transform="translate(4518.212891 0)"/>
    <use xlink:href="#DejaVuSans-Oblique-65" transform="translate(4545.996094 0)"/>
    <use xlink:href="#DejaVuSans-Oblique-20" transform="translate(4607.519531 0)"/>
    <use xlink:href="#DejaVuSans-Oblique-69" transform="translate(4639.306641 0)"/>
    <use xlink:href="#DejaVuSans-Oblique-6e" transform="translate(4667.089844 0)"/>
    <use xlink:href="#DejaVuSans-Oblique-6a" transform="translate(4730.46875 0)"/>
    <use xlink:href="#DejaVuSans-Oblique-65" transform="translate(4758.251953 0)"/>
    <use xlink:href="#DejaVuSans-Oblique-63" transform="translate(4819.775391 0)"/>
    <use xlink:href="#DejaVuSans-Oblique-74" transform="translate(4874.755859 0)"/>
    <use xlink:href="#DejaVuSans-Oblique-69" transform="translate(4913.964844 0)"/>
    <use xlink:href="#DejaVuSans-Oblique-6f" transform="translate(4941.748047 0)"/>
    <use xlink:href="#DejaVuSans-Oblique-6e" transform="translate(5002.929688 0)"/>
    <use xlink:href="#DejaVuSans-Oblique-20" transform="translate(5066.308594 0)"/>
    <use xlink:href="#DejaVuSans-Oblique-61" transform="translate(5098.095703 0)"/>
    <use xlink:href="#DejaVuSans-Oblique-6e" transform="translate(5159.375 0)"/>
    <use xlink:href="#DejaVuSans-Oblique-64" transform="translate(5222.753906 0)"/>
    <use xlink:href="#DejaVuSans-Oblique-20" transform="translate(5286.230469 0)"/>
    <use xlink:href="#DejaVuSans-Oblique-72" transform="translate(5318.017578 0)"/>
    <use xlink:href="#DejaVuSans-Oblique-65" transform="translate(5359.130859 0)"/>
    <use xlink:href="#DejaVuSans-Oblique-64" transform="translate(5420.654297 0)"/>
    <use xlink:href="#DejaVuSans-Oblique-75" transform="translate(5484.130859 0)"/>
    <use xlink:href="#DejaVuSans-Oblique-63" transform="translate(5547.509766 0)"/>
    <use xlink:href="#DejaVuSans-Oblique-65" transform="translate(5602.490234 0)"/>
    <use xlink:href="#DejaVuSans-Oblique-64" transform="translate(5664.013672 0)"/>
    <use xlink:href="#DejaVuSans-Oblique-20" transform="translate(5727.490234 0)"/>
    <use xlink:href="#DejaVuSans-Oblique-6c" transform="translate(5759.277344 0)"/>
    <use xlink:href="#DejaVuSans-Oblique-61" transform="translate(5787.060547 0)"/>
    <use xlink:href="#DejaVuSans-Oblique-72" transform="translate(5848.339844 0)"/>
    <use xlink:href="#DejaVuSans-Oblique-67" transform="translate(5889.453125 0)"/>
    <use xlink:href="#DejaVuSans-Oblique-65" transform="translate(5952.929688 0)"/>
    <use xlink:href="#DejaVuSans-Oblique-2d" transform="translate(6014.453125 0)"/>
    <use xlink:href="#DejaVuSans-Oblique-73" transform="translate(6050.537109 0)"/>
    <use xlink:href="#DejaVuSans-Oblique-63" transform="translate(6102.636719 0)"/>
    <use xlink:href="#DejaVuSans-Oblique-61" transform="translate(6157.617188 0)"/>
    <use xlink:href="#DejaVuSans-Oblique-6c" transform="translate(6218.896484 0)"/>
    <use xlink:href="#DejaVuSans-Oblique-65" transform="translate(6246.679688 0)"/>
    <use xlink:href="#DejaVuSans-Oblique-20" transform="translate(6308.203125 0)"/>
    <use xlink:href="#DejaVuSans-Oblique-74" transform="translate(6339.990234 0)"/>
    <use xlink:href="#DejaVuSans-Oblique-75" transform="translate(6379.199219 0)"/>
    <use xlink:href="#DejaVuSans-Oblique-72" transform="translate(6442.578125 0)"/>
    <use xlink:href="#DejaVuSans-Oblique-62" transform="translate(6483.691406 0)"/>
    <use xlink:href="#DejaVuSans-Oblique-75" transform="translate(6547.167969 0)"/>
    <use xlink:href="#DejaVuSans-Oblique-6c" transform="translate(6610.546875 0)"/>
    <use xlink:href="#DejaVuSans-Oblique-65" transform="translate(6638.330078 0)"/>
    <use xlink:href="#DejaVuSans-Oblique-6e" transform="translate(6699.853516 0)"/>
    <use xlink:href="#DejaVuSans-Oblique-63" transform="translate(6763.232422 0)"/>
    <use xlink:href="#DejaVuSans-Oblique-65" transform="translate(6818.212891 0)"/>
    <use xlink:href="#DejaVuSans-Oblique-20" transform="translate(6879.736328 0)"/>
    <use xlink:href="#DejaVuSans-Oblique-63" transform="translate(6911.523438 0)"/>
    <use xlink:href="#DejaVuSans-Oblique-61" transform="translate(6966.503906 0)"/>
    <use xlink:href="#DejaVuSans-Oblique-6e" transform="translate(7027.783203 0)"/>
    <use xlink:href="#DejaVuSans-Oblique-20" transform="translate(7091.162109 0)"/>
    <use xlink:href="#DejaVuSans-Oblique-69" transform="translate(7122.949219 0)"/>
    <use xlink:href="#DejaVuSans-Oblique-6d" transform="translate(7150.732422 0)"/>
    <use xlink:href="#DejaVuSans-Oblique-70" transform="translate(7248.144531 0)"/>
    <use xlink:href="#DejaVuSans-Oblique-72" transform="translate(7311.621094 0)"/>
    <use xlink:href="#DejaVuSans-Oblique-6f" transform="translate(7352.734375 0)"/>
    <use xlink:href="#DejaVuSans-Oblique-76" transform="translate(7413.916016 0)"/>
    <use xlink:href="#DejaVuSans-Oblique-65" transform="translate(7473.095703 0)"/>
    <use xlink:href="#DejaVuSans-Oblique-20" transform="translate(7534.619141 0)"/>
    <use xlink:href="#DejaVuSans-Oblique-72" transform="translate(7566.40625 0)"/>
    <use xlink:href="#DejaVuSans-Oblique-65" transform="translate(7607.519531 0)"/>
    <use xlink:href="#DejaVuSans-Oblique-70" transform="translate(7669.042969 0)"/>
    <use xlink:href="#DejaVuSans-Oblique-72" transform="translate(7732.519531 0)"/>
    <use xlink:href="#DejaVuSans-Oblique-6f" transform="translate(7773.632812 0)"/>
    <use xlink:href="#DejaVuSans-Oblique-64" transform="translate(7834.814453 0)"/>
    <use xlink:href="#DejaVuSans-Oblique-75" transform="translate(7898.291016 0)"/>
    <use xlink:href="#DejaVuSans-Oblique-63" transform="translate(7961.669922 0)"/>
    <use xlink:href="#DejaVuSans-Oblique-69" transform="translate(8016.650391 0)"/>
    <use xlink:href="#DejaVuSans-Oblique-62" transform="translate(8044.433594 0)"/>
    <use xlink:href="#DejaVuSans-Oblique-69" transform="translate(8107.910156 0)"/>
    <use xlink:href="#DejaVuSans-Oblique-6c" transform="translate(8135.693359 0)"/>
    <use xlink:href="#DejaVuSans-Oblique-69" transform="translate(8163.476562 0)"/>
    <use xlink:href="#DejaVuSans-Oblique-74" transform="translate(8191.259766 0)"/>
    <use xlink:href="#DejaVuSans-Oblique-79" transform="translate(8230.46875 0)"/>
    <use xlink:href="#DejaVuSans-Oblique-20" transform="translate(8289.648438 0)"/>
    <use xlink:href="#DejaVuSans-Oblique-61" transform="translate(8321.435547 0)"/>
    <use xlink:href="#DejaVuSans-Oblique-6e" transform="translate(8382.714844 0)"/>
    <use xlink:href="#DejaVuSans-Oblique-64" transform="translate(8446.09375 0)"/>
    <use xlink:href="#DejaVuSans-Oblique-20" transform="translate(8509.570312 0)"/>
    <use xlink:href="#DejaVuSans-Oblique-69" transform="translate(8541.357422 0)"/>
    <use xlink:href="#DejaVuSans-Oblique-6e" transform="translate(8569.140625 0)"/>
    <use xlink:href="#DejaVuSans-Oblique-74" transform="translate(8632.519531 0)"/>
    <use xlink:href="#DejaVuSans-Oblique-65" transform="translate(8671.728516 0)"/>
    <use xlink:href="#DejaVuSans-Oblique-6e" transform="translate(8733.251953 0)"/>
    <use xlink:href="#DejaVuSans-Oblique-73" transform="translate(8796.630859 0)"/>
    <use xlink:href="#DejaVuSans-Oblique-69" transform="translate(8848.730469 0)"/>
    <use xlink:href="#DejaVuSans-Oblique-74" transform="translate(8876.513672 0)"/>
    <use xlink:href="#DejaVuSans-Oblique-79" transform="translate(8915.722656 0)"/>
    <use xlink:href="#DejaVuSans-Oblique-20" transform="translate(8974.902344 0)"/>
    <use xlink:href="#DejaVuSans-Oblique-6f" transform="translate(9006.689453 0)"/>
    <use xlink:href="#DejaVuSans-Oblique-66" transform="translate(9067.871094 0)"/>
    <use xlink:href="#DejaVuSans-Oblique-20" transform="translate(9103.076172 0)"/>
    <use xlink:href="#DejaVuSans-Oblique-75" transform="translate(9134.863281 0)"/>
    <use xlink:href="#DejaVuSans-Oblique-6c" transform="translate(9198.242188 0)"/>
    <use xlink:href="#DejaVuSans-Oblique-74" transform="translate(9226.025391 0)"/>
    <use xlink:href="#DejaVuSans-Oblique-72" transform="translate(9265.234375 0)"/>
    <use xlink:href="#DejaVuSans-Oblique-61" transform="translate(9306.347656 0)"/>
    <use xlink:href="#DejaVuSans-Oblique-73" transform="translate(9367.626953 0)"/>
    <use xlink:href="#DejaVuSans-Oblique-6f" transform="translate(9419.726562 0)"/>
    <use xlink:href="#DejaVuSans-Oblique-6e" transform="translate(9480.908203 0)"/>
    <use xlink:href="#DejaVuSans-Oblique-69" transform="translate(9544.287109 0)"/>
    <use xlink:href="#DejaVuSans-Oblique-63" transform="translate(9572.070312 0)"/>
    <use xlink:href="#DejaVuSans-Oblique-20" transform="translate(9627.050781 0)"/>
    <use xlink:href="#DejaVuSans-Oblique-63" transform="translate(9658.837891 0)"/>
    <use xlink:href="#DejaVuSans-Oblique-61" transform="translate(9713.818359 0)"/>
    <use xlink:href="#DejaVuSans-Oblique-76" transform="translate(9775.097656 0)"/>
    <use xlink:href="#DejaVuSans-Oblique-69" transform="translate(9834.277344 0)"/>
    <use xlink:href="#DejaVuSans-Oblique-74" transform="translate(9862.060547 0)"/>
    <use xlink:href="#DejaVuSans-Oblique-61" transform="translate(9901.269531 0)"/>
    <use xlink:href="#DejaVuSans-Oblique-74" transform="translate(9962.548828 0)"/>
    <use xlink:href="#DejaVuSans-Oblique-69" transform="translate(10001.757812 0)"/>
    <use xlink:href="#DejaVuSans-Oblique-6f" transform="translate(10029.541016 0)"/>
    <use xlink:href="#DejaVuSans-Oblique-6e" transform="translate(10090.722656 0)"/>
    <use xlink:href="#DejaVuSans-Oblique-20" transform="translate(10154.101562 0)"/>
    <use xlink:href="#DejaVuSans-Oblique-65" transform="translate(10185.888672 0)"/>
    <use xlink:href="#DejaVuSans-Oblique-66" transform="translate(10247.412109 0)"/>
    <use xlink:href="#DejaVuSans-Oblique-66" transform="translate(10282.617188 0)"/>
    <use xlink:href="#DejaVuSans-Oblique-65" transform="translate(10317.822266 0)"/>
    <use xlink:href="#DejaVuSans-Oblique-63" transform="translate(10379.345703 0)"/>
    <use xlink:href="#DejaVuSans-Oblique-74" transform="translate(10434.326172 0)"/>
    <use xlink:href="#DejaVuSans-Oblique-73" transform="translate(10473.535156 0)"/>
    <use xlink:href="#DejaVuSans-Oblique-2e" transform="translate(10525.634766 0)"/>
    <use xlink:href="#DejaVuSans-Oblique-20" transform="translate(10557.421875 0)"/>
    <use xlink:href="#DejaVuSans-Oblique-54" transform="translate(10589.208984 0)"/>
    <use xlink:href="#DejaVuSans-Oblique-68" transform="translate(10650.292969 0)"/>
    <use xlink:href="#DejaVuSans-Oblique-69" transform="translate(10713.671875 0)"/>
    <use xlink:href="#DejaVuSans-Oblique-73" transform="translate(10741.455078 0)"/>
    <use xlink:href="#DejaVuSans-Oblique-20" transform="translate(10793.554688 0)"/>
    <use xlink:href="#DejaVuSans-Oblique-69" transform="translate(10825.341797 0)"/>
    <use xlink:href="#DejaVuSans-Oblique-73" transform="translate(10853.125 0)"/>
    <use xlink:href="#DejaVuSans-Oblique-20" transform="translate(10905.224609 0)"/>
    <use xlink:href="#DejaVuSans-Oblique-6f" transform="translate(10937.011719 0)"/>
    <use xlink:href="#DejaVuSans-Oblique-6e" transform="translate(10998.193359 0)"/>
    <use xlink:href="#DejaVuSans-Oblique-65" transform="translate(11061.572266 0)"/>
    <use xlink:href="#DejaVuSans-Oblique-20" transform="translate(11123.095703 0)"/>
    <use xlink:href="#DejaVuSans-Oblique-6f" transform="translate(11154.882812 0)"/>
    <use xlink:href="#DejaVuSans-Oblique-66" transform="translate(11216.064453 0)"/>
    <use xlink:href="#DejaVuSans-Oblique-20" transform="translate(11251.269531 0)"/>
    <use xlink:href="#DejaVuSans-Oblique-74" transform="translate(11283.056641 0)"/>
    <use xlink:href="#DejaVuSans-Oblique-68" transform="translate(11322.265625 0)"/>
    <use xlink:href="#DejaVuSans-Oblique-65" transform="translate(11385.644531 0)"/>
    <use xlink:href="#DejaVuSans-Oblique-20" transform="translate(11447.167969 0)"/>
    <use xlink:href="#DejaVuSans-Oblique-6d" transform="translate(11478.955078 0)"/>
    <use xlink:href="#DejaVuSans-Oblique-61" transform="translate(11576.367188 0)"/>
    <use xlink:href="#DejaVuSans-Oblique-69" transform="translate(11637.646484 0)"/>
    <use xlink:href="#DejaVuSans-Oblique-6e" transform="translate(11665.429688 0)"/>
    <use xlink:href="#DejaVuSans-Oblique-20" transform="translate(11728.808594 0)"/>
    <use xlink:href="#DejaVuSans-Oblique-6d" transform="translate(11760.595703 0)"/>
    <use xlink:href="#DejaVuSans-Oblique-6f" transform="translate(11858.007812 0)"/>
    <use xlink:href="#DejaVuSans-Oblique-74" transform="translate(11919.189453 0)"/>
    <use xlink:href="#DejaVuSans-Oblique-69" transform="translate(11958.398438 0)"/>
    <use xlink:href="#DejaVuSans-Oblique-76" transform="translate(11986.181641 0)"/>
    <use xlink:href="#DejaVuSans-Oblique-61" transform="translate(12045.361328 0)"/>
    <use xlink:href="#DejaVuSans-Oblique-74" transform="translate(12106.640625 0)"/>
    <use xlink:href="#DejaVuSans-Oblique-69" transform="translate(12145.849609 0)"/>
    <use xlink:href="#DejaVuSans-Oblique-6f" transform="translate(12173.632812 0)"/>
    <use xlink:href="#DejaVuSans-Oblique-6e" transform="translate(12234.814453 0)"/>
    <use xlink:href="#DejaVuSans-Oblique-73" transform="translate(12298.193359 0)"/>
    <use xlink:href="#DejaVuSans-Oblique-20" transform="translate(12350.292969 0)"/>
    <use xlink:href="#DejaVuSans-Oblique-66" transform="translate(12382.080078 0)"/>
    <use xlink:href="#DejaVuSans-Oblique-6f" transform="translate(12417.285156 0)"/>
    <use xlink:href="#DejaVuSans-Oblique-72" transform="translate(12478.466797 0)"/>
    <use xlink:href="#DejaVuSans-Oblique-20" transform="translate(12519.580078 0)"/>
    <use xlink:href="#DejaVuSans-Oblique-74" transform="translate(12551.367188 0)"/>
    <use xlink:href="#DejaVuSans-Oblique-68" transform="translate(12590.576172 0)"/>
    <use xlink:href="#DejaVuSans-Oblique-65" transform="translate(12653.955078 0)"/>
    <use xlink:href="#DejaVuSans-Oblique-20" transform="translate(12715.478516 0)"/>
    <use xlink:href="#DejaVuSans-Oblique-70" transform="translate(12747.265625 0)"/>
    <use xlink:href="#DejaVuSans-Oblique-6c" transform="translate(12810.742188 0)"/>
    <use xlink:href="#DejaVuSans-Oblique-61" transform="translate(12838.525391 0)"/>
    <use xlink:href="#DejaVuSans-Oblique-74" transform="translate(12899.804688 0)"/>
    <use xlink:href="#DejaVuSans-Oblique-74" transform="translate(12939.013672 0)"/>
    <use xlink:href="#DejaVuSans-Oblique-65" transform="translate(12978.222656 0)"/>
    <use xlink:href="#DejaVuSans-Oblique-72" transform="translate(13039.746094 0)"/>
    <use xlink:href="#DejaVuSans-Oblique-20" transform="translate(13080.859375 0)"/>
    <use xlink:href="#DejaVuSans-Oblique-2b" transform="translate(13112.646484 0)"/>
    <use xlink:href="#DejaVuSans-Oblique-20" transform="translate(13196.435547 0)"/>
    <use xlink:href="#DejaVuSans-Oblique-48" transform="translate(13228.222656 0)"/>
    <use xlink:href="#DejaVuSans-Oblique-56" transform="translate(13303.417969 0)"/>
    <use xlink:href="#DejaVuSans-Oblique-41" transform="translate(13365.076172 0)"/>
    <use xlink:href="#DejaVuSans-Oblique-54" transform="translate(13426.234375 0)"/>
    <use xlink:href="#DejaVuSans-Oblique-20" transform="translate(13487.318359 0)"/>
    <use xlink:href="#DejaVuSans-Oblique-64" transform="translate(13519.105469 0)"/>
    <use xlink:href="#DejaVuSans-Oblique-65" transform="translate(13582.582031 0)"/>
    <use xlink:href="#DejaVuSans-Oblique-73" transform="translate(13644.105469 0)"/>
    <use xlink:href="#DejaVuSans-Oblique-69" transform="translate(13696.205078 0)"/>
    <use xlink:href="#DejaVuSans-Oblique-67" transform="translate(13723.988281 0)"/>
    <use xlink:href="#DejaVuSans-Oblique-6e" transform="translate(13787.464844 0)"/>
    <use xlink:href="#DejaVuSans-Oblique-2e" transform="translate(13850.84375 0)"/>
   </g>
  </g>
 </g>
 <defs>
  <clipPath id="pdc62210631">
   <rect x="250.3575" y="35.7555" width="661.345" height="224.128"/>
  </clipPath>
 </defs>
</svg>
